<?xml version="1.0" encoding="UTF-8" standalone="no"?>
<svg width="230px" height="236px" viewBox="0 0 230 236" version="1.1" xmlns="http://www.w3.org/2000/svg" xmlns:xlink="http://www.w3.org/1999/xlink">
    <!-- Generator: Sketch 48.2 (47327) - http://www.bohemiancoding.com/sketch -->
    <title>Group 101</title>
    <desc>Created with Sketch.</desc>
    <defs>
        <circle id="path-1" cx="107" cy="108" r="75"></circle>
        <filter x="-44.7%" y="-37.3%" width="189.3%" height="189.3%" filterUnits="objectBoundingBox" id="filter-2">
            <feOffset dx="0" dy="11" in="SourceAlpha" result="shadowOffsetOuter1"></feOffset>
            <feGaussianBlur stdDeviation="20.5" in="shadowOffsetOuter1" result="shadowBlurOuter1"></feGaussianBlur>
            <feColorMatrix values="0 0 0 0 0.467408559   0 0 0 0 0.66607862   0 0 0 0 0.987537202  0 0 0 1 0" type="matrix" in="shadowBlurOuter1"></feColorMatrix>
        </filter>
    </defs>
    <g id="Features" stroke="none" stroke-width="1" fill="none" fill-rule="evenodd" transform="translate(-491.000000, -436.000000)">
        <g id="Header" transform="translate(-326.000000, -475.000000)">
            <g id="Group" transform="translate(599.000000, 913.000000)">
                <g id="Group-4" transform="translate(226.000000, 0.000000)">
                    <g id="Group-101">
                        <g id="Group-94">
                            <circle id="Oval" stroke="#FFFFFF" stroke-width="2.3328" opacity="0.0893342391" cx="108" cy="108" r="108"></circle>
                            <circle id="Oval-Copy-5" stroke="#FFFFFF" stroke-width="1.944" opacity="0.264492754" cx="108" cy="108" r="90"></circle>
                            <g id="Oval-Copy">
                                <use fill="black" fill-opacity="1" filter="url(#filter-2)" xlink:href="#path-1"></use>
                                <use fill="#FFFFFF" fill-rule="evenodd" xlink:href="#path-1"></use>
                            </g>
                            <g id="Suggested-Ticket-Reply-2-" transform="translate(76.000000, 77.000000)" fill-rule="nonzero">
                                <path d="M34.7476476,56.9846022 C31.6651609,58.5885564 28.2395615,59.4207393 24.7647562,59.4097519 L4.76047904,59.4097519 L8.45594525,55.7142857 C9.20731904,56.3916701 10.0001264,57.0216305 10.829769,57.6005133 C11.1822697,57.986799 11.7339251,58.1205183 12.2241775,57.9385131 C12.7144299,57.7565078 13.0451813,57.2951966 13.0602114,56.7724658 C13.0752414,56.2497351 12.7715425,55.7701816 12.2925577,55.560308 C11.1938988,54.8005761 10.1673452,53.9415354 9.22583405,52.994012 C8.84088965,52.6090676 8.48160821,52.2112917 8.13515825,51.8006843 L7.6603935,51.2232678 C7.36954662,50.855432 7.09153122,50.4833191 6.82634731,50.106929 C6.63387511,49.8246364 6.44140291,49.5295124 6.24893071,49.2343884 L5.86398631,48.6056459 C5.57313944,48.100941 5.30367836,47.5876818 5.05560308,47.0658683 L4.79897348,46.5397776 C4.65355004,46.2147134 4.51668092,45.8853721 4.38836612,45.5517536 C4.29854577,45.3079555 4.20872541,45.0769889 4.13173653,44.8331908 C3.97775877,44.3798118 3.83661249,43.9221557 3.70829769,43.4602224 C3.61847733,43.1266039 3.52865697,42.8058169 3.46449957,42.4721985 C3.40034217,42.13858 3.36184773,41.9974337 3.31052181,41.7664671 C3.20786997,41.2189906 3.12660393,40.6629598 3.0667237,40.0983747 C3.0667237,39.9315654 3.0667237,39.7647562 3.0667237,39.597947 C2.95124038,38.8793841 2.95124038,38.2249786 2.95124038,37.5962361 C2.94875008,34.1168142 3.78503115,30.6880618 5.38922156,27.6005133 C5.61539187,27.193536 5.60335678,26.6959759 5.35777436,26.3004094 C5.11219194,25.904843 4.67160126,25.6733462 4.2065293,25.695518 C3.74145733,25.7176897 3.32488746,25.9900506 3.11804962,26.4071856 C1.32121826,29.8630895 0.383715902,33.7011273 0.384944397,37.5962361 C0.384944397,38.2506416 0.384944397,38.8793841 0.474764756,39.5594525 C0.474764756,39.7562019 0.474764756,39.9572284 0.474764756,40.1625321 C0.526090676,40.6843456 0.598802395,41.201882 0.692899914,41.7151411 C0.692899914,42.0487596 0.821214713,42.3695466 0.885372113,42.7031651 C0.949529512,43.0367836 1.03934987,43.3832335 1.11633875,43.716852 C1.19332763,44.0504705 1.29597947,44.3969204 1.39863131,44.7433704 C1.50128315,45.0898204 1.52694611,45.1283148 1.59110351,45.320787 C1.81351583,45.988024 2.06586826,46.6467066 2.34816082,47.2968349 L2.54063302,47.7331052 C2.72027374,48.1180496 2.89991446,48.4901625 3.09238666,48.8622754 L3.23353293,49.118905 C3.57570573,49.760479 3.94781865,50.3892216 4.34987169,51.0051326 L4.81180496,51.685201 C5.00427716,51.9418306 5.18391788,52.2112917 5.37639008,52.4679213 C5.56886228,52.7245509 6.06928999,53.3404619 6.44140291,53.7510693 L6.58254919,53.9178785 L0.757057314,59.7818648 C0.386920511,60.1489612 0.275669132,60.7035074 0.47557192,61.1849634 C0.675474708,61.6664194 1.14679418,61.9790795 1.66809239,61.9760479 L24.7647562,61.9760479 C28.6500277,61.989185 32.4805641,61.0601699 35.9281437,59.2686056 C36.3361416,59.0577303 36.6006466,58.6452092 36.6220222,58.186435 C36.6433978,57.7276607 36.4183965,57.2923321 36.0317741,57.0444332 C35.6451518,56.7965343 35.1556455,56.7737269 34.7476476,56.9846022 Z" id="Shape" fill="#3C7EFB"></path>
                                <path d="M54.9700599,45.4619333 L55.1625321,45.2309666 C55.5988024,44.7433704 56.0094098,44.2429427 56.4456801,43.7296835 C56.6381523,43.4858854 56.817793,43.2164243 56.9974337,42.9597947 C57.1770744,42.7031651 57.4080411,42.3823781 57.6005133,42.0872541 C58.3499502,40.9463199 59.0105787,39.7494669 59.5765612,38.5072712 L59.8075278,37.9811805 C60.1154833,37.2626176 60.3934987,36.5312233 60.641574,35.7869974 C60.641574,35.5945252 60.7698888,35.402053 60.8340462,35.2095808 C60.8982036,35.0171086 61.0521814,34.465355 61.1420017,34.0804106 C61.2318221,33.6954662 61.3216424,33.3618477 61.3986313,32.9897348 C61.4756202,32.6176219 61.5397776,32.3096664 61.603935,31.9760479 C61.7065868,31.3729683 61.7964072,30.7698888 61.8605646,30.1668092 C61.8605646,29.9529512 61.8605646,29.7348161 61.8605646,29.5124038 C61.8605646,28.7938409 61.9632164,28.0624465 61.9632164,27.3310522 C61.9632152,16.4312015 55.3966176,6.60486202 45.3259718,2.43486947 C35.255326,-1.73512308 23.6643185,0.572624309 15.9587959,8.28181793 C8.25327337,15.9910115 5.95104709,27.5831169 10.1258359,37.6517754 C14.3006246,47.7204338 24.1300907,54.2823504 35.0299401,54.27716 L60.6928999,54.27716 C61.2141981,54.2801916 61.6855176,53.9675315 61.8854204,53.4860755 C62.0853232,53.0046195 61.9740718,52.4500733 61.603935,52.0829769 L54.9700599,45.4619333 Z M35.0299401,51.710864 C21.5653419,51.710864 10.6501283,40.7956504 10.6501283,27.3310522 C10.6501283,13.8664539 21.5653419,2.95124038 35.0299401,2.95124038 C48.4945384,2.95124038 59.4097519,13.8664539 59.4097519,27.3310522 C59.4097519,28.0367836 59.4097519,28.742515 59.3071001,29.4354149 C59.3071001,29.6150556 59.3071001,29.8075278 59.3071001,29.9871685 C59.2386655,30.6116339 59.1488452,31.2318221 59.037639,31.8477331 C59.037639,32.1171942 58.9221557,32.3866553 58.8708298,32.6561163 C58.8195038,32.9255774 58.6911891,33.4003422 58.6013687,33.7596236 C58.5115483,34.118905 58.3062447,34.7733105 58.1266039,35.2737382 C58.0367836,35.5431993 57.9341317,35.8126604 57.8443114,36.0821215 C57.754491,36.3515825 57.5620188,36.8135158 57.3952096,37.1599658 C57.2284003,37.5064157 57.1770744,37.6218991 57.0615911,37.8528657 C56.8049615,38.3917879 56.5269461,38.9221557 56.2275449,39.4439692 L55.7527802,40.239521 C55.5474765,40.560308 55.3550043,40.881095 55.1368691,41.1890505 C54.918734,41.497006 54.5209581,42.0487596 54.1873396,42.4721985 L53.7254063,43.0367836 C53.3019675,43.5372113 52.8785287,44.0248075 52.4422583,44.4867408 C51.4269615,45.5061006 50.3234248,46.4335868 49.144568,47.2583405 C48.733127,47.506425 48.494748,47.9635726 48.5268571,48.4429457 C48.5589662,48.9223188 48.8561831,49.3435915 49.2970343,49.5345882 C49.7378856,49.725585 50.2485001,49.6543016 50.6201882,49.3498717 C51.5173169,48.7100943 52.3743582,48.0158909 53.1864842,47.2711719 L57.6005133,51.710864 L35.0299401,51.710864 Z" id="Shape" fill="#3C7EFB"></path>
                                <path d="M40.1625321,21.5568862 L32.7459367,21.5568862 L33.7467921,16.6809239 C33.8571292,16.1259159 33.5908716,15.5641515 33.0914116,15.2981668 C32.5919516,15.0321822 31.9772174,15.1247794 31.578272,15.5260907 L21.3130881,25.7912746 C20.8155814,26.2917504 20.8155814,27.1000375 21.3130881,27.6005133 L31.578272,37.8656972 C31.9784986,38.2712754 32.5982459,38.3643383 33.0999406,38.094195 C33.6016353,37.8240517 33.8650859,37.2554207 33.7467921,36.6980325 L32.7715997,31.8220701 L36.9931565,31.8220701 C38.2999327,31.8166761 39.480437,32.6014326 39.9812489,33.8084456 C40.4820608,35.0154586 40.2038967,36.4054434 39.27716,37.326775 C38.9102637,37.6905722 38.7973588,38.2389378 38.9906984,38.718084 C39.1840381,39.1972302 39.6459005,39.5136721 40.1625321,39.5209581 C45.1231735,39.5209581 49.144568,35.4995636 49.144568,30.5389222 C49.144568,25.5782807 45.1231735,21.5568862 40.1625321,21.5568862 Z M42.6133447,36.4670659 C43.0378821,34.7337401 42.6445306,32.9014509 41.5459747,31.4950991 C40.4474188,30.0887474 38.7648672,29.2635023 36.9803251,29.2557742 L31.1804962,29.2557742 C30.7906641,29.24788 30.4183915,29.4176692 30.168776,29.7172078 C29.9191604,30.0167465 29.8192858,30.4135339 29.8973482,30.7955518 L30.34645,33.0538922 L23.93071,26.6381523 L30.34645,20.2224123 L29.8973482,22.5834046 C29.8192858,22.9654224 29.9191604,23.3622099 30.168776,23.6617486 C30.4183915,23.9612872 30.7906641,24.1310764 31.1804962,24.1231822 L40.1625321,24.1231822 C43.2232234,24.1243829 45.8568714,26.2874064 46.4529209,29.2894986 C47.0489704,32.2915908 45.441424,35.296681 42.6133447,36.4670659 Z" id="Shape" fill="#D775FF"></path>
                            </g>
                        </g>
                        <g id="Group-7" transform="translate(32.000000, 33.000000)"></g>
                    </g>
                </g>
            </g>
        </g>
    </g>
</svg>