<?xml version="1.0" encoding="UTF-8" standalone="no"?>
<svg width="230px" height="235px" viewBox="0 0 230 235" version="1.1" xmlns="http://www.w3.org/2000/svg" xmlns:xlink="http://www.w3.org/1999/xlink">
    <!-- Generator: Sketch 48.2 (47327) - http://www.bohemiancoding.com/sketch -->
    <title>Group 100</title>
    <desc>Created with Sketch.</desc>
    <defs>
        <circle id="path-1" cx="75" cy="75" r="75"></circle>
        <filter x="-44.7%" y="-37.3%" width="189.3%" height="189.3%" filterUnits="objectBoundingBox" id="filter-2">
            <feOffset dx="0" dy="11" in="SourceAlpha" result="shadowOffsetOuter1"></feOffset>
            <feGaussianBlur stdDeviation="20.5" in="shadowOffsetOuter1" result="shadowBlurOuter1"></feGaussianBlur>
            <feColorMatrix values="0 0 0 0 0.467408559   0 0 0 0 0.66607862   0 0 0 0 0.987537202  0 0 0 1 0" type="matrix" in="shadowBlurOuter1"></feColorMatrix>
        </filter>
    </defs>
    <g id="Features" stroke="none" stroke-width="1" fill="none" fill-rule="evenodd" transform="translate(-944.000000, -437.000000)">
        <g id="Header" transform="translate(-326.000000, -475.000000)">
            <g id="Group" transform="translate(599.000000, 913.000000)">
                <g id="Group-3" transform="translate(678.000000, 1.000000)">
                    <g id="Group-100">
                        <circle id="Oval" stroke="#FFFFFF" stroke-width="2.3328" opacity="0.0893342391" cx="108" cy="108" r="108"></circle>
                        <circle id="Oval-Copy-5" stroke="#FFFFFF" stroke-width="1.944" opacity="0.264492754" cx="108" cy="108" r="90"></circle>
                        <g id="Group-9" transform="translate(33.000000, 32.000000)">
                            <g id="Oval-Copy-2">
                                <use fill="black" fill-opacity="1" filter="url(#filter-2)" xlink:href="#path-1"></use>
                                <use fill="#FFFFFF" fill-rule="evenodd" xlink:href="#path-1"></use>
                            </g>
                            <g id="Auto-Ticket-Triage-1-" transform="translate(43.113772, 44.011976)" fill-rule="nonzero">
                                <path d="M44.5336986,50.6873487 C45.0554712,51.206026 45.8981535,51.206026 46.4199261,50.6873487 L58.3794114,38.7947509 C65.5052041,31.6688643 65.5051534,20.1156034 58.3792981,12.9897794 C51.2534428,5.86395533 39.7001818,5.86395533 32.5743265,12.9897794 C25.4484713,20.1156034 25.4484205,31.6688643 32.5742133,38.7947509 L44.5336986,50.6873487 Z M34.4738183,14.8222704 C40.577231,8.87854026 50.3241191,8.94313402 56.3482196,14.9672345 C62.3723202,20.9913351 62.4369139,30.7382231 56.4931838,36.8416359 L45.4835011,47.8513186 L34.4738183,36.8416359 C28.4014688,30.7577905 28.4014688,20.9061157 34.4738183,14.8222704 Z" id="Shape" fill="#D775FF"></path>
                                <path d="M45.4835011,34.7815008 C49.6315575,34.7766441 53.1986201,31.8424921 54.0034516,27.773261 C54.8082832,23.7040298 52.6267591,19.6328954 48.7928679,18.0493317 C44.9589767,16.4657679 40.5403583,17.8107565 38.2389709,21.261845 C35.9375835,24.7129335 36.3943041,29.3090829 39.3298509,32.2397758 C40.9584284,33.8761475 43.174849,34.7916255 45.4835011,34.7815008 Z M41.229456,21.8320805 C43.261583,19.8024831 46.4444561,19.4911022 48.8314009,21.0883813 C51.2183457,22.6856604 52.1444941,25.7466878 51.0434052,28.3993109 C49.9423164,31.051934 47.1206915,32.5572819 44.3042622,31.9946699 C41.487833,31.4320579 39.4610975,28.958198 39.4636259,26.0861256 C39.4605915,24.4892097 40.0964274,22.9574231 41.229456,21.8320805 Z" id="Shape" fill="#3C7EFB"></path>
                                <path d="M10.8892853,26.5677156 C11.4110579,27.0863929 12.2537402,27.0863929 12.7755128,26.5677156 L19.6649255,19.678303 C22.8366012,16.5118691 23.7876246,11.7462021 22.0742563,7.60492224 C20.3608879,3.46364234 16.3208096,0.762939857 11.8390878,0.762939857 C7.35736598,0.762939857 3.31728762,3.46364234 1.60391928,7.60492224 C-0.109449062,11.7462021 0.841574391,16.5118691 4.0132501,19.678303 L10.8892853,26.5677156 Z M5.89947764,5.89947764 C9.19544113,2.71277503 14.43764,2.75694872 17.6794334,5.99874212 C20.9212268,9.24053552 20.9654005,14.4827344 17.7786979,17.7786979 L11.8390878,23.7316856 L5.89947764,17.7786979 C2.62714485,14.4950225 2.62714485,9.18315304 5.89947764,5.89947764 Z" id="Shape" fill="#3C7EFB"></path>
                                <path d="M12.0397503,17.3907504 C14.2053358,17.3924547 16.1584407,16.0887055 16.987405,14.0880602 C17.8163693,12.0874149 17.3577358,9.78436567 15.8255829,8.2539177 C13.7092143,6.22558391 10.3702863,6.22558391 8.2539177,8.2539177 C6.72176481,9.78436567 6.26313123,12.0874149 7.09209554,14.0880602 C7.92105985,16.0887055 9.87416478,17.3924547 12.0397503,17.3907504 Z M10.1535227,10.1535227 C10.8297966,9.47724887 11.8154872,9.21313385 12.7392945,9.46066726 C13.6631018,9.70820067 14.3846774,10.4297763 14.6322108,11.3535836 C14.8797442,12.2773908 14.6156292,13.2630815 13.9393553,13.9393553 C13.4375164,14.4417528 12.7565415,14.7240438 12.046439,14.7240438 C11.3363366,14.7240438 10.6553616,14.4417528 10.1535227,13.9393553 C9.65112525,13.4375164 9.36883427,12.7565415 9.36883427,12.046439 C9.36883427,11.3363366 9.65112525,10.6553616 10.1535227,10.1535227 Z" id="Shape" fill="#3C7EFB"></path>
                                <path d="M61.041534,55.6905338 L58.3660339,55.6905338 L60.1987514,57.5232514 L49.2559562,57.5232514 C49.2092517,57.3912232 49.1556684,57.2617302 49.0954262,57.1353039 L58.2991464,47.9315836 L58.2991464,50.5268187 L60.1987514,48.6405912 L60.1987514,44.1457511 L55.7039113,44.1457511 L53.7909288,46.0453561 L56.3861638,46.0453561 L47.2091986,55.2490763 C46.1257539,54.7135561 44.8546257,54.7135561 43.771181,55.2490763 L34.5674608,46.0453561 L37.1626959,46.0453561 L35.2630908,44.1457511 L30.7682507,44.1457511 L30.7682507,48.6405912 L32.6812333,50.5535737 L32.6812333,47.9449611 L41.8849535,57.1486814 C41.8247113,57.2751077 41.771128,57.4046007 41.7244235,57.5366289 L11.6384253,57.5366289 C8.68314951,57.5366289 6.28742515,55.1409045 6.28742515,52.1856287 C6.28742515,49.230353 8.68314951,46.8346286 11.6384253,46.8346286 L16.0530004,46.8346286 C20.485914,46.8346286 24.0795006,43.2410421 24.0795006,38.8081284 C24.0795006,34.3752148 20.485914,30.7816282 16.0530004,30.7816282 L15.8122054,30.7816282 C15.1606725,28.9388151 13.2762778,27.8333983 11.3498284,28.1639248 C9.42337892,28.4944512 8.0152268,30.1647798 8.0152268,32.1193783 C8.0152268,34.0739767 9.42337892,35.7443053 11.3498284,36.0748318 C13.2762778,36.4053582 15.1606725,35.2999414 15.8122054,33.4571283 L16.0530004,33.4571283 C19.0082761,33.4571283 21.4040005,35.8528527 21.4040005,38.8081284 C21.4040005,41.7634042 19.0082761,44.1591286 16.0530004,44.1591286 L11.6384253,44.1591286 C7.20551163,44.1591286 3.61192509,47.7527151 3.61192509,52.1856287 C3.61192509,56.6185424 7.20551163,60.2121289 11.6384253,60.2121289 L41.711046,60.2121289 C42.2923431,61.7897976 43.7954603,62.8378704 45.4768123,62.8378704 C47.1581644,62.8378704 48.6612816,61.7897976 49.2425787,60.2121289 L60.1987514,60.2121289 L58.3660339,62.0448465 L61.041534,62.0448465 L64.2120015,58.8610014 L61.041534,55.6905338 Z M12.0397503,33.4437508 C11.3009313,33.4437508 10.7020003,32.8448197 10.7020003,32.1060008 C10.7020003,31.3671818 11.3009313,30.7682507 12.0397503,30.7682507 C12.7785692,30.7682507 13.3775003,31.3671818 13.3775003,32.1060008 C13.3775003,32.8448197 12.7785692,33.4437508 12.0397503,33.4437508 Z M45.4835011,60.1987514 C44.9458731,60.1965286 44.461812,59.8726665 44.2546159,59.3765631 C44.0474198,58.8804597 44.1573512,58.3085183 44.5336986,57.9245764 C45.0522059,57.4233834 45.8746637,57.4233834 46.3931711,57.9245764 C46.7649354,58.3032526 46.8777204,58.865875 46.6806367,59.3585842 C46.483553,59.8512933 46.0138657,60.1809268 45.4835011,60.1987514 Z" id="Shape" fill="#3C7EFB"></path>
                            </g>
                        </g>
                    </g>
                </g>
            </g>
        </g>
    </g>
</svg>