<?xml version="1.0" encoding="UTF-8" standalone="no"?>
<svg width="292px" height="292px" viewBox="0 0 292 292" version="1.1" xmlns="http://www.w3.org/2000/svg" xmlns:xlink="http://www.w3.org/1999/xlink">
    <!-- Generator: Sketch 48.2 (47327) - http://www.bohemiancoding.com/sketch -->
    <title>Icon Suggested</title>
    <desc>Created with Sketch.</desc>
    <defs>
        <circle id="path-1" cx="90" cy="90" r="90"></circle>
        <filter x="-51.9%" y="-44.7%" width="203.9%" height="203.9%" filterUnits="objectBoundingBox" id="filter-2">
            <feOffset dx="0" dy="13" in="SourceAlpha" result="shadowOffsetOuter1"></feOffset>
            <feGaussianBlur stdDeviation="29" in="shadowOffsetOuter1" result="shadowBlurOuter1"></feGaussianBlur>
            <feColorMatrix values="0 0 0 0 0.862038352   0 0 0 0 0.914734641   0 0 0 0 1  0 0 0 1 0" type="matrix" in="shadowBlurOuter1"></feColorMatrix>
        </filter>
    </defs>
    <g id="Features" stroke="none" stroke-width="1" fill="none" fill-rule="evenodd" transform="translate(-574.000000, -1153.000000)">
        <g id="Group-59" transform="translate(-297.000000, 1178.000000)">
            <g id="Icon-Suggested" transform="translate(909.000000, 0.000000)">
                <circle id="Oval" stroke="#FFFFFF" stroke-width="2.3328" opacity="0.0893342391" cx="108" cy="108" r="108"></circle>
                <circle id="Oval-Copy-5" stroke="#FFFFFF" stroke-width="1.944" opacity="0.264492754" cx="108" cy="108" r="90"></circle>
                <g id="Group-6" transform="translate(18.000000, 18.000000)">
                    <g id="Oval-Copy-4">
                        <use fill="black" fill-opacity="1" filter="url(#filter-2)" xlink:href="#path-1"></use>
                        <use fill="#FFFFFF" fill-rule="evenodd" xlink:href="#path-1"></use>
                    </g>
                    <g id="Suggested-Ticket-Reply-2-" transform="translate(52.814371, 52.814371)" fill-rule="nonzero">
                        <path d="M41.6971771,68.3815227 C37.9981931,70.3062676 33.8874738,71.3048871 29.7177074,71.2917023 L5.71257485,71.2917023 L10.1471343,66.8571429 C11.0487829,67.6700041 12.0001517,68.4259566 12.9957228,69.1206159 C13.4187236,69.5841588 14.0807101,69.744622 14.669013,69.5262157 C15.2573159,69.3078094 15.6542176,68.7542359 15.6722536,68.126959 C15.6902896,67.4996821 15.325851,66.9242179 14.7510693,66.6723695 C13.4326785,65.7606913 12.2008143,64.7298425 11.0710009,63.5928144 C10.6090676,63.1308811 10.1779299,62.65355 9.76218991,62.1608212 L9.1924722,61.4679213 C8.84345595,61.0265184 8.50983747,60.5799829 8.19161677,60.1283148 C7.96065013,59.7895637 7.72968349,59.4354149 7.49871685,59.081266 L7.03678358,58.326775 C6.68776732,57.7211292 6.36441403,57.1052181 6.0667237,56.4790419 L5.75876818,55.8477331 C5.58426005,55.4576561 5.42001711,55.0624465 5.26603935,54.6621044 C5.15825492,54.3695466 5.05047049,54.0923867 4.95808383,53.7998289 C4.77331052,53.2557742 4.60393499,52.7065868 4.44995723,52.1522669 C4.3421728,51.7519247 4.23438837,51.3669803 4.15739949,50.9666382 C4.08041061,50.566296 4.03421728,50.3969204 3.97262618,50.1197605 C3.84944397,49.4627887 3.75192472,48.7955518 3.68006843,48.1180496 C3.68006843,47.9178785 3.68006843,47.7177074 3.68006843,47.5175364 C3.54148845,46.6552609 3.54148845,45.8699743 3.54148845,45.1154833 C3.53850009,40.940177 4.54203738,36.8256742 6.46706587,33.1206159 C6.73847024,32.6322432 6.72402813,32.035171 6.42932923,31.5604913 C6.13463033,31.0858116 5.60592152,30.8080155 5.04783515,30.8346216 C4.48974879,30.8612276 3.98986496,31.1880607 3.74165954,31.6886228 C1.58546191,35.8357073 0.460459082,40.4413527 0.461933276,45.1154833 C0.461933276,45.9007699 0.461933276,46.6552609 0.569717707,47.471343 C0.569717707,47.7074423 0.569717707,47.9486741 0.569717707,48.1950385 C0.631308811,48.8212147 0.718562874,49.4422583 0.831479897,50.0581694 C0.831479897,50.4585115 0.985457656,50.8434559 1.06244654,51.2437981 C1.13943541,51.6441403 1.24721985,52.0598802 1.3396065,52.4602224 C1.43199316,52.8605646 1.55517536,53.2763045 1.67835757,53.6920445 C1.80153978,54.1077844 1.83233533,54.1539778 1.90932421,54.3849444 C2.17621899,55.1856287 2.47904192,55.9760479 2.81779299,56.7562019 L3.04875962,57.2797263 C3.26432849,57.7416595 3.47989735,58.188195 3.71086399,58.6347305 L3.88023952,58.9426861 C4.29084688,59.7125749 4.73738238,60.4670659 5.21984602,61.2061591 L5.77416595,62.0222412 C6.00513259,62.3301967 6.22070145,62.65355 6.45166809,62.9615056 C6.68263473,63.2694611 7.28314799,64.0085543 7.72968349,64.5012831 L7.89905902,64.7014542 L0.908468777,71.7382378 C0.464304613,72.1787535 0.330802958,72.8442089 0.570686304,73.4219561 C0.81056965,73.9997033 1.37615301,74.3748954 2.00171086,74.3712575 L29.7177074,74.3712575 C34.3800333,74.387022 38.9766769,73.2722038 43.1137725,71.1223268 C43.60337,70.8692764 43.9207759,70.374251 43.9464266,69.823722 C43.9720773,69.2731929 43.7020758,68.7507986 43.2381289,68.4533199 C42.7741821,68.1558412 42.1867746,68.1284723 41.6971771,68.3815227 Z" id="Shape" fill="#3C7EFB"></path>
                        <path d="M65.9640719,54.5543199 L66.1950385,54.27716 C66.7185629,53.6920445 67.2112917,53.0915312 67.7348161,52.4756202 C67.9657827,52.1830624 68.1813516,51.8597092 68.3969204,51.5517536 C68.6124893,51.2437981 68.8896493,50.8588537 69.1206159,50.5047049 C70.0199402,49.1355839 70.8126945,47.6993603 71.4918734,46.2087254 L71.7690334,45.5774166 C72.13858,44.7151411 72.4721985,43.8374679 72.7698888,42.9443969 C72.7698888,42.7134303 72.9238666,42.4824636 73.0008554,42.251497 C73.0778443,42.0205304 73.2626176,41.358426 73.3704021,40.8964927 C73.4781865,40.4345595 73.5859709,40.0342173 73.6783576,39.5876818 C73.7707442,39.1411463 73.8477331,38.7715997 73.924722,38.3712575 C74.0479042,37.647562 74.1556886,36.9238666 74.2326775,36.2001711 C74.2326775,35.9435415 74.2326775,35.6817793 74.2326775,35.4148845 C74.2326775,34.5526091 74.3558597,33.6749358 74.3558597,32.7972626 C74.3558582,19.7174418 66.4759411,7.92583443 54.3911661,2.92184337 C42.3063912,-2.08214769 28.3971822,0.687149171 19.1505551,9.93818152 C9.90392804,19.1892139 7.14125651,33.0997403 12.151003,45.1821304 C17.1607495,57.2645206 28.9561088,65.1388204 42.0359281,65.132592 L72.8314799,65.132592 C73.4570378,65.1362299 74.0226211,64.7610378 74.2625045,64.1832906 C74.5023878,63.6055434 74.3688861,62.940088 73.924722,62.4995723 L65.9640719,54.5543199 Z M42.0359281,62.0530368 C25.8784102,62.0530368 12.780154,48.9547805 12.780154,32.7972626 C12.780154,16.6397447 25.8784102,3.54148845 42.0359281,3.54148845 C58.1934461,3.54148845 71.2917023,16.6397447 71.2917023,32.7972626 C71.2917023,33.6441403 71.2917023,34.491018 71.1685201,35.3224979 C71.1685201,35.5380667 71.1685201,35.7690334 71.1685201,35.9846022 C71.0863986,36.7339607 70.9786142,37.4781865 70.8451668,38.2172797 C70.8451668,38.540633 70.7065868,38.8639863 70.6449957,39.1873396 C70.5834046,39.5106929 70.4294269,40.0804106 70.3216424,40.5115483 C70.213858,40.9426861 69.9674936,41.7279726 69.7519247,42.3284859 C69.6441403,42.6518392 69.5209581,42.9751925 69.4131737,43.2985458 C69.3053892,43.6218991 69.0744226,44.176219 68.8742515,44.5919589 C68.6740804,45.0076989 68.6124893,45.1462789 68.4739093,45.4234388 C68.1659538,46.0701454 67.8323353,46.7065868 67.4730539,47.332763 L66.9033362,48.2874251 C66.6569718,48.6723695 66.4260051,49.0573139 66.1642429,49.4268606 C65.9024808,49.7964072 65.4251497,50.4585115 65.0248075,50.9666382 L64.4704876,51.6441403 C63.962361,52.2446536 63.4542344,52.829769 62.93071,53.384089 C61.7123538,54.6073208 60.3881098,55.7203041 58.9734816,56.7100086 C58.4797524,57.00771 58.1936976,57.5562871 58.2322285,58.1315348 C58.2707594,58.7067826 58.6274197,59.2123098 59.1564412,59.4415059 C59.6854627,59.670702 60.2982001,59.5851619 60.7442258,59.219846 C61.8207803,58.4521132 62.8492298,57.6190691 63.823781,56.7254063 L69.1206159,62.0530368 L42.0359281,62.0530368 Z" id="Shape" fill="#3C7EFB"></path>
                        <path d="M48.1950385,25.8682635 L39.295124,25.8682635 L40.4961506,20.0171086 C40.628555,19.351099 40.309046,18.6769817 39.7096939,18.3578002 C39.1103419,18.0386186 38.3726609,18.1497353 37.8939264,18.6313088 L25.5757057,30.9495295 C24.9786976,31.5501004 24.9786976,32.520045 25.5757057,33.1206159 L37.8939264,45.4388366 C38.3741983,45.9255305 39.1178951,46.037206 39.7199287,45.713034 C40.3219624,45.388862 40.6381031,44.7065048 40.4961506,44.037639 L39.3259196,38.1864842 L44.3917879,38.1864842 C45.9599192,38.1800113 47.3765244,39.1217191 47.9774987,40.5701347 C48.578473,42.0185503 48.2446761,43.6865321 47.132592,44.79213 C46.6923164,45.2286867 46.5568305,45.8867254 46.7888381,46.4617008 C47.0208457,47.0366762 47.5750806,47.4164065 48.1950385,47.4251497 C54.1478083,47.4251497 58.9734816,42.5994763 58.9734816,36.6467066 C58.9734816,30.6939368 54.1478083,25.8682635 48.1950385,25.8682635 Z M51.1360137,43.760479 C51.6454585,41.6804881 51.1734367,39.481741 49.8551696,37.7941189 C48.5369025,36.1064968 46.5178406,35.1162028 44.3763901,35.106929 L37.4165954,35.106929 C36.9487969,35.097456 36.5020699,35.301203 36.2025312,35.6606494 C35.9029925,36.0200958 35.783143,36.4962407 35.8768178,36.9546621 L36.4157399,39.6646707 L28.716852,31.9657827 L36.4157399,24.2668948 L35.8768178,27.1000855 C35.783143,27.5585069 35.9029925,28.0346519 36.2025312,28.3940983 C36.5020699,28.7535447 36.9487969,28.9572916 37.4165954,28.9478186 L48.1950385,28.9478186 C51.8678681,28.9492594 55.0282457,31.5448877 55.7435051,35.1473983 C56.4587645,38.749909 54.5297087,42.3560173 51.1360137,43.760479 Z" id="Shape" fill="#D775FF"></path>
                    </g>
                </g>
            </g>
        </g>
    </g>
</svg>