<?xml version="1.0" encoding="UTF-8"?>
<svg width="781px" height="739px" viewBox="0 0 781 739" version="1.1" xmlns="http://www.w3.org/2000/svg" xmlns:xlink="http://www.w3.org/1999/xlink">
    <!-- Generator: Sketch 48.2 (47327) - http://www.bohemiancoding.com/sketch -->
    <title>Illustration MSG</title>
    <desc>Created with Sketch.</desc>
    <defs>
        <filter x="-13.1%" y="-16.5%" width="126.1%" height="144.5%" filterUnits="objectBoundingBox" id="filter-1">
            <feOffset dx="0" dy="34" in="SourceAlpha" result="shadowOffsetOuter1"></feOffset>
            <feGaussianBlur stdDeviation="38" in="shadowOffsetOuter1" result="shadowBlurOuter1"></feGaussianBlur>
            <feColorMatrix values="0 0 0 0 0.797401066   0 0 0 0 0.887213343   0 0 0 0 0.935400723  0 0 0 0.533939085 0" type="matrix" in="shadowBlurOuter1" result="shadowMatrixOuter1"></feColorMatrix>
            <feMerge>
                <feMergeNode in="shadowMatrixOuter1"></feMergeNode>
                <feMergeNode in="SourceGraphic"></feMergeNode>
            </feMerge>
        </filter>
        <path d="M12,0 L991,0 C997.627417,-1.21743675e-15 1003,5.372583 1003,12 L1003,589 L0,589 L0,12 C-8.11624501e-16,5.372583 5.372583,1.21743675e-15 12,0 Z" id="path-2"></path>
        <linearGradient x1="108.541667%" y1="-7.69454657%" x2="19.1959635%" y2="92.3651961%" id="linearGradient-4">
            <stop stop-color="#FF878E" offset="0%"></stop>
            <stop stop-color="#FF4F55" offset="100%"></stop>
        </linearGradient>
        <rect id="path-5" x="25" y="84" width="240" height="242" rx="4"></rect>
        <filter x="-15.8%" y="-11.6%" width="131.7%" height="131.4%" filterUnits="objectBoundingBox" id="filter-6">
            <feOffset dx="0" dy="10" in="SourceAlpha" result="shadowOffsetOuter1"></feOffset>
            <feGaussianBlur stdDeviation="11" in="shadowOffsetOuter1" result="shadowBlurOuter1"></feGaussianBlur>
            <feColorMatrix values="0 0 0 0 0.973187713   0 0 0 0 0.349739334   0 0 0 0 0.349739334  0 0 0 0.4 0" type="matrix" in="shadowBlurOuter1"></feColorMatrix>
        </filter>
        <path d="M206.801697,315.476012 C206.999608,315.656806 207.051689,315.938041 206.947526,316.169056 C206.843363,316.410115 206.603787,316.57082 206.332963,316.57082 L202.353926,316.57082 L204.447608,321.351819 C204.593436,321.683275 204.426775,322.054907 204.093453,322.195525 L202.249763,322.948833 C201.906024,323.089451 201.52062,322.928745 201.374792,322.607333 L199.385273,318.067394 L196.13538,321.201157 C196.010384,321.321687 195.843722,321.391996 195.666645,321.391996 C195.583314,321.391996 195.489567,321.371907 195.416653,321.341775 C195.166661,321.241334 195,321.010319 195,320.749172 L195,305.642823 C195,305.381676 195.166661,305.150662 195.416653,305.050221 C195.489567,305.020088 195.583314,305 195.666645,305 C195.843722,305 196.010384,305.060265 196.13538,305.190838 L206.801697,315.476012 Z" id="path-7"></path>
        <filter x="-112.5%" y="-47.2%" width="325.0%" height="250.0%" filterUnits="objectBoundingBox" id="filter-8">
            <feMorphology radius="0.5" operator="dilate" in="SourceAlpha" result="shadowSpreadOuter1"></feMorphology>
            <feOffset dx="0" dy="5" in="shadowSpreadOuter1" result="shadowOffsetOuter1"></feOffset>
            <feGaussianBlur stdDeviation="3.5" in="shadowOffsetOuter1" result="shadowBlurOuter1"></feGaussianBlur>
            <feComposite in="shadowBlurOuter1" in2="SourceAlpha" operator="out" result="shadowBlurOuter1"></feComposite>
            <feColorMatrix values="0 0 0 0 0.697305485   0 0 0 0 0.281808374   0 0 0 0 0.281808374  0 0 0 1 0" type="matrix" in="shadowBlurOuter1"></feColorMatrix>
        </filter>
        <rect id="path-9" x="245" y="15" width="20" height="20" rx="4"></rect>
        <linearGradient x1="153.861987%" y1="-64.5129145%" x2="32.5767971%" y2="83.1871811%" id="linearGradient-10">
            <stop stop-color="#FF878E" offset="0%"></stop>
            <stop stop-color="#FF4F55" offset="100%"></stop>
        </linearGradient>
        <path d="M0,0 L337,0 C345.836556,-1.623249e-15 353,7.163444 353,16 L353,156 C353,164.836556 345.836556,172 337,172 L16,172 C7.163444,172 1.082166e-15,164.836556 0,156 L0,0 Z" id="path-11"></path>
        <filter x="-10.8%" y="-16.3%" width="121.5%" height="144.2%" filterUnits="objectBoundingBox" id="filter-12">
            <feOffset dx="0" dy="10" in="SourceAlpha" result="shadowOffsetOuter1"></feOffset>
            <feGaussianBlur stdDeviation="11" in="shadowOffsetOuter1" result="shadowBlurOuter1"></feGaussianBlur>
            <feColorMatrix values="0 0 0 0 0.973187713   0 0 0 0 0.349739334   0 0 0 0 0.349739334  0 0 0 0.4 0" type="matrix" in="shadowBlurOuter1"></feColorMatrix>
        </filter>
        <rect id="path-13" x="68" y="41" width="140" height="23" rx="3"></rect>
        <rect id="path-14" x="221" y="41" width="56" height="23" rx="3"></rect>
        <rect id="path-15" x="299" y="41" width="42" height="23" rx="3"></rect>
        <linearGradient x1="50%" y1="0%" x2="50%" y2="100%" id="linearGradient-16">
            <stop stop-color="#FDD5A9" offset="0%"></stop>
            <stop stop-color="#FBAA70" offset="100%"></stop>
        </linearGradient>
    </defs>
    <g id="Features" stroke="none" stroke-width="1" fill="none" fill-rule="evenodd" transform="translate(0.000000, -1649.000000)">
        <g id="Group-59" transform="translate(-297.000000, 1178.000000)">
            <g id="Illustration-MSG" filter="url(#filter-1)" transform="translate(0.000000, 512.000000)">
                <g id="Group-5">
                    <mask id="mask-3" fill="white">
                        <use xlink:href="#path-2"></use>
                    </mask>
                    <use id="Rectangle-4-Copy" fill="#F6F9FB" xlink:href="#path-2"></use>
                    <g id="Group-19" mask="url(#mask-3)">
                        <g transform="translate(704.000000, 60.000000)">
                            <rect id="Rectangle-19" stroke="none" fill="#FFFFFF" fill-rule="evenodd" x="7" y="0" width="275" height="367" rx="4"></rect>
                            <g id="Rectangle-12-Copy" stroke="none" fill="none">
                                <use fill="black" fill-opacity="1" filter="url(#filter-6)" xlink:href="#path-5"></use>
                                <use fill="url(#linearGradient-4)" fill-rule="evenodd" xlink:href="#path-5"></use>
                            </g>
                            <g id="Group-15" stroke="none" stroke-width="1" fill="none" fill-rule="evenodd" transform="translate(37.000000, 283.000000)">
                                <rect id="Rectangle-25" fill="#FFFFFF" x="0" y="0" width="216" height="29" rx="4"></rect>
                                <text id="Apply" font-family=".AppleSystemUIFont" font-size="12" font-weight="normal" fill="#303665">
                                    <tspan x="94.75" y="21">Apply</tspan>
                                </text>
                            </g>
                            <g id="mouse-pointer---FontAwesome" stroke="none" fill="none">
                                <use fill="black" fill-opacity="1" filter="url(#filter-8)" xlink:href="#path-7"></use>
                                <use fill="#FFFFFF" fill-rule="evenodd" xlink:href="#path-7"></use>
                            </g>
                            <text id="Dear-[Username]" stroke="none" fill="none" font-family="Montserrat-Regular, Montserrat" font-size="12" font-weight="normal" line-spacing="17" fill-opacity="0.9">
                                <tspan x="44" y="159" fill="#FFFFFF">Dear [Username]</tspan>
                                <tspan x="245" y="176" fill="#FFFFFF"></tspan>
                            </text>
                            <text id="Can-you-share-your-c" stroke="none" fill="none" font-family="Montserrat-Light, Montserrat" font-size="12" font-weight="300" line-spacing="17" fill-opacity="0.9">
                                <tspan x="44" y="245" fill="#FFFFFF">Can you share your contract </tspan>
                                <tspan x="44" y="262" fill="#FFFFFF">number??</tspan>
                            </text>
                            <text id="We-are-sorry-to-hear" stroke="none" fill="none" font-family="Montserrat-Light, Montserrat" font-size="12" font-weight="300" line-spacing="17" fill-opacity="0.9">
                                <tspan x="44" y="184" fill="#FFFFFF">We are sorry to hear you are </tspan>
                                <tspan x="44" y="201" fill="#FFFFFF">experiencing issues with our  </tspan>
                                <tspan x="44" y="218" fill="#FFFFFF">shipping service.</tspan>
                            </text>
                            <text id="Type-:-Failed-Shipme" stroke="none" fill="none" font-family="Montserrat-SemiBold, Montserrat" font-size="12" font-weight="500" line-spacing="15">
                                <tspan x="44.016" y="106" fill="#FFFFFF">Type : Failed Shipment - 1 </tspan>
                                <tspan x="90.24" y="121" fill="#FFFFFF">Confidence : 94 %</tspan>
                            </text>
                            <text id="Jatana" stroke="none" fill="none" font-family="Montserrat-Regular, Montserrat" font-size="12" font-weight="normal">
                                <tspan x="30.752" y="27" fill="#3C4763">Jatana</tspan>
                            </text>
                            <text id="Suggested-answer-for" stroke="none" fill="none" font-family="Montserrat-Regular, Montserrat" font-size="10" font-weight="normal" line-spacing="15" letter-spacing="0.5">
                                <tspan x="36.74" y="64" fill="#B8C5CB">Suggested answer for this reques</tspan>
                                <tspan x="219.94" y="64" fill="#B8C5CB">t</tspan>
                            </text>
                            <g id="Rectangle-21" stroke="none" fill="none">
                                <use fill="#0694FA" fill-rule="evenodd" xlink:href="#path-9"></use>
                                <rect stroke="#F6F9FB" stroke-width="2" x="246" y="16" width="18" height="18" rx="4"></rect>
                            </g>
                            <text id="J" stroke="none" fill="none" font-family=".AppleSystemUIFont" font-size="10" font-weight="normal">
                                <tspan x="253.501953" y="29" fill="#FFFFFF">J</tspan>
                            </text>
                            <path d="M0.398641723,44.1780559 L287.748994,44.1780559" id="Path-8" stroke="#F6F9FB" stroke-width="1" fill="none"></path>
                            <path d="M25.499401,133.048289 L264.500427,133.048289" id="Path-9" stroke="#FFFFFF" stroke-width="1" fill="none"></path>
                        </g>
                    </g>
                    <path d="M315,59 L674,59 C676.209139,59 678,60.790861 678,63 L678,505 C678,507.209139 676.209139,509 674,509 L319,509 C316.790861,509 315,507.209139 315,505 L315,59 Z" id="Rectangle-10" fill="#FFFFFF" mask="url(#mask-3)"></path>
                    <g id="Group-12" mask="url(#mask-3)">
                        <g transform="translate(340.000000, 318.000000)">
                            <g id="Rectangle-12">
                                <use fill="black" fill-opacity="1" filter="url(#filter-12)" xlink:href="#path-11"></use>
                                <use fill="url(#linearGradient-10)" fill-rule="evenodd" xlink:href="#path-11"></use>
                            </g>
                            <text id="Dear-Andrew," font-family="Montserrat-Regular, Montserrat" font-size="12" font-weight="normal" line-spacing="17" fill-opacity="0.9">
                                <tspan x="22" y="22" fill="#FFFFFF">Dear Andrew,</tspan>
                            </text>
                            <text id="We’re-sorry-to-hear" font-family="Montserrat-Regular, Montserrat" font-size="12" font-weight="normal" line-spacing="17" fill-opacity="0.9">
                                <tspan x="22" y="45" fill="#FFFFFF">We’re sorry to hear you are experincing issues with </tspan>
                                <tspan x="22" y="62" fill="#FFFFFF">our shipping service.</tspan>
                            </text>
                            <text id="Can-you-share-your-c" font-family="Montserrat-Regular, Montserrat" font-size="12" font-weight="normal" line-spacing="17" fill-opacity="0.9">
                                <tspan x="22" y="87" fill="#FFFFFF">Can you share your contract number??</tspan>
                            </text>
                            <text id="Best,-Customer-suppo" font-family="Montserrat-Regular, Montserrat" font-size="12" font-weight="normal" line-spacing="17" fill-opacity="0.9">
                                <tspan x="22" y="129" fill="#FFFFFF">Best,</tspan>
                                <tspan x="22" y="146" fill="#FFFFFF">Customer support</tspan>
                            </text>
                            <g id="Group-28" stroke-width="1" fill-rule="evenodd" transform="translate(119.000000, 19.000000)"></g>
                        </g>
                    </g>
                    <g id="Group-22" mask="url(#mask-3)">
                        <g transform="translate(315.000000, 67.000000)">
                            <path d="M0.123104504,76.2379559 L363.244502,76.2379559" id="Path-2" stroke="#F6F9FB" stroke-width="3"></path>
                            <text id="I’ve-bought-a-new-su" stroke="none" font-family="Montserrat-Light, Montserrat" font-size="12" font-weight="300" line-spacing="18">
                                <tspan x="24" y="12" fill="#5A5A5C">I’ve bought a new subscription but</tspan>
                                <tspan x="24" y="30" fill="#5A5A5C">the service is not working !!</tspan>
                            </text>
                            <g id="Rectangle-24" stroke="none">
                                <use fill="#FFFFFF" fill-rule="evenodd" xlink:href="#path-13"></use>
                                <rect stroke="#EBF4FD" stroke-width="1" x="68.5" y="41.5" width="139" height="22" rx="3"></rect>
                            </g>
                            <g id="Rectangle-24-Copy" stroke="none">
                                <use fill="#FFFFFF" fill-rule="evenodd" xlink:href="#path-14"></use>
                                <rect stroke="#EBF4FD" stroke-width="1" x="221.5" y="41.5" width="55" height="22" rx="3"></rect>
                            </g>
                            <g id="Rectangle-24-Copy-2" stroke="none">
                                <use fill="#FFFFFF" fill-rule="evenodd" xlink:href="#path-15"></use>
                                <rect stroke="#EBF4FD" stroke-width="1" x="299.5" y="41.5" width="41" height="22" rx="3"></rect>
                            </g>
                            <text id="from-:" stroke="none" font-family=".AppleSystemUIFont" font-size="13" font-weight="normal" line-spacing="18">
                                <tspan x="29.2817383" y="57" fill="#B8C5CB">from :</tspan>
                            </text>
                            <text id="-" stroke="none" font-family=".AppleSystemUIFont" font-size="13" font-weight="normal" line-spacing="18">
                                <tspan x="212" y="56" fill="#B8C5CB">-</tspan>
                            </text>
                            <text id="at" stroke="none" font-family=".AppleSystemUIFont" font-size="13" font-weight="normal" line-spacing="18">
                                <tspan x="283.256836" y="56" fill="#B8C5CB">at</tspan>
                            </text>
                        </g>
                    </g>
                    <path d="M315.123105,294.237956 L678.244502,294.237956" id="Path-2-Copy" stroke="#F6F9FB" stroke-width="3" mask="url(#mask-3)"></path>
                    <g id="Group-24" mask="url(#mask-3)" fill="#FCF3DA">
                        <g transform="translate(257.000000, 145.000000)" id="Rectangle-11">
                            <rect x="6" y="1" width="35" height="31" rx="9"></rect>
                        </g>
                    </g>
                    <text id="customer@mail.com" mask="url(#mask-3)" font-family="Montserrat-Light, Montserrat" font-size="12" font-weight="300" fill="#5A5A5C">
                        <tspan x="391.008" y="124">customer@mail.com</tspan>
                    </text>
                    <text id="Today" mask="url(#mask-3)" font-family="Montserrat-Light, Montserrat" font-size="12" font-weight="300" fill="#5A5A5C">
                        <tspan x="544.372" y="124">Today</tspan>
                    </text>
                    <text id="3:00" mask="url(#mask-3)" font-family="Montserrat-Light, Montserrat" font-size="12" font-weight="300" fill="#5A5A5C">
                        <tspan x="623.112" y="124">3:00</tspan>
                    </text>
                    <g id="Group-21" mask="url(#mask-3)" fill="#FADFEE">
                        <g transform="translate(263.000000, 364.000000)" id="Rectangle-11-Copy">
                            <rect x="0" y="0" width="35" height="31" rx="9"></rect>
                        </g>
                    </g>
                    <g id="Instead-Copy" mask="url(#mask-3)">
                        <g transform="translate(709.000000, 611.000000)">
                            <rect id="Rectangle-10-Copy" stroke="none" fill="#FFFFFF" fill-rule="evenodd" x="0" y="0" width="197" height="182" rx="4"></rect>
                            <text id="Click-to-start-analy" stroke="none" fill="none" font-family=".AppleSystemUIFont" font-size="8" font-weight="normal" line-spacing="10">
                                <tspan x="87.015625" y="55" fill="#333333">Click to start </tspan>
                                <tspan x="100.617188" y="65" fill="#333333">analysing</tspan>
                                <tspan x="49.9921875" y="75" fill="#333333">your team’s efficiency</tspan>
                            </text>
                            <rect id="Rectangle-13" stroke="none" fill="#FBF200" fill-rule="evenodd" x="176" y="7" width="16" height="16" rx="2"></rect>
                            <text id="ai" stroke="none" fill="none" font-family=".AppleSystemUIFont" font-size="8" font-weight="normal">
                                <tspan x="181.210938" y="20" fill="#354C59">ai</tspan>
                            </text>
                            <path d="M1,28 L197.500636,28" id="Path-2" stroke="#F6F9FB" stroke-width="1" fill="none"></path>
                            <text id="Rep-Al" stroke="none" fill="none" font-family=".AppleSystemUIFont" font-size="8" font-weight="normal">
                                <tspan x="11.4453125" y="20" fill="#000000">Rep Al</tspan>
                            </text>
                            <rect id="Rectangle-13-Copy" stroke="none" fill="#3DB0F5" fill-rule="evenodd" x="41" y="78" width="116" height="25" rx="3"></rect>
                        </g>
                    </g>
                    <rect id="Rectangle-17" fill="#FFFFFF" mask="url(#mask-3)" x="248" y="0" width="755" height="40"></rect>
                    <circle id="Oval-5" fill="#EAF0F4" mask="url(#mask-3)" cx="974.5" cy="20.5" r="12.5"></circle>
                </g>
                <g id="Emoticon" transform="translate(509.000000, 88.000000)">
                    <circle id="Oval-7" fill="url(#linearGradient-16)" cx="6.5" cy="6.5" r="6.5"></circle>
                    <path d="M4.1097561,6.28480749 C4.72265747,6.28480749 5.2195122,5.78795276 5.2195122,5.17505139 C5.2195122,4.56215002 4.79414544,5.75553117 4.1097561,5.75553117 C3.42536675,5.75553117 3,4.56215002 3,5.17505139 C3,5.78795276 3.49685473,6.28480749 4.1097561,6.28480749 Z" id="Oval-8" fill="#8B5E3A"></path>
                    <path d="M9.1097561,6.28480749 C9.72265747,6.28480749 10.2195122,5.78795276 10.2195122,5.17505139 C10.2195122,4.56215002 9.79414544,5.75553117 9.1097561,5.75553117 C8.42536675,5.75553117 8,4.56215002 8,5.17505139 C8,5.78795276 8.49685473,6.28480749 9.1097561,6.28480749 Z" id="Oval-8-Copy" fill="#8B5E3A"></path>
                    <g id="Group-29" transform="translate(6.170732, 8.731707) scale(1, -1) translate(-6.170732, -8.731707) translate(2.170732, 6.731707)" fill="#D15155">
                        <path d="M0.993604993,1.06011388 C0.993604993,0.682496503 2.5653138,1.23843618 4.11011716,1.23843618 C5.65492053,1.23843618 7.23848855,0.658638183 7.23848855,1.33588157 C7.23848855,2.01312496 6.51226881,3.35183967 4.11011716,3.35183967 C1.70796552,3.35183967 0.993604993,1.43773126 0.993604993,1.06011388 Z" id="Path-16"></path>
                    </g>
                </g>
                <g id="Emoticon-Copy" transform="translate(526.000000, 88.000000)">
                    <circle id="Oval-7" fill="url(#linearGradient-16)" cx="6.5" cy="6.5" r="6.5"></circle>
                    <path d="M4.1097561,6.28480749 C4.72265747,6.28480749 5.2195122,5.78795276 5.2195122,5.17505139 C5.2195122,4.56215002 4.79414544,5.75553117 4.1097561,5.75553117 C3.42536675,5.75553117 3,4.56215002 3,5.17505139 C3,5.78795276 3.49685473,6.28480749 4.1097561,6.28480749 Z" id="Oval-8" fill="#8B5E3A"></path>
                    <path d="M9.1097561,6.28480749 C9.72265747,6.28480749 10.2195122,5.78795276 10.2195122,5.17505139 C10.2195122,4.56215002 9.79414544,5.75553117 9.1097561,5.75553117 C8.42536675,5.75553117 8,4.56215002 8,5.17505139 C8,5.78795276 8.49685473,6.28480749 9.1097561,6.28480749 Z" id="Oval-8-Copy" fill="#8B5E3A"></path>
                    <g id="Group-29" transform="translate(6.170732, 8.731707) scale(1, -1) translate(-6.170732, -8.731707) translate(2.170732, 6.731707)" fill="#D15155">
                        <path d="M0.993604993,1.06011388 C0.993604993,0.682496503 2.5653138,1.23843618 4.11011716,1.23843618 C5.65492053,1.23843618 7.23848855,0.658638183 7.23848855,1.33588157 C7.23848855,2.01312496 6.51226881,3.35183967 4.11011716,3.35183967 C1.70796552,3.35183967 0.993604993,1.43773126 0.993604993,1.06011388 Z" id="Path-16"></path>
                    </g>
                </g>
                <g id="Group-12-Copy" transform="translate(347.000000, 165.000000)">
                    <text id="Hi,-Mate" font-family="Montserrat-Regular, Montserrat" font-size="12" font-weight="normal" line-spacing="17" fill="#5A5A5C">
                        <tspan x="0" y="12">Hi, Mate</tspan>
                    </text>
                    <text id="I-haven’t-received-t" font-family="Montserrat-Regular, Montserrat" font-size="12" font-weight="normal" line-spacing="17" fill="#5A5A5C">
                        <tspan x="0" y="38">I haven’t received the product I’ve ordered, can </tspan>
                        <tspan x="0" y="55">you please check?</tspan>
                    </text>
                    <text id="Thanks,-Andrew" font-family="Montserrat-Regular, Montserrat" font-size="12" font-weight="normal" line-spacing="17" fill="#5A5A5C">
                        <tspan x="0" y="84">Thanks,</tspan>
                        <tspan x="0" y="101">Andrew</tspan>
                    </text>
                    <g id="Emoticon" transform="translate(112.000000, 45.000000)">
                        <circle id="Oval-7" fill="url(#linearGradient-16)" cx="6.5" cy="6.5" r="6.5"></circle>
                        <path d="M4.1097561,6.28480749 C4.72265747,6.28480749 5.2195122,5.78795276 5.2195122,5.17505139 C5.2195122,4.56215002 4.79414544,5.75553117 4.1097561,5.75553117 C3.42536675,5.75553117 3,4.56215002 3,5.17505139 C3,5.78795276 3.49685473,6.28480749 4.1097561,6.28480749 Z" id="Oval-8" fill="#8B5E3A"></path>
                        <path d="M9.1097561,6.28480749 C9.72265747,6.28480749 10.2195122,5.78795276 10.2195122,5.17505139 C10.2195122,4.56215002 9.79414544,5.75553117 9.1097561,5.75553117 C8.42536675,5.75553117 8,4.56215002 8,5.17505139 C8,5.78795276 8.49685473,6.28480749 9.1097561,6.28480749 Z" id="Oval-8-Copy" fill="#8B5E3A"></path>
                        <g id="Group-29" transform="translate(6.170732, 8.731707) scale(1, -1) translate(-6.170732, -8.731707) translate(2.170732, 6.731707)" fill="#D15155">
                            <path d="M0.993604993,1.06011388 C0.993604993,0.682496503 2.5653138,1.23843618 4.11011716,1.23843618 C5.65492053,1.23843618 7.23848855,0.658638183 7.23848855,1.33588157 C7.23848855,2.01312496 6.51226881,3.35183967 4.11011716,3.35183967 C1.70796552,3.35183967 0.993604993,1.43773126 0.993604993,1.06011388 Z" id="Path-16"></path>
                        </g>
                    </g>
                </g>
            </g>
        </g>
    </g>
</svg>