<svg id="SVGDoc" width="346" height="78" xmlns="http://www.w3.org/2000/svg" version="1.1" xmlns:xlink="http://www.w3.org/1999/xlink" xmlns:avocode="https://avocode.com/" viewBox="0 0 346 78"><defs><path d="M1244.81135,2330.01628h45.39065l-6.72454,11.77013h-15.13022l-23.53589,47.08056h-16.81135l23.53589,-47.08056h-13.44908zM1318.7813,2346.83076h15.13021l-21.85475,42.03621h-15.13022zM1444.86643,2335.06062l-10.08681,10.08869c0,0 -18.49249,-5.04434 -20.17362,0c-1.68114,5.04435 1.68113,5.04435 8.40567,8.40724c6.72454,3.3629 11.76795,6.7258 5.04341,18.49593c-13.44908,15.13304 -21.85476,18.49593 -33.6227,16.81449c-11.76795,-1.68145 -20.17362,-5.04435 -20.17362,-5.04435l10.08681,-10.08869c0,0 14.28964,8.40724 25.21702,0c4.20284,-3.36289 0.84057,-8.40724 -10.08681,-11.57339c-10.92738,-3.16615 -10.08681,-18.69268 11.76795,-30.46281c16.81135,-8.40725 33.6227,3.36289 33.6227,3.36289zM1473.44573,2380.45972c-5.04341,10.08869 -13.44908,8.40725 -13.44908,8.40725l-1.68114,-3.3629c0,0 0,-1.68145 -3.36227,0c-21.85476,6.72579 -18.8329,-5.62049 -18.49249,-13.45159c0.34042,-7.83109 8.40568,-18.49593 20.17363,-25.22172c11.76794,-6.72579 31.94156,0 31.94156,0c0,0 -18.49248,30.26607 -15.13021,33.62896zM1449.90984,2372.05248c-3.36227,8.40724 8.40567,5.04435 8.40567,5.04435c0,0 10.3984,-18.98152 8.40568,-20.17738c-1.99273,-1.19586 -13.44908,6.72579 -16.81135,15.13303zM1572.6327,2356.91945c0,1.68145 -6.72454,13.45159 -15.13022,13.45159c-8.40567,0 -15.13021,0 -15.13021,0c0,0 -6.72454,10.08868 5.0434,8.40724c11.76795,-1.68145 11.76795,-1.68145 11.76795,-1.68145c0,0 1.68113,5.04434 -5.04341,8.40724c-6.72454,3.3629 -21.85475,1.68145 -21.85475,1.68145c0,0 -13.44908,-3.3629 -5.04341,-16.81448c8.40568,-13.45159 13.44908,-20.17738 20.17362,-23.54028c6.72454,-3.3629 30.26043,-6.72579 25.21703,10.08869zM1554.14021,2361.96379c3.36227,0 6.72454,-6.72579 1.68114,-8.40724c-5.04341,-1.68145 -10.08681,8.40724 -10.08681,8.40724c0,0 5.0434,0 8.40567,0zM1283.47746,2346.83076c0,0 9.8664,-3.60063 11.76794,-3.3629c1.90155,0.23774 1.68114,5.04435 1.68114,5.04435c0,0 10.08681,-6.7258 15.13022,-3.3629c2.32638,1.93901 -5.04341,11.77014 -5.04341,11.77014h-10.08681l-16.81135,30.26607h-15.13022l16.81135,-33.62897zM1342.31719,2346.83076l15.13021,-1.68145l-1.68113,3.3629c0,0 21.85476,-10.08869 23.53589,0c1.68114,10.08869 -15.13022,38.67331 -28.5793,38.67331c-13.44908,0 -13.44908,0 -13.44908,0l-8.40567,16.81448h-13.44908l26.89816,-53.80634zM1323.39,2333.715c0,-4.08415 4.00257,-7.395 8.94,-7.395c4.93743,0 8.94,3.31085 8.94,7.395c0,4.08415 -4.00257,7.395 -8.94,7.395c-4.93743,0 -8.94,-3.31085 -8.94,-7.395zM1347.36059,2377.09683c3.36227,5.04434 15.13022,-11.77014 16.81135,-18.49593c1.68114,-6.7258 -6.72454,-1.68145 -6.72454,-1.68145c0,0 -13.44908,15.13303 -10.08681,20.17738zM1491.93821,2345.14931h15.13022l-3.36227,23.54028l18.49249,-25.22173h16.81135l-35.30384,43.71766h-15.13022z" id="Path-0"/></defs><desc>Generated with Avocode.</desc><g transform="matrix(1,0,0,1,-1228,-2326)"><g><title>Combined Shape</title><use xlink:href="#Path-0" fill="#6f718c" fill-opacity="1"/></g></g></svg>