<svg width="70" height="70" xmlns="http://www.w3.org/2000/svg"><g fill-rule="nonzero" fill="none"><path d="M70 29.17a29.17 29.17 0 1 0-58.14 3.3 1.47 1.47 0 1 0 2.91-.31 26.25 26.25 0 1 1 52.31-3c0 7.96-3.62 15.47-9.84 20.42a1.46 1.46 0 0 0-.23 2.06c.08.08.18.16.29.22l-4.52 7.61-.28-3.7a1.46 1.46 0 0 0-1.58-2.4 25.77 25.77 0 0 1-4.59 1.46 1.47 1.47 0 0 0 .3 2.92h.31c.92-.2 1.83-.45 2.7-.73l.48 7.48c.04.64.5 1.18 1.11 1.33h.34c.51 0 .99-.27 1.25-.72l9.64-16.2c.05-.1.08-.2.1-.3A29 29 0 0 0 70 29.17z" fill="#D775FF"/><path d="M28.44 43.75H15.3a9.48 9.48 0 0 0 0 18.96h13.13a9.48 9.48 0 1 0 0-18.96zm0 16.04H15.3a6.56 6.56 0 0 1 0-13.12h13.13a6.56 6.56 0 1 1 0 13.12z" fill="#3C7EFB"/><path d="M15.31 48.13a5.1 5.1 0 0 0-5.1 5.1 1.46 1.46 0 0 0 2.91 0 2.19 2.19 0 1 1 4.38 0 1.46 1.46 0 0 0 2.92 0 5.1 5.1 0 0 0-5.1-5.1zM29.17 32.08a4.38 4.38 0 1 0 0-8.75 4.38 4.38 0 0 0 0 8.75zm0-5.83a1.46 1.46 0 1 1 0 2.92 1.46 1.46 0 0 1 0-2.92zM40.83 23.33a4.38 4.38 0 1 0 0 8.75 4.38 4.38 0 0 0 0-8.75zm0 5.84a1.46 1.46 0 1 1 0-2.92 1.46 1.46 0 0 1 0 2.92zM56.88 27.7a4.38 4.38 0 1 0-8.76 0 4.38 4.38 0 0 0 8.76 0zm-5.84 0a1.46 1.46 0 1 1 2.92 0 1.46 1.46 0 0 1-2.92 0zM28.44 48.13a5.1 5.1 0 0 0-5.1 5.1 1.46 1.46 0 0 0 2.91 0 2.19 2.19 0 1 1 4.38 0 1.46 1.46 0 0 0 2.91 0 5.1 5.1 0 0 0-5.1-5.1z" fill="#3C7EFB"/><path d="M24.8 35h-5.84A18.96 18.96 0 0 0 0 53.96v3.62A12.5 12.5 0 0 0 12.48 70h18.79c6.89 0 12.47-5.6 12.48-12.48v-3.56A18.96 18.96 0 0 0 24.79 35zm16.03 22.52a9.58 9.58 0 0 1-9.56 9.56H12.48a9.58 9.58 0 0 1-9.56-9.56v-3.56c0-8.86 7.18-16.04 16.04-16.04h5.83c8.86 0 16.04 7.18 16.04 16.04v3.56z" fill="#3C7EFB"/></g></svg>