<svg width="77" height="70" xmlns="http://www.w3.org/2000/svg"><g fill-rule="nonzero" fill="none"><path d="M70 0H6.36A6.36 6.36 0 0 0 0 6.36v50.91a6.36 6.36 0 0 0 6.36 6.37H54.1v4.77c0 .88.71 1.59 1.6 1.59h6.36c.87 0 1.59-.71 1.59-1.6v-4.76H70a6.36 6.36 0 0 0 6.36-6.37V6.37A6.36 6.36 0 0 0 70 0zm-9.55 66.82h-3.18V41.36c0-.5-.23-.97-.63-1.27l-2.88-2.16a7.06 7.06 0 0 1-.76-10.7l1.1-1.1v5.69c0 .88.7 1.59 1.58 1.59h6.37c.87 0 1.59-.71 1.59-1.6v-5.7l1.1 1.1a7.14 7.14 0 0 1-.76 10.74l-2.89 2.14c-.4.3-.64.77-.64 1.27v25.46zm12.73-9.55A3.18 3.18 0 0 1 70 60.45h-6.36v-18.3l2.24-1.68A10.34 10.34 0 0 0 70 32.25c0-2.73-1.08-5.35-3-7.27l-3.83-3.82a1.6 1.6 0 0 0-2.72 1.11v7.96h-3.18v-7.96a1.6 1.6 0 0 0-2.72-1.13l-3.82 3.82a10.21 10.21 0 0 0-2.81 5.27H31.58a6.36 6.36 0 0 0-12.28 0h-4.98a1.6 1.6 0 0 0 0 3.18h5.01a6.36 6.36 0 0 0 5.73 4.77h.4c2.9 0 5.43-1.96 6.15-4.77h16.12c.32 2.8 1.78 5.36 4.04 7.06l2.32 1.69v2.39h-5.01a6.36 6.36 0 0 0-12.28 0H14.32a1.6 1.6 0 0 0 0 3.18h22.51a6.36 6.36 0 0 0 5.73 4.77h.4c2.9 0 5.43-1.96 6.15-4.77h4.98v12.72H6.36a3.18 3.18 0 0 1-3.18-3.18V6.37a3.18 3.18 0 0 1 3.18-3.19H70a3.18 3.18 0 0 1 3.18 3.18v50.91zM28.64 32.02a3.18 3.18 0 1 1-3.19-3.38h.21a3.18 3.18 0 0 1 2.98 3.38zm17.5 14.32a3.18 3.18 0 1 1-3.19-3.39h.21a3.18 3.18 0 0 1 2.98 3.4z" fill="#3C7EFB"/><path d="M62.05 15.9H49.08a6.36 6.36 0 0 0-12.28 0H14.32a1.6 1.6 0 0 0 0 3.2h22.51a6.36 6.36 0 0 0 5.73 4.76h.4c2.9 0 5.43-1.96 6.15-4.77h12.94a1.6 1.6 0 1 0 0-3.18zm-19.3 4.78a3.18 3.18 0 0 1 .2-6.36h.21a3.19 3.19 0 0 1-.4 6.36h-.01z" fill="#D775FF"/></g></svg>