<svg width="70" height="70" xmlns="http://www.w3.org/2000/svg"><g fill-rule="nonzero" fill="none"><path d="M29.5 12h-15a1.5 1.5 0 0 0 0 3h15a1.5 1.5 0 0 0 0-3zM29.5 18h-15a1.5 1.5 0 0 0 0 3h15a1.5 1.5 0 0 0 0-3zM29.5 23h-15a1.5 1.5 0 0 0 0 3h15a1.5 1.5 0 0 0 0-3zM29.5 29h-15a1.5 1.5 0 0 0 0 3h15a1.5 1.5 0 0 0 0-3z" fill="#3C7EFB"/><path d="M20.58 39h-4.16c-.79 0-1.42.66-1.42 1.47v19.06c0 .81.63 1.47 1.42 1.47h4.16c.79 0 1.42-.66 1.42-1.47V40.47c0-.81-.63-1.47-1.42-1.47zm-1.41 19.07h-1.34V41.93h1.34v16.14zM28.58 42h-4.16c-.79 0-1.42.65-1.42 1.46v16.08c0 .8.63 1.46 1.42 1.46h4.16c.79 0 1.42-.65 1.42-1.46V43.46c0-.8-.63-1.46-1.42-1.46zm-1.41 16.08h-1.34V44.92h1.34v13.16zM37.58 47h-4.16c-.79 0-1.42.67-1.42 1.5v12c0 .83.63 1.5 1.42 1.5h4.16c.79 0 1.42-.67 1.42-1.5v-12c0-.83-.63-1.5-1.42-1.5zm-1.41 12h-1.34v-9h1.34v9z" fill="#D775FF"/><path d="M70 36.46c0-6.37-4.13-12-10.2-13.91V5.83A5.83 5.83 0 0 0 53.95 0h-42.3a5.83 5.83 0 0 0-5.83 5.83v27.71A5.83 5.83 0 0 0 0 39.38v21.87A8.75 8.75 0 0 0 8.75 70h51.04c.8 0 1.46-.65 1.46-1.46V56.87c0-.8-.65-1.45-1.46-1.45v-5.05A14.58 14.58 0 0 0 70 36.46zm-2.92 0a11.67 11.67 0 1 1-23.33 0 11.67 11.67 0 0 1 23.33 0zm-17.5-20.42H36.46v-2.91h13.12v2.91zm-13.12 2.92h13.12v4.14a14.67 14.67 0 0 0-6.78 6.07h-6.34V18.96zm9.93 48.12H8.75a5.83 5.83 0 0 1-5.83-5.83V39.37c0-1.6 1.3-2.91 2.91-2.91v23.33a1.46 1.46 0 0 0 2.92 0V5.83c0-1.6 1.3-2.91 2.92-2.91h42.29c1.6 0 2.91 1.3 2.91 2.91v16.12c-.48 0-.96-.07-1.45-.07-.98 0-1.96.1-2.92.29v-10.5c0-.8-.65-1.46-1.46-1.46H35c-.8 0-1.46.65-1.46 1.46v18.95c0 .81.65 1.46 1.46 1.46h6.5a14.58 14.58 0 0 0 9.54 18.3v5.04c-.8 0-1.46.65-1.46 1.45v10.21H46.4zm11.94 0H52.5v-8.75h5.83v8.75zm-1.45-11.66h-2.92v-4.45c.48 0 .96.07 1.46.07s.97 0 1.45-.07v4.45z" fill="#3C7EFB"/><path d="M47 36.5a8.5 8.5 0 1 0 17 0 8.5 8.5 0 0 0-17 0zm14.17 0a5.67 5.67 0 1 1-11.34 0 5.67 5.67 0 0 1 11.34 0z" fill="#3C7EFB"/><path d="M54 33.5c0 .83.67 1.5 1.5 1.5s1.5.67 1.5 1.5a1.5 1.5 0 0 0 3 0 4.5 4.5 0 0 0-4.5-4.5c-.83 0-1.5.67-1.5 1.5z" fill="#3C7EFB"/></g></svg>