<svg width="100" height="72" xmlns="http://www.w3.org/2000/svg"><g fill="none" fill-rule="evenodd"><path d="M59.05 43.5a7.34 7.34 0 0 1-4.32 5 7.37 7.37 0 0 0-4.02 4A7.4 7.4 0 0 1 43 57a7.5 7.5 0 0 0-1 0 7.24 7.24 0 0 0-4.5 1.5 7.37 7.37 0 0 1-9 0A7.27 7.27 0 0 0 24 57a7.5 7.5 0 0 0-1.01 0 7.4 7.4 0 0 1-7.77-4.5 7.41 7.41 0 0 0-4.02-4 7.4 7.4 0 0 1-4.5-7.77 7.34 7.34 0 0 0-1.42-5.5 7.27 7.27 0 0 1 0-9 7.5 7.5 0 0 0 1.42-5.48 7.4 7.4 0 0 1 4.5-7.78A7.41 7.41 0 0 0 15.24 9 7.4 7.4 0 0 1 23 4.5c.34.02.68.02 1.01 0a7.27 7.27 0 0 0 4.5-1.5 7.36 7.36 0 0 1 9 0A7.24 7.24 0 0 0 43 4.5 7.4 7.4 0 0 1 50.77 9a7.36 7.36 0 0 0 4.02 4 7.34 7.34 0 0 1 4.5 6.5" stroke="#3C7EFB" stroke-width="3" stroke-linecap="round" stroke-linejoin="round"/><path d="M51.13 43.14a21.75 21.75 0 1 1 .73-23.64" stroke="#D775FF" stroke-width="3" stroke-linecap="round" stroke-linejoin="round"/><path d="M37.8 17.52c.51.2 1.01.44 1.5.7M25 19.36a12.9 12.9 0 0 1 8-2.76M12.87 49.44L2.4 59.91H13V70.5l12-12M53.63 49.44L64.1 59.91H53.5V70.5l-12-12" stroke="#3C7EFB" stroke-width="3" stroke-linecap="round" stroke-linejoin="round"/><text fill="#3C7EFB" font-family="Helvetica" font-size="18" transform="translate(2 1)"><tspan x="17.25" y="38.8">GDPR EU</tspan></text></g></svg>