<svg width="83" height="82" xmlns="http://www.w3.org/2000/svg"><g transform="translate(2)" stroke-width="3.6" fill="none" fill-rule="evenodd" stroke-linecap="round" stroke-linejoin="round"><path stroke="#D775FF" d="M25.14 80.18v-32.8h8.97v32.8M64.64 80.18V20.04h8.97v60.14"/><path d="M14.36 47.38l14.37-10.94" stroke="#3C7EFB"/><ellipse stroke="#3C7EFB" fill="#FFF" fill-rule="nonzero" transform="rotate(-77.47 29.63 35.45)" cx="29.63" cy="35.45" rx="4.49" ry="4.56"/><path d="M34.11 34.62l10.78-3.64" stroke="#3C7EFB"/><ellipse stroke="#3C7EFB" fill="#FFF" fill-rule="nonzero" transform="rotate(-86.37 49.38 28.24)" cx="49.38" cy="28.24" rx="4.49" ry="4.56"/><path d="M53.86 25.51L68.23 7.3" stroke="#3C7EFB"/><ellipse stroke="#3C7EFB" fill="#FFF" fill-rule="nonzero" transform="rotate(-17.93 69.19 6.42)" cx="69.19" cy="6.42" rx="4.49" ry="4.56"/><ellipse stroke="#3C7EFB" fill="#FFF" fill-rule="nonzero" cx="9.88" cy="50.11" rx="4.49" ry="4.56"/><path d="M0 80.18h79M5.39 80.18V61.96h8.97v18.22M44.89 80.18v-40.1h8.97v40.1" stroke="#3C7EFB"/></g></svg>