<svg id="Layer_1" xmlns="http://www.w3.org/2000/svg" viewBox="0 0 1440 1024"><style>.st0{fill:#47b9ec}.st1{fill:#6bd4fa}.st8{fill:#fe686f}.st9{fill:#ff5056}.st17{fill:#fabac3}.st19{fill:#f3f1f3}.st20{fill:#cdcad4}.st21{fill:#e0dde3}.st22{fill:#bab6c4}.st24{fill:#e5ba05}.st25{fill:#f9d021}.st26{fill:#f9c85a}.st27{fill:#fbbe4d}.st32{fill:#1b71f1}.st34{fill:#f4f9fd}.st35{fill:#fdb440}.st44{fill:none}.st51{fill:#46ecf9}.st52{fill:#8af6f9}.st54{fill:#fff}.st60{fill:#35abe5}.st61{fill:#f6f7ff}.st62{fill:#59c6f3}</style><path class="st0" d="M853.8 912.1L1230.9 694c80.8-46.8 80.9-163.5.1-210.3L792.5 229.4a121.35 121.35 0 0 0-121.8 0L270 461.4c-98 56.7-97.8 198.2.4 254.7l341.4 196.4c74.9 43 167.1 42.9 242-.4z"/><path class="st1" d="M848.2 895.8l377.1-218.1c80.8-46.8 80.9-163.5.1-210.3L786.9 213.1a121.35 121.35 0 0 0-121.8 0L264.3 445c-98 56.7-97.8 198.2.4 254.7l341.4 196.4c75 43.1 167.2 43 242.1-.3z"/><path class="st0" d="M1226.1 466.4L969 317.3c-48.9-1.3-93.8-3-98.3-4.8-10.3-4.1-135.4 54-135.4 54L1134 729.9l92-53.2c80.8-46.7 80.9-163.4.1-210.3zM747.7 546.3l8.6-13.5 7.3-24.1-438.2 180.8-50.1 16.3 212.9 124z"/><linearGradient id="SVGID_1_" gradientUnits="userSpaceOnUse" x1="403.12" y1="467.33" x2="643.75" y2="467.33"><stop offset="0" stop-color="#35abe5"/><stop offset=".51" stop-color="#2885ea"/><stop offset="1" stop-color="#1d65ef"/></linearGradient><path fill="url(#SVGID_1_)" d="M403.1 497.4L581 397.3l62.7 44.9-160.2 95.1z"/><linearGradient id="SVGID_2_" gradientUnits="userSpaceOnUse" x1="447.88" y1="466.9" x2="599.41" y2="466.9"><stop offset="0" stop-color="#35abe5"/><stop offset=".51" stop-color="#2885ea"/><stop offset="1" stop-color="#1d65ef"/></linearGradient><path fill="url(#SVGID_2_)" d="M447.9 486.2L560 423l39.4 28.2-100.6 59.6z"/><linearGradient id="SVGID_3_" gradientUnits="userSpaceOnUse" x1="457.84" y1="469.09" x2="585.86" y2="469.09"><stop offset="0" stop-color="#35abe5"/><stop offset=".51" stop-color="#2885ea"/><stop offset="1" stop-color="#1d65ef"/></linearGradient><path fill="url(#SVGID_3_)" d="M457.8 485.7l95.5-54.7 32.6 23.3-86.6 52.9z"/><linearGradient id="SVGID_4_" gradientUnits="userSpaceOnUse" x1="389.99" y1="435.07" x2="514.78" y2="435.07"><stop offset="0" stop-color="#1a1e3e"/><stop offset=".07" stop-color="#23294c"/><stop offset=".17" stop-color="#2e355d"/><stop offset=".31" stop-color="#353e69"/><stop offset=".5" stop-color="#3a4370"/><stop offset="1" stop-color="#3b4472"/></linearGradient><path d="M511.4 438.6l-80.6 46.8-37.5-33.4-3.3-27.2 3.6-19.2 13.2-12.8 17-3.5s9.6-5.6 16.2-4.7c6.5.9 13 .6 15.9 1.5 2.9.9 9.1 2 9.1 2l12.3 11.7 9.6 11.2s10.2 4.9 11.5 5.4c1.3.6 3.4 3.8 7.2 2.6s4.6.8 5.9 3.1c1.4 2.3 3.4 6.9 3.4 6.9l-3.5 9.6z" fill="url(#SVGID_4_)"/><path d="M415.6 440.5s-.6 8.1-1.3 12.7c-.7 4.7 21 29.5 21 29.5l20.3-11.8-2.7-2.9 2.6-2.5 3.7 3.3 43.6-24.5-28.3-12.3-3.1-7.1-55.8 15.6z" fill="#fdfffe"/><linearGradient id="SVGID_5_" gradientUnits="userSpaceOnUse" x1="389.99" y1="438.87" x2="518.23" y2="438.87"><stop offset="0" stop-color="#1a1e3e"/><stop offset=".07" stop-color="#23294c"/><stop offset=".17" stop-color="#2e355d"/><stop offset=".31" stop-color="#353e69"/><stop offset=".5" stop-color="#3a4370"/><stop offset="1" stop-color="#3b4472"/></linearGradient><path d="M422.7 384.8c10.9-2.5 45.4-1.6 45.4-1.6s13.8 22.1 15 23.9c1.1 1.9 23.7 9.4 26.2 10.9s6.4 4.1 7.9 6.1c1.6 2 .9 10.4.9 10.4l-6.6 4s1-9.6-.3-11.5c-1.3-1.8-26.8-13.2-30.1-14.9-3.3-1.7-11.7-21.9-16.1-24-4.4-2-45.2 1.5-45.2 1.5s-29.3 4.9-24.6 30.1C399.9 444.9 425 462 425 462s12.5 7.6 10.5 20.5l-20.4 11.9-4.4-32.4s-12.2-13.1-12.8-14.5l-7.8-16.9v-25.1c5.4-9.4 21.8-18.1 32.6-20.7z" fill="url(#SVGID_5_)"/><path class="st8" d="M488.2 353s11.6 41.6 17.8 53.5l-12.9 7s-15-35.1-15.8-45.7c-.9-10.6 2.6-15.5 2.6-15.5l4.6-1.9 3.7 2.6z"/><path class="st9" d="M481.5 383.5c-2.2-6.5-3.9-12.4-4.2-15.8-.9-10.6 2.6-15.5 2.6-15.5l2.3-.9c-.4 5.8-1.1 20-.7 32.2z"/><path d="M480.5 356.6s-.7 17.8-14.8 39.7c0 0 5.7 13.5 5.8 28.6 0 0-12.7 14.9-30.8 17 0 0-1.5-.8-3.9-.4-1.2.2-2.3.7-3.1 1.7-2.5 2.9-6.3 8.2-3.4 12.8 0 0-17.9-16.6-18.7-22.9-.8-6.3-7.4-41.4 2.3-55.1 9.7-13.7 42.1-33.2 46.5-33.9s20.1 12.5 20.1 12.5z" fill="#fd7f88"/><linearGradient id="SVGID_6_" gradientUnits="userSpaceOnUse" x1="439.07" y1="323.38" x2="455.82" y2="323.38"><stop offset="0" stop-color="#1a1e3e"/><stop offset=".07" stop-color="#23294c"/><stop offset=".17" stop-color="#2e355d"/><stop offset=".31" stop-color="#353e69"/><stop offset=".5" stop-color="#3a4370"/><stop offset="1" stop-color="#3b4472"/></linearGradient><path d="M439.1 312.5s.8 9.9 4 13.5c3.2 3.6 10.9 8.3 10.9 8.3l1.9-15.7-16.8-6.1z" fill="url(#SVGID_6_)"/><path d="M452 341s-2.2 8.9-4.6 11.8-6.4 4.7-4.2 9.8c2.2 5.1 14.4 6.3 20.2 0 5.8-6.3-1.5-9.2-1.5-9.2l2.1-4-12-8.4z" fill="#efa8b4"/><path d="M485.6 308.6s16.2 38.3 1.1 46.3c-15 8-35.4-12.7-36.7-17 0 0-2.9 3.3-7.4-.7s-4.3-8-2-10.2c2.3-2.2 6.1-1.3 11.3 5.6 0 0 2.6-5.9 2.4-12.5-.2-6.5-1.5-13.7 3.2-15.7 4.9-1.9 18.3-7 28.1 4.2z" fill="#fbbac2"/><linearGradient id="SVGID_7_" gradientUnits="userSpaceOnUse" x1="437.24" y1="304.77" x2="490.68" y2="304.77"><stop offset="0" stop-color="#1a1e3e"/><stop offset=".07" stop-color="#23294c"/><stop offset=".17" stop-color="#2e355d"/><stop offset=".31" stop-color="#353e69"/><stop offset=".5" stop-color="#3a4370"/><stop offset="1" stop-color="#3b4472"/></linearGradient><path d="M462.5 311s17.3 4.4 24.9-4.5c7.5-8.9 0-12.3 0-12.3s.6 2.4-2.9 2.7c-3.4.3-15.3-7.4-24.5-7.6-9.2-.2-17 4.9-16.3 12.2 0 0-6.5 1.4-6.5 6.5s5.1 11.9 17.1 12.1c12 .1 2.5-12.3 2.5-12.3s3.8 2.8 5.7 3.2z" fill="url(#SVGID_7_)"/><path d="M487 329.5l1.2 5.7c.3 1.2-.3 2.4-1.4 3-1.6.9-3.7 0-4.1-1.8l-1.4-5.6c-.3-1.3.3-2.6 1.4-3.2l.2-.1c1.6-.8 3.7.1 4.1 2z" fill="#f55787"/><path class="st8" d="M424.2 410c-1.3-4.9.7-15.6.7-15.6 1.4 31.2 11.6 44 15.7 47.5-.3 0 .3 0 0 0 0 0-1.5-.8-3.9-.4-10.1-8.8-11.3-26.6-12.5-31.5z"/><ellipse transform="rotate(-52.55 435.99 449.5)" class="st8" cx="436" cy="449.5" rx="8.9" ry="6.7"/><ellipse transform="rotate(-37.48 500.76 413.09)" cx="500.8" cy="413.1" rx="9" ry="7.8" fill="#e03f7d"/><path class="st17" d="M433 447.2c2.4-3.1 6.7-3.8 9.6-1.5 0 0 40.1 19.5 41.9 19.2 1.8-.3 10.8 3.7 10.6 5.2-.2 1.5-6.5.4-6.3 1.1.2.8 9 11.6 9.4 12.5.5 1-.9 2.9-2.4 3-1.4.1-5.3-5.3-5.3-5.3-.9 1.7-3 2.3-3 2.3-1.6.8-3.8.6-3.8.6-2.3 0-7-8.5-9.9-11.7-2.9-3.3-36.7-14.5-36.7-14.5-1.1-.1-2.3-.5-3.2-1.3-2.8-2.2-3.3-6.5-.9-9.6zM498.6 409.5c-3.4 1.9-4.8 6-3 9.3 0 0 13.1 42.6 12.5 44.4-.5 1.7 2 11.2 3.5 11.3 1.5 0 1.4-6.3 2.1-6 .7.3 10 10.6 10.9 11.3.9.6 3-.5 3.3-1.9.3-1.4-4.4-6-4.4-6 1.8-.6 2.7-2.6 2.7-2.6 1-1.5 1.2-3.7 1.2-3.7.4-2.3-7.3-8.2-10.1-11.6-2.8-3.4-8.7-38.5-8.7-38.5.1-1.2-.2-2.3-.7-3.4-1.6-3.3-5.8-4.5-9.3-2.6z"/><linearGradient id="SVGID_8_" gradientUnits="userSpaceOnUse" x1="387" y1="450.4" x2="431.23" y2="450.4"><stop offset="0" stop-color="#1a1e3e"/><stop offset=".07" stop-color="#23294c"/><stop offset=".17" stop-color="#2e355d"/><stop offset=".31" stop-color="#353e69"/><stop offset=".5" stop-color="#3a4370"/><stop offset="1" stop-color="#3b4472"/></linearGradient><path d="M390 405.7c.7 36.3 28.7 57.2 35.3 62 3.6 2.6 5.1 7.4 5.7 11.3.3 2.1.3 4.3-.2 6.4l-16.5 9.6c-5.1-1.4-17.9-11.2-24.3-32.4-6.7-22.3 0-56.9 0-56.9z" fill="url(#SVGID_8_)"/><g><path class="st19" d="M763.6 459.8l-42.2 24.3-42.5-24.3 42.5-24.5z"/><path class="st20" d="M721.4 484.1v49l-42.3-24.5-.2-48.8z"/><path class="st21" d="M763.6 459.8v48.9l-42.2 24.4v-49zM747.7 450.6L705 474.8l-11.3-6.4 42.6-24.4z"/><path class="st22" d="M705 474.8l-.5 10.2-11-6.6v-10.5z"/><path fill="#ffe885" d="M699.3 471.9L657 496.4l-42.5-24.5 42.6-24.5z"/><path class="st24" d="M657 496.4v49l-42.4-24.5-.1-49z"/><path class="st25" d="M699.3 471.9v49L657 545.4v-49zM683.4 462.8l-42.8 24.3-11.3-6.5 42.6-24.4z"/><path class="st25" d="M640.6 487.1l-.5 10.2-11.1-6.6v-10.6z"/><path class="st19" d="M741.6 496.1l-42.2 24.4-42.5-24.4 42.5-24.5z"/><path class="st20" d="M699.4 520.5v48.9L657 544.9l-.1-48.8z"/><path class="st21" d="M741.6 496.1V545l-42.2 24.4v-48.9zM725.6 487L683 511.2l-11.3-6.5 42.5-24.3z"/><path class="st22" d="M683 511.2l-.6 10.2-10.9-6.6v-10.5z"/><path class="st26" d="M743.9 413.2l-42.3 24.4-42.6-24.4 42.6-24.5z"/><path class="st24" d="M701.6 437.6v49.1l-42.5-24.6-.1-48.9z"/><path class="st27" d="M743.9 413.2v49l-42.3 24.5v-49.1zM727.9 404.1l-42.8 24.2-11.3-6.5 42.7-24.4z"/><path class="st25" d="M685.1 428.3l-.5 10.2-11-6.6v-10.5z"/><linearGradient id="SVGID_9_" gradientUnits="userSpaceOnUse" x1="340.55" y1="494.73" x2="463.79" y2="708.19"><stop offset="0" stop-color="#35abe5"/><stop offset=".51" stop-color="#2885ea"/><stop offset="1" stop-color="#1d65ef"/></linearGradient><path fill="url(#SVGID_9_)" d="M345.4 492l1.1 153.5 112.9 65.2.4-149.8z"/><linearGradient id="SVGID_10_" gradientUnits="userSpaceOnUse" x1="673.89" y1="403.8" x2="487.39" y2="726.83"><stop offset="0" stop-color="#35abe5"/><stop offset=".21" stop-color="#33a5e6"/><stop offset=".49" stop-color="#2d94e8"/><stop offset=".81" stop-color="#2479ec"/><stop offset="1" stop-color="#1d65ef"/></linearGradient><path fill="url(#SVGID_10_)" d="M700.9 419.4v151.3l-241.5 140 .4-149.8z"/><linearGradient id="SVGID_11_" gradientUnits="userSpaceOnUse" x1="345.64" y1="458.61" x2="701.22" y2="458.61"><stop offset="0" stop-color="#35abe5"/><stop offset=".51" stop-color="#2885ea"/><stop offset="1" stop-color="#1d65ef"/></linearGradient><path d="M351.9 481.6c-8.3 4.8-8.3 16.8 0 21.5l94 54.3c8.3 4.8 18.4 4.8 26.7 0l223.7-129.2c6.6-3.8 6.6-13.4 0-17.3l-80.8-46.7a60.35 60.35 0 0 0-60.4 0l-1 .6 63.3 36.3-185 106.9-65.1-35.2-15.4 8.8z" fill="url(#SVGID_11_)"/><path class="st20" d="M554.1 364.3l.9 72.2 62.4-36z"/><linearGradient id="SVGID_12_" gradientUnits="userSpaceOnUse" x1="580.69" y1="582.59" x2="590.57" y2="599.71"><stop offset="0" stop-color="#35abe5"/><stop offset=".51" stop-color="#2885ea"/><stop offset="1" stop-color="#1d65ef"/></linearGradient><path fill="url(#SVGID_12_)" d="M655.6 539.3l-.2 23L515.1 642v-21.3z"/><path class="st32" d="M655.8 561.9l-19.1-11.8-121.1 70.2v21.3z"/><linearGradient id="SVGID_13_" gradientUnits="userSpaceOnUse" x1="580.69" y1="612.94" x2="590.57" y2="630.07"><stop offset="0" stop-color="#35abe5"/><stop offset=".51" stop-color="#2885ea"/><stop offset="1" stop-color="#1d65ef"/></linearGradient><path fill="url(#SVGID_13_)" d="M655.6 569.7l-.2 23-140.3 79.7v-21.3z"/><path class="st32" d="M655.8 592.2l-19.1-11.8-121.1 70.2V672z"/><g><path class="st8" d="M504 523.5l-40.4 22.8-29.7-16.2 43.4-22.4z"/><path class="st9" d="M463.6 546.3v8l40.4-22.9v-7.9zM463.6 554.3l-30.6-17 4.3-2.1 26.3 15.4z"/><path class="st34" d="M463.6 553l-27.8-15.6v-6.2l27.8 15.1z"/></g><g><path class="st26" d="M490.9 526.5l-25 14.2-18.3-10.1 26.8-13.9z"/><path class="st35" d="M465.9 540.7v4.9l25-14.2v-4.9zM465.9 545.6L447 535.1l2.7-1.3 16.2 9.5z"/><path class="st34" d="M465.9 544.8l-17.1-9.7v-3.8l17.1 9.4z"/></g><g><path class="st27" d="M612.9 390.4c0 3 2.4 5.4 5.4 5.4 3 0 5.4-2.4 5.4-5.4s-2.4-5.4-5.4-5.4c-3-.1-5.4 2.4-5.4 5.4zm1.9 0c0-1.9 1.6-3.5 3.5-3.5s3.5 1.6 3.5 3.5-1.6 3.5-3.5 3.5c-1.9-.1-3.5-1.6-3.5-3.5z"/><path class="st27" d="M645.6 383.4h-26.4v4.4c0 7.3 5.9 13.1 13.1 13.1 7.1 0 13-5.7 13.1-12.8l.2-4.7z"/><ellipse class="st26" cx="632.4" cy="383.4" rx="13.2" ry="7"/><linearGradient id="SVGID_14_" gradientUnits="userSpaceOnUse" x1="619.68" y1="385.16" x2="645.19" y2="385.16"><stop offset=".39" stop-color="#35abe5"/><stop offset=".73" stop-color="#56c4f2"/><stop offset="1" stop-color="#6bd4fa"/></linearGradient><path d="M632.4 379.9c6.1 0 11.3 2.2 12.8 5.2-1.5 3-6.6 5.2-12.8 5.2-6.1 0-11.3-2.2-12.8-5.2 1.6-2.9 6.7-5.2 12.8-5.2z" fill="url(#SVGID_14_)"/></g><g><linearGradient id="SVGID_15_" gradientUnits="userSpaceOnUse" x1="494.97" y1="511.35" x2="607.59" y2="316.29"><stop offset="0" stop-color="#35abe5"/><stop offset=".51" stop-color="#2885ea"/><stop offset="1" stop-color="#1d65ef"/></linearGradient><path fill="url(#SVGID_15_)" d="M622.3 324.9l-132.1 76.4-11.6 100.6.4-.5v.1l3.4 1.8.5-4 129.5-73 9.5-97.3 3.8-2.3z"/><linearGradient id="SVGID_16_" gradientUnits="userSpaceOnUse" x1="498.33" y1="513.2" x2="610.62" y2="318.71"><stop offset="0" stop-color="#35abe5"/><stop offset=".51" stop-color="#2885ea"/><stop offset="1" stop-color="#1d65ef"/></linearGradient><path fill="url(#SVGID_16_)" d="M625.3 327.2l-131.7 76L482 503.8l133.4-75.2z"/><linearGradient id="SVGID_17_" gradientUnits="userSpaceOnUse" x1="549.53" y1="457.61" x2="567.5" y2="426.49"><stop offset="0" stop-color="#35abe5"/><stop offset=".51" stop-color="#2885ea"/><stop offset="1" stop-color="#1d65ef"/></linearGradient><path fill="url(#SVGID_17_)" d="M556.6 461.7v-41.5l7.5 37.3z"/><linearGradient id="SVGID_18_" gradientUnits="userSpaceOnUse" x1="560.94" y1="485.09" x2="568.77" y2="471.52"><stop offset="0" stop-color="#35abe5"/><stop offset=".51" stop-color="#2885ea"/><stop offset="1" stop-color="#1d65ef"/></linearGradient><path d="M570.7 490.7l-17.4-11.3c-1.3-.9-1.2-2.9.3-3.5l13-5.6 4.1 20.4z" fill="url(#SVGID_18_)"/><linearGradient id="SVGID_19_" gradientUnits="userSpaceOnUse" x1="563.75" y1="486.72" x2="571.59" y2="473.15"><stop offset="0" stop-color="#35abe5"/><stop offset=".51" stop-color="#2885ea"/><stop offset="1" stop-color="#1d65ef"/></linearGradient><path fill="url(#SVGID_19_)" d="M570.7 490.7l-7.7-18.9 3.6-1.5z"/></g><linearGradient id="SVGID_20_" gradientUnits="userSpaceOnUse" x1="680.83" y1="559.04" x2="698.36" y2="559.04"><stop offset="0" stop-color="#35abe5"/><stop offset=".51" stop-color="#2885ea"/><stop offset="1" stop-color="#1d65ef"/></linearGradient><circle cx="689.6" cy="559" r="8.8" fill="url(#SVGID_20_)"/><circle class="st32" cx="691.6" cy="559" r="5.4"/><linearGradient id="SVGID_21_" gradientUnits="userSpaceOnUse" x1="660.38" y1="570.21" x2="677.91" y2="570.21"><stop offset="0" stop-color="#35abe5"/><stop offset=".51" stop-color="#2885ea"/><stop offset="1" stop-color="#1d65ef"/></linearGradient><circle cx="669.1" cy="570.2" r="8.8" fill="url(#SVGID_21_)"/><circle class="st32" cx="671.1" cy="570.1" r="5.6"/><path class="st44" d="M556 380.6h14.5v23.3H556z"/><path class="st44" d="M553.6 374.6h16.9V404h-16.9z"/><g><linearGradient id="SVGID_22_" gradientUnits="userSpaceOnUse" x1="2815.13" y1="-813.49" x2="2835.48" y2="-813.49" gradientTransform="scale(-1 1) rotate(54.63 67.6 -3309.35)"><stop offset="0" stop-color="#35abe5"/><stop offset=".51" stop-color="#2885ea"/><stop offset="1" stop-color="#1d65ef"/></linearGradient><path d="M394.2 395.4c-1.9 3.5-6.4 4.8-10.3 2.9l-30.7-15c-4.1-2-5.8-6.7-3.9-10.4l1.2-2.2c2-3.7 6.9-4.9 10.8-2.6l29.5 17.2c3.8 2.1 5.3 6.6 3.4 10.1z" fill="url(#SVGID_22_)"/><linearGradient id="SVGID_23_" gradientUnits="userSpaceOnUse" x1="2819.8" y1="-813.58" x2="2836.08" y2="-813.58" gradientTransform="scale(-1 1) rotate(54.63 67.6 -3309.35)"><stop offset="0" stop-color="#35abe5"/><stop offset=".51" stop-color="#2885ea"/><stop offset="1" stop-color="#1d65ef"/></linearGradient><path d="M393.6 392.9l-37-21.1c-1.9-1.1-3.9-1.6-5.7-1.7-.3.3-.5.7-.7 1.1l-1.2 2.2c-2 3.7-.2 8.4 3.9 10.4l30.7 15c3.9 1.9 8.4.6 10.3-2.9.4-.7.6-1.5.7-2.3-.4-.3-.7-.5-1-.7z" fill="url(#SVGID_23_)"/><linearGradient id="SVGID_24_" gradientUnits="userSpaceOnUse" x1="3503.33" y1="413.33" x2="3590.69" y2="413.33" gradientTransform="matrix(-1 0 0 1 3866.23 0)"><stop offset="0" stop-color="#35abe5"/><stop offset=".51" stop-color="#2885ea"/><stop offset="1" stop-color="#1d65ef"/></linearGradient><path d="M276.4 379.7l-.6 8c-3.3 32.5 25.9 74.5 55.8 61.3 14-6.1 27.3-37.3 28.9-52.5l2.4-21.2-86.5 4.4z" fill="url(#SVGID_24_)"/><linearGradient id="SVGID_25_" gradientUnits="userSpaceOnUse" x1="3563.05" y1="443.49" x2="3518.57" y2="366.45" gradientTransform="matrix(-1 0 0 1 3866.23 0)"><stop offset="0" stop-color="#35abe5"/><stop offset=".51" stop-color="#2885ea"/><stop offset="1" stop-color="#1d65ef"/></linearGradient><path d="M360.5 396.4c-1.6 15.2-14.9 46.4-28.9 52.5-1.4.6-2.7 1.1-4.1 1.6-8.5 2.8-17.7-.9-21.8-8.9-6.9-13.6-9.5-35.1-8.2-48.2l.4-6.1 64.9-12-2.3 21.1z" fill="url(#SVGID_25_)"/><linearGradient id="SVGID_26_" gradientUnits="userSpaceOnUse" x1="3513.23" y1="605.12" x2="3599.16" y2="605.12" gradientTransform="matrix(-.9969 -.07852 -.07852 .9969 3912.93 51.51)"><stop offset="0" stop-color="#35abe5"/><stop offset=".51" stop-color="#2885ea"/><stop offset="1" stop-color="#1d65ef"/></linearGradient><path d="M276.9 380.3c1.1 10.1 21.4 16.1 45.3 13.5 23.9-2.6 42.4-12.9 41.3-23s-21.4-16.1-45.3-13.5c-23.9 2.6-42.4 12.9-41.3 23z" fill="url(#SVGID_26_)"/><linearGradient id="SVGID_27_" gradientUnits="userSpaceOnUse" x1="304.11" y1="374.02" x2="339.42" y2="374.02"><stop offset="0" stop-color="#35abe5"/><stop offset=".51" stop-color="#2885ea"/><stop offset="1" stop-color="#1d65ef"/></linearGradient><path d="M304.1 376c.5 4.1 8.7 6.6 18.5 5.5 9.7-1.1 17.3-5.3 16.8-9.4s-8.7-6.6-18.5-5.5c-9.7 1.1-17.2 5.3-16.8 9.4z" fill="url(#SVGID_27_)"/><path class="st51" d="M321.5 371.6c7.7-.8 14.4.5 17.1 3.1-2.1 3.1-8.4 5.9-16.1 6.8s-14.4-.5-17.1-3.1c2.2-3.2 8.4-6 16.1-6.8z"/><g><ellipse transform="rotate(-4.36 355.68 335.64)" class="st52" cx="355.7" cy="335.6" rx="11.2" ry="18"/><linearGradient id="SVGID_28_" gradientUnits="userSpaceOnUse" x1="3558.93" y1="608.37" x2="3564.28" y2="540.42" gradientTransform="matrix(-.9969 -.07852 -.07852 .9969 3912.93 51.51)"><stop offset="0" stop-color="#35abe5"/><stop offset=".51" stop-color="#2885ea"/><stop offset="1" stop-color="#1d65ef"/></linearGradient><path d="M271.3 339.3l-1.7 14c-2 16.5 20 29.7 39.8 23.7l37.6-11.4c9.2-2.8 15.5-9.3 16.4-17l1.6-13.2c1.9-16.3-19.6-29.3-39.2-23.8l-37.4 10.5c-9.7 2.8-16.2 9.4-17.1 17.2z" fill="url(#SVGID_28_)"/><ellipse transform="matrix(.9998 -.02073 .02073 .9998 -7.19 5.83)" class="st52" cx="277.5" cy="349.8" rx="10.5" ry="18"/><ellipse transform="matrix(.9998 -.02073 .02073 .9998 -7.19 5.83)" class="st52" cx="277.5" cy="349.8" rx="10.5" ry="18"/><path class="st51" d="M274.1 332.6c3.9 2.5 6.8 9 7 16.6.2 8.1-2.8 15.1-7.1 17.4-3.9-2.5-6.8-9-7-16.6-.1-8.2 2.8-15.1 7.1-17.4zM350 353.4l3.8.2c.5 0 .9-.4 1-.9l.7-13.2c0-.5-.4-.9-.9-1l-3.8-.2c-.5 0-.9.4-1 .9l-.7 13.2c0 .5.4 1 .9 1zM305.8 364.4l3.8.2c.5 0 .9-.4 1-.9l.7-13.2c0-.5-.4-.9-.9-1l-3.8-.2c-.5 0-.9.4-1 .9l-.7 13.2c0 .5.4 1 .9 1zM327.1 364.4c1.6.2 3.3.2 4.9-.1 4-.7 7.6-3 9.9-6.3.4-.6.2-1.4-.3-1.8-.6-.4-1.4-.2-1.8.3-1.8 2.7-4.8 4.6-8.2 5.2-3.6.6-7.3-.3-10.4-2.5-.6-.4-1.4-.3-1.8.3-.4.6-.3 1.4.3 1.8 2.3 1.7 4.8 2.8 7.4 3.1z"/><ellipse transform="rotate(-80.96 279.97 354.22)" class="st52" cx="280" cy="354.2" rx="6.2" ry="3.5"/><ellipse transform="rotate(-87.13 309.07 354.33) scale(.99995)" class="st52" cx="309.1" cy="354.3" rx="2.5" ry="1.3"/><ellipse transform="rotate(-87.13 353.19 343.52) scale(.99995)" class="st52" cx="353.2" cy="343.5" rx="2.5" ry="1.3"/></g><path class="st54" d="M340.1 398.7c-.1 1.2-.8 3.1-.8 5.4v11.2c0 1.9.6 2.8 2 2.8 1.3 0 1.9-.8 2.4-2.9l4.8-.6c-.1 2.3-1.6 4.7-2.2 5.5a5.83 5.83 0 0 1-5.1 2.5c-2 0-3.7-.8-4.8-2.2-1-1.3-1.4-3-1.4-5.2v-11.3c0-2.3 0-3.2-.2-4.3l5.3-.9z"/><g><linearGradient id="SVGID_29_" gradientUnits="userSpaceOnUse" x1="282.72" y1="381.08" x2="306.31" y2="421.95"><stop offset="0" stop-color="#35abe5"/><stop offset=".51" stop-color="#2885ea"/><stop offset="1" stop-color="#1d65ef"/></linearGradient><path d="M315.9 415.7c2.3-3.3 1.3-7.9-2.1-10.4l-27.4-20.4c-3.6-2.7-8.7-2.1-11 1.3l-1.4 2c-2.4 3.4-1.2 8.4 2.2 11.2l28.8 18.4c4 1.9 8.6 1.1 10.9-2.1z" fill="url(#SVGID_29_)"/><linearGradient id="SVGID_30_" gradientUnits="userSpaceOnUse" x1="2623.73" y1="-972.99" x2="2642.12" y2="-972.99" gradientTransform="scale(-1 1) rotate(65.58 103.27 -2559.9)"><stop offset="0" stop-color="#35abe5"/><stop offset=".51" stop-color="#2885ea"/><stop offset="1" stop-color="#1d65ef"/></linearGradient><path d="M312.7 417.3L277 394.1c-1.8-1.2-3.2-2.7-4.1-4.3l.6-1.2 1.4-2c2.4-3.4 7.4-4.1 11-1.3l27.4 20.4c3.4 2.6 4.4 7.2 2.1 10.4-.5.7-1.1 1.2-1.7 1.7-.3-.2-.7-.3-1-.5z" fill="url(#SVGID_30_)"/><linearGradient id="SVGID_31_" gradientUnits="userSpaceOnUse" x1="276.21" y1="392.68" x2="282.94" y2="392.68"><stop offset=".39" stop-color="#35abe5"/><stop offset=".73" stop-color="#56c4f2"/><stop offset="1" stop-color="#6bd4fa"/></linearGradient><path d="M278.5 395.9c1.8.6 3.7-.4 4.3-2.1.6-1.8-.3-3.7-2-4.3-1.8-.6-3.7.4-4.3 2.1-.7 1.8.2 3.7 2 4.3z" fill="url(#SVGID_31_)"/><linearGradient id="SVGID_32_" gradientUnits="userSpaceOnUse" x1="277.36" y1="392.68" x2="281.79" y2="392.68"><stop offset=".39" stop-color="#35abe5"/><stop offset=".73" stop-color="#56c4f2"/><stop offset="1" stop-color="#6bd4fa"/></linearGradient><path d="M278.8 394.8c1.2.4 2.4-.2 2.8-1.4.4-1.2-.2-2.4-1.3-2.8-1.2-.4-2.4.2-2.8 1.4-.4 1.1.2 2.4 1.3 2.8z" fill="url(#SVGID_32_)"/><linearGradient id="SVGID_33_" gradientUnits="userSpaceOnUse" x1="277.93" y1="392.31" x2="281.66" y2="392.31"><stop offset="0" stop-color="#35abe5"/><stop offset=".51" stop-color="#2885ea"/><stop offset="1" stop-color="#1d65ef"/></linearGradient><path d="M278.1 391.2c0-.1.1-.2.1-.2.6-.5 1.4-.7 2.1-.4.5.2 1.3 3 1.3 2.8 0 .1-.1.2-.1.2-.6.5-1.4.7-2.1.4-1.1-.3-1.8-1.6-1.3-2.8z" fill="url(#SVGID_33_)"/></g></g><ellipse transform="rotate(-56.74 655.65 415.03)" class="st35" cx="655.7" cy="415" rx="8.3" ry="14.9"/><path class="st26" d="M660.2 408.1c4.8 3.1 7.9 7.4 8.6 10.9-.1.6-.3 1.2-.7 1.7-2.5 3.8-10.1 3.3-17-1.2-4.8-3.1-7.9-7.4-8.6-10.9.1-.6.3-1.2.7-1.7 2.5-3.8 10.1-3.3 17 1.2z"/><g><path class="st19" d="M410 640.7L367.7 665l-42.4-24.3 42.5-24.5z"/><path class="st20" d="M367.7 665v49l-42.3-24.5-.1-48.8z"/><path class="st21" d="M410 640.7v48.9L367.7 714v-49zM394 631.5l-42.7 24.2-11.3-6.4 42.6-24.4z"/><path class="st22" d="M351.3 655.7l-.5 10.2-11-6.6v-10.5z"/></g><path class="st35" d="M667.6 422.3s-3.2-6.3-7.8-9.1c0 0 5.7 6.1 7 9.7l.8-.6z"/><g><path class="st19" d="M458.8 659.3l-42.3 24.4-42.4-24.4 42.5-24.4z"/><path class="st20" d="M416.5 683.7v49l-42.3-24.5-.1-48.9z"/><path class="st21" d="M458.8 659.3v48.9l-42.3 24.5v-49zM442.8 650.2l-42.7 24.2-11.3-6.5 42.6-24.3z"/><path class="st22" d="M400.1 674.4l-.5 10.2-11-6.6v-10.5z"/></g><g><path class="st26" d="M439 612.8l-42.3 24.4-42.6-24.4 42.6-24.5z"/><path class="st27" d="M396.7 637.2v49.1l-42.4-24.6-.2-48.9z"/><path class="st35" d="M439 612.8v49l-42.3 24.5v-49.1z"/><path class="st27" d="M423 603.6l-42.7 24.3-11.4-6.5 42.7-24.4z"/><path class="st35" d="M380.3 627.9l-.6 10.2-11-6.6V621z"/></g></g><g><path class="st60" d="M744 54.5l-11.2 306.7a6.5 6.5 0 0 0 3.6 6.3l479.9 257.8c4.4 2.3 14.4.3 14.4-4.7l-.9-283c0-6.2-3.3-12-8.6-15.2L751 53.1c-4.2-2.5-6.7-3.6-7 1.4z"/><path class="st60" d="M1213.5 631.8l12.8-6.6-6-14.4zM734.6 55.5l10.7-4.3 7.2 12.5z"/><path class="st61" d="M732.6 72.6v288.3c0 2.8 1.5 5.4 3.9 6.8l458.6 264.8c11.5 6.7 25.9-1.7 25.9-15v-260c0-14.5-7.7-27.8-20.2-35.1l-450.6-260c-7.8-4.6-17.6 1.1-17.6 10.2z"/><path class="st62" d="M1209.1 327.3l-458.9-265c-3-1.7-6.2-2-9.1-1.1L732.6 76v19.4l488.4 282v-29.6c0-8.4-4.5-16.2-11.9-20.5z"/><path class="st0" d="M864.8 128.5L750.2 62.4c-7.9-4.5-17.7 1.1-17.7 10.2v288.3c0 2.8 1.5 5.4 3.9 6.8l128.3 74.1V128.5z"/><path class="st62" d="M780.6 79.9l-42.2-24.4c-2.6-1.5-5.9.4-5.9 3.4v301.7c0 3 1.6 5.7 4.1 7.2l44 25.4V79.9z"/><path class="st1" d="M786 136.3v13.6l69.3 39.6v-13.2zM786 209.5v13.6l69.3 39.6v-13.2zM790.5 189.5v13.6l23.9 13.7.4-13.3zM823.6 207v13.6l24 13.7.3-13.3zM786 116.9v13.7l69.3 39.5v-13.2z"/><ellipse transform="rotate(-27.76 752.68 144.35)" class="st60" cx="752.6" cy="144.4" rx="9.1" ry="10.6"/><ellipse transform="rotate(-27.21 1197.36 344.8)" class="st60" cx="1197.4" cy="344.8" rx="9.1" ry="10.6"/><ellipse transform="rotate(-30 752.57 192.53)" class="st60" cx="752.6" cy="192.5" rx="9.1" ry="10.6"/><ellipse transform="rotate(-42.61 752.62 240.88)" class="st60" cx="752.6" cy="240.9" rx="9.1" ry="10.6"/><ellipse transform="rotate(-42.61 752.5 289.17)" class="st60" cx="752.5" cy="289.2" rx="9.1" ry="10.6"/><path class="st0" d="M898.7 225.2l204.9 115.5-2.4 210-202.5-115.2z"/><path class="st62" d="M1103.2 373.8l.4-33.1-204.9-115.5v37.5zM1116.4 347.8l-1 86.2 93.8 52.4v-84.1z"/><path class="st60" d="M870.9 235.8l-.1 9.4c0 1.9 1 3.6 2.6 4.5l12.8 7.1c3.4 1.9 7.7-.6 7.6-4.5l-.1-9.1c0-1.8-1-3.5-2.5-4.4l-12.5-7.4c-3.4-2-7.7.4-7.8 4.4zM870.9 279.7l-.1 9.4c0 1.9 1 3.6 2.6 4.5l12.8 7.1c3.4 1.9 7.7-.6 7.6-4.5l-.1-9.1c0-1.8-1-3.5-2.5-4.4l-12.5-7.4c-3.4-2-7.7.4-7.8 4.4zM870.9 319.7l-.1 9.4c0 1.9 1 3.6 2.6 4.5l12.8 7.1c3.4 1.9 7.7-.6 7.6-4.5l-.1-9.1c0-1.8-1-3.5-2.5-4.4l-12.5-7.4c-3.4-1.9-7.7.5-7.8 4.4z"/></g><g><linearGradient id="SVGID_34_" gradientUnits="userSpaceOnUse" x1="2976.86" y1="-100.95" x2="2997.21" y2="-100.95" gradientTransform="scale(-1) rotate(27.65 2188.07 -8001.71)"><stop offset="0" stop-color="#63a0f6"/><stop offset=".36" stop-color="#609cf3"/><stop offset=".7" stop-color="#5891e9"/><stop offset="1" stop-color="#4c80db"/></linearGradient><path d="M785.1 611.8c-3.2-2.3-7.9-1.3-10.5 2.1L754 641.2c-2.7 3.6-2.2 8.6 1.3 11l2 1.4c3.4 2.4 8.3 1.2 10.8-2.6l18.5-28.7c2.5-3.5 1.7-8.2-1.5-10.5z" fill="url(#SVGID_34_)"/><linearGradient id="SVGID_35_" gradientUnits="userSpaceOnUse" x1="2980.93" y1="-100.94" x2="2997.21" y2="-100.94" gradientTransform="scale(-1) rotate(27.65 2188.07 -8001.71)"><stop offset="0" stop-color="#35abe5"/><stop offset=".51" stop-color="#2885ea"/><stop offset="1" stop-color="#1d65ef"/></linearGradient><path d="M786.3 614.6l-23.4 35.6c-1.2 1.8-2.7 3.2-4.3 4.1l-1.2-.6-2-1.4c-3.4-2.4-4-7.4-1.3-11l20.6-27.3c2.6-3.4 7.2-4.4 10.5-2.1.7.5 1.2 1.1 1.7 1.7-.3.3-.4.6-.6 1z" fill="url(#SVGID_35_)"/><linearGradient id="SVGID_36_" gradientUnits="userSpaceOnUse" x1="609.15" y1="695.72" x2="696.5" y2="695.72" gradientTransform="translate(149.73)"><stop offset="0" stop-color="#35abe5"/><stop offset=".51" stop-color="#2885ea"/><stop offset="1" stop-color="#1d65ef"/></linearGradient><path d="M845.4 662l.6 8c3.3 32.5-25.9 74.5-55.8 61.3-14-6.1-27.3-37.3-28.9-52.5l-2.4-21.2 86.5 4.4z" fill="url(#SVGID_36_)"/><linearGradient id="SVGID_37_" gradientUnits="userSpaceOnUse" x1="609.15" y1="695.72" x2="674.82" y2="695.72" gradientTransform="translate(149.73)"><stop offset="0" stop-color="#35abe5"/><stop offset=".51" stop-color="#2885ea"/><stop offset="1" stop-color="#1d65ef"/></linearGradient><path d="M761.3 678.8c1.6 15.2 14.9 46.4 28.9 52.5 1.4.6 2.7 1.1 4.1 1.6 8.5 2.8 17.7-.9 21.8-8.9 6.9-13.6 9.5-35.1 8.2-48.2l-.4-6.1-64.9-12 2.3 21.1z" fill="url(#SVGID_37_)"/><linearGradient id="SVGID_38_" gradientUnits="userSpaceOnUse" x1="606.2" y1="659.84" x2="692.13" y2="659.84" gradientTransform="rotate(-4.51 706.54 -1284.35) scale(.99999)"><stop offset="0" stop-color="#35abe5"/><stop offset=".51" stop-color="#2885ea"/><stop offset="1" stop-color="#1d65ef"/></linearGradient><path d="M845.3 663.1c-1.1 10.1-21.4 16.1-45.3 13.5s-42.4-12.9-41.3-23 21.4-16.1 45.3-13.5 42.4 12.9 41.3 23z" fill="url(#SVGID_38_)"/><linearGradient id="SVGID_39_" gradientUnits="userSpaceOnUse" x1="782.79" y1="656.84" x2="818.1" y2="656.84"><stop offset="0" stop-color="#35abe5"/><stop offset=".51" stop-color="#2885ea"/><stop offset="1" stop-color="#1d65ef"/></linearGradient><path d="M818.1 658.8c-.5 4.1-8.7 6.6-18.5 5.5s-17.3-5.3-16.8-9.4c.5-4.1 8.7-6.6 18.5-5.5 9.7 1.1 17.2 5.3 16.8 9.4z" fill="url(#SVGID_39_)"/><path class="st51" d="M800.7 654.4c-7.7-.8-14.4.5-17.1 3.1 2.1 3.1 8.4 5.9 16.1 6.8 7.7.8 14.4-.5 17.1-3.1-2.2-3.2-8.4-6-16.1-6.8z"/><linearGradient id="SVGID_40_" gradientUnits="userSpaceOnUse" x1="982.38" y1="270.83" x2="780.93" y2="619.75"><stop offset="0" stop-color="#0ff" stop-opacity="0"/><stop offset=".07" stop-color="#0ff" stop-opacity=".07"/><stop offset=".95" stop-color="#0ff"/></linearGradient><path opacity=".37" fill="url(#SVGID_40_)" d="M880.8 633.4l-116-22.9-25.4-477.1 484.7 277z"/><g><ellipse transform="rotate(-85.64 759.25 618.81)" class="st52" cx="759.2" cy="618.8" rx="18" ry="11.2"/><linearGradient id="SVGID_41_" gradientUnits="userSpaceOnUse" x1="644.62" y1="662.88" x2="649.97" y2="594.93" gradientTransform="rotate(-4.51 706.54 -1284.35) scale(.99999)"><stop offset="0" stop-color="#35abe5"/><stop offset=".51" stop-color="#2885ea"/><stop offset="1" stop-color="#1d65ef"/></linearGradient><path d="M843.7 622.5l1.7 14c2 16.5-20 29.7-39.8 23.7L768 648.9c-9.2-2.8-15.5-9.3-16.4-17l-1.6-13.2c-1.9-16.3 19.6-29.3 39.2-23.8l37.4 10.5c9.6 2.7 16.1 9.2 17.1 17.1z" fill="url(#SVGID_41_)"/><path transform="rotate(-2.87 800.74 619.64) scale(.99995)" class="st44" d="M755.6 583.5h90.3v72.4h-90.3z"/><ellipse transform="matrix(.02073 -.9998 .9998 .02073 187.3 1457.07)" class="st52" cx="837.4" cy="632.9" rx="18" ry="10.5"/><ellipse transform="matrix(.02073 -.9998 .9998 .02073 187.3 1457.07)" class="st52" cx="837.4" cy="632.9" rx="18" ry="10.5"/><path class="st51" d="M840.8 615.8c-3.9 2.5-6.8 9-7 16.6-.2 8.1 2.8 15.1 7.1 17.4 3.9-2.5 6.8-9 7-16.6.2-8.2-2.8-15.1-7.1-17.4z"/><ellipse transform="rotate(-9.04 834.83 637.33)" class="st52" cx="835" cy="637.4" rx="3.5" ry="6.2"/><path class="st54" d="M789.2 619.2c-.1.9-.1 1.5-.1 3.4v8.7c0 1.7-.4 3-1.1 4-.8 1.1-2.1 1.7-3.7 1.7-1.7 0-3.1-.6-4-1.9-.5-.7-1.6-2.5-1.7-4.3l3.7.4c.3 1.6.8 2.2 1.8 2.2 1.1 0 1.6-.7 1.6-2.1v-8.7c0-1.8-.5-3.2-.6-4.2l4.1.8z"/></g><g><linearGradient id="SVGID_42_" gradientUnits="userSpaceOnUse" x1="845.42" y1="646.55" x2="884.09" y2="646.55"><stop offset="0" stop-color="#35abe5"/><stop offset=".51" stop-color="#2885ea"/><stop offset="1" stop-color="#1d65ef"/></linearGradient><path d="M881.7 627.2c3 2.6 3.2 7.3.5 10.6l-21.5 26.6c-2.9 3.5-7.9 4.2-11 1.4l-1.9-1.6c-3.2-2.8-3.2-7.8-.1-11.1l23.4-24.9c2.9-3.1 7.6-3.6 10.6-1z" fill="url(#SVGID_42_)"/><linearGradient id="SVGID_43_" gradientUnits="userSpaceOnUse" x1="2619.07" y1="-438.75" x2="2637.46" y2="-438.75" gradientTransform="rotate(-128.7 2008.4 527.6)"><stop offset="0" stop-color="#35abe5"/><stop offset=".51" stop-color="#2885ea"/><stop offset="1" stop-color="#1d65ef"/></linearGradient><path d="M878.8 626.8l-28.9 31.3c-1.5 1.6-2.5 3.4-2.9 5.2.3.3.6.7.9 1l1.9 1.6c3.2 2.8 8.2 2.1 11-1.4l21.5-26.6c2.7-3.3 2.5-8-.5-10.6-.6-.6-1.4-.9-2.1-1.2-.4.2-.7.4-.9.7z" fill="url(#SVGID_43_)"/><linearGradient id="SVGID_44_" gradientUnits="userSpaceOnUse" x1="848.83" y1="658.47" x2="855.59" y2="658.47"><stop offset="0" stop-color="#35abe5"/><stop offset=".51" stop-color="#2885ea"/><stop offset="1" stop-color="#1d65ef"/></linearGradient><path d="M850.3 655.6c1.6-1 3.7-.6 4.7 1s.6 3.7-.9 4.7c-1.6 1-3.7.6-4.7-1s-.6-3.7.9-4.7z" fill="url(#SVGID_44_)"/><linearGradient id="SVGID_45_" gradientUnits="userSpaceOnUse" x1="849.98" y1="658.47" x2="854.44" y2="658.47"><stop offset=".39" stop-color="#35abe5"/><stop offset=".73" stop-color="#56c4f2"/><stop offset="1" stop-color="#6bd4fa"/></linearGradient><path d="M851 656.6c1-.7 2.4-.4 3.1.7.7 1 .4 2.4-.6 3.1-1 .7-2.4.4-3.1-.7-.7-1.1-.5-2.4.6-3.1z" fill="url(#SVGID_45_)"/><path class="st51" d="M851.1 660.2l.2.2c.7.3 1.5.3 2.2-.1 1-.7 1.3-2 .6-3.1l-.2-.2c-.7-.3-1.5-.3-2.2.1-1 .7-1.3 2.1-.6 3.1z"/></g></g><ellipse class="st60" cx="800.2" cy="750.3" rx="36.3" ry="12.6"/><linearGradient id="SVGID_46_" gradientUnits="userSpaceOnUse" x1="558.03" y1="483.41" x2="592.46" y2="423.78"><stop offset="0" stop-color="#35abe5"/><stop offset=".51" stop-color="#2885ea"/><stop offset="1" stop-color="#1d65ef"/></linearGradient><path fill="url(#SVGID_46_)" d="M574.8 413.6l-18.2 6.6 14.1 70.5 30.5-16.4z"/></svg>