<svg id="Layer_1" xmlns="http://www.w3.org/2000/svg" xmlns:xlink="http://www.w3.org/1999/xlink" viewBox="0 0 1440 1024"><style>.st0{fill:#35abe5}.st1{fill:#6bd4fa}.st2{fill:#47b9ec}.st3{fill:#e5e5e5}.st4{fill:#b8b7bc}.st5{fill:#f41c1c}.st6{fill:#f3f1f3}.st7{fill:#e0dde3}.st8{fill:#3fe8c7}.st11{fill:#46ecf9}.st15{fill:#00f4c5}.st16{opacity:.37;fill:#35abe5}.st17{fill:#797df9}.st21{fill:#fd7f88}.st22{fill:#fe686f}.st23{fill:#fabac3}.st25{fill:#efa8b4}.st26{fill:#f55787}.st27{fill:#fbbac2}.st29{fill:#fff}.st37{fill:#8af6f9}.st39{fill:none}.st55{fill:#a6a8fc;stroke:#000;stroke-width:2;stroke-miterlimit:10}</style><path class="st0" d="M863.6 887.4L1261.9 657c85.4-49.4 85.5-172.7.1-222.2L798.8 166.2a128.41 128.41 0 0 0-128.7-.1l-423.3 245c-103.5 59.9-103.3 209.4.4 269l360.7 207.5a255.83 255.83 0 0 0 255.7-.2z"/><path class="st1" d="M858.7 869.5L1257 639.1c85.4-49.4 85.5-172.7.1-222.2L793.9 148.3a128.41 128.41 0 0 0-128.7-.1L242 393.3c-103.5 59.9-103.3 209.4.4 269L603 869.8a256.07 256.07 0 0 0 255.7-.3z"/><path class="st2" d="M1193.2 458.1l-47.1 148.5-281.7 140.3L1087.5 504l55.3-57.2 36.9-4.3z"/><path class="st2" d="M1095.1 459.6l-19.5 14.3-21.1 17.5-9.6 22.4-160.5 211.4 238.5-258.1z"/><path class="st2" d="M1146.1 606.6l-242 97.7-188 199.2c49 2.8 98.6-8.5 142.5-34L1104 727.6l42.1-121zM1040.5 447.5l-113.7-27.9L357 327.7l-11.5 5.7-103.6 60c-77.3 44.7-96.7 139.4-58.5 209.3 14.4 22.7 32.1 42.3 52 55.5 2.3 1.5 4.5 2.9 6.9 4.3l358.1 206 440.1-421z"/><defs><path id="SVGID_1_" d="M747 271c-198-1.7-359.1 62.7-359.8 143.9-.2 18.4 8 36.1 22.9 52.5l27.2-21.4 98.5 46.4-29.8 33.1c63.2 23.8 146.7 38.6 238.5 39.4 198 1.7 359.1-62.7 359.8-143.9.7-81.2-159.3-148.4-357.3-150z"/></defs><clipPath id="SVGID_2_"><use xlink:href="#SVGID_1_" overflow="visible"/></clipPath><path class="st3" d="M875.6 138.3l53.3 29.6c3.9 2.2 4 7.7.2 10l-60 36.3c-1.7 1-3.9 1.1-5.7.2L806 184.5a5.8 5.8 0 0 1-.2-10.2l64.1-36c1.8-1 4-1 5.7 0z"/><path class="st4" d="M870.2 146l6.4 3.1-49.3 30.8-6.8-3.1zM883.6 153.5l6.4 3-49.3 30.9-6.9-3.1zM897.4 161.2l6.4 3.1-49.3 30.9-6.9-3.1zM910.8 168.1l6.3 3.1-49.3 30.9-6.8-3.1z"/><path class="st5" d="M882.2 134.3h-6.7v-6.7c0-1.8-1.5-3.3-3.3-3.3-1.8 0-3.3 1.5-3.3 3.3v6.7h-6.7c-1.8 0-3.3 1.5-3.3 3.3 0 1.8 1.5 3.3 3.3 3.3h6.7v6.7c0 1.8 1.5 3.3 3.3 3.3 1.8 0 3.3-1.5 3.3-3.3v-6.7h6.7c1.8 0 3.3-1.5 3.3-3.3 0-1.9-1.5-3.3-3.3-3.3z"/><path class="st3" d="M964.6 78.7l53.3 29.6c3.9 2.2 4 7.7.2 10l-60 36.3c-1.7 1-3.9 1.1-5.7.2L895.1 125a5.8 5.8 0 0 1-.2-10.2l64.1-36c1.7-1 3.9-1 5.6-.1z"/><path class="st4" d="M959.2 86.5l6.4 3-49.3 30.9-6.8-3.1zM972.6 93.9L979 97l-49.4 30.9-6.8-3.1zM986.4 101.7l6.4 3.1-49.3 30.8-6.9-3zM999.7 108.6l6.4 3.1-49.3 30.9-6.8-3.1z"/><path class="st5" d="M971.2 74.8h-6.7v-6.7c0-1.8-1.5-3.3-3.3-3.3-1.8 0-3.3 1.5-3.3 3.3v6.7h-6.7c-1.8 0-3.3 1.5-3.3 3.3 0 1.8 1.5 3.3 3.3 3.3h6.7V88c0 1.8 1.5 3.3 3.3 3.3 1.8 0 3.3-1.5 3.3-3.3v-6.7h6.7c1.8 0 3.3-1.5 3.3-3.3 0-1.8-1.5-3.2-3.3-3.2z"/><g><path class="st6" d="M788 193.3l53.3 29.6c3.9 2.2 4 7.7.2 10l-60 36.3c-1.7 1-3.9 1.1-5.7.2l-57.4-29.9a5.8 5.8 0 0 1-.2-10.2l64.1-36c1.8-1 3.9-1 5.7 0z"/><path class="st7" d="M782.6 201l6.4 3.1-49.3 30.8-6.9-3.1zM795.9 208.5l6.4 3-49.3 30.9-6.8-3.1zM809.7 216.2l6.4 3.1-49.3 30.9-6.8-3.1zM823.1 223.1l6.4 3.1-49.3 30.9-6.9-3.1z"/><g><path class="st8" d="M784.5 205.3l-8.6-.7a3.26 3.26 0 1 1 .5-6.5l6 .5 5-15.1c.6-1.7 2.4-2.6 4.1-2.1 1.7.6 2.6 2.4 2.1 4.1l-5.8 17.6c-.4 1.4-1.8 2.3-3.3 2.2z"/></g></g><g><path class="st6" d="M700.9 252l53.3 29.6c3.9 2.2 4 7.7.2 10l-60 36.3c-1.7 1-3.9 1.1-5.7.2l-57.4-29.9a5.8 5.8 0 0 1-.2-10.2l64.1-36c1.8-1 3.9-1 5.7 0z"/><path class="st7" d="M695.5 259.7l6.4 3.1-49.3 30.9-6.9-3.1zM708.8 267.2l6.4 3.1-49.3 30.8-6.8-3.1zM722.7 274.9l6.4 3.1-49.3 30.9-6.9-3.1zM736 281.9l6.4 3.1-49.3 30.8-6.8-3.1z"/><g><path class="st8" d="M697.4 264l-8.6-.7a3.26 3.26 0 1 1 .5-6.5l6 .5 5-15.1c.6-1.7 2.4-2.6 4.1-2.1 1.7.6 2.6 2.4 2.1 4.1l-5.8 17.6c-.4 1.4-1.8 2.3-3.3 2.2z"/></g></g><g><linearGradient id="SVGID_3_" gradientUnits="userSpaceOnUse" x1="743.2" y1="147.57" x2="483.49" y2="571.81" gradientTransform="rotate(-1.47 695.35 499.6) scale(1.00003)"><stop offset="0" stop-color="#35abe5"/><stop offset=".21" stop-color="#309ce7"/><stop offset="1" stop-color="#1d65ef"/></linearGradient><path d="M728.1 532.2l-4.6-96.8L918 252.6c-62.9-22.1-141.4-33.5-226.1-29.7-201.1 9-360.8 100-356.7 203.2 4.1 103.2 170.5 179.6 371.7 170.6 8.2-.4 16.3-.9 24.3-1.5l-3.1-63z" fill="url(#SVGID_3_)"/><linearGradient id="SVGID_4_" gradientUnits="userSpaceOnUse" x1="751.56" y1="137.05" x2="481.93" y2="553.64" gradientTransform="rotate(-2.91 700.84 494.08) scale(.99999)"><stop offset="0" stop-color="#35abe5"/><stop offset=".21" stop-color="#309ce7"/><stop offset="1" stop-color="#1d65ef"/></linearGradient><path d="M729 553.3l-4.8-101.5 206.1-203.1c-65.4-22.7-148.7-34.5-238.7-30.5-205.8 9.1-369.4 96.8-365.4 195.9 4 99.1 174.1 172 379.9 162.9 8.1-.4 16.1-.8 24-1.4l-1.1-22.3z" fill="url(#SVGID_4_)"/><path class="st11" d="M726.8 550.5l-4.9-102.3 253-189.6c-66.1-33.1-189.4-74.1-286.3-69.8-201.1 8.9-361.2 101.1-357.2 200.9.9 22.7 10.2 44 26.4 63.3l26.3-27.8 102.7 51.6-28.3 42.3c65.6 25.7 151.3 39.3 244.4 35.2 8-.4 16-.8 23.9-1.5v-2.3z"/><linearGradient id="SVGID_5_" gradientUnits="userSpaceOnUse" x1="786.37" y1="138.92" x2="583.73" y2="452.02" gradientTransform="rotate(-2.91 700.84 494.08) scale(.99999)"><stop offset="0" stop-color="#35abe5"/><stop offset=".21" stop-color="#309ce7"/><stop offset="1" stop-color="#1d65ef"/></linearGradient><path d="M975 258.6c-46.6-42.4-185.9-95.2-298.8-90.1-155.5 7.1-279.2 71.1-276.4 143.1S531 436.2 686.5 429.2c8.8-.4 17.4-1 25.9-1.8L975 258.6z" fill="url(#SVGID_5_)"/><linearGradient id="SVGID_6_" gradientUnits="userSpaceOnUse" x1="772.36" y1="225.58" x2="607.44" y2="399" gradientTransform="matrix(1 -.00805 -.0012 1.6417 -3.06 -258.19)"><stop offset="0" stop-color="#35abe5"/><stop offset=".21" stop-color="#309ce7"/><stop offset="1" stop-color="#1d65ef"/></linearGradient><path d="M853.2 249.1c-.3 44.1-75.2 79.7-167.3 79.6-92.1-.1-166.4-35.9-166.1-80S595 169 687.1 169.1s166.4 35.9 166.1 80z" fill="url(#SVGID_6_)"/><ellipse class="st11" cx="686.2" cy="282.9" rx="150.8" ry="45.8"/><path fill="#34dce0" d="M357.9 453l51.5-15.2-25.2-12.6z"/></g><g><path class="st3" d="M377.6 484.2l53.3 29.6c3.9 2.2 4 7.7.2 10l-60 36.3c-1.7 1-3.9 1.1-5.7.2L308 530.4a5.8 5.8 0 0 1-.2-10.2l64.1-36c1.8-1 3.9-1 5.7 0z"/><path class="st4" d="M372.2 491.9l6.4 3.1-49.3 30.8-6.9-3.1zM385.5 499.3l6.4 3.1-49.3 30.9-6.8-3.1zM399.4 507.1l6.4 3.1-49.3 30.8-6.9-3zM412.7 514l6.4 3.1-49.3 30.9-6.8-3.1z"/><g><path class="st15" d="M374.1 496.2l-8.6-.7a3.26 3.26 0 1 1 .5-6.5l6 .5 5-15.1c.6-1.7 2.4-2.6 4.1-2.1 1.7.6 2.6 2.4 2.1 4.1l-5.8 17.6c-.4 1.4-1.8 2.3-3.3 2.2z"/></g><g><path class="st3" d="M289.9 539.2l53.3 29.6c3.9 2.2 4 7.7.2 10l-60 36.3c-1.7 1-3.9 1.1-5.7.2l-57.4-29.9a5.8 5.8 0 0 1-.2-10.2l64.1-36c1.8-1 4-1 5.7 0z"/><path class="st4" d="M284.5 546.9l6.4 3.1-49.3 30.8-6.8-3.1zM297.9 554.3l6.4 3.1-49.3 30.9-6.9-3.1zM311.7 562.1l6.4 3.1-49.3 30.8-6.8-3zM325.1 569l6.4 3.1-49.4 30.9-6.8-3.1z"/><g><path class="st15" d="M286.5 551.2l-8.6-.7a3.26 3.26 0 1 1 .5-6.5l6 .5 5-15.1c.6-1.7 2.4-2.6 4.1-2.1 1.7.6 2.6 2.4 2.1 4.1l-5.8 17.6c-.4 1.4-1.8 2.3-3.3 2.2z"/></g></g><g><path class="st3" d="M202.9 597.9l53.3 29.6c3.9 2.2 4 7.7.2 10l-60 36.3c-1.7 1-3.9 1.1-5.7.2l-57.4-29.9a5.8 5.8 0 0 1-.2-10.2l64.1-36c1.8-1 3.9-1 5.7 0z"/><path class="st4" d="M197.5 605.6l6.4 3.1-49.3 30.8-6.9-3zM210.8 613.1l6.4 3.1-49.3 30.8-6.9-3.1zM224.6 620.8l6.4 3.1-49.3 30.9-6.8-3.1zM238 627.8l6.4 3-49.3 30.9-6.9-3.1z"/><g><path class="st15" d="M199.4 609.9l-8.6-.7a3.26 3.26 0 1 1 .5-6.5l6 .5 5-15.1c.6-1.7 2.4-2.6 4.1-2.1 1.7.6 2.6 2.4 2.1 4.1l-5.8 17.6c-.4 1.4-1.8 2.3-3.3 2.2z"/></g></g></g><g><path class="st0" d="M1023.1 230.7L636.9 454.5c-5.1 3-8.2 8.4-8.2 14.3l2.1 216c0 2.2 2.4 3.6 4.3 2.4L1039 449.1c1.1-.6 1.7-1.8 1.6-3.1l-13.2-213c-.1-2.2-2.4-3.4-4.3-2.3z"/><path class="st0" d="M639.5 694.7l.5-10.8-8.3 2.9"/><path class="st6" d="M636.6 463.6l1.3 227.8c0 3.4 3.7 5.4 6.6 3.6l394.7-245.9c1-.6 1.6-1.8 1.6-3l-.9-206.6c0-4-4.4-6.5-7.9-4.5L636.6 463.6z"/><path class="st0" d="M1037.7 235.5l-12.3-5.1-.3 9.9z"/><path class="st7" d="M631.3 732.8l8.7 5.3"/><path class="st1" d="M1031.8 235.1L636.6 463.6l.2 43.6L1040 274.4l-.1-34.6c0-4.2-4.5-6.8-8.1-4.7z"/><path class="st2" d="M801.4 597.2V368.3l-165.1 95.2 1.5 212.7h36.8z"/><path class="st1" d="M692.7 431.1l-47.6 27.5c-5.3 3.1-8.5 8.7-8.5 14.8l1.2 217.8c0 3.4 3.8 5.5 6.6 3.7l48.2-30V431.1z"/><ellipse transform="rotate(-60 668.74 523.78)" class="st16" cx="668.7" cy="523.8" rx="13.2" ry="11.3"/><ellipse transform="rotate(-60 668.74 561.31)" class="st16" cx="668.7" cy="561.3" rx="13.2" ry="11.3"/><ellipse transform="rotate(-60 668.74 594.72)" class="st16" cx="668.7" cy="594.7" rx="13.2" ry="11.3"/><ellipse transform="rotate(-60 668.74 629.04)" class="st16" cx="668.7" cy="629" rx="13.2" ry="11.3"/><ellipse transform="rotate(-60 1020.9 259.73)" class="st16" cx="1020.9" cy="259.7" rx="13.2" ry="11.3"/><path class="st1" d="M711.4 464.5l67.7-37.9.2-15.3-67.7 37.9zM712.6 487.6l67.6-37.9.2-15.3-67.7 37.9zM712.3 551.3l67.7-37.9.1-15.3-67.6 37.9zM744.7 494.3l-31.9 17.9-.2 15.2 31.9-17.8zM779.9 474.3L748 492.1l-.2 15.3 31.9-17.8z"/><path class="st2" d="M837.3 404.4v160.3l110.4-70 4-156.4zM957.7 336.3l-2.1 86.5 74.9-46.8.3-81.6z"/><path class="st1" d="M899.2 467.8v53.1l45.1-28.6.7-50.6zM844.1 428.2v53.1l45.1-28.6.7-50.6z"/><path class="st17" d="M814.3 441.3v8.2c0 4.3 4.8 7 8.4 4.7l3.7-2.3c1.6-1 2.5-2.7 2.6-4.5l.2-8.1a5.5 5.5 0 0 0-8.3-4.9l-3.9 2.3c-1.6.8-2.7 2.6-2.7 4.6zM814.3 484v8.2c0 4.3 4.8 7 8.4 4.7l3.7-2.3c1.6-1 2.5-2.7 2.6-4.5l.2-8.1a5.5 5.5 0 0 0-8.3-4.9l-3.9 2.3c-1.6.8-2.7 2.6-2.7 4.6zM815.9 525.2v8.2c0 4.3 4.8 7 8.4 4.7l3.7-2.3c1.6-1 2.5-2.7 2.6-4.5l.2-8.1a5.5 5.5 0 0 0-8.3-4.9l-3.9 2.3c-1.6.8-2.7 2.6-2.7 4.6z"/><path fill="#59c6f3" d="M951.1 359.8l.6-21.5-114.4 66.1v21.2z"/><path class="st1" d="M886.8 415.4l8.1-4.4-9.9-2.4zM900.9 472l-8.8 2.5 9.1 4.6z"/></g><g><linearGradient id="SVGID_7_" gradientUnits="userSpaceOnUse" x1="1060.71" y1="568.6" x2="1126.97" y2="568.6"><stop offset="0" stop-color="#35abe5"/><stop offset=".39" stop-color="#2a8aea"/><stop offset=".77" stop-color="#206fee"/><stop offset="1" stop-color="#1d65ef"/></linearGradient><path d="M1120.4 546.8c-9.8 6.3-35-7.6-41.4-9.4-7.2-2-18.1-2.8-18.2 16-.2 18.7 11 29.4 11 29.4s35.1 13.6 53.3 17.6l2 .3-6.7-53.9z" fill="url(#SVGID_7_)"/><linearGradient id="SVGID_8_" gradientUnits="userSpaceOnUse" x1="911.91" y1="630.47" x2="1104.43" y2="630.47"><stop offset="0" stop-color="#35abe5"/><stop offset=".01" stop-color="#34a9e5"/><stop offset=".13" stop-color="#2c90e9"/><stop offset=".27" stop-color="#257dec"/><stop offset=".43" stop-color="#216fee"/><stop offset=".63" stop-color="#1e67ef"/><stop offset="1" stop-color="#1d65ef"/></linearGradient><path fill="url(#SVGID_8_)" d="M911.9 682.5l164.2-122.3 28.3 31.7-146.9 108.8z"/><path class="st21" d="M985.5 578s-8.5 26.3-13.1 33.8l9.4 4.5s11-22.2 11.6-28.9-1.9-9.8-1.9-9.8l-3.3-1.2-2.7 1.6z"/><path class="st22" d="M990.3 597.3c1.6-4.1 2.9-7.8 3.1-10 .6-6.7-1.9-9.8-1.9-9.8l-1.6-.6c.3 3.7.8 12.7.4 20.4z"/><ellipse transform="rotate(-52.37 975.7 614.63)" class="st22" cx="975.7" cy="614.6" rx="5.8" ry="6.7"/><path class="st23" d="M980.3 616.5c.6-2.4-.8-4.8-3.1-5.3 0 0-25.6-11.7-26.2-12.7-.6-1-6.1-3.8-6.8-3.1s2.4 3.3 2 3.5c-.4.2-9.2.3-9.9.4-.7.2-1 1.6-.5 2.3.5.7 4.7.4 4.7.4-.5 1.1.1 2.4.1 2.4.3 1.1 1.2 2.1 1.2 2.1.9 1.1 6.9 0 9.7.1 2.8.1 21.8 12.1 21.8 12.1.5.5 1.5 1 2.2 1 2.4.2 4.3-.8 4.8-3.2z"/><path class="st21" d="M1022.8 594.3c1-4.6 4-7.2 6-8.5l-.1-.1c-7.2-7.9-29-17.6-31.8-17.7-2.8-.1-11.7 9.4-11.7 9.4s1.8 11.1 12.4 23.8c0 0-2.5 8.9-1.4 18.4 0 0 8.6 8.2 20 8.2 1.3-6.7 5.3-27.5 6.6-33.5z"/><linearGradient id="SVGID_9_" gradientUnits="userSpaceOnUse" x1="993.76" y1="579.06" x2="1007.89" y2="579.06" gradientTransform="rotate(-7 807.15 559.39)"><stop offset="0" stop-color="#3b4472"/><stop offset=".88" stop-color="#1e2345"/><stop offset="1" stop-color="#1a1e3e"/><stop offset="1" stop-color="#23294d"/><stop offset="1" stop-color="#2e355e"/><stop offset="1" stop-color="#363e69"/><stop offset="1" stop-color="#3a4370"/><stop offset="1" stop-color="#3b4472"/></linearGradient><path d="M1007.8 546.4s.3 6.3-1.4 8.8c-1.7 2.5-10.6 9.1-10.6 9.1l-1.7-14 13.7-3.9z" fill="url(#SVGID_9_)"/><path class="st25" d="M1001.9 565.3s2.1 5.4 3.8 7.1c1.7 1.6 4.4 2.4 3.4 5.8s-8.6 5.1-12.7 1.6c-4.1-3.5.2-5.9.2-5.9l-1.6-2.4 6.9-6.2z"/><path class="st26" d="M974 556.7l-.3 3.7c-.1.8.4 1.5 1.1 1.8 1.1.4 2.3-.3 2.4-1.4l.4-3.6c.1-.8-.4-1.6-1.1-1.9h-.1c-1.1-.6-2.3.2-2.4 1.4z"/><path class="st27" d="M979.4 544.9s-8.3 27.9 1.7 31.8c10 3.9 17.8-5.3 18.3-8.1 0 0 5.5-3.6 8-6.4 2.5-2.8 2.1-5.3.5-6.5s-7.1 1.1-9.9 5.8c0 0-3.1-3.1-3.5-7.2s4.2-10.6 1-11.5c-3.1-.9-10.8-5.7-16.1 2.1z"/><linearGradient id="SVGID_10_" gradientUnits="userSpaceOnUse" x1="976.74" y1="566.65" x2="1008.03" y2="566.65" gradientTransform="rotate(-7 807.15 559.39)"><stop offset="0" stop-color="#3b4472"/><stop offset=".88" stop-color="#1e2345"/><stop offset="1" stop-color="#1a1e3e"/><stop offset="1" stop-color="#23294d"/><stop offset="1" stop-color="#2e355e"/><stop offset="1" stop-color="#363e69"/><stop offset="1" stop-color="#3a4370"/><stop offset="1" stop-color="#3b4472"/></linearGradient><path d="M992 547.5s-11.3 1-15.1-5.3c-3.8-6.3 1.2-7.7 1.2-7.7s-.6 1.5 1.5 2 10.3-3.1 16.1-2.3 10.2 4.8 9 9.2c0 0 3.9 1.5 3.4 4.7s-4.4 6.9-11.9 5.8c-7.5-1.1-.4-7.9-.4-7.9s-2.6 1.5-3.8 1.5z" fill="url(#SVGID_10_)"/><path class="st29" d="M1000.9 617.8l-41.5 12.8c-6.7 2.1-12.1 7-14.7 13.6l-7.8 19.7 18.6-13.9 28.5-4.2 20.3 1.1 4.6-22.7-8-6.4z"/><linearGradient id="SVGID_11_" gradientUnits="userSpaceOnUse" x1="900.49" y1="633.87" x2="1151.07" y2="633.87"><stop offset="0" stop-color="#35abe5"/><stop offset=".39" stop-color="#2a8aea"/><stop offset=".77" stop-color="#206fee"/><stop offset="1" stop-color="#1d65ef"/></linearGradient><path d="M911.6 715.7s-11.4-10.7-11.2-29.4c.2-18.7 11.2-18 18.6-16 6.9 1.9 35.2 17.3 43.7 7.9s8.7-41.8 29-57.2c16.5-12.5 86.5-64.9 114.1-83.6 8.3-5.6 19.5-4.7 26.8 2.2 5.4 5.1 11.2 13.1 15.4 25.6 10.6 31.5-10.4 55.3-10.4 55.3l-138.5 104s-14.8 12.6-33.3 8.7c-18.5-4-54.2-17.5-54.2-17.5z" fill="url(#SVGID_11_)"/><path class="st21" d="M1028.8 585.8s15.1 12.1 18.2 19.6-5.2 22-5.2 22l-11.1-7.4s8.2-13.9-8.9-21.5c.1 0-2.2-10.5 7-12.7z"/><ellipse transform="rotate(-59.08 1035.48 625.3)" class="st22" cx="1035.5" cy="625.3" rx="6.2" ry="8.3"/><path class="st23" d="M1038.4 623.6a4.84 4.84 0 0 0-6.7-1.8s-29.8 10.5-31 10.2c-1.3-.3-7.9 1.7-7.9 2.8 0 1.1 4.5.8 4.3 1.3-.2.5-7.2 7.4-7.6 8.1-.4.7.4 2.1 1.4 2.3 1 .2 4.1-3.3 4.1-3.3.5 1.3 1.9 1.9 1.9 1.9 1.1.7 2.6.8 2.6.8 1.6.2 5.6-5.4 7.9-7.5 2.3-2.1 27-7.3 27-7.3.8 0 1.6-.2 2.4-.6 2.3-1.5 3-4.5 1.6-6.9z"/><path class="st23" d="M995.3 642.2s-2.6 4.2-3 5.1c-.4.9.7 1.4 1.9.6 1.2-.8 3.2-3.7 3.2-3.7l-2.1-2z"/><path class="st23" d="M997.3 644.2s-2.6 2.8-2.1 3.2c1 .7 3.8-2 3.8-2l-1.7-1.2z"/></g><g><linearGradient id="SVGID_12_" gradientUnits="userSpaceOnUse" x1="3132.98" y1="-312.01" x2="3145.7" y2="-312.01" gradientTransform="scale(-1) rotate(40.18 1874.25 -5492.7)"><stop offset="0" stop-color="#63a0f6"/><stop offset=".36" stop-color="#609cf3"/><stop offset=".7" stop-color="#5891e9"/><stop offset="1" stop-color="#4c80db"/></linearGradient><path d="M513.6 708c-1.7-1.8-4.6-1.9-6.7-.1l-16.3 13.9c-2.2 1.8-2.5 5-.7 6.9l1.1 1.1c1.8 1.9 4.9 1.9 7-.1l15.2-15c1.9-1.9 2.1-4.9.4-6.7z" fill="url(#SVGID_12_)"/><linearGradient id="SVGID_13_" gradientUnits="userSpaceOnUse" x1="3135.52" y1="-312.01" x2="3145.7" y2="-312.01" gradientTransform="scale(-1) rotate(40.18 1874.25 -5492.7)"><stop offset="0" stop-color="#35abe5"/><stop offset=".39" stop-color="#2a8aea"/><stop offset=".77" stop-color="#206fee"/><stop offset="1" stop-color="#1d65ef"/></linearGradient><path d="M513.9 709.8l-19.1 18.6c-1 .9-2.1 1.6-3.2 1.9-.2-.2-.4-.3-.6-.5l-1.1-1.1c-1.8-1.9-1.4-5.1.7-6.9l16.3-13.9c2-1.7 5-1.7 6.7.1.4.4.6.8.8 1.3-.2.2-.3.4-.5.5z" fill="url(#SVGID_13_)"/><linearGradient id="SVGID_14_" gradientUnits="userSpaceOnUse" x1="380.52" y1="788.21" x2="435.15" y2="788.21" gradientTransform="rotate(12.53 581.5 1252.98)"><stop offset="0" stop-color="#35abe5"/><stop offset=".39" stop-color="#2a8aea"/><stop offset=".77" stop-color="#206fee"/><stop offset="1" stop-color="#1d65ef"/></linearGradient><path d="M543.6 746.8l-.7 4.9c-2.4 20.3-25.9 41.9-42.4 29.9-7.7-5.6-11.6-26.5-10.5-36l1.4-13.3 52.2 14.5z" fill="url(#SVGID_14_)"/><linearGradient id="SVGID_15_" gradientUnits="userSpaceOnUse" x1="380.52" y1="788.21" x2="421.59" y2="788.21" gradientTransform="rotate(12.53 581.5 1252.98)"><stop offset="0" stop-color="#35abe5"/><stop offset=".39" stop-color="#2a8aea"/><stop offset=".77" stop-color="#206fee"/><stop offset="1" stop-color="#1d65ef"/></linearGradient><path d="M490 745.7c-1.1 9.5 2.8 30.3 10.5 36 .7.6 1.5 1.1 2.3 1.5 4.8 2.8 11 1.8 14.5-2.5 6-7.4 10.6-20.1 11.5-28.3l.6-3.8-38-16.1-1.4 13.2z" fill="url(#SVGID_15_)"/><linearGradient id="SVGID_16_" gradientUnits="userSpaceOnUse" x1="369.91" y1="746.78" x2="423.64" y2="746.78" gradientTransform="rotate(8.03 515.02 1604.2)"><stop offset="0" stop-color="#35abe5"/><stop offset=".39" stop-color="#2a8aea"/><stop offset=".77" stop-color="#206fee"/><stop offset="1" stop-color="#1d65ef"/></linearGradient><path d="M543.4 747.5c-2 6-15.3 6.9-29.5 2.1-14.3-4.9-24.2-13.6-22.1-19.7 2-6 15.3-6.9 29.5-2.1 14.3 4.9 24.2 13.7 22.1 19.7z" fill="url(#SVGID_16_)"/><linearGradient id="SVGID_17_" gradientUnits="userSpaceOnUse" x1="545.2" y1="763.89" x2="567.29" y2="763.89" gradientTransform="rotate(12.53 656.33 571.2)"><stop offset="0" stop-color="#35abe5"/><stop offset=".39" stop-color="#2a8aea"/><stop offset=".77" stop-color="#206fee"/><stop offset="1" stop-color="#1d65ef"/></linearGradient><path d="M527.4 741.1c-.8 2.4-6.2 2.8-12 .8-5.8-2-9.8-5.6-9-8 .8-2.4 6.2-2.8 12-.8 5.8 2 9.8 5.6 9 8z" fill="url(#SVGID_17_)"/><path class="st11" d="M517.4 736.1c-4.6-1.6-8.8-1.6-10.9-.4.9 2.2 4.3 4.7 8.9 6.3s8.8 1.6 10.9.4c-.9-2.2-4.4-4.7-8.9-6.3z"/><g><ellipse transform="rotate(-73.11 496.85 708.73)" class="st37" cx="496.9" cy="708.8" rx="11.3" ry="7"/><linearGradient id="SVGID_18_" gradientUnits="userSpaceOnUse" x1="393.93" y1="748.68" x2="397.28" y2="706.19" gradientTransform="rotate(8.03 515.02 1604.2)"><stop offset="0" stop-color="#35abe5"/><stop offset=".39" stop-color="#2a8aea"/><stop offset=".77" stop-color="#206fee"/><stop offset="1" stop-color="#1d65ef"/></linearGradient><path d="M547.9 722.5l-.8 8.8c-1 10.4-16.3 15.4-27.5 9.1l-21.4-12c-5.3-3-8.2-7.8-7.7-12.6l.8-8.3c1-10.2 15.9-15.2 27.2-9.2l21.4 11.5c5.4 2.8 8.5 7.7 8 12.7z" fill="url(#SVGID_18_)"/><path transform="rotate(-80.34 522.05 714.94)" class="st39" d="M499.5 686.7h45.2v56.5h-45.2z"/><ellipse transform="rotate(-76.28 542.66 727.97)" class="st37" cx="542.7" cy="728" rx="11.3" ry="6.5"/><ellipse transform="rotate(-76.28 542.66 727.97)" class="st37" cx="542.7" cy="728" rx="11.3" ry="6.5"/><path class="st11" d="M547.1 718c-2.8 1-5.4 4.6-6.5 9.2-1.2 4.9-.3 9.6 2 11.6 2.8-1 5.4-4.6 6.5-9.2 1.1-5 .3-9.6-2-11.6z"/><ellipse transform="rotate(-86.51 540.56 730.38) scale(.99995)" class="st37" cx="540.6" cy="730.4" rx="3.9" ry="2.2"/><path class="st29" d="M515.1 713.1c-.2.5-.3.9-.5 2l-1.2 5.3c-.2 1-.6 1.8-1.2 2.3-.6.6-1.5.7-2.5.5a2.8 2.8 0 0 1-2.2-1.7c-.2-.5-.6-1.8-.4-2.8l2.2.8c0 1 .2 1.5.8 1.6.7.1 1.1-.2 1.2-1.1l1.2-5.3c.2-1.1.1-2 .2-2.6l2.4 1z"/></g><g><linearGradient id="SVGID_19_" gradientUnits="userSpaceOnUse" x1="584.37" y1="757.46" x2="608.55" y2="757.46" gradientTransform="rotate(12.53 656.33 571.2)"><stop offset="0" stop-color="#35abe5"/><stop offset=".39" stop-color="#2a8aea"/><stop offset=".77" stop-color="#206fee"/><stop offset="1" stop-color="#1d65ef"/></linearGradient><path d="M570.5 730.5c1.5 2 1 4.9-1.1 6.6l-16.7 13.3c-2.2 1.8-5.4 1.5-6.9-.6l-.9-1.3c-1.6-2.1-.9-5.2 1.5-6.8l17.6-12c2.1-1.6 5-1.2 6.5.8z" fill="url(#SVGID_19_)"/><linearGradient id="SVGID_20_" gradientUnits="userSpaceOnUse" x1="2704.64" y1="-717.66" x2="2716.14" y2="-717.66" gradientTransform="scale(-1) rotate(63.83 1094.81 -3353.78)"><stop offset="0" stop-color="#35abe5"/><stop offset=".39" stop-color="#2a8aea"/><stop offset=".77" stop-color="#206fee"/><stop offset="1" stop-color="#1d65ef"/></linearGradient><path d="M568.8 729.8L546.9 745c-1.1.8-2 1.7-2.5 2.8.1.2.2.5.4.7l.9 1.3c1.6 2.1 4.7 2.4 6.9.6l16.7-13.3c2.1-1.7 2.6-4.6 1.1-6.6-.3-.4-.7-.8-1.1-1-.1.1-.3.2-.5.3z" fill="url(#SVGID_20_)"/><linearGradient id="SVGID_21_" gradientUnits="userSpaceOnUse" x1="586.5" y1="764.91" x2="590.73" y2="764.91" gradientTransform="rotate(12.53 656.33 571.2)"><stop offset="0" stop-color="#35abe5"/><stop offset=".39" stop-color="#2a8aea"/><stop offset=".77" stop-color="#206fee"/><stop offset="1" stop-color="#1d65ef"/></linearGradient><path d="M547.5 743.6c1.1-.4 2.3.2 2.7 1.3.4 1.1-.1 2.3-1.2 2.7-1.1.4-2.3-.2-2.7-1.3-.4-1.1.1-2.3 1.2-2.7z" fill="url(#SVGID_21_)"/><linearGradient id="SVGID_22_" gradientUnits="userSpaceOnUse" x1="587.22" y1="764.91" x2="590.01" y2="764.91" gradientTransform="rotate(12.53 656.33 571.2)"><stop offset="0" stop-color="#35abe5"/><stop offset=".39" stop-color="#2a8aea"/><stop offset=".77" stop-color="#206fee"/><stop offset="1" stop-color="#1d65ef"/></linearGradient><path d="M547.7 744.3c.7-.3 1.5.1 1.8.8.3.7-.1 1.5-.8 1.8s-1.5-.1-1.8-.8c-.2-.8.1-1.6.8-1.8z" fill="url(#SVGID_22_)"/><path class="st11" d="M547.3 746.5c0 .1.1.1.1.1.4.3.9.4 1.3.2.7-.3 1.1-1.1.8-1.8 0-.1-.1-.1-.1-.1-.4-.3-.9-.4-1.3-.2-.7.3-1.1 1.1-.8 1.8z"/></g><g><path class="st11" d="M615.1 741.7v-65.6l-114.7-66.2.1 67.7z"/><path class="st6" d="M610.2 743.8v-65.5L495.5 612l.1 67.7z"/><path class="st11" d="M537.3 673.3v-30.5L501 621.9l.1 31.1zM591.4 729v-30.5l-36.2-20.9v31.2zM615.1 741.7l-4.9 2.1v-4.9zM500.4 609.9l-4.9 2.1 4.9 2.9z"/><path class="st11" d="M535.5 645.2l4.5 4.2h-4.5zM556.3 683.8l-6.1 1 6.1 3.1z"/></g></g><g><linearGradient id="SVGID_23_" gradientUnits="userSpaceOnUse" x1="3272.1" y1="-335.96" x2="3284.82" y2="-335.96" gradientTransform="scale(-1) rotate(40.18 1874.25 -5492.7)"><stop offset="0" stop-color="#63a0f6"/><stop offset=".36" stop-color="#609cf3"/><stop offset=".7" stop-color="#5891e9"/><stop offset="1" stop-color="#4c80db"/></linearGradient><path d="M391.9 636.6c-1.7-1.8-4.6-1.9-6.7-.1l-16.3 13.9c-2.2 1.8-2.5 5-.7 6.9l1.1 1.1c1.8 1.9 4.9 1.9 7-.1l15.2-15c1.8-2 2-4.9.4-6.7z" fill="url(#SVGID_23_)"/><linearGradient id="SVGID_24_" gradientUnits="userSpaceOnUse" x1="3274.64" y1="-335.95" x2="3284.82" y2="-335.95" gradientTransform="scale(-1) rotate(40.18 1874.25 -5492.7)"><stop offset="0" stop-color="#35abe5"/><stop offset=".39" stop-color="#2a8aea"/><stop offset=".77" stop-color="#206fee"/><stop offset="1" stop-color="#1d65ef"/></linearGradient><path d="M392.2 638.4L373.1 657c-1 .9-2.1 1.6-3.2 1.9-.2-.2-.4-.3-.6-.5l-1.1-1.1c-1.8-1.9-1.4-5.1.7-6.9l16.3-13.9c2-1.7 5-1.7 6.7.1.4.4.6.8.8 1.3-.2.1-.3.3-.5.5z" fill="url(#SVGID_24_)"/><linearGradient id="SVGID_25_" gradientUnits="userSpaceOnUse" x1="246.17" y1="744.86" x2="300.8" y2="744.86" gradientTransform="rotate(12.53 581.5 1252.98)"><stop offset="0" stop-color="#35abe5"/><stop offset=".39" stop-color="#2a8aea"/><stop offset=".77" stop-color="#206fee"/><stop offset="1" stop-color="#1d65ef"/></linearGradient><path d="M421.8 675.4l-.7 4.9c-2.4 20.3-25.9 41.9-42.4 29.9-7.7-5.6-11.6-26.5-10.5-36l1.4-13.3 52.2 14.5z" fill="url(#SVGID_25_)"/><linearGradient id="SVGID_26_" gradientUnits="userSpaceOnUse" x1="246.17" y1="744.86" x2="287.24" y2="744.86" gradientTransform="rotate(12.53 581.5 1252.98)"><stop offset="0" stop-color="#35abe5"/><stop offset=".39" stop-color="#2a8aea"/><stop offset=".77" stop-color="#206fee"/><stop offset="1" stop-color="#1d65ef"/></linearGradient><path d="M368.2 674.2c-1.1 9.5 2.8 30.3 10.5 36 .7.6 1.5 1.1 2.3 1.5 4.8 2.8 11 1.8 14.5-2.5 6-7.4 10.6-20.1 11.5-28.3l.6-3.8-38-16.1-1.4 13.2z" fill="url(#SVGID_26_)"/><linearGradient id="SVGID_27_" gradientUnits="userSpaceOnUse" x1="239.38" y1="693.02" x2="293.11" y2="693.02" gradientTransform="rotate(8.03 515.02 1604.2)"><stop offset="0" stop-color="#35abe5"/><stop offset=".39" stop-color="#2a8aea"/><stop offset=".77" stop-color="#206fee"/><stop offset="1" stop-color="#1d65ef"/></linearGradient><path d="M421.7 676c-2 6-15.3 6.9-29.5 2.1-14.3-4.9-24.2-13.6-22.1-19.7s15.3-6.9 29.5-2.1 24.1 13.7 22.1 19.7z" fill="url(#SVGID_27_)"/><linearGradient id="SVGID_28_" gradientUnits="userSpaceOnUse" x1="410.85" y1="720.55" x2="432.94" y2="720.55" gradientTransform="rotate(12.53 656.33 571.2)"><stop offset="0" stop-color="#35abe5"/><stop offset=".39" stop-color="#2a8aea"/><stop offset=".77" stop-color="#206fee"/><stop offset="1" stop-color="#1d65ef"/></linearGradient><path d="M405.6 669.7c-.8 2.4-6.2 2.8-12 .8s-9.8-5.6-9-8c.8-2.4 6.2-2.8 12-.8 5.8 2 9.8 5.5 9 8z" fill="url(#SVGID_28_)"/><path class="st11" d="M395.6 664.7c-4.6-1.6-8.8-1.6-10.9-.4.9 2.2 4.3 4.7 8.9 6.3 4.6 1.6 8.8 1.6 10.9.4-.9-2.2-4.3-4.8-8.9-6.3z"/><g><ellipse transform="rotate(-73.11 375.11 637.27)" class="st37" cx="375.1" cy="637.3" rx="11.3" ry="7"/><linearGradient id="SVGID_29_" gradientUnits="userSpaceOnUse" x1="263.4" y1="694.92" x2="266.75" y2="652.43" gradientTransform="rotate(8.03 515.02 1604.2)"><stop offset="0" stop-color="#35abe5"/><stop offset=".39" stop-color="#2a8aea"/><stop offset=".77" stop-color="#206fee"/><stop offset="1" stop-color="#1d65ef"/></linearGradient><path d="M426.2 651l-.8 8.8c-1 10.4-16.3 15.4-27.5 9.1l-21.4-12c-5.3-3-8.2-7.8-7.7-12.6l.8-8.3c1-10.2 15.9-15.2 27.2-9.2l21.4 11.5c5.3 2.9 8.4 7.8 8 12.7z" fill="url(#SVGID_29_)"/><path transform="rotate(-80.34 400.31 643.48)" class="st39" d="M377.7 615.2h45.2v56.5h-45.2z"/><ellipse transform="rotate(-76.28 420.92 656.51)" class="st37" cx="420.9" cy="656.5" rx="11.3" ry="6.5"/><ellipse transform="rotate(-76.28 420.92 656.51)" class="st37" cx="420.9" cy="656.5" rx="11.3" ry="6.5"/><path class="st11" d="M425.3 646.5c-2.8 1-5.4 4.6-6.5 9.2-1.2 4.9-.3 9.6 2 11.6 2.8-1 5.4-4.6 6.5-9.2 1.2-5 .3-9.6-2-11.6z"/><ellipse transform="rotate(-86.51 418.82 658.92) scale(.99995)" class="st37" cx="418.8" cy="658.9" rx="3.9" ry="2.2"/><path class="st29" d="M393.4 641.6c-.2.5-.3.9-.5 2l-1.2 5.3c-.2 1-.6 1.8-1.2 2.3-.6.6-1.5.7-2.5.5a2.8 2.8 0 0 1-2.2-1.7c-.2-.5-.6-1.8-.4-2.8l2.2.8c0 1 .2 1.5.8 1.6.7.1 1.1-.2 1.2-1.1l1.2-5.3c.2-1.1.1-2 .2-2.6l2.4 1z"/></g><g><linearGradient id="SVGID_30_" gradientUnits="userSpaceOnUse" x1="450.02" y1="714.12" x2="474.21" y2="714.12" gradientTransform="rotate(12.53 656.33 571.2)"><stop offset="0" stop-color="#35abe5"/><stop offset=".39" stop-color="#2a8aea"/><stop offset=".77" stop-color="#206fee"/><stop offset="1" stop-color="#1d65ef"/></linearGradient><path d="M448.7 659.1c1.5 2 1 4.9-1.1 6.6L430.9 679c-2.2 1.8-5.4 1.5-6.9-.6l-1-1.4c-1.6-2.1-.9-5.2 1.5-6.8l17.6-12c2.2-1.5 5.2-1.1 6.6.9z" fill="url(#SVGID_30_)"/><linearGradient id="SVGID_31_" gradientUnits="userSpaceOnUse" x1="2822.47" y1="-795.4" x2="2833.97" y2="-795.4" gradientTransform="scale(-1) rotate(63.83 1094.81 -3353.78)"><stop offset="0" stop-color="#35abe5"/><stop offset=".39" stop-color="#2a8aea"/><stop offset=".77" stop-color="#206fee"/><stop offset="1" stop-color="#1d65ef"/></linearGradient><path d="M447 658.4l-21.9 15.2c-1.1.8-2 1.7-2.5 2.8.1.2.2.5.4.7l.9 1.3c1.6 2.1 4.7 2.4 6.9.6l16.7-13.3c2.1-1.7 2.6-4.6 1.1-6.6-.3-.4-.7-.8-1.1-1-.1 0-.3.1-.5.3z" fill="url(#SVGID_31_)"/><linearGradient id="SVGID_32_" gradientUnits="userSpaceOnUse" x1="452.15" y1="721.57" x2="456.38" y2="721.57" gradientTransform="rotate(12.53 656.33 571.2)"><stop offset="0" stop-color="#35abe5"/><stop offset=".39" stop-color="#2a8aea"/><stop offset=".77" stop-color="#206fee"/><stop offset="1" stop-color="#1d65ef"/></linearGradient><path d="M425.7 672.1c1.1-.4 2.3.2 2.7 1.3.4 1.1-.1 2.3-1.2 2.7-1.1.4-2.3-.2-2.7-1.3-.4-1 .1-2.3 1.2-2.7z" fill="url(#SVGID_32_)"/><linearGradient id="SVGID_33_" gradientUnits="userSpaceOnUse" x1="452.88" y1="721.57" x2="455.66" y2="721.57" gradientTransform="rotate(12.53 656.33 571.2)"><stop offset="0" stop-color="#35abe5"/><stop offset=".39" stop-color="#2a8aea"/><stop offset=".77" stop-color="#206fee"/><stop offset="1" stop-color="#1d65ef"/></linearGradient><path d="M426 672.8c.7-.3 1.5.1 1.8.8.3.7-.1 1.5-.8 1.8-.7.3-1.5-.1-1.8-.8-.3-.7.1-1.5.8-1.8z" fill="url(#SVGID_33_)"/><path class="st11" d="M425.6 675.1c0 .1.1.1.1.1.4.3.9.4 1.3.2.7-.3 1.1-1.1.8-1.8 0-.1-.1-.1-.1-.1-.4-.3-.9-.4-1.3-.2-.8.2-1.1 1-.8 1.8z"/></g><g><path class="st11" d="M493.3 670.2v-65.5l-114.7-66.2.2 67.6z"/><path class="st6" d="M488.4 672.4v-65.6l-114.6-66.2.1 67.6z"/><path class="st11" d="M415.5 601.8v-30.5l-36.2-20.9v31.2zM469.6 657.6v-30.5l-36.2-21v31.2zM493.3 670.2l-4.9 2.2v-4.9zM378.6 538.5l-4.8 2.1 4.8 2.8z"/><path class="st11" d="M413.8 573.7l4.5 4.2h-4.5zM434.5 612.4l-6.1.9 6.1 3.1z"/></g></g><path class="st25" d="M945 603.5h-5.1c-.1 0-.3-.1-.3-.3V602c0-.1.1-.3.3-.3h5.1c.1 0 .3.1.3.3v1.2c-.1.2-.2.3-.3.3z"/><path class="st25" d="M944.8 605.2h-4.9c-.1 0-.3-.1-.3-.3v-1.2c0-.1.1-.3.3-.3h4.9c.1 0 .3.1.3.3v1.2c-.1.2-.2.3-.3.3z"/><path class="st25" d="M943 606.6h-3.1c-.1 0-.3-.1-.3-.3v-1.2c0-.1.1-.3.3-.3h3.1c.1 0 .3.1.3.3v1.2c0 .2-.1.3-.3.3z"/><ellipse transform="rotate(-83.37 503.31 794.4)" class="st0" cx="503.3" cy="794.4" rx="6.3" ry="12.5"/><ellipse transform="rotate(-83.37 384.7 725.78)" class="st0" cx="384.7" cy="725.8" rx="6.3" ry="12.5"/><g><linearGradient id="SVGID_34_" gradientUnits="userSpaceOnUse" x1="1044.63" y1="511.65" x2="1068.93" y2="511.65"><stop offset="0" stop-color="#3b4472"/><stop offset=".88" stop-color="#1e2345"/><stop offset="1" stop-color="#1a1e3e"/><stop offset="1" stop-color="#23294d"/><stop offset="1" stop-color="#2e355e"/><stop offset="1" stop-color="#363e69"/><stop offset="1" stop-color="#3a4370"/><stop offset="1" stop-color="#3b4472"/></linearGradient><path d="M1059.9 505.7s-14.7 6.5-15 8.2c-.3 1.7-1.3 4.2 5 3.8s8.8-2.6 11.3-2.7c2.6-.2 5.5-.7 6.4-2 .9-1.3 1.3-7.1 1.3-7.1l-9-.2z" fill="url(#SVGID_34_)"/><linearGradient id="SVGID_35_" gradientUnits="userSpaceOnUse" x1="1151.84" y1="404.52" x2="1179.85" y2="404.52"><stop offset="0" stop-color="#3b4472"/><stop offset=".88" stop-color="#1e2345"/><stop offset="1" stop-color="#1a1e3e"/><stop offset="1" stop-color="#23294d"/><stop offset="1" stop-color="#2e355e"/><stop offset="1" stop-color="#363e69"/><stop offset="1" stop-color="#3a4370"/><stop offset="1" stop-color="#3b4472"/></linearGradient><path d="M1175.9 414.7s3.8-3.6 3.9-6.5c.1-3-.3-10.8-5.3-13.8l-.8 2.5s-3.2-4.8-8.1-5.1v1.4s-8.1-1.4-12.1 1c-4.1 2.5.4 6.8.4 6.8l3.2 4.2s7.8 4 8.2 4.9c.4.9 1.6 3.2 1.6 3.2s.4 2.2.7 3c.3.8-.5.9.8 1.1s7.5-2.7 7.5-2.7z" fill="url(#SVGID_35_)"/><path class="st27" d="M1140.4 425.5s-1.4 6.1-4.7 8.8c-3.3 2.7-22.4 10.1-22.7 15.8-.3 5.6 7.7 3.9 7.7 3.9l16.8-6.8 7.2-6.7 3.2-6.8 1.3-7.3-3-2.2-5.8 1.3z"/><path d="M1169.2 424.2s11.1 5.3 11.9 7.1 4.9 10.1 4.9 10.1l-8.4 5.3-.8-1s-10.2 27.8-32.2 32.2c0 0-5.3-1.6-7.3-5.9s-12.5-20.1-20.7-20.9l-.6.5s-1-.9 1.5-3.1 22.9-3.2 28-20.8l-5.3-2s2.8-7.8 5.6-9.5c2.8-1.7 7.6 0 7.6 0l15.8 8z" fill="#3b4472"/><path class="st25" d="M1170.6 419.6s-1.8 9.8-6.9 9.2c-5.1-.6-3.9-5.5-3.5-7.2.5-1.6 10.4-2 10.4-2z"/><path class="st27" d="M1153.9 401s-4.5 4.7-4.1 10.8c.4 6.1 2 12.5 10.6 10.8 8.6-1.7 8.4-3.1 10.2-3.1 1.9 0 5.7-.1 6.1-2.1.4-2-1.6-4.3-3.4-3.4-1.8.9-3.2 1.8-4 1.6 0 0 3.4-5 2.4-7.8s-4-3.4-6.4-3.3c-2.3.1-7.5-.3-11.4-3.5z"/><path class="st26" d="M1152.5 415l-2-1.6c-.2-.2-.3-.5-.1-.8l3.4-4.3c.2-.2.5-.3.8-.1l2 1.6c.2.2.3.5.1.8l-3.4 4.3c-.2.2-.5.3-.8.1z"/><path class="st27" d="M1177.6 446.7l5.5 9.9s-13.8 16.3-16.3 16.7-5.6 1-4.7 2.3c.9 1.3 2.6 1.8 3.5 1.4s-3.5 5.2-1.3 7.5c2.3 2.3 5.1 2 6.3.7 1.1-1.4 2.7-4.4 4.8-6.4s17.4-18.1 17.6-20.5c.2-2.4-7.1-16.9-7.1-16.9l-8.3 5.3zM1086.7 487.1l-9.4-4.9-3.3 6.8 9.8 5z"/><linearGradient id="SVGID_36_" gradientUnits="userSpaceOnUse" x1="1054.46" y1="486.79" x2="1069.64" y2="486.79"><stop offset="0" stop-color="#3b4472"/><stop offset=".88" stop-color="#1e2345"/><stop offset="1" stop-color="#1a1e3e"/><stop offset="1" stop-color="#23294d"/><stop offset="1" stop-color="#2e355e"/><stop offset="1" stop-color="#363e69"/><stop offset="1" stop-color="#3a4370"/><stop offset="1" stop-color="#3b4472"/></linearGradient><path d="M1069.5 481.2s-.8-1.1-2.5 0-2.4 2.7-4.9 3.2c-2.5.5-8.2 5-7.6 7 .6 2 6.5 2 11.4 0 4.8-2.1 3.6-10.2 3.6-10.2z" fill="url(#SVGID_36_)"/><path d="M1119.6 450.9c-.7-.4-1.5-.7-2.4-.7-6.2-.2-33.3-.9-35.7-.6-2.2.3-13.1 30.2-17.4 42.2-.9 2.6.5 5.5 3.2 6.3l.7.2c2.3.6 4.7-.4 5.7-2.5l6.3-12.9 6.1-12.6c1.8-3.8 6-5.7 10.1-4.7l17.9 4.4c1.2.3 2.2 1 2.8 2a4.9 4.9 0 0 1 .2 5.2l-8.1 13.7c-1.3 2.2-4 3-6.3 1.9l-13.5-6.5c-2.3-1.1-5.1-.2-6.3 2l-.6 1a4.7 4.7 0 0 0 2.2 6.7l22.8 10.6c1.7.8 3.8.5 5.2-.7l29.2-25.4c1.7-1.5 2.2-3.9 1.1-5.9l-6.9-13c-.4-.8-1-1.4-1.8-1.9l-14.5-8.8z" fill="#f2f2f2"/><path class="st27" d="M1064.1 494.7s-3.6 9.7-6.7 12.3c0 0 3.3 0 2.8 2.9-.5 3 7.8-2 8.8-4.1.9-2 3.3-9.2 3.3-9.2l-8.2-1.9z"/></g><g><linearGradient id="SVGID_37_" gradientUnits="userSpaceOnUse" x1="1895.13" y1="473.42" x2="1906.36" y2="473.42" gradientTransform="rotate(2.44 895.59 -15042.15) scale(1.00001)"><stop offset="0" stop-color="#35abe5"/><stop offset=".39" stop-color="#2a8aea"/><stop offset=".77" stop-color="#206fee"/><stop offset="1" stop-color="#1d65ef"/></linearGradient><path d="M1235.4 515.8c2.2.4 4.2-1.2 4.7-3.5l3.9-18.5c.5-2.5-1-4.8-3.2-5.2l-1.4-.2c-2.3-.4-4.5 1.4-4.8 3.8l-2.5 18.7c-.4 2.4 1.1 4.6 3.3 4.9z" fill="url(#SVGID_37_)"/><linearGradient id="SVGID_38_" gradientUnits="userSpaceOnUse" x1="1897.37" y1="473.42" x2="1906.36" y2="473.42" gradientTransform="rotate(2.44 895.59 -15042.15) scale(1.00001)"><stop offset="0" stop-color="#35abe5"/><stop offset=".39" stop-color="#2a8aea"/><stop offset=".77" stop-color="#206fee"/><stop offset="1" stop-color="#1d65ef"/></linearGradient><path d="M1234.1 514.8l3.3-23.3c.2-1.2.6-2.2 1.2-3.1h.7l1.4.2c2.3.4 3.7 2.8 3.2 5.2l-3.9 18.5c-.5 2.3-2.6 3.9-4.7 3.5-.5-.1-.9-.3-1.3-.5.1-.1.1-.3.1-.5z" fill="url(#SVGID_38_)"/><linearGradient id="SVGID_39_" gradientUnits="userSpaceOnUse" x1="1936.47" y1="501.27" x2="1911.28" y2="457.65" gradientTransform="rotate(2.44 895.59 -15042.15) scale(1.00001)"><stop offset="0" stop-color="#35abe5"/><stop offset=".39" stop-color="#2a8aea"/><stop offset=".77" stop-color="#206fee"/><stop offset="1" stop-color="#1d65ef"/></linearGradient><path d="M1282.7 498.7l.1 4.4c1.1 18-16.1 40.4-32.2 32.5-7.5-3.7-14.2-21.2-14.7-29.6l-.8-11.7 47.6 4.4z" fill="url(#SVGID_39_)"/><linearGradient id="SVGID_40_" gradientUnits="userSpaceOnUse" x1="1933.1" y1="498.86" x2="1898.67" y2="464.43" gradientTransform="rotate(2.44 895.59 -15042.15) scale(1.00001)"><stop offset="0" stop-color="#35abe5"/><stop offset=".39" stop-color="#2a8aea"/><stop offset=".77" stop-color="#206fee"/><stop offset="1" stop-color="#1d65ef"/></linearGradient><path d="M1236 506c.5 8.4 7.1 25.9 14.7 29.6.7.4 1.5.7 2.2 1 4.6 1.7 9.8-.1 12.2-4.4 4.1-7.4 6.1-19.1 5.6-26.4l-.1-3.4-35.5-8.2.9 11.8z" fill="url(#SVGID_40_)"/><linearGradient id="SVGID_41_" gradientUnits="userSpaceOnUse" x1="1905.66" y1="567.74" x2="1953.07" y2="567.74" gradientTransform="matrix(.9994 -.03593 .03593 .9994 -689.64 -2.42)"><stop offset="0" stop-color="#35abe5"/><stop offset=".39" stop-color="#2a8aea"/><stop offset=".77" stop-color="#206fee"/><stop offset="1" stop-color="#1d65ef"/></linearGradient><path d="M1282.7 499.3c-.8 5.5-12.2 8.4-25.3 6.4-13.1-2-23.1-8.1-22.2-13.7.8-5.5 12.2-8.4 25.3-6.4 13 2 23 8.2 22.2 13.7z" fill="url(#SVGID_41_)"/><linearGradient id="SVGID_42_" gradientUnits="userSpaceOnUse" x1="1910.68" y1="465.17" x2="1930.17" y2="465.17" gradientTransform="rotate(2.44 895.59 -15042.15) scale(1.00001)"><stop offset="0" stop-color="#35abe5"/><stop offset=".39" stop-color="#2a8aea"/><stop offset=".77" stop-color="#206fee"/><stop offset="1" stop-color="#1d65ef"/></linearGradient><path d="M1267.7 496.3c-.3 2.3-5 3.4-10.3 2.6-5.3-.8-9.4-3.3-9.1-5.6.3-2.3 5-3.4 10.3-2.6 5.4.8 9.5 3.3 9.1 5.6z" fill="url(#SVGID_42_)"/><path class="st11" d="M1258.3 493.4c-4.2-.6-7.9-.1-9.5 1.3 1.1 1.8 4.5 3.5 8.7 4.1 4.2.6 7.9.1 9.5-1.3-1.2-1.7-4.5-3.4-8.7-4.1z"/><ellipse transform="rotate(-83.19 1240.18 472.8)" class="st37" cx="1240.3" cy="472.8" rx="9.9" ry="6.2"/><linearGradient id="SVGID_43_" gradientUnits="userSpaceOnUse" x1="1921.71" y1="566.27" x2="1943.19" y2="535.02" gradientTransform="matrix(.9994 -.03593 .03593 .9994 -689.64 -2.42)"><stop offset="0" stop-color="#35abe5"/><stop offset=".39" stop-color="#2a8aea"/><stop offset=".77" stop-color="#206fee"/><stop offset="1" stop-color="#1d65ef"/></linearGradient><path d="M1286.7 476.8l.6 7.8c.7 9.2-11.7 15.9-22.5 12.1l-20.5-7.2c-5-1.8-8.3-5.5-8.6-9.8l-.5-7.3c-.7-9 11.5-15.7 22.2-12.2l20.4 6.7c5.1 1.8 8.6 5.6 8.9 9.9z" fill="url(#SVGID_43_)"/><path transform="matrix(1 -.00738 .00738 1 -3.46 9.33)" class="st39" d="M1238.2 454.3h49.8v39.9h-49.8z"/><ellipse transform="rotate(-86.37 1283.03 482.44) scale(1.00001)" class="st37" cx="1283" cy="482.4" rx="9.9" ry="5.8"/><ellipse transform="rotate(-86.37 1283.03 482.44) scale(1.00001)" class="st37" cx="1283" cy="482.4" rx="9.9" ry="5.8"/><path class="st11" d="M1285.3 473.1c-2.2 1.3-4 4.8-4.2 9-.3 4.5 1.2 8.4 3.5 9.8 2.2-1.3 4-4.8 4.2-9 .3-4.6-1.2-8.5-3.5-9.8zM1243 482.7h-2.3c-.2 0-.4-.2-.4-.4l-.1-7.4c0-.2.2-.4.4-.4h2.3c.2 0 .4.2.4.4l.1 7.4c.1.2-.1.4-.4.4zM1267.2 489.8h-2.3c-.2 0-.4-.2-.4-.4l-.1-7.4c0-.2.2-.4.4-.4h2.3c.2 0 .4.2.4.4l.1 7.4c0 .2-.2.4-.4.4zM1255.3 489.4c-.9.1-1.8 0-2.7-.2-2.2-.5-4.1-1.8-5.3-3.7-.2-.3-.1-.8.2-1 .3-.2.8-.1 1 .2 1 1.5 2.5 2.6 4.4 3 2 .4 4 0 5.8-1.2.3-.2.8-.1 1 .2.2.3.1.8-.2 1-1.3 1-2.7 1.5-4.2 1.7z"/><ellipse transform="rotate(-6.59 1281.8 484.64)" class="st37" cx="1281.6" cy="484.8" rx="1.9" ry="3.4"/><ellipse transform="matrix(1 -.00738 .00738 1 -3.54 9.35)" class="st37" cx="1265.5" cy="484.2" rx=".7" ry="1.4"/><ellipse transform="matrix(1 -.00738 .00738 1 -3.49 9.17)" class="st37" cx="1241.4" cy="477.2" rx=".7" ry="1.4"/><path class="st29" d="M1249.6 508.1c-.4.6-.9 1.4-.9 2.7l-.3 6.2c0 1 .3 1.5 1.1 1.6.7 0 1.1-.4 1.4-1.5l2.7-.2c-.1 1.3-1 2.5-1.3 3-.7.9-1.6 1.3-2.9 1.3-1.1 0-2-.5-2.6-1.3-.5-.7-.7-1.7-.7-2.9l.3-6.2c.1-1.3.2-4.2.1-4.9l3.1 2.2z"/><g><linearGradient id="SVGID_44_" gradientUnits="userSpaceOnUse" x1="1939.7" y1="483.37" x2="1951.89" y2="483.37" gradientTransform="rotate(2.44 895.59 -15042.15) scale(1.00001)"><stop offset="0" stop-color="#35abe5"/><stop offset=".39" stop-color="#2a8aea"/><stop offset=".77" stop-color="#206fee"/><stop offset="1" stop-color="#1d65ef"/></linearGradient><path d="M1284.8 527.8c-2.2.3-4.2-1.3-4.6-3.7l-3.2-18.6c-.4-2.5 1.1-4.8 3.4-5.1l1.4-.2c2.3-.3 4.4 1.5 4.7 4l1.9 18.8c.1 2.4-1.4 4.5-3.6 4.8z" fill="url(#SVGID_44_)"/><linearGradient id="SVGID_45_" gradientUnits="userSpaceOnUse" x1="1939.7" y1="483.38" x2="1949.84" y2="483.38" gradientTransform="rotate(2.44 895.59 -15042.15) scale(1.00001)"><stop offset="0" stop-color="#35abe5"/><stop offset=".39" stop-color="#2a8aea"/><stop offset=".77" stop-color="#206fee"/><stop offset="1" stop-color="#1d65ef"/></linearGradient><path d="M1286.1 526.8l-2.5-23.4c-.1-1.2-.5-2.3-1.1-3.1h-.7l-1.4.2c-2.3.3-3.8 2.6-3.4 5.1l3.2 18.6c.4 2.3 2.4 4 4.6 3.7.5-.1.9-.2 1.3-.4v-.7z" fill="url(#SVGID_45_)"/><linearGradient id="SVGID_46_" gradientUnits="userSpaceOnUse" x1="1280.68" y1="504.23" x2="1284.44" y2="504.23"><stop offset="0" stop-color="#35abe5"/><stop offset=".39" stop-color="#2a8aea"/><stop offset=".77" stop-color="#206fee"/><stop offset="1" stop-color="#1d65ef"/></linearGradient><path d="M1284.4 504.5c-.1 1-1.1 1.7-2.1 1.6s-1.7-1.1-1.6-2.1c.1-1 1.1-1.7 2.1-1.6 1 .1 1.8 1.1 1.6 2.1z" fill="url(#SVGID_46_)"/><linearGradient id="SVGID_47_" gradientUnits="userSpaceOnUse" x1="1281.32" y1="504.23" x2="1283.8" y2="504.23"><stop offset="0" stop-color="#35abe5"/><stop offset=".39" stop-color="#2a8aea"/><stop offset=".77" stop-color="#206fee"/><stop offset="1" stop-color="#1d65ef"/></linearGradient><path d="M1283.8 504.4c-.1.7-.7 1.1-1.4 1-.7-.1-1.1-.7-1.1-1.4.1-.7.7-1.1 1.4-1 .7.1 1.2.7 1.1 1.4z" fill="url(#SVGID_47_)"/><path class="st11" d="M1282.2 503.1h-.2c-.4.2-.7.5-.7.9-.1.7.4 1.3 1.1 1.4h.2c.4-.2.7-.5.7-.9.1-.7-.4-1.3-1.1-1.4z"/></g><path class="st29" d="M1246.5 505.8l4.5 1v1.2l-1.6.4z"/></g><ellipse transform="rotate(-86.37 1253.5 546.84) scale(1.00001)" class="st0" cx="1253.5" cy="546.8" rx="4.4" ry="12.1"/></svg>