<svg id="Layer_1" xmlns="http://www.w3.org/2000/svg" viewBox="0 0 1200 900"><style>.st0{fill:#e5e5e5}.st1{fill:#b8b7bc}.st2{fill:#f35c80}.st3{fill:#0a9b5c}.st6{fill:#47b9ec}.st7{fill:#797df9}.st12{fill:#3b4472}.st13{fill:#edf4f4}</style><path class="st0" d="M323.3 439.5c0-9-7.3-16.3-16.3-16.3l-182 .1c-9 0-16.3 7.3-16.3 16.3v10.3h15.8v13h-15.8V505h22v12.5h-22v20.8h16.7v11.9h-16.7v8.1c0 9 7.3 16.3 16.3 16.3l182-.1c9 0 16.3-7.3 16.3-16.3V439.5z"/><path class="st1" d="M139.9 459.3h152.4v10.8H139.9zM148.4 482.1h134.4v10.8H148.4zM148.4 504.9h134.4v10.8H148.4zM148.5 529.7h134.4v10.8H148.5z"/><path transform="rotate(136.06 304.68 436.27)" class="st2" d="M283 430.3h43.5v11.9H283z"/><path transform="rotate(-133.94 304.69 436.27)" class="st2" d="M283 430.3h43.5v11.9H283z"/><path class="st0" d="M85.1 450.2h17.4v10.6H85.1zM62.2 474.6h16.1v10.6H62.2zM62.2 449.1h16.1v10.6H62.2zM62.2 505.3h40.2v10.6H62.2zM64.9 537h40.2v10.6H64.9z"/><g><path class="st0" d="M1112.6 534.3l-206.7.1a3.9 3.9 0 0 1-3.9-3.9l-.1-143.3c0-2.2 1.8-3.9 3.9-3.9l206.7-.1c2.2 0 3.9 1.8 3.9 3.9l.1 143.3c0 2.1-1.7 3.9-3.9 3.9z"/><path class="st1" d="M933 419.1h152.4v10.8H933zM941.5 441.9h134.4v10.8H941.5zM941.6 464.8H1076v10.8H941.6zM941.6 489.6H1076v10.8H941.6z"/><g><path class="st0" d="M1057.2 282a500.94 500.94 0 0 1-80.9 65.7c-10.1 6.6-23.7 3.6-29.8-6.8l-52.7-89.1c-5.7-9.7-2.7-22 6.6-28.2 38.9-26 72.4-59.6 98.5-98.5 6.2-9.3 18.6-12.3 28.2-6.6l89.1 52.7a21.13 21.13 0 0 1 6.8 29.8 508.72 508.72 0 0 1-65.8 81z"/><path class="st1" d="M976 203.1a308.1 308.1 0 0 1-61.3 47.6l-6.3-10.7c43-25.4 79.1-61.5 104.5-104.5l10.7 6.3a313.94 313.94 0 0 1-47.6 61.3zM997.1 224.1a308.1 308.1 0 0 1-61.3 47.6l-6.3-10.7c43-25.4 79.1-61.5 104.5-104.5l10.7 6.3c-13.3 22.4-29.3 43-47.6 61.3zM1015.7 242.7a308.1 308.1 0 0 1-61.3 47.6l-6.3-10.7c43-25.4 79.1-61.5 104.5-104.5l10.7 6.3c-13.3 22.4-29.3 43-47.6 61.3zM1036.7 263.8a308.1 308.1 0 0 1-61.3 47.6l-6.3-10.7c43-25.4 79.1-61.5 104.5-104.5l10.7 6.3a311 311 0 0 1-47.6 61.3z"/><g><path class="st3" d="M999.3 146.7l-2.1-12.3 15.6-2.6V88.3h12.5v54z"/></g><g><path class="st0" d="M1041.4 645c-25-25-52.6-47.4-82.4-66.7-9.4-6.1-22-3-27.7 6.7l-53.8 91c-5.4 9.2-2.6 20.8 6.3 26.7 39.5 26.3 73.6 60.4 99.9 99.9 5.9 8.8 17.6 11.7 26.7 6.3l91.1-53.9a19.9 19.9 0 0 0 6.7-27.7 508.34 508.34 0 0 0-66.8-82.3z"/><path class="st1" d="M960.3 724a308.1 308.1 0 0 0-61.3-47.6l-6.3 10.7c43 25.4 79.1 61.5 104.5 104.5l10.7-6.3c-13.3-22.4-29.3-43-47.6-61.3zM981.3 702.9a308.1 308.1 0 0 0-61.3-47.6l-6.3 10.7c43 25.4 79.1 61.5 104.5 104.5l10.7-6.3c-13.2-22.4-29.2-43-47.6-61.3zM999.9 684.3a308.1 308.1 0 0 0-61.3-47.6l-6.3 10.7c43 25.4 79.1 61.5 104.5 104.5l10.7-6.3c-13.2-22.4-29.2-43-47.6-61.3zM1021 663.2a308.1 308.1 0 0 0-61.3-47.6l-6.3 10.7c43 25.4 79.1 61.5 104.5 104.5l10.7-6.3a317.82 317.82 0 0 0-47.6-61.3z"/><g><path class="st3" d="M1079.2 718l12.3-1.7 2.3 15.6 43.4 1.1-.3 12.5-54-1.4z"/></g></g></g><g><path class="st3" d="M1076.2 406.5l8.2-9.4 11.9 10.3 33.6-27.6 7.9 9.6-41.7 34.3z"/></g></g><g><linearGradient id="SVGID_1_" gradientUnits="userSpaceOnUse" x1="580.62" y1="315.26" x2="647.6" y2="199.25"><stop offset="0" stop-color="#35abe5"/><stop offset=".33" stop-color="#38ade6"/><stop offset=".57" stop-color="#41b4ea"/><stop offset=".78" stop-color="#51c0f0"/><stop offset=".97" stop-color="#67d1f8"/><stop offset="1" stop-color="#6bd4fa"/></linearGradient><path fill="url(#SVGID_1_)" d="M544.3 220.2h139.6v74.1H544.3z"/><linearGradient id="SVGID_2_" gradientUnits="userSpaceOnUse" x1="520.32" y1="192" x2="707.9" y2="192"><stop offset="0" stop-color="#35abe5"/><stop offset=".31" stop-color="#42b5ea"/><stop offset=".89" stop-color="#64cff7"/><stop offset="1" stop-color="#6bd4fa"/></linearGradient><path d="M688.2 220.2H540c-10.9 0-19.7-8.8-19.7-19.7v-17.1c0-10.9 8.8-19.7 19.7-19.7h148.2c10.9 0 19.7 8.8 19.7 19.7v17.1c0 10.9-8.8 19.7-19.7 19.7z" fill="url(#SVGID_2_)"/><path class="st6" d="M531.3 217.7c2.4 1.3 5 2.1 7.7 2.3v-56c-2.8.3-5.4 1.1-7.7 2.3v51.4zM570.2 163.8h7.7v56.5h-7.7zM610.2 163.8h7.7v56.5h-7.7zM650.3 163.8h7.7v56.5h-7.7z"/><path class="st7" d="M690.4 163.8v56.4"/><path class="st6" d="M690.4 219.9c2.8-.4 5.4-1.4 7.7-2.9v-50.1c-2.3-1.4-4.9-2.4-7.7-2.9v55.9z"/><g><linearGradient id="SVGID_3_" gradientUnits="userSpaceOnUse" x1="763.73" y1="303.9" x2="829.36" y2="303.9"><stop offset="0" stop-color="#35abe5"/><stop offset=".31" stop-color="#42b5ea"/><stop offset=".89" stop-color="#64cff7"/><stop offset="1" stop-color="#6bd4fa"/></linearGradient><path fill="url(#SVGID_3_)" d="M802.4 336.4l-38.7-28.9 27-36.1 38.7 28.9z"/><linearGradient id="SVGID_4_" gradientUnits="userSpaceOnUse" x1="771.64" y1="286.11" x2="849.14" y2="286.11"><stop offset="0" stop-color="#35abe5"/><stop offset=".31" stop-color="#42b5ea"/><stop offset=".89" stop-color="#64cff7"/><stop offset="1" stop-color="#6bd4fa"/></linearGradient><path d="M824.2 316.3l-46.7-34.9c-6.4-4.8-7.8-13.9-3-20.4l1.7-2.2c4.8-6.4 13.9-7.8 20.4-3l46.7 34.9c6.4 4.8 7.8 13.9 3 20.4l-1.7 2.2c-4.8 6.5-13.9 7.8-20.4 3z" fill="url(#SVGID_4_)"/></g><linearGradient id="SVGID_5_" gradientUnits="userSpaceOnUse" x1="481.14" y1="735.54" x2="747.08" y2="274.93"><stop offset="0" stop-color="#35abe5"/><stop offset=".31" stop-color="#42b5ea"/><stop offset=".89" stop-color="#64cff7"/><stop offset="1" stop-color="#6bd4fa"/></linearGradient><circle cx="614.1" cy="505.2" r="265.9" fill="url(#SVGID_5_)"/><circle cx="614.1" cy="505.2" r="185.4" fill="#fcffff"/><g><path class="st7" d="M751.2 380.4a184.74 184.74 0 0 0-137-60.5v185.4h1.3l135.7-124.9z"/><path class="st12" d="M620.7 399.7h-13.2c-1.1 0-2.1-.9-2.1-2.1v-62c0-1.1.9-2.1 2.1-2.1h13.2c1.1 0 2.1.9 2.1 2.1v62c0 1.2-.9 2.1-2.1 2.1zM620.7 681.2h-13.2c-1.1 0-2.1-.9-2.1-2.1v-62c0-1.1.9-2.1 2.1-2.1h13.2c1.1 0 2.1.9 2.1 2.1v62c0 1.1-.9 2.1-2.1 2.1z"/></g><g><path class="st12" d="M721.7 511.5v-12.6c0-1.1.9-2 2-2h62.2a2 2 0 0 1 2 2v12.6a2 2 0 0 1-2 2h-62.2a2 2 0 0 1-2-2zM440.3 511.5v-12.6c0-1.1.9-2 2-2h62.2a2 2 0 0 1 2 2v12.6a2 2 0 0 1-2 2h-62.2a2 2 0 0 1-2-2z"/></g><circle class="st12" cx="614.1" cy="510.6" r="14.7"/></g></svg>