<svg id="Layer_1" xmlns="http://www.w3.org/2000/svg" viewBox="0 0 1200 900"><style>.st0{fill:#d6defc}.st1{fill:#f9c85a}.st4{fill:#fcb7b7}.st5{fill:#59c6f3}.st7{fill:#47b9ec}.st8{fill:#fff}</style><path class="st0" d="M945.7 654.4H819.2a35.79 35.79 0 0 1-28.4-34.9c0-19.6 16.1-35.7 35.7-35.7h41.8v-.1h4.2c19.6 0 35.7-16.1 35.7-35.7s-16.1-35.7-35.7-35.7H771.1a35.73 35.73 0 0 1-25.4-34.2c0-19.6 16.1-35.7 35.7-35.7h117c19.6 0 35.7-16.1 35.7-35.7S918 371 898.4 371H267.7c-19.7 0-35.7 16-35.7 35.7 0 19.6 16.1 35.7 35.7 35.7h69.7c19.6 0 35.7 16.1 35.7 35.7 0 16.1-10.8 29.7-25.4 34.2h-68.2c-19.6 0-35.7 16.1-35.7 35.7s16.1 35.7 35.7 35.7h70.7c19.6 0 35.7 16.1 35.7 35.7 0 17.2-12.4 31.7-28.7 35H242.3c-19.6 0-35.7 16.1-35.7 35.7s16.1 35.7 35.7 35.7h126.3c19.6 0 35.7 16.1 35.7 35.7 0 17.2-12.4 31.7-28.7 35h492.6v-.7h-95.1c-19.6 0-35.7-16.1-35.7-35.7 0-16.2 10.9-29.9 25.8-34.3h182.5c19.6 0 35.7-16.1 35.7-35.7s-16-35.7-35.7-35.7z"/><path class="st1" d="M453.2 382.7H401c-48.2 0-87.7-39.4-87.7-87.7v-17.9c0-48.2 39.4-87.7 87.7-87.7h52.2c48.2 0 87.7 39.4 87.7 87.7V295c0 48.3-39.5 87.7-87.7 87.7z"/><path class="st0" d="M157.6 650.9c-19.6 0-35.7 16.1-35.7 35.7s16.1 35.7 35.7 35.7 35.7-16.1 35.7-35.7c0-19.7-16-35.7-35.7-35.7zM105.1 521.2h57.4c19.6 0 35.7-16.1 35.7-35.7s-16.1-35.7-35.7-35.7h-57.4c-19.6 0-35.7 16.1-35.7 35.7s16.1 35.7 35.7 35.7zM1094.9 575.8h-57.4c-19.6 0-35.7 16.1-35.7 35.7s16.1 35.7 35.7 35.7h57.4c19.6 0 35.7-16.1 35.7-35.7s-16.1-35.7-35.7-35.7zM1087.1 444.2H971.7c-19.6 0-35.7 16.1-35.7 35.7s16.1 35.7 35.7 35.7h115.4c19.6 0 35.7-16.1 35.7-35.7 0-19.7-16-35.7-35.7-35.7z"/><path class="st1" d="M332.1 184.1l-15.2-8.4-15.5 7.8 3.3-17-12.1-12.4 17.2-2.1 8-15.4 7.3 15.7 17 2.9-12.6 11.8zM386.9 156.7l-15.1-8.4-15.5 7.7 3.3-17-12.1-12.3 17.1-2.1 8-15.4 7.4 15.7 17 2.8-12.6 11.9zM441.8 147.5l-15.1-8.4-15.5 7.8 3.3-17-12.2-12.4 17.2-2.1 8-15.3 7.3 15.6 17.1 2.9-12.6 11.8zM496.7 156.7l-15.1-8.4-15.5 7.7 3.3-17-12.2-12.3 17.2-2.1 8-15.4 7.3 15.7 17.1 2.8-12.7 11.9zM551.6 184.1l-15.2-8.4-15.5 7.8 3.3-17-12.1-12.4 17.2-2.1 8-15.4 7.3 15.7 17.1 2.9L549 167z"/><linearGradient id="SVGID_1_" gradientUnits="userSpaceOnUse" x1="271.56" y1="505.34" x2="461.67" y2="834.62"><stop offset="0" stop-color="#6bd4fa"/><stop offset=".14" stop-color="#5ecaf5"/><stop offset=".45" stop-color="#47b9ec"/><stop offset=".74" stop-color="#3aafe7"/><stop offset="1" stop-color="#35abe5"/></linearGradient><path d="M456.1 670.2c-6.8-8.5-21.7-15.4-40.9-18.9v-8c15-6.6 25.3-19 26.2-37.8l.1-2.6c6.5-.9 13-5 17.2-11.7 6.8-10.9 5-24.3-4.1-30-.4-.3-.9-.5-1.4-.7 5.9-12.9 8.2-25.7 9.3-34.2 1.7-12.4.1-45.5-48.5-62-51.3-17.5-78.9 2.8-93 14.7-14.1 11.8-11.5 31-11.5 31-11.6 20-3.5 40 5.8 53.7-6.4 6.5-7.1 18-1.1 27.6 4.2 6.7 10.7 10.8 17.2 11.7l.1 2.6c.9 18.8 11.2 31.3 26.2 37.9v8c-18.2 3.3-32.6 9.7-39.8 17.6 0 0-50.2 46-66.8 131h270.6c-15.3-78.8-59.2-123.6-65.6-129.9zM329.3 558.8l-.3-4.8.3 4.8z" fill="url(#SVGID_1_)"/><linearGradient id="SVGID_2_" gradientUnits="userSpaceOnUse" x1="331.81" y1="652.76" x2="437.17" y2="835.26"><stop offset="0" stop-color="#6bd4fa"/><stop offset=".14" stop-color="#5ecaf5"/><stop offset=".45" stop-color="#47b9ec"/><stop offset=".74" stop-color="#3aafe7"/><stop offset="1" stop-color="#35abe5"/></linearGradient><path d="M498.4 799.9H274.5v-97.5c0-15.8 12.9-28.7 28.7-28.7h166.5c15.8 0 28.7 12.9 28.7 28.7v97.5z" fill="url(#SVGID_2_)"/><circle class="st0" cx="386.4" cy="727.7" r="18.5"/><g><ellipse transform="rotate(-32.11 670.6 360.6)" class="st4" cx="670.6" cy="360.6" rx="39.3" ry="47.1"/><ellipse transform="rotate(-57.89 897.02 360.6)" class="st4" cx="897" cy="360.6" rx="47.1" ry="39.3"/><path class="st5" d="M925.1 541.9c-20-25.3-75.7-43.4-141.2-43.4-63.3 0-117.3 16.9-139 40.8 0 0-101.8 87.3-135.4 259.5h548.8c-31.1-159.4-120.1-244.2-133.2-256.9z"/><path class="st4" d="M842.1 514.9v-87.7H725.5v87.7c-18.2 8.9-29.7 21.9-29.7 36.3 0 13.4 9.9 25.6 25.8 34.4s37.9 14.2 62.3 14.2c48.6 0 88-21.8 88-48.6 0-14.4-11.6-27.4-29.8-36.3z"/><path d="M783.8 498.5c-59.5 0-108.6-28.5-111.4-87.9l-8.7-181.9h240.1l-8.7 181.9c-2.7 59.4-51.7 87.9-111.3 87.9z" fill="#f9c6c2"/><path class="st7" d="M634.4 629.6s-29 154 71.6 169.2H594.8s24.4-129.6 39.6-169.2zM928.7 629.6s29 154-71.6 169.2h111.3c-.1 0-24.5-129.6-39.7-169.2z"/><path class="st5" d="M717 595.3l55.6 18.1 37.4-2.1 39.2-26.7-30.1-6.9-35.3 22.1-32.9-27.4z"/><path class="st8" d="M386.7 297.3v31s44.6 31 79.6 5l1.2-44.9-67.9-8.7-12.9 17.6z"/><path class="st8" d="M462.8 273.4s-27.1 1.7-27.8-12.3c-.7-14 3.2-44.8-8.1-48-11.2-3.2-15.2 4.6-15 9.9.3 5.3 5.5 24.2-1.3 32.8s-23.9 6.3-23.9 6.3v47s51.5 12.6 77.5-15.8l-1.4-19.9z"/><path class="st8" d="M491.2 277.8h-60.5a2 2 0 0 1-2-2v-14.4c0-1.1.9-2 2-2h60.5a2 2 0 0 1 2 2v14.4a2 2 0 0 1-2 2zM487.6 296.3h-60.5a2 2 0 0 1-2-2v-14.4c0-1.1.9-2 2-2h60.5a2 2 0 0 1 2 2v14.4a2 2 0 0 1-2 2zM481.7 314.8h-60.5a2 2 0 0 1-2-2v-14.4c0-1.1.9-2 2-2h60.5a2 2 0 0 1 2 2v14.4c.1 1.1-.8 2-2 2z"/><path class="st8" d="M477 333.1h-60.5a2 2 0 0 1-2-2v-14.4c0-1.1.9-2 2-2H477a2 2 0 0 1 2 2v14.4a2 2 0 0 1-2 2z"/><path class="st7" d="M389.3 338H365c-1.5 0-2.7-1.2-2.7-2.7V254c0-1.5 1.2-2.7 2.7-2.7h24.4c1.5 0 2.7 1.2 2.7 2.7v81.3c-.1 1.5-1.3 2.7-2.8 2.7zM725.5 514.9l58.3 84.9-35.9-14.1-59.1 28.8-16.5-94.5 53.2-32.6zM842.1 514.9l-58.3 84.9 36-14.1 59.1 28.8 16.4-94.5-53.2-32.6z"/><circle class="st7" cx="784.5" cy="623.4" r="8.8"/><circle class="st7" cx="784.5" cy="673.7" r="8.8"/><circle class="st7" cx="784.5" cy="724" r="8.8"/><circle class="st7" cx="784.5" cy="774.3" r="8.8"/><path class="st7" d="M882.2 656.4h-56.1c-.7 0-1.3-.6-1.3-1.3v-9.3c0-.7.6-1.3 1.3-1.3h56.1c.7 0 1.3.6 1.3 1.3v9.3c0 .7-.6 1.3-1.3 1.3z"/><linearGradient id="SVGID_3_" gradientUnits="userSpaceOnUse" x1="645.5" y1="245.59" x2="922.69" y2="245.59"><stop offset="0" stop-color="#1a1e3e"/><stop offset=".07" stop-color="#23294c"/><stop offset=".17" stop-color="#2e355d"/><stop offset=".31" stop-color="#353e69"/><stop offset=".5" stop-color="#3a4370"/><stop offset="1" stop-color="#3b4472"/></linearGradient><path d="M857.6 153.9c-115.9-45.7-159.5 23.9-159.5 23.9s-50 12.9-52.4 72.9c-2.6 66.1 23.4 102.1 23.4 102.1s47.9-25.1 66-80.4c0 0 39.4 54.2 115.7 54.8l-33-28s50.1 39.5 81.7 37.7c-.2.1 73.9-137.3-41.9-183z" fill="url(#SVGID_3_)"/></g><path class="st8" d="M791.6 467.3c26.5 0 48-21.5 48-48h-96c0 26.5 21.5 48 48 48z"/><path class="st1" d="M455.2 367.6s8.4 42.8 53 51.7c0 0-22.6-30.6-20.7-51.7h-32.3z"/></svg>