<svg id="Layer_1" xmlns="http://www.w3.org/2000/svg" viewBox="0 0 1200 900"><style>.st0{fill:#d6defc}.st1{fill:#fff}.st2{fill:#fabebc}.st5{fill:#fea8ac}.st6{fill:#fcb7b7}.st17{fill:#47b9ec}.st19{fill:#3b4472}.st21{fill:#dbe7f0}.st22{fill:#b7c4dc}.st24{fill:#f9c85a}.st25{fill:#c1cde1}</style><path class="st0" d="M909.1 644.6H794.2a32.56 32.56 0 0 1-25.8-31.7c0-17.8 14.6-32.4 32.4-32.4h37.9v-.1h3.8c17.8 0 32.4-14.6 32.4-32.4 0-17.8-14.6-32.4-32.4-32.4h-92.1a32.5 32.5 0 0 1-23.1-31c0-17.8 14.6-32.4 32.4-32.4h106.2c17.8 0 32.4-14.6 32.4-32.4 0-17.8-14.6-32.4-32.4-32.4H293.3c-17.8 0-32.4 14.6-32.4 32.4 0 17.8 14.6 32.4 32.4 32.4h63.3c17.8 0 32.4 14.6 32.4 32.4 0 14.6-9.8 27-23.1 31H304c-17.8 0-32.4 14.6-32.4 32.4 0 17.8 14.6 32.4 32.4 32.4h64.2c17.8 0 32.4 14.6 32.4 32.4a32.5 32.5 0 0 1-26 31.8H270.3c-17.8 0-32.4 14.6-32.4 32.4s14.6 32.4 32.4 32.4H385c17.8 0 32.4 14.6 32.4 32.4a32.5 32.5 0 0 1-26 31.8h447.4v-.6h-86.4c-17.8 0-32.4-14.6-32.4-32.4 0-14.7 9.9-27.2 23.4-31.1h165.7c17.8 0 32.4-14.6 32.4-32.4s-14.6-32.5-32.4-32.5zM193.4 648.4c-17.8 0-32.4 14.6-32.4 32.4 0 17.8 14.6 32.4 32.4 32.4 17.8 0 32.4-14.6 32.4-32.4 0-17.8-14.5-32.4-32.4-32.4zM145.7 530.6h52.1c17.8 0 32.4-14.6 32.4-32.4s-14.6-32.4-32.4-32.4h-52.1c-17.8 0-32.4 14.6-32.4 32.4s14.6 32.4 32.4 32.4zM1044.6 580.2h-52.1c-17.8 0-32.4 14.6-32.4 32.4 0 17.8 14.6 32.4 32.4 32.4h52.1c17.8 0 32.4-14.6 32.4-32.4 0-17.8-14.6-32.4-32.4-32.4z"/><path class="st0" d="M1037.5 460.7H932.7c-17.8 0-32.4 14.6-32.4 32.4s14.6 32.4 32.4 32.4h104.8c17.8 0 32.4-14.6 32.4-32.4s-14.5-32.4-32.4-32.4z"/><g><circle class="st1" cx="603" cy="657.4" r="34"/><path class="st2" d="M177 419.9l-8 6.8c-.7.6-1.7.5-2.3-.2l-29.6-34.9c-.6-.7-.5-1.7.2-2.3l8-6.8c.7-.6 1.7-.5 2.3.2l29.6 34.9c.6.7.5 1.7-.2 2.3zM189.8 402.3l-8 6.8c-.7.6-1.7.5-2.3-.2L149.9 374c-.6-.7-.5-1.7.2-2.3l8-6.8c.7-.6 1.7-.5 2.3.2L190 400c.5.7.5 1.7-.2 2.3zM206.1 384l-8 6.8c-.7.6-1.7.5-2.3-.2l-29.6-34.9c-.6-.7-.5-1.7.2-2.3l8-6.8c.7-.6 1.7-.5 2.3.2l29.6 34.9c.5.7.5 1.7-.2 2.3zM223.2 373.9l-8 6.8c-.7.6-1.7.5-2.3-.2l-29.6-34.9c-.6-.7-.5-1.7.2-2.3l8-6.8c.7-.6 1.7-.5 2.3.2l29.6 34.9c.6.7.5 1.7-.2 2.3z"/><linearGradient id="SVGID_1_" gradientUnits="userSpaceOnUse" x1="277.87" y1="624.23" x2="582.43" y2="624.23"><stop offset="0" stop-color="#6bd4fa"/><stop offset=".14" stop-color="#5ecaf5"/><stop offset=".45" stop-color="#47b9ec"/><stop offset=".74" stop-color="#3aafe7"/><stop offset="1" stop-color="#35abe5"/></linearGradient><path d="M571.9 655.2l-231.3 42.1a53.22 53.22 0 0 1-19.1-104.7l231.3-42.1c7-1.3 13.6 3.4 14.9 10.3l14.5 79.5c1.3 7-3.3 13.7-10.3 14.9z" fill="url(#SVGID_1_)"/><linearGradient id="SVGID_2_" gradientUnits="userSpaceOnUse" x1="199.3" y1="431.65" x2="351.4" y2="695.07"><stop offset="0" stop-color="#6bd4fa"/><stop offset=".14" stop-color="#5ecaf5"/><stop offset=".45" stop-color="#47b9ec"/><stop offset=".74" stop-color="#3aafe7"/><stop offset="1" stop-color="#35abe5"/></linearGradient><path d="M287.9 674.5L149.5 468.8l88.3-59.4L376.3 615a53.33 53.33 0 0 1-14.4 73.9 53.36 53.36 0 0 1-74-14.4z" fill="url(#SVGID_2_)"/><path class="st5" d="M189.4 395.4s-32.9 4.9-41 21.2c-8.1 16.3 10.6 45.9 10.6 45.9l44.3-29.8-13.9-37.3z"/><path class="st6" d="M225.7 417.6s10.8-45.5 9.6-52.3c-1.2-6.8-13.2-37.9-21.1-30.8-7.8 7.2 5.8 18.1.8 24.6s-30.9 19-35.8 38.2c-5 19.2 8.4 45.9 8.4 45.9l38.1-25.6z"/><path class="st2" d="M1025.3 412.2l8.3 6.4c.7.6 1.8.4 2.3-.3l28-36.1c.6-.7.4-1.8-.3-2.3l-8.3-6.4c-.7-.6-1.8-.4-2.3.3l-28 36.1c-.6.7-.4 1.7.3 2.3zM1011.8 395.1l8.3 6.4c.7.6 1.8.4 2.3-.3l28-36.1c.6-.7.4-1.8-.3-2.3l-8.3-6.4c-.7-.6-1.8-.4-2.3.3l-28 36.1c-.6.7-.5 1.8.3 2.3zM994.7 377.6l8.3 6.4c.7.6 1.8.4 2.3-.3l28-36.1c.6-.7.4-1.8-.3-2.3l-8.3-6.4c-.7-.6-1.8-.4-2.3.3l-28 36.1c-.6.7-.4 1.7.3 2.3zM977.1 368.2l8.3 6.4c.7.6 1.8.4 2.3-.3l28-36.1c.6-.7.4-1.8-.3-2.3l-8.3-6.4c-.7-.6-1.8-.4-2.3.3l-28 36.1c-.5.7-.4 1.8.3 2.3z"/><linearGradient id="SVGID_3_" gradientUnits="userSpaceOnUse" x1="635.08" y1="630.49" x2="934.4" y2="630.49"><stop offset="0" stop-color="#6bd4fa"/><stop offset=".14" stop-color="#5ecaf5"/><stop offset=".45" stop-color="#47b9ec"/><stop offset=".74" stop-color="#3aafe7"/><stop offset="1" stop-color="#35abe5"/></linearGradient><path d="M681.1 670l192.8 26.4c29.1 4 56-16.4 60-45.5s-16.4-56-45.5-60l-192.8-26.4A53.23 53.23 0 1 0 681.1 670z" fill="url(#SVGID_3_)"/><linearGradient id="SVGID_4_" gradientUnits="userSpaceOnUse" x1="881.06" y1="452.29" x2="990.32" y2="641.54"><stop offset="0" stop-color="#6bd4fa"/><stop offset=".14" stop-color="#5ecaf5"/><stop offset=".45" stop-color="#47b9ec"/><stop offset=".74" stop-color="#3aafe7"/><stop offset="1" stop-color="#35abe5"/></linearGradient><path d="M926.9 670.7l129.3-211.5-90.8-55.5L836 615.1a53.3 53.3 0 0 0 17.7 73.2 53.15 53.15 0 0 0 73.2-17.6z" fill="url(#SVGID_4_)"/><path class="st5" d="M1011.8 388.2s33.1 3.5 41.9 19.4-8.6 46.3-8.6 46.3L999.5 426l12.3-37.8z"/><path class="st6" d="M976.5 411.9s-12.8-45-11.9-51.8c.9-6.9 11.6-38.5 19.7-31.7s-5 18.3.2 24.6 31.7 17.6 37.5 36.6c5.8 19-6.3 46.3-6.3 46.3l-39.2-24z"/><g><path class="st2" d="M841.4 266.4l10.4 1.3c.9.1 1.7-.5 1.8-1.4l5.7-45.4c.1-.9-.5-1.7-1.4-1.8l-10.4-1.3c-.9-.1-1.7.5-1.8 1.4l-5.7 45.4c-.1.8.5 1.7 1.4 1.8zM821.1 258.6l10.4 1.3c.9.1 1.7-.5 1.8-1.4l5.7-45.4c.1-.9-.5-1.7-1.4-1.8l-10.4-1.3c-.9-.1-1.7.5-1.8 1.4l-5.7 45.4c-.2.9.5 1.7 1.4 1.8zM797.4 252.2l10.4 1.3c.9.1 1.7-.5 1.8-1.4l5.7-45.4c.1-.9-.5-1.7-1.4-1.8l-10.4-1.3c-.9-.1-1.7.5-1.8 1.4l-5.7 45.4c-.1.9.5 1.7 1.4 1.8zM777.6 253.2l10.4 1.3c.9.1 1.7-.5 1.8-1.4l5.7-45.4c.1-.9-.5-1.7-1.4-1.8l-10.4-1.3c-.9-.1-1.7.5-1.8 1.4l-5.7 45.4c-.2.8.5 1.7 1.4 1.8z"/><linearGradient id="SVGID_5_" gradientUnits="userSpaceOnUse" x1="603.01" y1="576.88" x2="888.84" y2="576.88"><stop offset="0" stop-color="#6bd4fa"/><stop offset=".14" stop-color="#5ecaf5"/><stop offset=".45" stop-color="#47b9ec"/><stop offset=".74" stop-color="#3aafe7"/><stop offset="1" stop-color="#35abe5"/></linearGradient><path d="M676.9 663.8l179.3-75.7a53.21 53.21 0 0 0 28.4-69.7 53.21 53.21 0 0 0-69.7-28.4l-179.3 75.7a53.21 53.21 0 0 0-28.4 69.7 53.24 53.24 0 0 0 69.7 28.4z" fill="url(#SVGID_5_)"/><linearGradient id="SVGID_6_" gradientUnits="userSpaceOnUse" x1="766.19" y1="301.57" x2="912.93" y2="555.73"><stop offset="0" stop-color="#6bd4fa"/><stop offset=".14" stop-color="#5ecaf5"/><stop offset=".45" stop-color="#47b9ec"/><stop offset=".74" stop-color="#3aafe7"/><stop offset="1" stop-color="#35abe5"/></linearGradient><path d="M887.9 540.1l3.3-247.9-106.5-1.4-3.3 247.9a53.18 53.18 0 0 0 52.5 53.9c29.5.5 53.6-23.1 54-52.5z" fill="url(#SVGID_6_)"/><path class="st5" d="M817.6 252.7s30.2-13.9 45.9-4.7 16.2 44.2 16.2 44.2l-53.4-.7-8.7-38.8z"/><path class="st6" d="M799.4 291.1s-34-32.1-36.7-38.5c-2.7-6.4-9.7-39 .8-37.3 10.5 1.7 5 18.3 12.8 21 7.8 2.7 36.2-1 50.9 12.3 14.6 13.4 18.2 43 18.2 43l-46-.5z"/></g><g><path class="st2" d="M356.5 266.4l-10.4 1.3c-.9.1-1.7-.5-1.8-1.4l-5.7-45.4c-.1-.9.5-1.7 1.4-1.8l10.4-1.3c.9-.1 1.7.5 1.8 1.4l5.7 45.4c.1.8-.5 1.7-1.4 1.8zM376.8 258.6l-10.4 1.3c-.9.1-1.7-.5-1.8-1.4l-5.7-45.4c-.1-.9.5-1.7 1.4-1.8l10.4-1.3c.9-.1 1.7.5 1.8 1.4l5.7 45.4c.1.9-.5 1.7-1.4 1.8zM400.4 252.2l-10.4 1.3c-.9.1-1.7-.5-1.8-1.4l-5.7-45.4c-.1-.9.5-1.7 1.4-1.8l10.4-1.3c.9-.1 1.7.5 1.8 1.4l5.7 45.4c.2.9-.5 1.7-1.4 1.8zM420.3 253.2l-10.4 1.3c-.9.1-1.7-.5-1.8-1.4l-5.7-45.4c-.1-.9.5-1.7 1.4-1.8l10.4-1.3c.9-.1 1.7.5 1.8 1.4l5.7 45.4c.1.8-.5 1.7-1.4 1.8z"/><linearGradient id="SVGID_7_" gradientUnits="userSpaceOnUse" x1="310.02" y1="583.14" x2="608.37" y2="583.14"><stop offset="0" stop-color="#6bd4fa"/><stop offset=".14" stop-color="#5ecaf5"/><stop offset=".45" stop-color="#47b9ec"/><stop offset=".74" stop-color="#3aafe7"/><stop offset="1" stop-color="#35abe5"/></linearGradient><path d="M559.2 679.5l-216.6-91.4a53.21 53.21 0 0 1-28.4-69.7 53.21 53.21 0 0 1 69.7-28.4l216.6 91.4c6.5 2.8 9.6 10.3 6.8 16.8l-31.4 74.5c-2.7 6.5-10.2 9.5-16.7 6.8z" fill="url(#SVGID_7_)"/><linearGradient id="SVGID_8_" gradientUnits="userSpaceOnUse" x1="291.54" y1="301.03" x2="439.31" y2="556.97"><stop offset="0" stop-color="#6bd4fa"/><stop offset=".14" stop-color="#5ecaf5"/><stop offset=".45" stop-color="#47b9ec"/><stop offset=".74" stop-color="#3aafe7"/><stop offset="1" stop-color="#35abe5"/></linearGradient><path d="M310 540.1l-3.3-247.9 106.5-1.4 3.3 247.9c.4 29.4-23.1 53.5-52.5 53.9-29.5.5-53.6-23.1-54-52.5z" fill="url(#SVGID_8_)"/><path class="st5" d="M380.2 252.7s-30.2-13.9-45.9-4.7-16.2 44.2-16.2 44.2l53.4-.7 8.7-38.8z"/><path class="st6" d="M398.5 291.1s34-32.1 36.7-38.5c2.7-6.4 9.7-39-.8-37.3-10.5 1.7-5 18.3-12.8 21-7.8 2.7-36.2-1-50.9 12.3-14.6 13.4-18.2 43-18.2 43l46-.5z"/></g><g><ellipse transform="rotate(-32.11 500.17 370.17)" class="st6" cx="500.2" cy="370.2" rx="35.6" ry="42.8"/><ellipse transform="rotate(-57.89 705.8 370.18)" class="st6" cx="705.8" cy="370.2" rx="42.8" ry="35.6"/></g><linearGradient id="SVGID_9_" gradientUnits="userSpaceOnUse" x1="477.36" y1="528.63" x2="677.15" y2="874.69"><stop offset="0" stop-color="#6bd4fa"/><stop offset=".14" stop-color="#5ecaf5"/><stop offset=".45" stop-color="#47b9ec"/><stop offset=".74" stop-color="#3aafe7"/><stop offset="1" stop-color="#35abe5"/></linearGradient><path d="M731.3 534.8c-18.2-22.9-68.7-39.5-128.3-39.5-57.4 0-106.5 15.4-126.2 37 0 0-92.5 84.8-122.9 241.2h498.4c-28.3-144.6-109.1-227.2-121-238.7z" fill="url(#SVGID_9_)"/><path class="st6" d="M656 510.3v-79.7H550.1v79.7c-16.5 8.1-27 19.9-27 33 0 24.4 35.8 44.1 79.9 44.1 44.2 0 79.9-19.8 79.9-44.1.1-13.1-10.4-24.9-26.9-33z"/><path d="M603 495.4c-54.1 0-98.6-25.8-101.2-79.8L494 250.3h218l-7.9 165.2c-2.5 54-47 79.9-101.1 79.9z" fill="#f9c6c2"/><linearGradient id="SVGID_10_" gradientUnits="userSpaceOnUse" x1="450.77" y1="256.57" x2="743.91" y2="256.57"><stop offset="0" stop-color="#1a1e3e"/><stop offset=".07" stop-color="#23294c"/><stop offset=".17" stop-color="#2e355d"/><stop offset=".31" stop-color="#353e69"/><stop offset=".5" stop-color="#3a4370"/><stop offset="1" stop-color="#3b4472"/></linearGradient><path d="M497.3 320.9s14.3-6 23.1-18.4c8.3-11.8 19.2-38.9 19.2-38.9s78.2 28.9 124.6 21.8c36.3-5.5 42.7 24.5 43.8 37.9l-2.3 42.1c27-32.2 34.3-72.7 37.4-95.5s.1-83.7-89.3-114.2c-94.5-32.2-145.4 5.2-171.3 27s-21.2 57.1-21.2 57.1c-38 65.4 38.3 130.6 38.3 130.6l-2.3-49.5z" fill="url(#SVGID_10_)"/><linearGradient id="SVGID_11_" gradientUnits="userSpaceOnUse" x1="501.45" y1="485.91" x2="702.95" y2="834.93"><stop offset="0" stop-color="#a6a8fc"/><stop offset="1" stop-color="#6367f7"/></linearGradient><path d="M809.1 773.6H396.9V553.2c0-6.6 5.4-12 12-12h388.2c6.6 0 12 5.4 12 12v220.4z" fill="url(#SVGID_11_)"/><g><circle class="st17" cx="821.3" cy="183.2" r="57"/><circle class="st1" cx="821.3" cy="183.2" r="47.2"/><path d="M852.7 147.9a46.93 46.93 0 0 0-31.3-11.9v49l31.3-37.1z" fill="#6367f7"/><path class="st19" d="M819.4 143.5h3.9v9.7h-3.9zM819.4 213.2h3.9v9.7h-3.9z"/><path transform="rotate(90 856.22 186.1)" class="st19" d="M854.3 181.3h3.9v9.7h-3.9z"/><path transform="rotate(90 786.47 186.1)" class="st19" d="M784.5 181.3h3.9v9.7h-3.9z"/><g><path transform="rotate(41.59 843.34 156.9)" class="st19" d="M841.4 152.1h3.9v9.7h-3.9z"/><path transform="rotate(41.59 797.04 209.06)" class="st19" d="M795.1 204.2h3.9v9.7h-3.9z"/></g><g><path transform="rotate(135.73 845.68 209.11)" class="st19" d="M843.8 204.3h3.9v9.7h-3.9z"/><path transform="rotate(135.73 797 159.18)" class="st19" d="M795.1 154.4h3.9v9.7h-3.9z"/></g><g><circle class="st19" cx="821.3" cy="184.9" r="1.9"/><path class="st19" d="M820.4 162.7h1.9V184h-1.9z"/><path class="st19" d="M821.3 158.8l-2.2 3.9h4.5z"/><g><path transform="rotate(41.59 826.24 178.78)" class="st19" d="M825.3 171.8h1.9v14h-1.9z"/><path class="st19" d="M832.8 171.3l-4.2 1.4 3.3 3z"/></g></g></g><g><path class="st21" d="M1100.2 347.8H974.7c-4 0-7.2-3.2-7.2-7.2v-77.4c0-4 3.2-7.2 7.2-7.2h125.5c4 0 7.2 3.2 7.2 7.2v77.4c0 4-3.2 7.2-7.2 7.2z"/><path class="st22" d="M983.5 279h107.8v4.6H983.5zM990.4 297.3h94v4.6h-94zM1006.5 315.7h64.2v4.6h-64.2z"/><path class="st21" d="M974.4 331.7l-9.2 27.6 25.2-13.8z"/></g><g><path fill="#0a9b5c" d="M1068.4 276.7l7.2-10.1 12.9 9.1 30.7-30.7 8.8 8.8-38.2 38.2z"/></g><g><path class="st21" d="M343.3 138.8h89.3v89.3h-89.3z"/><path class="st17" d="M343.3 138.8h44.6v44.6h-44.6zM388 183.4h44.6V228H388z"/><path class="st24" d="M343.3 183.4h44.6V228h-44.6zM388 138.8h44.6v44.6H388z"/><ellipse class="st24" cx="390" cy="206.3" rx="12.2" ry="7.3"/><ellipse class="st17" cx="409.1" cy="183.4" rx="6.9" ry="10.7"/><ellipse class="st17" cx="367.2" cy="183.4" rx="7.3" ry="10.5"/><ellipse class="st24" cx="387.1" cy="161.1" rx="10.8" ry="6.6"/><g><path class="st1" d="M382.6 195.6c-.8 0-1.6-.3-2.2-.8l-12.1-10.5a3.36 3.36 0 0 1-.3-4.8c1.2-1.4 3.4-1.5 4.8-.3l9.9 8.6 30.6-25.8c1.4-1.2 3.6-1 4.8.4 1.2 1.4 1 3.6-.4 4.8l-32.8 27.7c-.7.5-1.5.7-2.3.7z"/></g></g><g><circle class="st24" cx="171.8" cy="305.7" r="51.7"/><path class="st1" d="M162.1 321.8c-.7 0-1.5-.3-2.1-.8l-11.3-9.9a3.18 3.18 0 0 1-.3-4.5c1.2-1.3 3.2-1.4 4.5-.3l9.2 8.1 28.6-24.2a3.19 3.19 0 1 1 4.1 4.9L164.1 321c-.6.6-1.3.8-2 .8z"/><path class="st25" d="M199.2 360.8h-54.8c-.3 0-.5-.2-.5-.5V349h55.8v11.2c0 .3-.3.6-.5.6zM199.2 375.6h-54.8c-.3 0-.5-.2-.5-.5v-10.2c0-.3.2-.5.5-.5h54.8c.3 0 .5.2.5.5v10.2c0 .2-.3.5-.5.5z"/><path class="st25" d="M177.5 385H166c-.3 0-.5-.2-.5-.5v-15.7c0-.3.2-.5.5-.5h11.5c.3 0 .5.2.5.5v15.7c0 .3-.2.5-.5.5z"/></g></g><circle class="st1" cx="603" cy="657.4" r="35.6"/></svg>