<svg id="Layer_1" xmlns="http://www.w3.org/2000/svg" viewBox="0 0 1440 1024"><style>.st0{fill:#47b9ec}.st2{fill:#fdfffe}.st3{fill:#fabac3}.st4{fill:#fff}.st15{fill:#e0dde3}.st22{fill:#f3f1f3}.st23{fill:#cdcad4}.st24{fill:#bab6c4}.st25{fill:#f9c85a}.st27{fill:#fbbe4d}.st28{fill:#f9d021}.st33{fill:#1d65ef}.st36{fill:#ff5056}.st37{fill:#fdb440}.st47{fill:none}.st49{fill:#46ecf9}.st56{fill:#8af6f9}</style><path class="st0" d="M830.6 874.6l371.8-215c79.7-46.1 79.8-161.2.1-207.4L770.2 201.5c-37.1-21.5-83-21.6-120.1 0L254.9 430.2c-96.6 55.9-96.4 195.5.4 251.1L592 874.9a238.7 238.7 0 0 0 238.6-.3z"/><path d="M825.8 857.6l371.8-215c79.7-46.1 79.8-161.2.1-207.4L765.3 184.5c-37.1-21.5-83-21.6-120.1 0L250.1 413.1c-96.6 55.9-96.4 195.5.4 251.1l336.7 193.6a238.46 238.46 0 0 0 238.6-.2z" fill="#6bd4fa"/><path class="st0" d="M1070 659.8L844.2 431.5 698 363.8l-74.2 8.7-173.9 79.8 25.6 118.3L505 744.4l-2.9 64.5 79 48.9c73.9 42.5 165.4 45.5 239.2 2.8l279.8-161.7-30.1-39.1z"/><path class="st2" d="M800.7 201.2s-41.6 36.2-56.6 44.4l8.8 16.5s40.6-26.8 49-37.5c8.4-10.7 8.2-18.3 8.2-18.3l-3.6-5.2-5.8.1z"/><path class="st3" d="M751.2 254.5c1.9 4.6-.1 9.8-4.5 11.6 0 0-47.3 31.6-48.2 33.8-.9 2.2-11 9.5-12.6 8.3-1.6-1.2 3.8-7.4 2.8-7.7-1-.3-18.5 2.4-19.9 2.3-1.4-.1-2.6-2.9-1.8-4.5s9.2-2.4 9.2-2.4c-1.3-2-.7-4.7-.7-4.7.2-2.3 1.8-4.6 1.8-4.6 1.5-2.5 13.8-2.2 19.3-3.4 5.5-1.2 39.6-31.1 39.6-31.1.9-1.2 2-2.2 3.5-2.8 4.5-1.7 9.6.6 11.5 5.2z"/><linearGradient id="SVGID_1_" gradientUnits="userSpaceOnUse" x1="2152.84" y1="467.94" x2="2166.39" y2="467.94" gradientTransform="scale(-1 1) rotate(-16.25 -405.81 10633.01)"><stop offset="0" stop-color="#3b4472"/><stop offset=".88" stop-color="#1e2345"/><stop offset="1" stop-color="#1a1e3e"/><stop offset="1" stop-color="#23294d"/><stop offset="1" stop-color="#2e355e"/><stop offset="1" stop-color="#363e69"/><stop offset="1" stop-color="#3a4370"/><stop offset="1" stop-color="#3b4472"/></linearGradient><path d="M793.6 159.3c.4 0 .8-.3.9-.7.2-.5-.1-1.1-.6-1.3l-10.9-4.2c-.5-.2-1.1.1-1.2.6-.2.5.1 1.1.6 1.3l10.9 4.2s.1.1.3.1z" fill="url(#SVGID_1_)"/><linearGradient id="SVGID_2_" gradientUnits="userSpaceOnUse" x1="1985.55" y1="308.08" x2="2149.26" y2="308.08" gradientTransform="matrix(-1 0 0 1 2898.99 0)"><stop offset="0" stop-color="#1a1e3e"/><stop offset=".07" stop-color="#23294d"/><stop offset=".17" stop-color="#2e355e"/><stop offset=".3" stop-color="#363e69"/><stop offset=".49" stop-color="#3a4370"/><stop offset="1" stop-color="#3b4472"/></linearGradient><path d="M871.6 239.1c-13.9-3.2-57.9-2-57.9-2l-19.1 30.6c-1.5 2.4-30.3 12-33.5 13.9-3.2 1.9-8.1 5.3-10.1 7.8s-1.1 13.3-1.1 13.3l8.5 5.1s-1.3-12.3.4-14.6c1.7-2.4 34.3-16.8 38.4-19 4.2-2.2 15-28 20.6-30.6 5.6-2.6 57.7 1.9 57.7 1.9s37.4 6.2 31.4 38.4c-6 32.2-38 54-38 54s-16 9.6-13.4 26.2l26 15.2 5.6-41.4s15.6-16.8 16.3-18.5c.7-1.7 9.9-21.6 9.9-21.6v-32.1c-7-12.2-27.8-23.4-41.7-26.6z" fill="url(#SVGID_2_)"/><linearGradient id="SVGID_3_" gradientUnits="userSpaceOnUse" x1="1985.55" y1="303.22" x2="2144.86" y2="303.22" gradientTransform="matrix(-1 0 0 1 2898.99 0)"><stop offset="0" stop-color="#1a1e3e"/><stop offset=".26" stop-color="#1e2244"/><stop offset=".58" stop-color="#282e53"/><stop offset=".95" stop-color="#38416d"/><stop offset="1" stop-color="#3b4472"/></linearGradient><path d="M758.4 307.8l102.9 59.7 47.9-42.6 4.2-34.7-4.6-24.4-16.8-16.3-21.7-4.4s-12.3-7.1-20.7-6-16.6.8-20.3 1.9c-3.7 1.1-11.6 2.6-11.6 2.6L802 258.5l-12.2 14.3s-13 6.2-14.7 6.9-4.4 4.8-9.2 3.3c-4.8-1.5-5.8 1-7.6 4-1.7 2.9-4.3 8.8-4.3 8.8l4.4 12z" fill="url(#SVGID_3_)"/><path class="st2" d="M801 219.3l-18 98.9 26.9-3.7 9.6-15.2 13.7-32.5 2.2-23s.6-14 0-15.6-34.4-8.9-34.4-8.9z"/><linearGradient id="SVGID_4_" gradientUnits="userSpaceOnUse" x1="2016.66" y1="327.18" x2="2129.72" y2="327.18" gradientTransform="matrix(-1 0 0 1 2898.99 0)"><stop offset="0" stop-color="#3b4472"/><stop offset=".88" stop-color="#1e2345"/><stop offset="1" stop-color="#1a1e3e"/><stop offset="1" stop-color="#23294d"/><stop offset="1" stop-color="#2e355e"/><stop offset="1" stop-color="#363e69"/><stop offset="1" stop-color="#3a4370"/><stop offset="1" stop-color="#3b4472"/></linearGradient><path d="M880.7 310.2s.8 10.3 1.6 16.3-26.8 37.7-26.8 37.7l-25.9-15.1 3.4-3.7-3.3-3.2-4.7 4.2-55.7-31.3 36.3-15.7 3.9-9.1 71.2 19.9z" fill="url(#SVGID_4_)"/><path class="st2" d="M797.9 203.1s.9 22.7 18.9 50.7c0 0-7.2 17.3-7.4 36.5 0 0 15.2 18.7 38.3 21.4 0 0 3-.8 6-.2 1.5.3 2.9.9 4 2.1 3.2 3.6 8 10.5 4.4 16.3 0 0 22.9-21.2 23.8-29.2 1-8 9.5-52.8-2.9-70.3s-53.8-42.3-59.4-43.3-25.7 16-25.7 16z"/><path class="st2" d="M836.4 308.9l-6.8 40.2 52.8 30.7 3.6-79.1-32.9-7z"/><linearGradient id="SVGID_5_" gradientUnits="userSpaceOnUse" x1="2048.21" y1="160.65" x2="2069.6" y2="160.65" gradientTransform="matrix(-1 0 0 1 2898.99 0)"><stop offset="0" stop-color="#3b4472"/><stop offset=".88" stop-color="#1e2345"/><stop offset="1" stop-color="#1a1e3e"/><stop offset="1" stop-color="#23294d"/><stop offset="1" stop-color="#2e355e"/><stop offset="1" stop-color="#363e69"/><stop offset="1" stop-color="#3a4370"/><stop offset="1" stop-color="#3b4472"/></linearGradient><path d="M850.8 146.7s-1 12.7-5 17.2c-4 4.6-13.9 10.6-13.9 10.6l-2.5-20.1 21.4-7.7z" fill="url(#SVGID_5_)"/><path d="M809.5 290.2c.1-19.2 7.4-36.5 7.4-36.5-1.4-2.7-2.7-5-3.7-7-5.5-10.9-7-23.4-3.8-35.2 1.5-5.6 3.3-10.5 6.1-13.1 6-5.4 9.8-5.7 13-6.8 6.4 3.2 16.3 9.1 26.8 16.5 5.4 7.5-16.3 67-18.9 100.7-16.6-5.9-26.9-18.6-26.9-18.6z" fill="#c6d8ef"/><path d="M834.3 183.1s2.9 11.4 5.8 15.1c3 3.6 8.2 6 5.4 12.5-2.8 6.6-18.4 8-25.8 0s1.9-11.8 1.9-11.8l-2.6-5.1 15.3-10.7z" fill="#efa8b4"/><path d="M791.3 141.7s-20.6 48.9-1.5 59.1c19.2 10.2 45.2-16.2 46.9-21.7 0 0 3.7 4.2 9.4-.8 5.7-5.1 5.5-10.2 2.6-13-2.9-2.8-7.8-1.7-14.5 7.1 0 0-3.3-7.6-3-15.9.2-8.3 2-17.4-4.1-20s-23.3-9-35.8 5.2z" fill="#fbbac2"/><linearGradient id="SVGID_6_" gradientUnits="userSpaceOnUse" x1="2045.87" y1="136.88" x2="2114.1" y2="136.88" gradientTransform="matrix(-1 0 0 1 2898.99 0)"><stop offset="0" stop-color="#3b4472"/><stop offset=".88" stop-color="#1e2345"/><stop offset="1" stop-color="#1a1e3e"/><stop offset="1" stop-color="#23294d"/><stop offset="1" stop-color="#2e355e"/><stop offset="1" stop-color="#363e69"/><stop offset="1" stop-color="#3a4370"/><stop offset="1" stop-color="#3b4472"/></linearGradient><path d="M820.9 144.9s-22.1 5.6-31.7-5.7c-9.6-11.3 0-15.7 0-15.7s-.7 3.1 3.6 3.5c4.4.4 19.5-9.4 31.3-9.7 11.8-.2 21.8 6.3 20.8 15.5 0 0 8.2 1.7 8.2 8.3s-6.5 15.2-21.9 15.4c-15.3.2-3.2-15.7-3.2-15.7s-4.7 3.6-7.1 4.1z" fill="url(#SVGID_6_)"/><path d="M791.2 169.4l-1.5 7.3c-.3 1.5.4 3.1 1.8 3.9 2.1 1.2 4.7 0 5.2-2.3l1.7-7.2c.4-1.6-.4-3.3-1.8-4l-.2-.1c-2.1-1.1-4.7.1-5.2 2.4z" fill="#f55787"/><path class="st15" d="M869.8 271.3c1.6-6.3-.9-19.9-.9-19.9-1.7 39.9-28.3 59.3-33.5 63.7-.3 2.1-2.3 10.8-2 10.9 0 0 5.4 1.8 8.3 2.4 13-11.3 26.5-50.9 28.1-57.1z"/><path class="st3" d="M858.6 318.7c-3-4-8.5-4.8-12.3-2 0 0-51.1 24.9-53.5 24.6-2.3-.3-13.7 4.7-13.5 6.7.2 1.9 8.3.5 8 1.5-.2 1-11.4 14.7-12 16-.6 1.3 1.2 3.7 3 3.8 1.8.1 6.7-6.8 6.7-6.8 1.1 2.2 3.8 3 3.8 3 2.1 1 4.9.8 4.9.8 2.9 0 8.9-10.8 12.6-15 3.8-4.2 46.8-18.5 46.8-18.5 1.5-.2 2.9-.7 4.1-1.6 3.8-3 4.4-8.5 1.4-12.5z"/><path d="M913.4 265.8c-.9 46.3-36.7 73-45.1 79.2-4.5 3.4-6.5 9.5-7.3 14.4-.4 2.7-.4 5.5.3 8.1l21 12.3c6.6-1.7 22.8-14.2 31.1-41.4 8.6-28.5 0-72.6 0-72.6z" fill="#475098"/><path class="st2" d="M840 197.8s1.6 11.7-20.3 15.9l7.8 4.4 3.3 7.4s15.5-5.5 15.4-15c0-9.7-6.2-12.7-6.2-12.7z"/><path class="st2" d="M824.3 215.4s-4.5-10.8-2.8-16.6l-1.1-2.2s-5.8 5-6.4 9.4c-.6 4.3 1.6 11.7 1.6 11.7l3.5-3.5 5.2 1.2z"/><linearGradient id="SVGID_7_" gradientUnits="userSpaceOnUse" x1="2024.6" y1="49.38" x2="2077.76" y2="49.38" gradientTransform="scale(-1 1) rotate(6.05 -409.86 -26944.43)"><stop offset="0" stop-color="#3b4472"/><stop offset=".88" stop-color="#1e2345"/><stop offset="1" stop-color="#1a1e3e"/><stop offset="1" stop-color="#23294d"/><stop offset="1" stop-color="#2e355e"/><stop offset="1" stop-color="#363e69"/><stop offset="1" stop-color="#3a4370"/><stop offset="1" stop-color="#3b4472"/></linearGradient><path d="M782 161.7c1.2 2.2 3.1 3.8 5.4 4.3.8.2 1.6.2 2.4.1 3.6-.4 6.9-3.4 8-7.6.5-.1 1.4 0 2 .9-.1.4-.3.7-.4 1.2-1.2 5.4 1.6 10.7 6.3 11.7.8.2 1.6.2 2.4.1 3-.3 5.8-2.5 7.3-5.6l19.5-.6-.1-1.6-18.9.6c.1-.3.2-.5.3-.8.6-2.6.2-5.3-.9-7.4a8.26 8.26 0 0 0-5.4-4.3c-3.8-.8-7.6 1.4-9.6 5.2-.8-.6-1.6-.9-2.4-.9.6-5-2.1-9.6-6.5-10.6-4.7-1-9.5 2.6-10.6 8-.3 2.5.1 5.1 1.2 7.3zm19.1-.8c.8-3.8 3.7-6.5 6.8-6.8.6-.1 1.3 0 1.9.1 1.8.4 3.3 1.6 4.3 3.4 1 1.9 1.3 4.1.8 6.3-1 4.5-4.9 7.6-8.7 6.7-3.8-.8-6.1-5.1-5.1-9.7zm-18.4-6.3c.8-3.8 3.7-6.5 6.8-6.8.6-.1 1.3 0 1.9.1 3.8.8 6.1 5.2 5.1 9.7-1 4.5-4.9 7.5-8.7 6.7-1.8-.4-3.3-1.6-4.3-3.4-1-1.8-1.3-4.1-.8-6.3z" fill="url(#SVGID_7_)"/><linearGradient id="SVGID_8_" gradientUnits="userSpaceOnUse" x1="2119.54" y1="152.04" x2="2119.54" y2="152.04" gradientTransform="matrix(-1 0 0 1 2898.99 0)"><stop offset="0" stop-color="#3b4472"/><stop offset=".88" stop-color="#1e2345"/><stop offset="1" stop-color="#1a1e3e"/><stop offset="1" stop-color="#23294d"/><stop offset="1" stop-color="#2e355e"/><stop offset="1" stop-color="#363e69"/><stop offset="1" stop-color="#3a4370"/><stop offset="1" stop-color="#3b4472"/></linearGradient><path class="st2" d="M744.1 245.6l-41.3 28.5 13.5 17.3 48.5-37.4zM853.8 311.5s-26.2 13.2-42.4 17.7l10.1 17.7s33.1-10 39-16.1c5.9-6.2 8.5-13.3 8.5-13.3l-4.8-5.1-10.4-.9z"/><linearGradient id="SVGID_9_" gradientUnits="userSpaceOnUse" x1="767.91" y1="309.28" x2="718.26" y2="395.29"><stop offset="0" stop-color="#35abe5"/><stop offset=".34" stop-color="#2e97e8"/><stop offset="1" stop-color="#1d65ef"/></linearGradient><path fill="url(#SVGID_9_)" d="M903.7 387.7l-236.3-133-83.5 59.6 213 126.4z"/><linearGradient id="SVGID_10_" gradientUnits="userSpaceOnUse" x1="758.95" y1="323.57" x2="727.77" y2="377.58"><stop offset="0" stop-color="#35abe5"/><stop offset=".34" stop-color="#2e97e8"/><stop offset="1" stop-color="#1d65ef"/></linearGradient><path fill="url(#SVGID_10_)" d="M844.2 372.8l-148.4-83.5-52.4 37.5 133.7 79.3z"/><linearGradient id="SVGID_11_" gradientUnits="userSpaceOnUse" x1="758.16" y1="330.01" x2="732.03" y2="375.27"><stop offset="0" stop-color="#35abe5"/><stop offset=".34" stop-color="#2e97e8"/><stop offset="1" stop-color="#1d65ef"/></linearGradient><path fill="url(#SVGID_11_)" d="M831 372.1l-126.9-72.7-43.2 31 115 70.2z"/><g><path class="st22" d="M449.8 387.3l56.2 32.4 56.4-32.4-56.5-32.6z"/><path class="st23" d="M506 419.7v65l56.2-32.6.2-64.8z"/><path class="st15" d="M449.8 387.3v64.9l56.2 32.5v-65zM471 375.1l56.7 32.2 15.1-8.6-56.6-32.3z"/><path class="st24" d="M527.7 407.3l.7 13.6 14.6-8.8v-14z"/><path class="st25" d="M475.3 334.6l56.2 32.5 56.6-32.5-56.6-32.5z"/><path fill="#e5ba05" d="M531.5 367.1v65.2l56.4-32.6.2-65.1z"/><path class="st27" d="M475.3 334.6v65.2l56.2 32.5v-65.2zM496.5 322.5l56.9 32.2 15-8.6-56.7-32.4z"/><path class="st28" d="M553.4 354.7l.6 13.6 14.7-8.8v-14z"/><linearGradient id="SVGID_12_" gradientUnits="userSpaceOnUse" x1="986.84" y1="384.09" x2="823.08" y2="667.73"><stop offset="0" stop-color="#35abe5"/><stop offset=".34" stop-color="#2e97e8"/><stop offset="1" stop-color="#1d65ef"/></linearGradient><path fill="url(#SVGID_12_)" d="M980.4 380.4l-1.5 204-150.1 86.7-.4-199.1z"/><linearGradient id="SVGID_13_" gradientUnits="userSpaceOnUse" x1="712.09" y1="401.86" x2="624.72" y2="553.2"><stop offset="0" stop-color="#35abe5"/><stop offset=".34" stop-color="#2e97e8"/><stop offset="1" stop-color="#1d65ef"/></linearGradient><path fill="url(#SVGID_13_)" d="M508 284v201l320.8 186.1-.4-199.1z"/><linearGradient id="SVGID_14_" gradientUnits="userSpaceOnUse" x1="786.28" y1="259.53" x2="702.57" y2="404.52"><stop offset="0" stop-color="#35abe5"/><stop offset=".34" stop-color="#2e97e8"/><stop offset="1" stop-color="#1d65ef"/></linearGradient><path d="M971.8 366.6c11 6.4 11 22.3 0 28.6l-124.9 72.1c-11 6.3-24.5 6.3-35.4 0L514.2 295.8c-8.8-5.1-8.8-17.8 0-22.9l107.4-62a80.52 80.52 0 0 1 80.3 0l1.3.8-84.1 48.2 245.8 141.9 86.5-46.8 20.4 11.6z" fill="url(#SVGID_14_)"/><path class="st23" d="M703.6 211.3l-1.2 96-82.9-47.8z"/><linearGradient id="SVGID_15_" gradientUnits="userSpaceOnUse" x1="656.34" y1="489.16" x2="643.2" y2="511.91"><stop offset="0" stop-color="#35abe5"/><stop offset=".34" stop-color="#2e97e8"/><stop offset="1" stop-color="#1d65ef"/></linearGradient><path fill="url(#SVGID_15_)" d="M556.8 431.7l.3 30.5 186.4 106v-28.4z"/><path class="st33" d="M557.1 462.2l25.3-15.7 161.1 93.3v28.4z"/><linearGradient id="SVGID_16_" gradientUnits="userSpaceOnUse" x1="656.34" y1="529.5" x2="643.2" y2="552.25"><stop offset="0" stop-color="#35abe5"/><stop offset=".34" stop-color="#2e97e8"/><stop offset="1" stop-color="#1d65ef"/></linearGradient><path fill="url(#SVGID_16_)" d="M556.8 472l.3 30.5 186.4 106v-28.4z"/><path class="st33" d="M557.1 502.5l25.3-15.6 161.1 93.2v28.4z"/><g><path fill="#fe686f" d="M539.3 268.8l53.7 30.4 39.4-21.6-57.7-29.9z"/><path class="st36" d="M593 299.2v10.6l-53.7-30.5v-10.5zM593 309.8l40.7-22.6-5.8-2.9-34.9 20.6z"/><path class="st4" d="M593 308l36.8-20.7V279L593 299.2z"/></g><g><path class="st25" d="M537 259.7l33.2 18.8 24.3-13.3-35.6-18.5z"/><path class="st37" d="M570.2 278.5v6.6L537 266.2v-6.5zM570.2 285.1l25.1-14-3.5-1.8-21.6 12.7z"/><path fill="#f4f9fd" d="M570.2 284l22.7-12.9V266l-22.7 12.5z"/></g><g><linearGradient id="SVGID_17_" gradientUnits="userSpaceOnUse" x1="734.08" y1="228.81" x2="677.85" y2="326.22"><stop offset="0" stop-color="#35abe5"/><stop offset=".34" stop-color="#2e97e8"/><stop offset="1" stop-color="#1d65ef"/></linearGradient><path fill="url(#SVGID_17_)" d="M803.4 393.6L788 259.9l-175-101-4.5 2.5 5.1 3 12.6 129.3 172.1 97 .6 5.4 4.5-2.5z"/><linearGradient id="SVGID_18_" gradientUnits="userSpaceOnUse" x1="730.69" y1="231.99" x2="675.62" y2="327.39"><stop offset="0" stop-color="#35abe5"/><stop offset=".34" stop-color="#2e97e8"/><stop offset="1" stop-color="#1d65ef"/></linearGradient><path fill="url(#SVGID_18_)" d="M608.5 161.4l174.9 101 15.5 133.7-177.3-99.9z"/><linearGradient id="SVGID_19_" gradientUnits="userSpaceOnUse" x1="702.01" y1="286.4" x2="656.1" y2="365.92"><stop offset="0" stop-color="#35abe5"/><stop offset=".34" stop-color="#2e97e8"/><stop offset="1" stop-color="#1d65ef"/></linearGradient><path fill="url(#SVGID_19_)" d="M675.6 276.3l24.1 8.8-18.7 93.7-40.5-21.9z"/><linearGradient id="SVGID_20_" gradientUnits="userSpaceOnUse" x1="711.65" y1="291.96" x2="687.71" y2="333.42"><stop offset="0" stop-color="#35abe5"/><stop offset=".34" stop-color="#2e97e8"/><stop offset="1" stop-color="#1d65ef"/></linearGradient><path fill="url(#SVGID_20_)" d="M699.7 340.2v-55.1l-9.9 49.5z"/><linearGradient id="SVGID_21_" gradientUnits="userSpaceOnUse" x1="696.88" y1="355.13" x2="682.66" y2="379.76"><stop offset="0" stop-color="#35abe5"/><stop offset=".34" stop-color="#2e97e8"/><stop offset="1" stop-color="#1d65ef"/></linearGradient><path d="M681 378.8l23.1-15c1.8-1.2 1.6-3.9-.4-4.7l-17.2-7.4-5.5 27.1z" fill="url(#SVGID_21_)"/><linearGradient id="SVGID_22_" gradientUnits="userSpaceOnUse" x1="690.56" y1="353.31" x2="677.13" y2="376.56"><stop offset="0" stop-color="#35abe5"/><stop offset=".34" stop-color="#2e97e8"/><stop offset="1" stop-color="#1d65ef"/></linearGradient><path fill="url(#SVGID_22_)" d="M681 378.8l10.2-25.1-4.8-2.1z"/></g><linearGradient id="SVGID_23_" gradientUnits="userSpaceOnUse" x1="782.94" y1="596.08" x2="769.08" y2="620.1"><stop offset="0" stop-color="#35abe5"/><stop offset=".34" stop-color="#2e97e8"/><stop offset="1" stop-color="#1d65ef"/></linearGradient><circle cx="776" cy="608.1" r="13.9" fill="url(#SVGID_23_)"/><linearGradient id="SVGID_24_" gradientUnits="userSpaceOnUse" x1="817.02" y1="613.74" x2="803.15" y2="637.76"><stop offset="0" stop-color="#35abe5"/><stop offset=".34" stop-color="#2e97e8"/><stop offset="1" stop-color="#1d65ef"/></linearGradient><circle cx="810.1" cy="625.8" r="13.9" fill="url(#SVGID_24_)"/><path class="st47" d="M681.8 233h19.3v31h-19.3z"/><path class="st47" d="M681.8 225h22.5v39.1h-22.5z"/><g><path d="M605.1 699.2c-32.6 0-64.5-16.8-66-17.6a7.6 7.6 0 1 1 7.2-13.4c.4.2 37.8 19.9 69.3 15.1 13.4-2.1 18.6-6.9 24.6-12.6 8-7.5 17.1-15.9 42.1-15.5 17.3.3 31 4.8 42 8.4 17.5 5.7 25.7 7.9 36.6-1.4 8.1-6.8 12.1-16.6 11.8-29-.3-10-3.3-18-3.3-18-1.5-3.9.4-8.3 4.4-9.8 3.9-1.5 8.3.4 9.8 4.3.6 1.6 15.3 40.4-12.8 64.2-17.9 15.1-34 9.8-51.2 4.2-10.6-3.5-22.6-7.4-37.6-7.6-18.9-.4-24.5 4.9-31.5 11.4-6.5 6.1-14.7 13.7-32.7 16.5-4.2.6-8.5.8-12.7.8z" fill="#87f1f4"/></g><g><path class="st49" d="M565.8 680.6c-2.1 0-4-.1-5.9-.4-4.2-.5-7.1-4.4-6.6-8.5.5-4.2 4.4-7.1 8.5-6.6 16 2.1 46.5-9.3 71-18.4 11.4-4.2 22.1-8.2 31.2-10.9 22.7-6.8 45.3 2.2 65.1 10.1 12 4.8 23.4 9.3 32.8 9.6h.7c21.9 0 38.5-29 38.7-29.3 2.1-3.6 6.7-4.9 10.3-2.9 3.7 2.1 5 6.7 2.9 10.3-.9 1.5-21.6 38-53.1 37-12.1-.3-24.7-5.3-38-10.6-18.4-7.3-37.5-14.9-55.2-9.6-8.6 2.6-19.1 6.5-30.2 10.6-24.7 9.3-52.5 19.6-72.2 19.6z"/></g><g><linearGradient id="SVGID_25_" gradientUnits="userSpaceOnUse" x1="491.84" y1="637.21" x2="460.07" y2="692.23"><stop offset="0" stop-color="#35abe5"/><stop offset=".34" stop-color="#2e97e8"/><stop offset="1" stop-color="#1d65ef"/></linearGradient><path d="M472.2 698.4c5.2.7 10.1-3.3 11-8.9l7.4-44.8c1-6-2.8-11.5-8.3-12.2l-3.3-.4c-5.5-.7-10.6 3.7-11.1 9.7l-4.1 45.2c-.5 5.7 3.2 10.8 8.4 11.4z" fill="url(#SVGID_25_)"/><linearGradient id="SVGID_26_" gradientUnits="userSpaceOnUse" x1="493.7" y1="638.28" x2="461.95" y2="693.26"><stop offset="0" stop-color="#35abe5"/><stop offset=".34" stop-color="#2e97e8"/><stop offset="1" stop-color="#1d65ef"/></linearGradient><path d="M469.2 696l5.5-56.4c.3-2.9 1.2-5.4 2.6-7.5h1.7l3.3.4c5.5.7 9.3 6.3 8.3 12.2l-7.4 44.8c-.9 5.6-5.8 9.6-11 8.9-1.1-.1-2.1-.5-3.1-1 .1-.5.1-.9.1-1.4z" fill="url(#SVGID_26_)"/><linearGradient id="SVGID_27_" gradientUnits="userSpaceOnUse" x1="549.16" y1="631.99" x2="490.89" y2="732.92"><stop offset="0" stop-color="#35abe5"/><stop offset=".34" stop-color="#2e97e8"/><stop offset="1" stop-color="#1d65ef"/></linearGradient><path d="M584.4 652.3l.8 10.6c4.4 43.1-34.5 99-74.1 81.5-18.5-8.2-36.2-49.6-38.4-69.8l-3.2-28.2 114.9 5.9z" fill="url(#SVGID_27_)"/><linearGradient id="SVGID_28_" gradientUnits="userSpaceOnUse" x1="531.67" y1="648.61" x2="484.97" y2="729.5"><stop offset="0" stop-color="#35abe5"/><stop offset=".34" stop-color="#2e97e8"/><stop offset="1" stop-color="#1d65ef"/></linearGradient><path d="M472.7 674.6c2.1 20.1 19.8 61.6 38.4 69.8 1.8.8 3.6 1.5 5.4 2.1a23.9 23.9 0 0 0 28.9-11.9c9.1-18.1 12.6-46.6 10.8-64.1l-.6-8.1-86.2-16 3.3 28.2z" fill="url(#SVGID_28_)"/><linearGradient id="SVGID_29_" gradientUnits="userSpaceOnUse" x1="543.18" y1="612.49" x2="506.61" y2="665.69" gradientTransform="rotate(-4.51 631.62 619.54) scale(.99999)"><stop offset="0" stop-color="#35abe5"/><stop offset=".34" stop-color="#2e97e8"/><stop offset="1" stop-color="#1d65ef"/></linearGradient><path d="M584.3 653.7c-1.5 13.4-28.4 21.4-60.2 17.9s-56.4-17.2-54.9-30.6c1.5-13.4 28.4-21.4 60.2-17.9 31.8 3.6 56.4 17.2 54.9 30.6z" fill="url(#SVGID_29_)"/><linearGradient id="SVGID_30_" gradientUnits="userSpaceOnUse" x1="531.26" y1="634.04" x2="518.12" y2="656.8"><stop offset="0" stop-color="#35abe5"/><stop offset=".34" stop-color="#2e97e8"/><stop offset="1" stop-color="#1d65ef"/></linearGradient><path d="M548.1 648c-.6 5.4-11.6 8.7-24.5 7.3-12.9-1.4-23-7-22.4-12.4.6-5.4 11.6-8.7 24.5-7.3 13 1.4 23 6.9 22.4 12.4z" fill="url(#SVGID_30_)"/><path class="st49" d="M525 642.2c-10.2-1.1-19.1.7-22.8 4.1 2.8 4.2 11.2 7.9 21.3 9s19.1-.7 22.8-4.1c-2.7-4.2-11.1-7.9-21.3-9z"/><g><ellipse transform="rotate(-85.64 479.62 594.42)" class="st56" cx="479.6" cy="594.4" rx="23.9" ry="14.9"/><linearGradient id="SVGID_31_" gradientUnits="userSpaceOnUse" x1="558.2" y1="560.3" x2="506.46" y2="635.56" gradientTransform="rotate(-4.51 631.62 619.54) scale(.99999)"><stop offset="0" stop-color="#35abe5"/><stop offset=".21" stop-color="#2d95e8"/><stop offset=".51" stop-color="#247bec"/><stop offset=".79" stop-color="#1f6bee"/><stop offset="1" stop-color="#1d65ef"/></linearGradient><path d="M591.8 599.3l2.3 18.7c2.7 22-26.6 39.4-52.9 31.5l-50-15.1c-12.3-3.7-20.6-12.3-21.8-22.6l-2.1-17.6c-2.5-21.6 26-39 52.1-31.6l49.8 14c12.6 3.5 21.3 12.3 22.6 22.7z" fill="url(#SVGID_31_)"/><path transform="rotate(-2.87 534.78 595.55) scale(.99995)" class="st47" d="M474.8 547.5h120v96.1h-120z"/><ellipse transform="matrix(.02073 -.9998 .9998 .02073 -41.6 1183.86)" class="st56" cx="583.5" cy="613.2" rx="23.9" ry="13.9"/><ellipse transform="matrix(.02073 -.9998 .9998 .02073 -41.6 1183.86)" class="st56" cx="583.5" cy="613.2" rx="23.9" ry="13.9"/><path class="st49" d="M588 590.3c-5.2 3.4-9.1 11.9-9.3 22.1-.2 10.8 3.8 20 9.4 23.1 5.2-3.4 9.1-11.9 9.3-22.1.2-10.8-3.7-20-9.4-23.1zM487.1 618l-5.1.3c-.7 0-1.3-.5-1.3-1.2l-.9-17.5c0-.7.5-1.3 1.2-1.3l5.1-.3c.7 0 1.3.5 1.3 1.2l.9 17.5c.1.7-.5 1.3-1.2 1.3zM545.9 632.6l-5.1.3c-.7 0-1.3-.5-1.3-1.2l-.9-17.5c0-.7.5-1.3 1.2-1.3l5.1-.3c.7 0 1.3.5 1.3 1.2l.9 17.5c0 .7-.5 1.3-1.2 1.3zM517.6 632.7c-2.2.3-4.4.3-6.6-.1a19.7 19.7 0 0 1-13.1-8.3c-.5-.8-.3-1.9.5-2.4s1.9-.3 2.4.5c2.4 3.6 6.4 6.1 10.8 6.9 4.8.8 9.7-.4 13.8-3.4.8-.6 1.8-.4 2.4.4.6.8.4 1.8-.4 2.4-3 2.1-6.4 3.5-9.8 4z"/><ellipse transform="rotate(-9.04 580.13 619.04)" class="st56" cx="580.2" cy="619.1" rx="4.7" ry="8.3"/><ellipse transform="rotate(-2.87 541.55 619.2) scale(.99995)" class="st56" cx="541.6" cy="619.2" rx="1.8" ry="3.3"/><ellipse transform="rotate(-2.87 482.93 604.84) scale(.99995)" class="st56" cx="482.9" cy="604.9" rx="1.8" ry="3.3"/></g><path class="st4" d="M507.1 679.6c-.2 1.6-.2 2.7-.2 5.8v15c0 2.9-.6 5.2-1.9 6.9-1.4 1.9-3.6 2.9-6.3 2.9-3 0-5.2-1.1-6.8-3.3-.8-1.1-2.7-4.3-2.9-7.3l6.4.7c.6 2.8 1.4 3.8 3.2 3.8 1.8 0 2.7-1.2 2.7-3.7v-14.9c0-3.1-.9-5.6-1-7.2l6.8 1.3z"/><g><linearGradient id="SVGID_32_" gradientUnits="userSpaceOnUse" x1="600.39" y1="664.23" x2="572.24" y2="712.99"><stop offset="0" stop-color="#35abe5"/><stop offset=".34" stop-color="#2e97e8"/><stop offset="1" stop-color="#1d65ef"/></linearGradient><path d="M592.5 722.2c-5.2.9-10.2-2.7-11.5-8.3l-9.7-44.4c-1.3-5.9 2.2-11.6 7.7-12.6l3.3-.6c5.5-1 10.8 3.2 11.6 9.1l6.4 44.9c.9 5.7-2.6 11-7.8 11.9z" fill="url(#SVGID_32_)"/><linearGradient id="SVGID_33_" gradientUnits="userSpaceOnUse" x1="599.24" y1="664.96" x2="571.69" y2="712.67"><stop offset="0" stop-color="#35abe5"/><stop offset=".34" stop-color="#2e97e8"/><stop offset="1" stop-color="#1d65ef"/></linearGradient><path d="M595.4 719.5l-8.4-56c-.4-2.8-1.5-5.4-2.9-7.4-.6 0-1.2 0-1.7.1l-3.3.6c-5.5 1-9 6.7-7.7 12.6l9.7 44.4c1.2 5.6 6.3 9.3 11.5 8.3 1.1-.2 2.1-.6 3-1.2-.1-.4-.1-.9-.2-1.4z" fill="url(#SVGID_33_)"/><linearGradient id="SVGID_34_" gradientUnits="userSpaceOnUse" x1="586.87" y1="661.77" x2="582.39" y2="669.53"><stop offset="0" stop-color="#35abe5"/><stop offset=".34" stop-color="#2e97e8"/><stop offset="1" stop-color="#1d65ef"/></linearGradient><path d="M589.1 666.1c-.2 2.4-2.5 4.2-4.9 4s-4.3-2.4-4.1-4.8c.2-2.4 2.5-4.2 4.9-4 2.6.1 4.4 2.3 4.1 4.8z" fill="url(#SVGID_34_)"/><linearGradient id="SVGID_35_" gradientUnits="userSpaceOnUse" x1="586.1" y1="663.1" x2="583.15" y2="668.21"><stop offset="0" stop-color="#35abe5"/><stop offset=".34" stop-color="#2e97e8"/><stop offset="1" stop-color="#1d65ef"/></linearGradient><path d="M587.6 665.9a3.1 3.1 0 0 1-3.3 2.7c-1.6-.1-2.8-1.6-2.7-3.2s1.6-2.8 3.3-2.7 2.9 1.6 2.7 3.2z" fill="url(#SVGID_35_)"/><path class="st49" d="M583.7 663h-.4c-.9.4-1.6 1.3-1.7 2.3-.2 1.6 1 3 2.7 3.2h.4c.9-.4 1.6-1.3 1.7-2.3.2-1.6-1-3-2.7-3.2z"/></g></g><g><path class="st22" d="M871.9 578.6l56.2 32.4 56.4-32.4-56.5-32.5z"/><path class="st23" d="M928.1 611v65l56.2-32.6.2-64.8z"/><path class="st15" d="M871.9 578.6v64.9l56.2 32.5v-65zM893.1 566.4l56.7 32.2 15.1-8.6-56.6-32.3z"/><path class="st24" d="M949.8 598.6l.7 13.6 14.6-8.8v-14z"/></g><g><path class="st25" d="M957.4 594.7l56.2 32.5 56.6-32.5-56.6-32.5z"/><path class="st37" d="M1013.6 627.2v65.2l56.4-32.6.2-65.1z"/><path class="st28" d="M957.4 594.7v65.2l56.2 32.5v-65.2z"/><path class="st27" d="M978.6 582.6l56.9 32.2 15-8.6-56.7-32.4z"/><path class="st27" d="M1035.5 614.8l.6 13.6 14.7-8.8v-14z"/></g><g><path class="st22" d="M901.2 626.8l56.1 32.4 56.5-32.4-56.5-32.5z"/><path class="st23" d="M957.3 659.2v65.1l56.3-32.6.2-64.9z"/><path class="st15" d="M901.2 626.8v65l56.1 32.5v-65.1zM922.4 614.7l56.7 32.2 15-8.6-56.5-32.4z"/><path class="st24" d="M979.1 646.9l.7 13.5 14.6-8.7v-14z"/></g><g><path class="st25" d="M898.2 516.7l56.2 32.5 56.6-32.5-56.6-32.6z"/><path class="st37" d="M954.4 549.2v65.2l56.4-32.7.2-65z"/><path class="st27" d="M898.2 516.7v65.1l56.2 32.6v-65.2zM919.4 504.5l56.9 32.3 15-8.7-56.7-32.4z"/><path class="st37" d="M976.3 536.8l.6 13.6 14.7-8.8v-14z"/></g><ellipse transform="rotate(-33.26 844.14 425.46)" class="st37" cx="844.2" cy="425.5" rx="19.8" ry="11"/><path class="st25" d="M838.2 416.3c-6.4 4.2-10.6 9.8-11.4 14.5.2.8.5 1.6.9 2.3 3.3 5.1 13.4 4.4 22.6-1.6 6.4-4.2 10.6-9.8 11.4-14.5-.2-.8-.5-1.6-.9-2.3-3.4-5.1-13.5-4.4-22.6 1.6z"/><path class="st37" d="M829.5 433.5s4.2-8.4 10.3-12.1c0 0-7.6 8.1-9.3 12.9l-1-.8z"/></g><path class="st27" d="M920.7 398c-4 0-7.2 3.2-7.2 7.2s3.2 7.2 7.2 7.2 7.2-3.2 7.2-7.2-3.3-7.2-7.2-7.2zm0 11.8c-2.6 0-4.6-2.1-4.6-4.6 0-2.6 2.1-4.6 4.6-4.6 2.6 0 4.6 2.1 4.6 4.6 0 2.6-2.1 4.6-4.6 4.6z"/><path class="st27" d="M884.3 396h35.1v5.8c0 9.6-7.8 17.5-17.5 17.5-9.5 0-17.2-7.6-17.5-17l-.1-6.3z"/><ellipse class="st25" cx="901.9" cy="396" rx="17.5" ry="9.2"/><linearGradient id="SVGID_36_" gradientUnits="userSpaceOnUse" x1="884.93" y1="398.3" x2="918.83" y2="398.3"><stop offset=".39" stop-color="#35abe5"/><stop offset=".73" stop-color="#56c4f2"/><stop offset="1" stop-color="#6bd4fa"/></linearGradient><path d="M901.9 391.4c-8.2 0-15 2.9-17 6.9 2 4 8.8 6.9 17 6.9s15-2.9 17-6.9c-2-4-8.9-6.9-17-6.9z" fill="url(#SVGID_36_)"/><path class="st37" d="M942.1 371.8l-9.4 16.6c-.9 1.6.1 3.6 1.9 3.9l14.1 2.3c1.1.2 2.2-.4 2.7-1.3l9.2-16.5c.9-1.6-.1-3.6-1.9-3.9l-14-2.4c-.9-.2-2 .4-2.6 1.3z"/><path class="st25" d="M941.3 370.5l-9.4 16.6c-.9 1.6.1 3.6 1.9 3.9l14.1 2.3c1.1.2 2.2-.4 2.7-1.3l9.2-16.5c.9-1.6-.1-3.6-1.9-3.9l-14-2.4c-1-.2-2.1.3-2.6 1.3z"/><linearGradient id="SVGID_37_" gradientUnits="userSpaceOnUse" x1="934.92" y1="381.24" x2="956.86" y2="381.24"><stop offset="0" stop-color="#35abe5"/><stop offset="1" stop-color="#6bd4fa"/></linearGradient><path d="M942.5 373l-7.4 13.1c-.6 1 0 2.3 1.2 2.5l11.3 1.8c.7.1 1.4-.2 1.8-.9l7.2-13c.6-1 0-2.3-1.2-2.5l-11.2-1.9c-.6-.1-1.3.2-1.7.9z" fill="url(#SVGID_37_)"/><circle class="st37" cx="949.6" cy="371.7" r=".8"/></svg>