<svg width="583" height="525" xmlns="http://www.w3.org/2000/svg" xmlns:xlink="http://www.w3.org/1999/xlink"><defs><path d="M8.43 16.18A7.77 7.77 0 1 1 8.42.63a7.77 7.77 0 0 1 .01 15.55zm0-3.88a3.89 3.89 0 1 0 0-7.78 3.89 3.89 0 0 0 0 7.78z" id="a"/><linearGradient x1="61.11%" y1="37.86%" x2="61.11%" y2="48.22%" id="b"><stop stop-color="#E09FFC" offset="0%"/><stop stop-color="#BE67F7" offset="100%"/></linearGradient><path d="M8.43 16.18A7.77 7.77 0 1 1 8.42.63a7.77 7.77 0 0 1 .01 15.55zm0-3.88a3.89 3.89 0 1 0 0-7.78 3.89 3.89 0 0 0 0 7.78z" id="d"/><linearGradient x1="61.89%" y1="37.81%" x2="60.26%" y2="37.95%" id="e"><stop stop-color="#E09FFC" offset="0%"/><stop stop-color="#BE67F7" offset="100%"/></linearGradient><path id="g" d="M1.9 15.73L24.87 1.49l1.1-.68L27.34 3l-1.1.68L3.28 17.93l-1.1.68-1.37-2.2z"/><linearGradient x1="62.41%" y1="37.76%" x2="62.41%" y2="48.12%" id="h"><stop stop-color="#D0D1FF" offset="0%"/><stop stop-color="#CF83FA" offset="100%"/></linearGradient><path id="j" d="M1.9 15.73L24.87 1.49l1.1-.68L27.34 3l-1.1.68L3.28 17.93l-1.1.68-1.37-2.2z"/><linearGradient x1="62.34%" y1="37.77%" x2="61.09%" y2="37.88%" id="k"><stop stop-color="#D0D1FF" offset="0%"/><stop stop-color="#CF83FA" offset="100%"/></linearGradient><path d="M8.43 16.18A7.77 7.77 0 1 1 8.42.63a7.77 7.77 0 0 1 .01 15.55zm0-3.88a3.89 3.89 0 1 0 0-7.78 3.89 3.89 0 0 0 0 7.78z" id="m"/><linearGradient x1="47.15%" y1="39.12%" x2="47.15%" y2="49.47%" id="n"><stop stop-color="#E09FFC" offset="0%"/><stop stop-color="#BE67F7" offset="100%"/></linearGradient><path d="M8.43 16.18A7.77 7.77 0 1 1 8.42.63a7.77 7.77 0 0 1 .01 15.55zm0-3.88a3.89 3.89 0 1 0 0-7.78 3.89 3.89 0 0 0 0 7.78z" id="p"/><linearGradient x1="47.93%" y1="39.07%" x2="46.3%" y2="39.21%" id="q"><stop stop-color="#E09FFC" offset="0%"/><stop stop-color="#BE67F7" offset="100%"/></linearGradient><path id="s" d="M1.92 15.72L25.26 1.48l1.1-.67L27.73 3l-1.1.68L3.26 17.93l-1.1.68L.8 16.4z"/><linearGradient x1="48.47%" y1="39.01%" x2="48.47%" y2="49.37%" id="t"><stop stop-color="#D0D1FF" offset="0%"/><stop stop-color="#CF83FA" offset="100%"/></linearGradient><path id="v" d="M1.92 15.72L25.26 1.48l1.1-.67L27.73 3l-1.1.68L3.26 17.93l-1.1.68L.8 16.4z"/><linearGradient x1="48.4%" y1="39.03%" x2="47.13%" y2="39.13%" id="w"><stop stop-color="#D0D1FF" offset="0%"/><stop stop-color="#CF83FA" offset="100%"/></linearGradient><path d="M7.13 13.6a6.48 6.48 0 1 1 0-12.97 6.48 6.48 0 0 1 0 12.96zm0-3.9a2.6 2.6 0 1 0 0-5.17 2.6 2.6 0 0 0 0 5.18z" id="y"/><linearGradient x1="54.93%" y1="38.42%" x2="54.93%" y2="48.78%" id="z"><stop stop-color="#88BFFF" offset="0%"/><stop stop-color="#4FA3FF" offset="100%"/></linearGradient><path d="M7.13 13.6a6.48 6.48 0 1 1 0-12.97 6.48 6.48 0 0 1 0 12.96zm0-3.9a2.6 2.6 0 1 0 0-5.17 2.6 2.6 0 0 0 0 5.18z" id="B"/><linearGradient x1="55.53%" y1="38.38%" x2="54.27%" y2="38.49%" id="C"><stop stop-color="#88BFFF" offset="0%"/><stop stop-color="#4FA3FF" offset="100%"/></linearGradient><path id="E" d="M1.9 15.73L24.87 1.49l1.1-.68L27.34 3l-1.1.68L3.28 17.93l-1.1.68-1.37-2.2z"/><linearGradient x1="56.23%" y1="38.32%" x2="56.23%" y2="48.67%" id="F"><stop stop-color="#D0D1FF" offset="0%"/><stop stop-color="#69B0FF" offset="100%"/></linearGradient><path id="H" d="M1.9 15.73L24.87 1.49l1.1-.68L27.34 3l-1.1.68L3.28 17.93l-1.1.68-1.37-2.2z"/><linearGradient x1="56.16%" y1="38.33%" x2="54.91%" y2="38.43%" id="I"><stop stop-color="#D0D1FF" offset="0%"/><stop stop-color="#69B0FF" offset="100%"/></linearGradient><path d="M7.13 13.6a6.48 6.48 0 1 1 0-12.97 6.48 6.48 0 0 1 0 12.96zm0-3.9a2.6 2.6 0 1 0 0-5.17 2.6 2.6 0 0 0 0 5.18z" id="K"/><linearGradient x1="52.22%" y1="38.76%" x2="52.22%" y2="49.12%" id="L"><stop stop-color="#88FFC9" offset="0%"/><stop stop-color="#4FDCFE" offset="100%"/></linearGradient><path d="M7.13 13.6a6.48 6.48 0 1 1 0-12.97 6.48 6.48 0 0 1 0 12.96zm0-3.9a2.6 2.6 0 1 0 0-5.17 2.6 2.6 0 0 0 0 5.18z" id="N"/><linearGradient x1="52.83%" y1="38.72%" x2="51.56%" y2="38.83%" id="O"><stop stop-color="#88FFC9" offset="0%"/><stop stop-color="#4FDCFE" offset="100%"/></linearGradient><path id="Q" d="M.95 14.98L23.91.74l.55-.34.68 1.1-.55.34L1.64 16.08l-.55.35-.69-1.1z"/><linearGradient x1="53.52%" y1="38.66%" x2="53.52%" y2="49.02%" id="R"><stop stop-color="#F7F8FF" offset="0%"/><stop stop-color="#6DEEE3" offset="100%"/></linearGradient><path id="T" d="M.95 14.98L23.91.74l.55-.34.68 1.1-.55.34L1.64 16.08l-.55.35-.69-1.1z"/><linearGradient x1="53.45%" y1="38.67%" x2="52.2%" y2="38.78%" id="U"><stop stop-color="#F7F8FF" offset="0%"/><stop stop-color="#6DEEE3" offset="100%"/></linearGradient><path d="M7.13 13.6a6.48 6.48 0 1 1 0-12.97 6.48 6.48 0 0 1 0 12.96zm0-3.9a2.6 2.6 0 1 0 0-5.17 2.6 2.6 0 0 0 0 5.18z" id="W"/><linearGradient x1="57.99%" y1="38.34%" x2="57.99%" y2="48.7%" id="X"><stop stop-color="#88BFFF" offset="0%"/><stop stop-color="#4FA3FF" offset="100%"/></linearGradient><path d="M7.13 13.6a6.48 6.48 0 1 1 0-12.97 6.48 6.48 0 0 1 0 12.96zm0-3.9a2.6 2.6 0 1 0 0-5.17 2.6 2.6 0 0 0 0 5.18z" id="Z"/><linearGradient x1="58.59%" y1="38.3%" x2="57.32%" y2="38.41%" id="aa"><stop stop-color="#88BFFF" offset="0%"/><stop stop-color="#4FA3FF" offset="100%"/></linearGradient><path id="ac" d="M.95 14.98L23.91.74l.55-.34.68 1.1-.55.34L1.64 16.08l-.55.35-.69-1.1z"/><linearGradient x1="59.28%" y1="38.24%" x2="59.28%" y2="48.59%" id="ad"><stop stop-color="#D0D1FF" offset="0%"/><stop stop-color="#69B0FF" offset="100%"/></linearGradient><path id="af" d="M.95 14.98L23.91.74l.55-.34.68 1.1-.55.34L1.64 16.08l-.55.35-.69-1.1z"/><linearGradient x1="59.22%" y1="38.25%" x2="57.96%" y2="38.35%" id="ag"><stop stop-color="#D0D1FF" offset="0%"/><stop stop-color="#69B0FF" offset="100%"/></linearGradient><path d="M7.13 13.6a6.48 6.48 0 1 1 0-12.97 6.48 6.48 0 0 1 0 12.96zm0-3.9a2.6 2.6 0 1 0 0-5.17 2.6 2.6 0 0 0 0 5.18z" id="ai"/><linearGradient x1="39.86%" y1="39.77%" x2="39.86%" y2="50.13%" id="aj"><stop stop-color="#88BFFF" offset="0%"/><stop stop-color="#4FA3FF" offset="100%"/></linearGradient><path d="M7.13 13.6a6.48 6.48 0 1 1 0-12.97 6.48 6.48 0 0 1 0 12.96zm0-3.9a2.6 2.6 0 1 0 0-5.17 2.6 2.6 0 0 0 0 5.18z" id="al"/><linearGradient x1="40.46%" y1="39.73%" x2="39.2%" y2="39.84%" id="am"><stop stop-color="#88BFFF" offset="0%"/><stop stop-color="#4FA3FF" offset="100%"/></linearGradient><path id="ao" d="M1.9 15.73L24.87 1.49l1.1-.68L27.34 3l-1.1.68L3.28 17.93l-1.1.68-1.37-2.2z"/><linearGradient x1="41.16%" y1="39.67%" x2="41.16%" y2="50.03%" id="ap"><stop stop-color="#D0D1FF" offset="0%"/><stop stop-color="#69B0FF" offset="100%"/></linearGradient><path id="ar" d="M1.9 15.73L24.87 1.49l1.1-.68L27.34 3l-1.1.68L3.28 17.93l-1.1.68-1.37-2.2z"/><linearGradient x1="41.09%" y1="39.68%" x2="39.84%" y2="39.79%" id="as"><stop stop-color="#D0D1FF" offset="0%"/><stop stop-color="#69B0FF" offset="100%"/></linearGradient></defs><g fill="none" fill-rule="evenodd"><path stroke="#D0D1FF" stroke-width="3.89" d="M36.02 39.84v73.85l510.96 314.67v65.87"/><path stroke-opacity=".37" stroke="#D0D1FF" stroke-width="1.3" d="M24.34 45.01v73.86l510.97 314.67v65.86"/><path stroke="#D0D2FF" stroke-width="1.3" d="M47.69 89.03v57.03l510.97 314.67v11.49"/><path d="M36.02 70.9a34.98 34.98 0 0 0 35.01-34.95A34.98 34.98 0 0 0 36.02 1 34.98 34.98 0 0 0 1 35.95a34.98 34.98 0 0 0 35.02 34.96z" stroke="#F6F6FF" stroke-width="1.3"/><path d="M36.02 56.67a20.73 20.73 0 0 0 20.75-20.72 20.73 20.73 0 0 0-20.75-20.71 20.73 20.73 0 0 0-20.75 20.71 20.73 20.73 0 0 0 20.75 20.72z" stroke="#E5E6FF" stroke-width="2.59"/><path d="M36.02 46.3a10.37 10.37 0 1 0 .01-20.72 10.37 10.37 0 0 0-.01 20.73z" stroke="#C471F8" stroke-width="3.89" fill="#FFF"/><g><path d="M546.98 524A34.98 34.98 0 0 0 582 489.05a34.98 34.98 0 0 0-35.02-34.96 34.98 34.98 0 0 0-35.01 34.96A34.98 34.98 0 0 0 546.98 524z" stroke="#F6F6FF" stroke-width="1.3"/><path d="M546.98 509.76a20.73 20.73 0 0 0 20.75-20.71 20.73 20.73 0 0 0-20.75-20.72 20.73 20.73 0 0 0-20.75 20.72 20.73 20.73 0 0 0 20.75 20.71z" stroke="#E5E6FF" stroke-width="2.59"/><path d="M546.98 499.4a10.37 10.37 0 1 0 .02-20.73 10.37 10.37 0 0 0-.02 20.73z" stroke="#C471F8" stroke-width="3.89" fill="#FFF"/></g><g><g transform="matrix(-1 0 0 1 133.28 160.23)"><mask id="c" fill="#fff"><use xlink:href="#a"/></mask><path fill="url(#b)" mask="url(#c)" d="M-1126.98 7955.04h1867.5V-4842.93h-1867.5z"/></g><g transform="matrix(-1 0 0 1 133.28 160.23)"><mask id="f" fill="#fff"><use xlink:href="#d"/></mask><path fill="url(#e)" mask="url(#f)" d="M-1126.98 7955.04h1867.5V-4842.93h-1867.5z"/></g><g transform="matrix(-1 0 0 1 120.31 147.28)"><mask id="i" fill="#fff"><use xlink:href="#g"/></mask><path fill="url(#h)" mask="url(#i)" d="M-1139.95 7967.98h1867.5V-4829.98h-1867.5z"/></g><g transform="matrix(-1 0 0 1 120.31 147.28)"><mask id="l" fill="#fff"><use xlink:href="#j"/></mask><path fill="url(#k)" mask="url(#l)" d="M-1139.95 7967.98h1867.5V-4829.98h-1867.5z"/></g><g transform="matrix(-1 0 0 1 393.95 320.75)"><mask id="o" fill="#fff"><use xlink:href="#m"/></mask><path fill="url(#n)" mask="url(#o)" d="M-866.31 7794.51h1867.5V-5003.45h-1867.5z"/></g><g transform="matrix(-1 0 0 1 393.95 320.75)"><mask id="r" fill="#fff"><use xlink:href="#p"/></mask><path fill="url(#q)" mask="url(#r)" d="M-866.31 7794.51h1867.5V-5003.45h-1867.5z"/></g><g><g transform="matrix(-1 0 0 1 380.98 307.8)"><mask id="u" fill="#fff"><use xlink:href="#s"/></mask><path fill="url(#t)" mask="url(#u)" d="M-879.28 7807.46h1867.5V-4990.51h-1867.5z"/></g><g transform="matrix(-1 0 0 1 380.98 307.8)"><mask id="x" fill="#fff"><use xlink:href="#v"/></mask><path fill="url(#w)" mask="url(#x)" d="M-879.28 7807.46h1867.5V-4990.51h-1867.5z"/></g></g><g><g transform="matrix(-1 0 0 1 246.1 231.43)"><mask id="A" fill="#fff"><use xlink:href="#y"/></mask><path fill="url(#z)" mask="url(#A)" d="M-1014.16 7883.84h1867.5V-4914.13h-1867.5z"/></g><g transform="matrix(-1 0 0 1 246.1 231.43)"><mask id="D" fill="#fff"><use xlink:href="#B"/></mask><path fill="url(#C)" mask="url(#D)" d="M-1014.16 7883.84h1867.5V-4914.13h-1867.5z"/></g><g><g transform="matrix(-1 0 0 1 235.73 218.49)"><mask id="G" fill="#fff"><use xlink:href="#E"/></mask><path fill="url(#F)" mask="url(#G)" d="M-1024.53 7896.78h1867.5V-4901.18h-1867.5z"/></g><g transform="matrix(-1 0 0 1 235.73 218.49)"><mask id="J" fill="#fff"><use xlink:href="#H"/></mask><path fill="url(#I)" mask="url(#J)" d="M-1024.53 7896.78h1867.5V-4901.18h-1867.5z"/></g></g></g><g><g transform="matrix(-1 0 0 1 296.69 275.45)"><mask id="M" fill="#fff"><use xlink:href="#K"/></mask><path fill="url(#L)" mask="url(#M)" d="M-963.58 7839.82h1867.5V-4958.14h-1867.5z"/></g><g transform="matrix(-1 0 0 1 296.69 275.45)"><mask id="P" fill="#fff"><use xlink:href="#N"/></mask><path fill="url(#O)" mask="url(#P)" d="M-963.58 7839.82h1867.5V-4958.14h-1867.5z"/></g><g><g transform="matrix(-1 0 0 1 285.02 263.8)"><mask id="S" fill="#fff"><use xlink:href="#Q"/></mask><path fill="url(#R)" mask="url(#S)" d="M-975.25 7851.47h1867.5V-4946.49h-1867.5z"/></g><g transform="matrix(-1 0 0 1 285.02 263.8)"><mask id="V" fill="#fff"><use xlink:href="#T"/></mask><path fill="url(#U)" mask="url(#V)" d="M-975.25 7851.47h1867.5V-4946.49h-1867.5z"/></g></g></g><g><g transform="matrix(-1 0 0 1 189.05 221.07)"><mask id="Y" fill="#fff"><use xlink:href="#W"/></mask><path fill="url(#X)" mask="url(#Y)" d="M-1071.22 7894.2h1867.5V-4903.78h-1867.5z"/></g><g transform="matrix(-1 0 0 1 189.05 221.07)"><mask id="ab" fill="#fff"><use xlink:href="#Z"/></mask><path fill="url(#aa)" mask="url(#ab)" d="M-1071.22 7894.2h1867.5V-4903.78h-1867.5z"/></g><g><g transform="matrix(-1 0 0 1 177.38 209.42)"><mask id="ae" fill="#fff"><use xlink:href="#ac"/></mask><path fill="url(#ad)" mask="url(#ae)" d="M-1082.9 7905.84H784.6V-4892.12h-1867.5z"/></g><g transform="matrix(-1 0 0 1 177.38 209.42)"><mask id="ah" fill="#fff"><use xlink:href="#af"/></mask><path fill="url(#ag)" mask="url(#ah)" d="M-1082.9 7905.84H784.6V-4892.12h-1867.5z"/></g></g></g><g><g transform="matrix(-1 0 0 1 527.53 404.9)"><mask id="ak" fill="#fff"><use xlink:href="#ai"/></mask><path fill="url(#aj)" mask="url(#ak)" d="M-732.73 7710.37h1867.5V-5087.6h-1867.5z"/></g><g transform="matrix(-1 0 0 1 527.53 404.9)"><mask id="an" fill="#fff"><use xlink:href="#al"/></mask><path fill="url(#am)" mask="url(#an)" d="M-732.73 7710.37h1867.5V-5087.6h-1867.5z"/></g><g><g transform="matrix(-1 0 0 1 517.16 391.96)"><mask id="aq" fill="#fff"><use xlink:href="#ao"/></mask><path fill="url(#ap)" mask="url(#aq)" d="M-743.1 7723.31h1867.5V-5074.65H-743.1z"/></g><g transform="matrix(-1 0 0 1 517.16 391.96)"><mask id="at" fill="#fff"><use xlink:href="#ar"/></mask><path fill="url(#as)" mask="url(#at)" d="M-743.1 7723.31h1867.5V-5074.65H-743.1z"/></g></g></g></g></g></svg>