<svg width="1397" height="1659" xmlns="http://www.w3.org/2000/svg" xmlns:xlink="http://www.w3.org/1999/xlink"><defs><ellipse id="a" cx="65.29" cy="65.26" rx="65.29" ry="65.26"/><path d="M.04 22A34.5 34.5 0 0 1 32.02.4a34.3 34.3 0 0 1 31.72 21.27 55.9 55.9 0 0 1-32.1 10.06 55.9 55.9 0 0 1-31.6-9.71z" id="c"/><path d="M.04 22A34.5 34.5 0 0 1 32.02.4a34.3 34.3 0 0 1 31.72 21.27 55.9 55.9 0 0 1-32.1 10.06 55.9 55.9 0 0 1-31.6-9.71z" id="d"/><path d="M.04 21.51a33.43 33.43 0 0 1 31-21.13C44.9.38 56.83 9 61.77 21.17A53.86 53.86 0 0 1 30.66 31a53.86 53.86 0 0 1-30.62-9.5z" id="e"/><ellipse id="f" cx="65.29" cy="65.26" rx="65.29" ry="65.26"/><path d="M.04 19.78A31.3 31.3 0 0 1 29.06.35c13 0 24.17 7.92 28.8 19.12a51.08 51.08 0 0 1-29.14 9.05A51.09 51.09 0 0 1 .04 19.78z" id="h"/><path d="M.04 22A34.5 34.5 0 0 1 32.02.4a34.3 34.3 0 0 1 31.72 21.27 55.9 55.9 0 0 1-32.1 10.06 55.9 55.9 0 0 1-31.6-9.71z" id="i"/><ellipse id="j" cx="65.29" cy="65.26" rx="65.29" ry="65.26"/><linearGradient x1="50%" y1="0%" x2="50%" y2="100%" id="m"><stop stop-color="#FFF" offset="0%"/><stop stop-color="#FFF" offset="100%"/></linearGradient><ellipse id="l" cx="53.59" cy="53.59" rx="53.59" ry="53.59"/><linearGradient x1="50%" y1="0%" x2="50%" y2="100%" id="o"><stop stop-color="#FFF4A7" offset="0%"/><stop stop-color="#FFCA00" offset="100%"/></linearGradient><linearGradient x1="50%" y1="100.05%" x2="50%" y2=".05%" id="p"><stop stop-color="#804A2A" offset="39%"/><stop stop-color="#6C3F2A" offset="43%"/><stop stop-color="#553229" offset="49%"/><stop stop-color="#422829" offset="56%"/><stop stop-color="#362029" offset="65%"/><stop stop-color="#2E1C29" offset="76%"/><stop stop-color="#2C1B29" offset="100%"/></linearGradient><path d="M.04 20.28A31.84 31.84 0 0 1 29.56.36a31.67 31.67 0 0 1 29.28 19.6 51.66 51.66 0 0 1-29.64 9.27A51.67 51.67 0 0 1 .04 20.28z" id="q"/><path d="M.04 20.77A32.9 32.9 0 0 1 30.54.37c13.66 0 25.4 8.31 30.26 20.07a53.71 53.71 0 0 1-30.62 9.5A53.72 53.72 0 0 1 .04 20.77z" id="r"/><ellipse id="s" cx="65.29" cy="65.26" rx="65.29" ry="65.26"/><ellipse id="u" cx="65.29" cy="65.26" rx="65.29" ry="65.26"/></defs><g fill="none" fill-rule="evenodd"><path d="M181.47 464.05L81.93 623.89M119.56 1601.88l236.4-166.52-236.4-41.5M1061.53 1468.82l-169.27 109.04M1148.12 1242.53l147.88 184.8 41.27 188.7" stroke="#3C7EFB"/><path d="M1230.12 327.24l108 153.53" stroke="#00A3F7"/><path d="M1065.37 646.71l169.55-18.91M1201.57 322.45l-189.03 79.36M1095.64 221.78l233.2-95.06-95.36 183-163.7 336.46-157.97-92.66-172.58 129.9-53.93-163.39-134.57 163.38-185.3-80.29 123.24-120.98-302.65-26.99L80.48 328.03 66.92 82.09l236.71 173.85" stroke="#3C7EFB"/><path stroke="#3C7EFB" d="M356.48 638.08L108.35 785 96.5 1027 116.7 1223l203.86-9.6 62.23 216.98 211.1 72.55 136.4-163.03 328.54 133.85 85.63-213.31 204.68-189.94-23.41-235.4-266.9-162.55"/><g fill="#FFF" fill-rule="nonzero"><g transform="translate(859 1540)" stroke-width="3"><ellipse stroke="#4D8BFC" cx="32.5" cy="32.68" rx="32.32" ry="32.5"/><path d="M54.8 44.68a25.67 25.67 0 0 0 3.23-12.51m-5.26-15.61A25.44 25.44 0 0 0 32.5 6.49c-11.76 0-21.67 8-24.63 18.88m-.9 6.8c0 4.7 1.26 9.12 3.46 12.92" stroke="#D675FF" stroke-linecap="round"/><g stroke="#4D8BFC"><path d="M14.28 59.53a19.83 19.83 0 0 1 18.46-12.68c8.29 0 15.41 5.13 18.36 12.42a32.05 32.05 0 0 1-18.6 5.91 32.04 32.04 0 0 1-18.22-5.65z"/><path d="M32.68 53.08a3.63 3.63 0 0 1-3.61-3.63V46.6c0-2 1.62-3.63 3.61-3.63a3.63 3.63 0 0 1 3.61 3.63v2.9a3.62 3.62 0 0 1-3.6 3.58zM18.3 31.47s-.79-6.35 1.98-11.07c2.77-4.72 5.9-6.36 8.3-6.36 2.42 0 11.98.73 13.79 0 1.99-.79 5.54 9.93 3.91 16.22L18.3 31.47z"/><ellipse cx="3.97" cy="3.75" rx="3.67" ry="3.69" transform="translate(16.25 29.05)"/><ellipse cx="3.73" cy="3.75" rx="3.67" ry="3.69" transform="translate(40.93 29.05)"/><path d="M39.84 20.52c-1.44-.12-3.79 3.08-7.34 3.45-3.55-.43-5.9-3.57-7.34-3.45a12.32 12.32 0 0 0-4.88 9.8v4.78c0 6.78 5.48 12.29 12.22 12.29s12.22-5.5 12.22-12.29v-4.78c0-4-1.93-7.56-4.88-9.8z"/></g></g><path d="M902 1580l1 .6"/></g><g fill="#FFF" fill-rule="nonzero" stroke-width="3"><path d="M306 1256c-26.95 0-49-22.05-49-49s22.05-49 49-49 49 22.05 49 49-22.05 49-49 49z" stroke="#4D8BFC"/><path d="M266.35 1217.23a40.42 40.42 0 0 1-1.35-10.38m13.32-30.06a40.91 40.91 0 0 1 48.48-5.1m6.57 4.8a41.4 41.4 0 0 1 6.68 7.67m6.95 22.7c0 6.1-1.37 11.92-3.81 17.14" stroke="#D675FF" stroke-linecap="round"/><g stroke="#4D8BFC"><path d="M314.68 1234.1h-14.72c-10.63 0-18.8-9.25-17.66-19.99l1.3-11.73a23.98 23.98 0 0 1 23.72-21.47c12.1 0 22.4 9.25 23.7 21.47l1.32 11.73c1.14 10.74-7.03 20-17.66 20z"/><path d="M279.05 1247.62a29.37 29.37 0 0 1 55.21-.22 48.51 48.51 0 0 1-55.21.22z"/><path d="M306.83 1237.41a5.3 5.3 0 0 1-5.24-5.29v-4.3a5.3 5.3 0 0 1 5.24-5.28 5.3 5.3 0 0 1 5.23 5.29v4.3a5.3 5.3 0 0 1-5.23 5.28z"/><ellipse cx="5.61" cy="5.83" rx="5.4" ry="5.45" transform="translate(318.88 1201.34)"/><path d="M314.68 1191.15c-3.44.66-.66 13.05-5.24 14.7-4.74 1.82-12.26-1.15-13.4 2.98-1.15 4.13-1.8 14.2 4.74 14.7 0 0-3.27 1.16-6.7 1a18.43 18.43 0 0 0 13.24 5.61c10.3 0 18.64-8.43 18.64-18.83v-7.1c0-3.48-.98-6.78-2.62-9.6-2.94-1.97-6.7-3.8-8.66-3.46z"/></g></g><g fill="#FFF" fill-rule="nonzero"><g transform="translate(556 1461)" stroke-width="3"><ellipse stroke="#4D8BFC" cx="34" cy="34.15" rx="33.81" ry="33.96"/><path d="M57.33 46.68a26.8 26.8 0 0 0 3.38-13.07m-5.5-16.31A26.63 26.63 0 0 0 34 6.78 26.74 26.74 0 0 0 8.23 26.51m-.94 7.1a26.8 26.8 0 0 0 3.62 13.5" stroke="#D675FF" stroke-linecap="round"/><g stroke="#4D8BFC"><path d="M14.94 62.2a20.74 20.74 0 0 1 19.31-13.26c8.67 0 16.12 5.37 19.2 12.98A33.56 33.56 0 0 1 34 68.1a33.55 33.55 0 0 1-19.06-5.9z"/><path d="M34.19 55.46a3.8 3.8 0 0 1-3.78-3.8V48.7a3.8 3.8 0 0 1 3.78-3.8 3.8 3.8 0 0 1 3.78 3.8v3.03c0 2.03-1.7 3.74-3.78 3.74zM19.14 32.88s-.82-6.64 2.08-11.57c2.9-4.93 6.17-6.64 8.69-6.64 2.52 0 12.53.76 14.42 0 2.07-.82 5.79 10.37 4.09 16.95l-29.28 1.26z"/><ellipse cx="4.16" cy="3.92" rx="3.84" ry="3.86" transform="translate(17 30.35)"/><ellipse cx="3.9" cy="3.92" rx="3.84" ry="3.86" transform="translate(42.81 30.35)"/><path d="M41.68 21.44c-1.51-.13-3.97 3.22-7.68 3.6-3.71-.44-6.17-3.73-7.68-3.6a12.86 12.86 0 0 0-5.1 10.24v5c0 7.08 5.73 12.83 12.78 12.83 7.05 0 12.78-5.75 12.78-12.83v-5c0-4.17-2.01-7.9-5.1-10.24z"/></g></g><path d="M601 1503l1 .6"/></g><g transform="translate(1219 1341)"><mask id="b" fill="#fff"><use xlink:href="#a"/></mask><g fill-rule="nonzero"><use fill="#FFF" fill-rule="evenodd" xlink:href="#a"/><ellipse stroke="#4D8BFC" stroke-width="3" cx="65.29" cy="65.26" rx="66.79" ry="66.76"/></g><path d="M106.24 134.88H25.15a.73.73 0 0 1-.56-.24.73.73 0 0 1-.25-.57c.25-22.48 18.79-40.85 41.36-40.85 22.49 0 41.1 18.3 41.35 40.85 0 .25-.08.4-.24.57a.73.73 0 0 1-.57.24z" stroke="#4D8BFC" stroke-width="3" fill="#FFF" mask="url(#b)"/></g><path d="M1341 1405.77a57.7 57.7 0 0 1-19.38 43.23m-82.15-6.1a57.88 57.88 0 0 1-10.8-19.7m-2.67-17.43a57.8 57.8 0 0 1 18.87-42.77m82.65 5.63a57.98 57.98 0 0 1 9.04 14.88" stroke="#D675FF" stroke-width="3" stroke-linecap="round"/><path d="M1285.91 1447.67h-2.58a6.1 6.1 0 0 1-6.06-6.05v-8.48a6.1 6.1 0 0 1 6.06-6.05h2.58a6.1 6.1 0 0 1 6.06 6.05v8.48a6.05 6.05 0 0 1-6.06 6.05zM1257.33 1399.89s-2.75-12.92 4.03-21.15c0 0-5.97-8.96 2.26-17.92 0 0 .9 6.62 16.56 4.77 15.66-1.86 35.12 9.6 31 34.22l-53.85.08z" fill="#FFF" fill-rule="nonzero" stroke="#4D8BFC" stroke-width="3"/><ellipse cx="8.8" cy="8.31" rx="7.51" ry="7.51" transform="translate(1250.3 1398.11)" fill="#FFF" fill-rule="nonzero" stroke="#4D8BFC" stroke-width="3"/><ellipse cx="8.8" cy="8.31" rx="7.51" ry="7.51" transform="translate(1300.37 1398.11)" fill="#FFF" fill-rule="nonzero" stroke="#4D8BFC" stroke-width="3"/><path d="M1300.6 1385.36c-8.31-2.74-24.62 5.57-33.83-1.94a25.3 25.3 0 0 0-7.67 18.08v9.37a25.36 25.36 0 0 0 25.28 25.26 25.36 25.36 0 0 0 25.27-25.26v-9.45c0-4.68-1.3-9.12-3.63-12.91a14.49 14.49 0 0 0-5.41-3.15zM734 1389c-31.41 0-57-25.59-57-57s25.59-57 57-57 57 25.59 57 57-25.59 57-57 57z" fill="#FFF" fill-rule="nonzero" stroke="#4D8BFC" stroke-width="3"/><path d="M765.18 1294.23a49.45 49.45 0 0 1 9.73 10.84m4.81 9.31A48.71 48.71 0 0 1 783 1332c0 11.72-4.14 22.5-11.04 30.94m-75.15.92A48.78 48.78 0 0 1 685 1332" stroke="#D675FF" stroke-width="3" fill="#FFF" fill-rule="nonzero" stroke-linecap="round"/><path d="M746.73 1368.08H721.9a12.45 12.45 0 0 1-12.47-12.38v-29.18a24.9 24.9 0 0 1 24.94-24.77 24.9 24.9 0 0 1 24.95 24.77v29.18a12.64 12.64 0 0 1-12.6 12.38z" fill="#FFF" fill-rule="nonzero" stroke="#4D8BFC" stroke-width="3"/><use stroke="#4D8BFC" stroke-width="3" fill="#FFF" fill-rule="nonzero" xlink:href="#c" transform="translate(702.36 1357.33)"/><path d="M734.38 1368.46a6.22 6.22 0 0 1-6.23-6.19v-4.93a6.22 6.22 0 1 1 12.47 0v4.93a6.4 6.4 0 0 1-6.24 6.2z" fill="#FFF" fill-rule="nonzero" stroke="#4D8BFC" stroke-width="3"/><ellipse cx="7.13" cy="6.83" rx="6.36" ry="6.32" transform="translate(748 1327.01)" fill="#FFF" fill-rule="nonzero" stroke="#4D8BFC" stroke-width="3"/><path d="M744.95 1315.27s-16.55 20.6-31.95 23.88a21.5 21.5 0 0 0 42.9-1.9v-6.82c0-2.65-.52-5.05-1.4-7.45-2.8-1.9-9.05-6.57-9.55-7.7zM89 1082c-31.41 0-57-25.59-57-57s25.59-57 57-57 57 25.59 57 57-25.59 57-57 57z" fill="#FFF" fill-rule="nonzero" stroke="#4D8BFC" stroke-width="3"/><path d="M120.18 987.23a49.45 49.45 0 0 1 9.73 10.84m4.81 9.31A48.71 48.71 0 0 1 138 1025c0 11.72-4.14 22.5-11.04 30.94m-75.15.92A48.78 48.78 0 0 1 40 1025" stroke="#D675FF" stroke-width="3" fill="#FFF" fill-rule="nonzero"/><path d="M101.73 1061.08H76.9a12.45 12.45 0 0 1-12.47-12.38v-29.18a24.9 24.9 0 0 1 24.94-24.77 24.9 24.9 0 0 1 24.95 24.77v29.18a12.64 12.64 0 0 1-12.6 12.38z" fill="#FFF" fill-rule="nonzero" stroke="#4D8BFC" stroke-width="3"/><use stroke="#4D8BFC" stroke-width="3" fill="#FFF" fill-rule="nonzero" xlink:href="#d" transform="translate(57.36 1050.33)"/><path d="M89.38 1061.46a6.22 6.22 0 0 1-6.23-6.19v-4.93a6.22 6.22 0 1 1 12.47 0v4.93a6.4 6.4 0 0 1-6.24 6.2z" fill="#FFF" fill-rule="nonzero" stroke="#4D8BFC" stroke-width="3"/><ellipse cx="7.13" cy="6.83" rx="6.36" ry="6.32" transform="translate(103 1020.01)" fill="#FFF" fill-rule="nonzero" stroke="#4D8BFC" stroke-width="3"/><path d="M99.95 1008.27s-16.55 20.6-31.95 23.88a21.5 21.5 0 0 0 42.9-1.9v-6.82c0-2.65-.52-5.05-1.4-7.45-2.8-1.9-9.05-6.57-9.55-7.7z" fill="#FFF" fill-rule="nonzero" stroke="#4D8BFC" stroke-width="3"/><g fill="#FFF" fill-rule="nonzero"><g transform="translate(71 746)" stroke-width="3"><ellipse stroke="#4D8BFC" cx="39" cy="39.02" rx="38.78" ry="38.81"/><path d="M65.76 53.35a30.54 30.54 0 0 0 3.88-14.94m-6.31-18.64A30.66 30.66 0 0 0 9.45 30.29m-1.09 8.12c0 5.62 1.51 10.9 4.15 15.42" stroke="#D675FF" stroke-linecap="round"/><g stroke="#4D8BFC"><path d="M17.14 71.08a23.8 23.8 0 0 1 22.15-15.15 23.8 23.8 0 0 1 22.03 14.84A38.59 38.59 0 0 1 39 77.83c-8.11 0-15.64-2.49-21.86-6.75z"/><path d="M39.22 63.38a4.35 4.35 0 0 1-4.34-4.34v-3.4a4.35 4.35 0 0 1 4.34-4.33 4.35 4.35 0 0 1 4.33 4.34v3.46a4.33 4.33 0 0 1-4.33 4.27zM21.96 37.58s-.94-7.59 2.38-13.23c3.32-5.63 7.08-7.58 9.97-7.58 2.88 0 14.37.86 16.53 0 2.39-.94 6.65 11.85 4.7 19.36l-33.58 1.45z"/><ellipse cx="4.77" cy="4.48" rx="4.41" ry="4.41" transform="translate(19.5 34.69)"/><ellipse cx="4.48" cy="4.48" rx="4.41" ry="4.41" transform="translate(49.11 34.69)"/><path d="M47.81 24.5c-1.73-.15-4.55 3.68-8.81 4.12-4.26-.5-7.08-4.27-8.81-4.12a14.68 14.68 0 0 0-5.85 11.7v5.71c0 8.1 6.57 14.67 14.66 14.67s14.66-6.57 14.66-14.67v-5.7c0-4.77-2.31-9.04-5.85-11.71z"/></g></g><path d="M123 794l1 .6"/></g><path d="M1334.5 1133a55.58 55.58 0 0 1-55.5-55.5 55.58 55.58 0 0 1 55.5-55.5 55.58 55.58 0 0 1 55.5 55.5 55.58 55.58 0 0 1-55.5 55.5z" stroke="#4D8BFC" stroke-width="3" fill="#FFF" fill-rule="nonzero"/><path d="M1364.72 1041a48.17 48.17 0 0 1 9.44 10.58m4.66 9.1a47.88 47.88 0 0 1 3.18 17.2 47.84 47.84 0 0 1-10.7 30.22m-72.85.9a47.85 47.85 0 0 1-11.45-31.12" stroke="#D675FF" stroke-width="3" fill="#FFF" fill-rule="nonzero" stroke-linecap="round"/><path d="M1346.35 1112.58h-24.05a12.12 12.12 0 0 1-12.1-12.1v-28.54a24.23 24.23 0 0 1 24.19-24.2 24.23 24.23 0 0 1 24.17 24.2v28.53a12.3 12.3 0 0 1-12.2 12.1z" fill="#FFF" fill-rule="nonzero" stroke="#4D8BFC" stroke-width="3"/><use stroke="#4D8BFC" stroke-width="3" fill="#FFF" fill-rule="nonzero" xlink:href="#e" transform="translate(1303.35 1102.07)"/><path d="M1334.39 1112.95a6.06 6.06 0 0 1-6.05-6.06v-4.81a6.06 6.06 0 0 1 6.05-6.05 6.06 6.06 0 0 1 6.04 6.05v4.81a6.22 6.22 0 0 1-6.04 6.06z" fill="#FFF" fill-rule="nonzero" stroke="#4D8BFC" stroke-width="3"/><ellipse cx="6.91" cy="6.68" rx="6.17" ry="6.18" transform="translate(1347.58 1072.43)" fill="#FFF" fill-rule="nonzero" stroke="#4D8BFC" stroke-width="3"/><path d="M1344.62 1060.95s-16.03 20.13-30.96 23.34a20.91 20.91 0 0 0 20.73 19.02 20.91 20.91 0 0 0 20.84-20.87v-6.67c0-2.6-.5-4.94-1.35-7.29-2.72-1.85-8.76-6.42-9.26-7.53z" fill="#FFF" fill-rule="nonzero" stroke="#4D8BFC" stroke-width="3"/><g><g transform="translate(321 1374)"><mask id="g" fill="#fff"><use xlink:href="#f"/></mask><g fill-rule="nonzero"><use fill="#FFF" fill-rule="evenodd" xlink:href="#f"/><ellipse stroke="#4D8BFC" stroke-width="3" cx="65.29" cy="65.26" rx="66.79" ry="66.76"/></g><path d="M106.24 134.88H25.15a.73.73 0 0 1-.56-.24.73.73 0 0 1-.25-.57c.25-22.48 18.79-40.85 41.36-40.85 22.49 0 41.1 18.3 41.35 40.85 0 .25-.08.4-.24.57a.73.73 0 0 1-.57.24z" stroke="#4D8BFC" stroke-width="3" fill="#FFF" mask="url(#g)"/></g><path d="M443 1438.77a57.7 57.7 0 0 1-19.38 43.23m-82.15-6.1a57.88 57.88 0 0 1-10.8-19.7m-2.67-17.43a57.8 57.8 0 0 1 18.87-42.77m82.65 5.63a57.98 57.98 0 0 1 9.04 14.88" stroke="#D675FF" stroke-width="3" stroke-linecap="round"/><path d="M387.91 1480.67h-2.58a6.1 6.1 0 0 1-6.06-6.05v-8.48a6.1 6.1 0 0 1 6.06-6.05h2.58a6.1 6.1 0 0 1 6.06 6.05v8.48a6.05 6.05 0 0 1-6.06 6.05zM359.33 1432.89s-2.75-12.92 4.03-21.15c0 0-5.97-8.96 2.26-17.92 0 0 .9 6.62 16.56 4.77 15.66-1.86 35.12 9.6 31 34.22l-53.85.08z" fill="#FFF" fill-rule="nonzero" stroke="#4D8BFC" stroke-width="3"/><ellipse cx="8.8" cy="8.31" rx="7.51" ry="7.51" transform="translate(352.3 1431.11)" fill="#FFF" fill-rule="nonzero" stroke="#4D8BFC" stroke-width="3"/><ellipse cx="8.8" cy="8.31" rx="7.51" ry="7.51" transform="translate(402.37 1431.11)" fill="#FFF" fill-rule="nonzero" stroke="#4D8BFC" stroke-width="3"/><path d="M402.6 1418.36c-8.31-2.74-24.62 5.57-33.83-1.94a25.3 25.3 0 0 0-7.67 18.08v9.37a25.36 25.36 0 0 0 25.28 25.26 25.36 25.36 0 0 0 25.27-25.26v-9.45c0-4.68-1.3-9.12-3.63-12.91a14.49 14.49 0 0 0-5.41-3.15z" fill="#FFF" fill-rule="nonzero" stroke="#4D8BFC" stroke-width="3"/></g><g fill="#FFF" fill-rule="nonzero" stroke-width="3"><path d="M1155 1299c-26.95 0-49-22.05-49-49s22.05-49 49-49 49 22.05 49 49-22.05 49-49 49z" stroke="#4D8BFC"/><path d="M1115.35 1260.23a40.42 40.42 0 0 1-1.35-10.38m13.32-30.06a40.91 40.91 0 0 1 48.48-5.1m6.57 4.8a41.4 41.4 0 0 1 6.68 7.67m6.95 22.7c0 6.1-1.37 11.92-3.81 17.14" stroke="#D675FF" stroke-linecap="round"/><g stroke="#4D8BFC"><path d="M1163.68 1277.1h-14.72c-10.63 0-18.8-9.25-17.66-19.99l1.3-11.73a23.98 23.98 0 0 1 23.72-21.47c12.1 0 22.4 9.25 23.7 21.47l1.32 11.73c1.14 10.74-7.03 20-17.66 20z"/><path d="M1128.05 1290.62a29.37 29.37 0 0 1 55.21-.22 48.51 48.51 0 0 1-55.21.22z"/><path d="M1155.83 1280.41a5.3 5.3 0 0 1-5.24-5.29v-4.3a5.3 5.3 0 0 1 5.24-5.28 5.3 5.3 0 0 1 5.23 5.29v4.3a5.3 5.3 0 0 1-5.23 5.28z"/><ellipse cx="5.61" cy="5.83" rx="5.4" ry="5.45" transform="translate(1167.88 1244.34)"/><path d="M1163.68 1234.15c-3.44.66-.66 13.05-5.24 14.7-4.74 1.82-12.26-1.15-13.4 2.98-1.15 4.13-1.8 14.2 4.74 14.7 0 0-3.27 1.16-6.7 1a18.43 18.43 0 0 0 13.24 5.61c10.3 0 18.64-8.43 18.64-18.83v-7.1c0-3.48-.98-6.78-2.62-9.6-2.94-1.97-6.7-3.8-8.66-3.46z"/></g></g><g fill="#FFF" fill-rule="nonzero" stroke-width="3"><path d="M1058.5 1509a33.6 33.6 0 0 1-33.5-33.5 33.6 33.6 0 0 1 33.5-33.5 33.6 33.6 0 0 1 33.5 33.5 33.6 33.6 0 0 1-33.5 33.5z" stroke="#4D8BFC"/><path d="M1030.92 1481.45c-.6-2.23-.92-4.57-.92-6.98m9.1-20.22c4.98-4.5 11.63-7.25 18.9-7.25 5.17 0 10.03 1.4 14.2 3.82m4.49 3.24a27.97 27.97 0 0 1 4.56 5.15m4.75 15.26c0 4.11-.93 8.02-2.6 11.53" stroke="#D675FF" stroke-linecap="round"/><g stroke="#4D8BFC"><path d="M1064.3 1493.76h-10.16a12.21 12.21 0 0 1-12.18-13.58l.9-7.97c.9-8.3 8.01-14.6 16.36-14.6 8.34 0 15.45 6.3 16.35 14.6l.9 7.97a12.21 12.21 0 0 1-12.18 13.58z"/><path d="M1039.72 1502.94a20.24 20.24 0 0 1 19.05-13.22c8.74 0 16.17 5.44 19.03 13.08a33.8 33.8 0 0 1-19.14 5.92c-7 0-13.53-2.13-18.94-5.78z"/><path d="M1058.88 1496a3.63 3.63 0 0 1-3.6-3.58v-2.92c0-2.02 1.68-3.6 3.6-3.6 2.03 0 3.61 1.69 3.61 3.6v2.92c0 1.9-1.58 3.59-3.6 3.59z"/><ellipse cx="3.87" cy="3.96" rx="3.72" ry="3.7" transform="translate(1067.2 1471.5)"/><path d="M1064.3 1464.58c-2.37.45-.46 8.86-3.61 9.99-3.28 1.23-8.46-.79-9.25 2.02-.8 2.8-1.24 9.65 3.27 9.99 0 0-2.26.79-4.63.67a12.8 12.8 0 0 0 9.14 3.82c7.1 0 12.86-5.73 12.86-12.8v-4.83c0-2.35-.68-4.6-1.8-6.5-2.04-1.35-4.63-2.59-5.99-2.36z"/></g></g><g fill="#FFF" fill-rule="nonzero"><g transform="translate(86 1179)" stroke-width="3"><ellipse stroke="#4D8BFC" cx="29.5" cy="29.76" rx="29.34" ry="29.59"/><path d="M49.74 40.68a23.43 23.43 0 0 0 2.94-11.4m-4.78-14.2A23.07 23.07 0 0 0 29.5 5.9 23.22 23.22 0 0 0 7.14 23.1m-.82 6.19c0 4.28 1.15 8.3 3.15 11.76" stroke="#D675FF" stroke-linecap="round"/><g stroke="#4D8BFC"><path d="M12.96 54.2a18 18 0 0 1 16.76-11.55 18 18 0 0 1 16.66 11.31 29.03 29.03 0 0 1-16.88 5.39c-6.13 0-11.83-1.9-16.54-5.15z"/><path d="M29.66 48.33a3.3 3.3 0 0 1-3.27-3.31v-2.59a3.3 3.3 0 0 1 3.27-3.3 3.3 3.3 0 0 1 3.28 3.3v2.64a3.29 3.29 0 0 1-3.28 3.26zM16.6 28.65s-.7-5.78 1.81-10.08 5.35-5.79 7.54-5.79c2.18 0 10.87.67 12.5 0 1.81-.71 5.04 9.04 3.56 14.77l-25.4 1.1z"/><ellipse cx="3.61" cy="3.42" rx="3.33" ry="3.36" transform="translate(14.75 26.45)"/><ellipse cx="3.39" cy="3.42" rx="3.33" ry="3.36" transform="translate(37.15 26.45)"/><path d="M36.16 18.68c-1.3-.11-3.44 2.81-6.66 3.14-3.22-.38-5.35-3.25-6.66-3.14a11.23 11.23 0 0 0-4.43 8.93v4.35c0 6.17 4.97 11.19 11.09 11.19s11.09-5.02 11.09-11.19v-4.35c0-3.64-1.75-6.9-4.43-8.93z"/></g></g><path d="M125 1216l1 .6"/></g><g fill="#FFF" fill-rule="nonzero"><g transform="translate(82 1563)" stroke-width="3"><ellipse stroke="#4D8BFC" cx="32.5" cy="32.68" rx="32.32" ry="32.5"/><path d="M54.8 44.68a25.67 25.67 0 0 0 3.23-12.51m-5.26-15.61A25.44 25.44 0 0 0 32.5 6.49c-11.76 0-21.67 8-24.63 18.88m-.9 6.8c0 4.7 1.26 9.12 3.46 12.92" stroke="#D675FF" stroke-linecap="round"/><g stroke="#4D8BFC"><path d="M14.28 59.53a19.83 19.83 0 0 1 18.46-12.68c8.29 0 15.41 5.13 18.36 12.42a32.05 32.05 0 0 1-18.6 5.91 32.04 32.04 0 0 1-18.22-5.65z"/><path d="M32.68 53.08a3.63 3.63 0 0 1-3.61-3.63V46.6c0-2 1.62-3.63 3.61-3.63a3.63 3.63 0 0 1 3.61 3.63v2.9a3.62 3.62 0 0 1-3.6 3.58zM18.3 31.47s-.79-6.35 1.98-11.07c2.77-4.72 5.9-6.36 8.3-6.36 2.42 0 11.98.73 13.79 0 1.99-.79 5.54 9.93 3.91 16.22L18.3 31.47z"/><ellipse cx="3.97" cy="3.75" rx="3.67" ry="3.69" transform="translate(16.25 29.05)"/><ellipse cx="3.73" cy="3.75" rx="3.67" ry="3.69" transform="translate(40.93 29.05)"/><path d="M39.84 20.52c-1.44-.12-3.79 3.08-7.34 3.45-3.55-.43-5.9-3.57-7.34-3.45a12.32 12.32 0 0 0-4.88 9.8v4.78c0 6.78 5.48 12.29 12.22 12.29s12.22-5.5 12.22-12.29v-4.78c0-4-1.93-7.56-4.88-9.8z"/></g></g><path d="M125 1603l1 .6"/></g><g fill="#FFF" fill-rule="nonzero"><g transform="translate(1280 798)" stroke-width="3"><ellipse stroke="#4D8BFC" cx="35" cy="35.12" rx="34.81" ry="34.93"/><path d="M59.02 48.01a27.54 27.54 0 0 0 3.48-13.44m-5.67-16.78A27.42 27.42 0 0 0 35 6.97a27.53 27.53 0 0 0-26.52 20.3m-.98 7.3c0 5.06 1.36 9.8 3.73 13.88" stroke="#D675FF" stroke-linecap="round"/><g stroke="#4D8BFC"><path d="M15.38 63.97a21.35 21.35 0 0 1 19.88-13.63c8.92 0 16.6 5.52 19.77 13.35A34.56 34.56 0 0 1 35 70.05a34.56 34.56 0 0 1-19.62-6.08z"/><path d="M35.2 57.04a3.9 3.9 0 0 1-3.9-3.9v-3.06a3.9 3.9 0 0 1 3.9-3.9 3.9 3.9 0 0 1 3.88 3.9v3.12a3.9 3.9 0 0 1-3.89 3.84zM19.7 33.82s-.84-6.83 2.14-11.9 6.35-6.83 8.95-6.83c2.59 0 12.9.78 14.84 0 2.14-.85 5.96 10.67 4.21 17.43l-30.14 1.3z"/><ellipse cx="4.28" cy="4.03" rx="3.95" ry="3.97" transform="translate(17.5 31.22)"/><ellipse cx="4.02" cy="4.03" rx="3.95" ry="3.97" transform="translate(44.07 31.22)"/><path d="M42.9 22.05c-1.55-.13-4.08 3.32-7.9 3.7-3.82-.45-6.35-3.83-7.9-3.7a13.23 13.23 0 0 0-5.26 10.54v5.13c0 7.29 5.9 13.2 13.16 13.2s13.16-5.91 13.16-13.2V32.6c0-4.3-2.08-8.13-5.25-10.54z"/></g></g><path d="M1327 841l1 .6"/></g><g fill="#FFF" fill-rule="nonzero"><g transform="translate(1303 1592)" stroke-width="3"><ellipse stroke="#4D8BFC" cx="32.5" cy="32.68" rx="32.32" ry="32.5"/><path d="M54.8 44.68a25.67 25.67 0 0 0 3.23-12.51m-5.26-15.61A25.44 25.44 0 0 0 32.5 6.49c-11.76 0-21.67 8-24.63 18.88m-.9 6.8c0 4.7 1.26 9.12 3.46 12.92" stroke="#D675FF" stroke-linecap="round"/><g stroke="#4D8BFC"><path d="M14.28 59.53a19.83 19.83 0 0 1 18.46-12.68c8.29 0 15.41 5.13 18.36 12.42a32.05 32.05 0 0 1-18.6 5.91 32.04 32.04 0 0 1-18.22-5.65z"/><path d="M32.68 53.08a3.63 3.63 0 0 1-3.61-3.63V46.6c0-2 1.62-3.63 3.61-3.63a3.63 3.63 0 0 1 3.61 3.63v2.9a3.62 3.62 0 0 1-3.6 3.58zM18.3 31.47s-.79-6.35 1.98-11.07c2.77-4.72 5.9-6.36 8.3-6.36 2.42 0 11.98.73 13.79 0 1.99-.79 5.54 9.93 3.91 16.22L18.3 31.47z"/><ellipse cx="3.97" cy="3.75" rx="3.67" ry="3.69" transform="translate(16.25 29.05)"/><ellipse cx="3.73" cy="3.75" rx="3.67" ry="3.69" transform="translate(40.93 29.05)"/><path d="M39.84 20.52c-1.44-.12-3.79 3.08-7.34 3.45-3.55-.43-5.9-3.57-7.34-3.45a12.32 12.32 0 0 0-4.88 9.8v4.78c0 6.78 5.48 12.29 12.22 12.29s12.22-5.5 12.22-12.29v-4.78c0-4-1.93-7.56-4.88-9.8z"/></g></g><path d="M1346 1632l1 .6"/></g><g fill="#FFF" fill-rule="nonzero" stroke-width="3"><path d="M119.5 1428a32.6 32.6 0 0 1-32.5-32.5 32.6 32.6 0 0 1 32.5-32.5 32.6 32.6 0 0 1 32.5 32.5 32.6 32.6 0 0 1-32.5 32.5z" stroke="#4D8BFC"/><path d="M92.89 1401.56a26.36 26.36 0 0 1-.89-6.8m8.77-19.7a27.02 27.02 0 0 1 31.93-3.34m4.32 3.16a27.17 27.17 0 0 1 4.4 5.02m4.58 14.87c0 4-.9 7.8-2.5 11.23" stroke="#D675FF" stroke-linecap="round"/><g stroke="#4D8BFC"><path d="M125.03 1413.38h-9.64a11.7 11.7 0 0 1-11.57-13.07l.85-7.67c.86-8 7.61-14.05 15.54-14.05a15.7 15.7 0 0 1 15.53 14.05l.86 7.67a11.7 11.7 0 0 1-11.57 13.07z"/><path d="M101.69 1422.21a19.24 19.24 0 0 1 36.17-.14 31.83 31.83 0 0 1-36.17.14z"/><path d="M119.89 1415.54a3.47 3.47 0 0 1-3.43-3.46v-2.8c0-1.95 1.6-3.46 3.43-3.46a3.47 3.47 0 0 1 3.43 3.45v2.81c0 1.84-1.5 3.46-3.43 3.46z"/><ellipse cx="3.67" cy="3.81" rx="3.54" ry="3.56" transform="translate(127.78 1391.95)"/><path d="M125.03 1385.29c-2.25.43-.43 8.53-3.43 9.61-3.1 1.2-8.03-.75-8.78 1.95s-1.18 9.29 3.1 9.61c0 0-2.14.76-4.39.65a12.09 12.09 0 0 0 8.68 3.67c6.75 0 12.21-5.5 12.21-12.31v-4.65c0-2.26-.64-4.42-1.71-6.26-1.93-1.3-4.4-2.49-5.68-2.27z"/></g></g><g><path d="M1331.5 517a51.58 51.58 0 0 1-51.5-51.5 51.58 51.58 0 0 1 51.5-51.5 51.58 51.58 0 0 1 51.5 51.5 51.58 51.58 0 0 1-51.5 51.5z" stroke="#4D8BFC" stroke-width="3" fill="#FFF" fill-rule="nonzero"/><path d="M1359.81 431a44.8 44.8 0 0 1 8.85 9.8m4.36 8.43a44.02 44.02 0 0 1-7.05 43.93m-68.24.84a44.04 44.04 0 0 1-10.73-28.83" stroke="#D675FF" stroke-width="3" fill="#FFF" fill-rule="nonzero" stroke-linecap="round"/><path d="M1343.6 498.3h-22.53c-6.24 0-11.32-5-11.32-11.13v-26.23c0-12.27 10.17-22.26 22.64-22.26 12.48 0 22.65 10 22.65 22.26v26.23a11.42 11.42 0 0 1-11.44 11.13z" fill="#FFF" fill-rule="nonzero" stroke="#4D8BFC" stroke-width="3"/><use stroke="#4D8BFC" stroke-width="3" fill="#FFF" fill-rule="nonzero" xlink:href="#h" transform="translate(1303.33 488.64)"/><path d="M1332.4 498.64a5.62 5.62 0 0 1-5.67-5.56v-4.43a5.62 5.62 0 0 1 5.66-5.57c3.12 0 5.66 2.5 5.66 5.57v4.43a5.78 5.78 0 0 1-5.66 5.56z" fill="#FFF" fill-rule="nonzero" stroke="#4D8BFC" stroke-width="3"/><ellipse cx="6.47" cy="6.14" rx="5.78" ry="5.68" transform="translate(1344.75 461.38)" fill="#FFF" fill-rule="nonzero" stroke="#4D8BFC" stroke-width="3"/><path d="M1341.98 450.83s-15.02 18.51-29 21.46a19.44 19.44 0 0 0 19.41 17.5c10.75 0 19.53-8.64 19.53-19.2v-6.13c0-2.39-.47-4.55-1.27-6.7-2.55-1.7-8.2-5.9-8.67-6.93z" fill="#FFF" fill-rule="nonzero" stroke="#4D8BFC" stroke-width="3"/></g><g fill="#FFF" fill-rule="nonzero"><g transform="translate(515 646)" stroke-width="3"><ellipse stroke="#4D8BFC" cx="39" cy="39.02" rx="38.78" ry="38.81"/><path d="M65.76 53.35a30.54 30.54 0 0 0 3.88-14.94m-6.31-18.64A30.66 30.66 0 0 0 9.45 30.29m-1.09 8.12c0 5.62 1.51 10.9 4.15 15.42" stroke="#D675FF" stroke-linecap="round"/><g stroke="#4D8BFC"><path d="M17.14 71.08a23.8 23.8 0 0 1 22.15-15.15 23.8 23.8 0 0 1 22.03 14.84A38.59 38.59 0 0 1 39 77.83c-8.11 0-15.64-2.49-21.86-6.75z"/><path d="M39.22 63.38a4.35 4.35 0 0 1-4.34-4.34v-3.4a4.35 4.35 0 0 1 4.34-4.33 4.35 4.35 0 0 1 4.33 4.34v3.46a4.33 4.33 0 0 1-4.33 4.27zM21.96 37.58s-.94-7.59 2.38-13.23c3.32-5.63 7.08-7.58 9.97-7.58 2.88 0 14.37.86 16.53 0 2.39-.94 6.65 11.85 4.7 19.36l-33.58 1.45z"/><ellipse cx="4.77" cy="4.48" rx="4.41" ry="4.41" transform="translate(19.5 34.69)"/><ellipse cx="4.48" cy="4.48" rx="4.41" ry="4.41" transform="translate(49.11 34.69)"/><path d="M47.81 24.5c-1.73-.15-4.55 3.68-8.81 4.12-4.26-.5-7.08-4.27-8.81-4.12a14.68 14.68 0 0 0-5.85 11.7v5.71c0 8.1 6.57 14.67 14.66 14.67s14.66-6.57 14.66-14.67v-5.7c0-4.77-2.31-9.04-5.85-11.71z"/></g></g><path d="M567 694l1 .6"/></g><g fill="#FFF" fill-rule="nonzero"><g transform="translate(1057 193)" stroke-width="3"><ellipse stroke="#4D8BFC" cx="30" cy="30.24" rx="29.83" ry="30.08"/><path d="M50.59 41.35a23.8 23.8 0 0 0 2.98-11.58M48.7 15.32A23.47 23.47 0 0 0 30 6.01C19.14 6 10 13.4 7.27 23.48m-.84 6.29a23.8 23.8 0 0 0 3.2 11.95" stroke="#D675FF" stroke-linecap="round"/><g stroke="#4D8BFC"><path d="M13.18 55.09a18.3 18.3 0 0 1 17.04-11.74 18.3 18.3 0 0 1 16.95 11.5A29.53 29.53 0 0 1 30 60.31a29.53 29.53 0 0 1-16.82-5.23z"/><path d="M30.17 49.12a3.36 3.36 0 0 1-3.34-3.36v-2.63c0-1.85 1.5-3.37 3.34-3.37a3.36 3.36 0 0 1 3.33 3.37v2.68c0 1.8-1.5 3.3-3.33 3.3zM16.89 29.12s-.72-5.88 1.83-10.25C21.28 14.51 24.17 13 26.4 13c2.22 0 11.05.68 12.72 0 1.83-.72 5.11 9.19 3.61 15.01L16.9 29.12z"/><ellipse cx="3.67" cy="3.47" rx="3.39" ry="3.42" transform="translate(15 26.88)"/><ellipse cx="3.44" cy="3.47" rx="3.39" ry="3.42" transform="translate(37.78 26.88)"/><path d="M36.78 18.99c-1.34-.12-3.5 2.85-6.78 3.19-3.28-.4-5.44-3.3-6.78-3.2a11.4 11.4 0 0 0-4.5 9.08v4.42c0 6.28 5.06 11.37 11.28 11.37s11.28-5.1 11.28-11.37v-4.42c0-3.7-1.78-7-4.5-9.07z"/></g></g><path d="M1097 230l1 .6"/></g><g><path d="M182 501c-31.41 0-57-25.59-57-57s25.59-57 57-57 57 25.59 57 57-25.59 57-57 57z" stroke="#4D8BFC" stroke-width="3" fill="#FFF" fill-rule="nonzero"/><path d="M213.18 406.23a49.45 49.45 0 0 1 9.73 10.84m4.81 9.31A48.71 48.71 0 0 1 231 444c0 11.72-4.14 22.5-11.04 30.94m-75.15.92A48.78 48.78 0 0 1 133 444" stroke="#D675FF" stroke-width="3" fill="#FFF" fill-rule="nonzero" stroke-linecap="round"/><path d="M194.73 480.08H169.9a12.45 12.45 0 0 1-12.47-12.38v-29.18a24.9 24.9 0 0 1 24.94-24.77 24.9 24.9 0 0 1 24.95 24.77v29.18a12.64 12.64 0 0 1-12.6 12.38z" fill="#FFF" fill-rule="nonzero" stroke="#4D8BFC" stroke-width="3"/><use stroke="#4D8BFC" stroke-width="3" fill="#FFF" fill-rule="nonzero" xlink:href="#i" transform="translate(150.36 469.33)"/><path d="M182.38 480.46a6.22 6.22 0 0 1-6.23-6.19v-4.93a6.22 6.22 0 1 1 12.47 0v4.93a6.4 6.4 0 0 1-6.24 6.2z" fill="#FFF" fill-rule="nonzero" stroke="#4D8BFC" stroke-width="3"/><ellipse cx="7.13" cy="6.83" rx="6.36" ry="6.32" transform="translate(196 439.01)" fill="#FFF" fill-rule="nonzero" stroke="#4D8BFC" stroke-width="3"/><path d="M192.95 427.27s-16.55 20.6-31.95 23.88a21.5 21.5 0 0 0 42.9-1.9v-6.82c0-2.65-.52-5.05-1.4-7.45-2.8-1.9-9.05-6.57-9.55-7.7z" fill="#FFF" fill-rule="nonzero" stroke="#4D8BFC" stroke-width="3"/></g><g><g transform="translate(1263 51)"><mask id="k" fill="#fff"><use xlink:href="#j"/></mask><g fill-rule="nonzero"><use fill="#FFF" fill-rule="evenodd" xlink:href="#j"/><ellipse stroke="#4D8BFC" stroke-width="3" cx="65.29" cy="65.26" rx="66.79" ry="66.76"/></g><path d="M106.24 134.88H25.15a.73.73 0 0 1-.56-.24.73.73 0 0 1-.25-.57c.25-22.48 18.79-40.85 41.36-40.85 22.49 0 41.1 18.3 41.35 40.85 0 .25-.08.4-.24.57a.73.73 0 0 1-.57.24z" stroke="#4D8BFC" stroke-width="3" fill="#FFF" mask="url(#k)"/></g><path d="M1385 115.77a57.7 57.7 0 0 1-19.38 43.23m-82.15-6.1a57.88 57.88 0 0 1-10.8-19.7m-2.67-17.43A57.8 57.8 0 0 1 1288.87 73m82.65 5.63a57.98 57.98 0 0 1 9.04 14.88" stroke="#D675FF" stroke-width="3" stroke-linecap="round"/><path d="M1329.91 157.67h-2.58a6.1 6.1 0 0 1-6.06-6.05v-8.48a6.1 6.1 0 0 1 6.06-6.05h2.58a6.1 6.1 0 0 1 6.06 6.05v8.48a6.05 6.05 0 0 1-6.06 6.05zM1301.33 109.89s-2.75-12.92 4.03-21.15c0 0-5.97-8.96 2.26-17.92 0 0 .9 6.62 16.56 4.77 15.66-1.86 35.12 9.6 31 34.22l-53.85.08z" fill="#FFF" fill-rule="nonzero" stroke="#4D8BFC" stroke-width="3"/><ellipse cx="8.8" cy="8.31" rx="7.51" ry="7.51" transform="translate(1294.3 108.11)" fill="#FFF" fill-rule="nonzero" stroke="#4D8BFC" stroke-width="3"/><ellipse cx="8.8" cy="8.31" rx="7.51" ry="7.51" transform="translate(1344.37 108.11)" fill="#FFF" fill-rule="nonzero" stroke="#4D8BFC" stroke-width="3"/><path d="M1344.6 95.36c-8.31-2.74-24.62 5.57-33.83-1.94a25.3 25.3 0 0 0-7.67 18.08v9.37a25.36 25.36 0 0 0 25.28 25.26 25.36 25.36 0 0 0 25.27-25.26v-9.45c0-4.68-1.3-9.12-3.63-12.91a14.49 14.49 0 0 0-5.41-3.15z" fill="#FFF" fill-rule="nonzero" stroke="#4D8BFC" stroke-width="3"/></g><g transform="translate(311 561)"><mask id="n" fill="#fff"><use xlink:href="#l"/></mask><use stroke="#E7F8FF" stroke-width="5" fill="url(#m)" xlink:href="#l"/><g mask="url(#n)" fill-rule="nonzero"><path d="M91.19 103.43l-6.46-30.04c-.84-3.76-3.6-6.8-7.26-8.01l-20.98-9.44-11.25.48-11.61-.2-20.83 9.93c-3.63 1.3-6.3 4.4-7.05 8.18L0 103.43h91.19z" fill="url(#o)" transform="translate(8 14.4)"/><path d="M45.8.6h11.86a4.26 4.26 0 0 1 4.25 4.03l.36 18.54-16.47 12.3-16.48-12.3.36-18.54A4.26 4.26 0 0 1 33.93.6H45.8z" fill="url(#p)" transform="translate(8 14.4)"/><path d="M66.1 71.82c0 1.23-2.13 3.15-5.38 4.47-2.31.93-4.78 1.41-7.26 1.42-7 0-12.66-3.9-12.66-5.9l1.42-15.6H64.7l1.41 15.61z" fill="#804A2A"/><path d="M66.1 71.82c0 1.23-2.13 3.15-5.38 4.47l-4.65-5.17-.15-1.97-2.88-1.4-7.5-8.33v-3.23h19.14l1.42 15.63z" fill="#502F23"/><path d="M74.3 38.48c0-2.9-2.41-1.95-4.23-.8l-2.05.08-2.25-4.48.7-8.4H41.09l.71 8.4-2.22 4.5-2.05-.09c-1.83-1.16-4.24-2.12-4.24.8 0 4.42 1.06 9.58 4.92 10.2 2.22 7.22 8.36 13.7 15.6 13.7 7.23 0 13.36-6.44 15.58-13.7 3.87-.64 4.93-5.8 4.93-10.2z" fill="#804A2A"/></g></g><g fill="#FFF" fill-rule="nonzero"><g transform="translate(312 562)" stroke-width="3"><circle stroke="#4D8BFC" cx="54" cy="54" r="53.7"/><path d="M94.05 76.34A45.64 45.64 0 0 0 99.85 54M90.4 26.12A45.87 45.87 0 0 0 9.77 41.86M8.15 54c0 8.41 2.26 16.29 6.22 23.07" stroke="#D675FF" stroke-linecap="round"/><g stroke="#4D8BFC"><path d="M23.73 98.36A32.94 32.94 0 0 1 54.4 77.4c13.77 0 25.6 8.48 30.5 20.53A53.45 53.45 0 0 1 54 107.7a53.45 53.45 0 0 1-30.27-9.34z"/><path d="M54.3 87.7c-3.3 0-6-2.7-6-6V77c0-3.3 2.7-6 6-6s6 2.7 6 6v4.8a6 6 0 0 1-6 5.9zM30.4 52s-1.3-10.5 3.3-18.3c4.6-7.8 9.8-10.5 13.8-10.5s19.9 1.2 22.9 0c3.3-1.3 9.2 16.4 6.5 26.8l-46.5 2z"/><circle cx="6.6" cy="6.2" r="6.1" transform="translate(27 48)"/><circle cx="6.2" cy="6.2" r="6.1" transform="translate(68 48)"/><path d="M66.2 33.9c-2.4-.2-6.3 5.1-12.2 5.7-5.9-.7-9.8-5.9-12.2-5.7-4.9 3.7-8.1 9.6-8.1 16.2V58c0 11.2 9.1 20.3 20.3 20.3 11.2 0 20.3-9.1 20.3-20.3v-7.9c0-6.6-3.2-12.5-8.1-16.2z"/></g></g><path d="M384.2 627.3l1.2.6"/></g><g><path d="M750.5 732a52.58 52.58 0 0 1-52.5-52.5 52.58 52.58 0 0 1 52.5-52.5 52.58 52.58 0 0 1 52.5 52.5 52.58 52.58 0 0 1-52.5 52.5z" stroke="#4D8BFC" stroke-width="3" fill="#FFF" fill-rule="nonzero"/><path d="M778.63 645a45.43 45.43 0 0 1 8.94 9.96m4.42 8.56a44.8 44.8 0 0 1 3.01 16.2c0 10.77-3.8 20.67-10.14 28.43m-69.01.85A44.86 44.86 0 0 1 705 679.71" stroke="#D675FF" stroke-width="3" fill="#FFF" fill-rule="nonzero" stroke-linecap="round"/><path d="M762.29 712.8h-22.91a11.48 11.48 0 0 1-11.52-11.4v-26.9c0-12.56 10.34-22.8 23.03-22.8 12.69 0 23.03 10.24 23.03 22.8v26.9a11.66 11.66 0 0 1-11.63 11.4z" fill="#FFF" fill-rule="nonzero" stroke="#4D8BFC" stroke-width="3"/><use stroke="#4D8BFC" stroke-width="3" fill="#FFF" fill-rule="nonzero" xlink:href="#q" transform="translate(721.34 702.9)"/><path d="M750.9 713.16a5.74 5.74 0 0 1-5.77-5.7v-4.55c0-3.14 2.59-5.7 5.76-5.7a5.74 5.74 0 0 1 5.76 5.7v4.54a5.9 5.9 0 0 1-5.76 5.7z" fill="#FFF" fill-rule="nonzero" stroke="#4D8BFC" stroke-width="3"/><ellipse cx="6.58" cy="6.3" rx="5.87" ry="5.82" transform="translate(763.46 674.97)" fill="#FFF" fill-rule="nonzero" stroke="#4D8BFC" stroke-width="3"/><path d="M760.64 664.15s-15.27 18.97-29.49 22a19.83 19.83 0 0 0 19.74 17.93 19.81 19.81 0 0 0 19.86-19.68v-6.28c0-2.45-.47-4.66-1.3-6.87-2.58-1.75-8.34-6.05-8.8-7.1z" fill="#FFF" fill-rule="nonzero" stroke="#4D8BFC" stroke-width="3"/></g><g fill="#FFF" fill-rule="nonzero" stroke-width="3"><path d="M915 605c-26.95 0-49-22.05-49-49s22.05-49 49-49 49 22.05 49 49-22.05 49-49 49z" stroke="#4D8BFC"/><path d="M875.35 566.23a40.42 40.42 0 0 1-1.35-10.38m13.32-30.06a40.91 40.91 0 0 1 48.48-5.1m6.57 4.8a41.4 41.4 0 0 1 6.68 7.67m6.95 22.7c0 6.1-1.37 11.92-3.81 17.14" stroke="#D675FF" stroke-linecap="round"/><g stroke="#4D8BFC"><path d="M923.68 583.1h-14.72c-10.63 0-18.8-9.25-17.66-19.99l1.3-11.73a23.98 23.98 0 0 1 23.72-21.47c12.1 0 22.4 9.25 23.7 21.47l1.32 11.73c1.14 10.74-7.03 20-17.66 20z"/><path d="M888.05 596.62a29.37 29.37 0 0 1 55.21-.22 48.51 48.51 0 0 1-55.21.22z"/><path d="M915.83 586.41a5.3 5.3 0 0 1-5.24-5.29v-4.3a5.3 5.3 0 0 1 5.24-5.28 5.3 5.3 0 0 1 5.23 5.29v4.3a5.3 5.3 0 0 1-5.23 5.28z"/><ellipse cx="5.61" cy="5.83" rx="5.4" ry="5.45" transform="translate(927.88 550.34)"/><path d="M923.68 540.15c-3.44.66-.66 13.05-5.24 14.7-4.74 1.82-12.26-1.15-13.4 2.98-1.15 4.13-1.8 14.2 4.74 14.7 0 0-3.27 1.16-6.7 1a18.43 18.43 0 0 0 13.24 5.61c10.3 0 18.64-8.43 18.64-18.83v-7.1c0-3.48-.98-6.78-2.62-9.6-2.94-1.97-6.7-3.8-8.66-3.46z"/></g></g><g fill="#FFF" fill-rule="nonzero"><g transform="translate(1169 253)" stroke-width="3"><circle stroke="#4D8BFC" cx="54" cy="54" r="53.7"/><path d="M94.05 76.34A45.64 45.64 0 0 0 99.85 54M90.4 26.12A45.87 45.87 0 0 0 9.77 41.86M8.15 54c0 8.41 2.26 16.29 6.22 23.07" stroke="#D675FF" stroke-linecap="round"/><g stroke="#4D8BFC"><path d="M23.73 98.36A32.94 32.94 0 0 1 54.4 77.4c13.77 0 25.6 8.48 30.5 20.53A53.45 53.45 0 0 1 54 107.7a53.45 53.45 0 0 1-30.27-9.34z"/><path d="M54.3 87.7c-3.3 0-6-2.7-6-6V77c0-3.3 2.7-6 6-6s6 2.7 6 6v4.8a6 6 0 0 1-6 5.9zM30.4 52s-1.3-10.5 3.3-18.3c4.6-7.8 9.8-10.5 13.8-10.5s19.9 1.2 22.9 0c3.3-1.3 9.2 16.4 6.5 26.8l-46.5 2z"/><circle cx="6.6" cy="6.2" r="6.1" transform="translate(27 48)"/><circle cx="6.2" cy="6.2" r="6.1" transform="translate(68 48)"/><path d="M66.2 33.9c-2.4-.2-6.3 5.1-12.2 5.7-5.9-.7-9.8-5.9-12.2-5.7-4.9 3.7-8.1 9.6-8.1 16.2V58c0 11.2 9.1 20.3 20.3 20.3 11.2 0 20.3-9.1 20.3-20.3v-7.9c0-6.6-3.2-12.5-8.1-16.2z"/></g></g><path d="M1241.2 318.3l1.2.6"/></g><g fill="#FFF" fill-rule="nonzero"><g transform="translate(1212 587)" stroke-width="3"><ellipse stroke="#4D8BFC" cx="39" cy="39.02" rx="38.78" ry="38.81"/><path d="M65.76 53.35a30.54 30.54 0 0 0 3.88-14.94m-6.31-18.64A30.66 30.66 0 0 0 9.45 30.29m-1.09 8.12c0 5.62 1.51 10.9 4.15 15.42" stroke="#D675FF" stroke-linecap="round"/><g stroke="#4D8BFC"><path d="M17.14 71.08a23.8 23.8 0 0 1 22.15-15.15 23.8 23.8 0 0 1 22.03 14.84A38.59 38.59 0 0 1 39 77.83c-8.11 0-15.64-2.49-21.86-6.75z"/><path d="M39.22 63.38a4.35 4.35 0 0 1-4.34-4.34v-3.4a4.35 4.35 0 0 1 4.34-4.33 4.35 4.35 0 0 1 4.33 4.34v3.46a4.33 4.33 0 0 1-4.33 4.27zM21.96 37.58s-.94-7.59 2.38-13.23c3.32-5.63 7.08-7.58 9.97-7.58 2.88 0 14.37.86 16.53 0 2.39-.94 6.65 11.85 4.7 19.36l-33.58 1.45z"/><ellipse cx="4.77" cy="4.48" rx="4.41" ry="4.41" transform="translate(19.5 34.69)"/><ellipse cx="4.48" cy="4.48" rx="4.41" ry="4.41" transform="translate(49.11 34.69)"/><path d="M47.81 24.5c-1.73-.15-4.55 3.68-8.81 4.12-4.26-.5-7.08-4.27-8.81-4.12a14.68 14.68 0 0 0-5.85 11.7v5.71c0 8.1 6.57 14.67 14.66 14.67s14.66-6.57 14.66-14.67v-5.7c0-4.77-2.31-9.04-5.85-11.71z"/></g></g><path d="M1264 635l1 .6"/></g><g fill="#FFF" fill-rule="nonzero" stroke-width="3"><path d="M78.5 667C49.62 667 26 643.37 26 614.5c0-28.88 23.63-52.5 52.5-52.5 28.88 0 52.5 23.63 52.5 52.5 0 28.88-23.63 52.5-52.5 52.5z" stroke="#4D8BFC"/><path d="M36.45 626.17A43.69 43.69 0 0 1 35 615m14.3-32.38a43.82 43.82 0 0 1 52.02-5.5m7.05 5.19a44.54 44.54 0 0 1 7.17 8.25M123 615a43.6 43.6 0 0 1-4.09 18.47" stroke="#D675FF" stroke-linecap="round"/><g stroke="#4D8BFC"><path d="M87.25 643.57H71.5a19.06 19.06 0 0 1-18.9-21.27l1.4-12.48a25.6 25.6 0 0 1 25.38-22.86 25.6 25.6 0 0 1 25.37 22.86l1.4 12.48a19.06 19.06 0 0 1-18.9 21.27z"/><path d="M49.12 657.95a31.42 31.42 0 0 1 29.56-20.7 31.47 31.47 0 0 1 29.53 20.47A52.12 52.12 0 0 1 78.5 667a52.12 52.12 0 0 1-29.38-9.05z"/><path d="M78.85 647.09a5.65 5.65 0 0 1-5.6-5.63v-4.57a5.65 5.65 0 0 1 5.6-5.62c3.15 0 5.6 2.63 5.6 5.62v4.57a5.65 5.65 0 0 1-5.6 5.63z"/><ellipse cx="6" cy="6.21" rx="5.78" ry="5.8" transform="translate(91.75 608.71)"/><path d="M87.25 597.86c-3.68.7-.7 13.9-5.6 15.65-5.07 1.94-13.12-1.23-14.35 3.17-1.22 4.4-1.92 15.12 5.08 15.64 0 0-3.5 1.23-7.18 1.06a19.78 19.78 0 0 0 14.18 5.97 19.99 19.99 0 0 0 19.95-20.04v-7.56c0-3.69-1.05-7.2-2.8-10.2-3.15-2.1-7.18-4.04-9.28-3.69z"/></g></g><g><path d="M56 110C26.24 110 2 85.76 2 56S26.24 2 56 2s54 24.24 54 54-24.24 54-54 54z" stroke="#4D8BFC" stroke-width="3" fill="#FFF" fill-rule="nonzero"/><path d="M86.09 20a46.89 46.89 0 0 1 9.24 10.27m4.56 8.83c2 5.19 3.11 10.82 3.11 16.7a46.19 46.19 0 0 1-10.48 29.33m-71.3.87A46.2 46.2 0 0 1 10 55.8" stroke="#D675FF" stroke-width="3" fill="#FFF" fill-rule="nonzero" stroke-linecap="round"/><path d="M68.66 90.31H45c-6.56 0-11.9-5.24-11.9-11.68V51.08c0-12.88 10.69-23.37 23.8-23.37 13.1 0 23.8 10.5 23.8 23.37v27.55A12 12 0 0 1 68.65 90.3z" fill="#FFF" fill-rule="nonzero" stroke="#4D8BFC" stroke-width="3"/><use stroke="#4D8BFC" stroke-width="3" fill="#FFF" fill-rule="nonzero" xlink:href="#r" transform="translate(26.35 80.17)"/><path d="M56.89 90.67a5.9 5.9 0 0 1-5.95-5.84v-4.65a5.9 5.9 0 0 1 5.95-5.84 5.9 5.9 0 0 1 5.95 5.84v4.65a6.07 6.07 0 0 1-5.95 5.84z" fill="#FFF" fill-rule="nonzero" stroke="#4D8BFC" stroke-width="3"/><ellipse cx="6.8" cy="6.45" rx="6.07" ry="5.96" transform="translate(69.88 51.55)" fill="#FFF" fill-rule="nonzero" stroke="#4D8BFC" stroke-width="3"/><path d="M66.96 40.47S51.18 59.91 36.5 63.01a20.43 20.43 0 0 0 20.4 18.36c11.29 0 20.51-9.06 20.51-20.15v-6.44c0-2.5-.48-4.77-1.33-7.04-2.67-1.78-8.62-6.2-9.1-7.27z" fill="#FFF" fill-rule="nonzero" stroke="#4D8BFC" stroke-width="3"/></g><g fill="#FFF" fill-rule="nonzero"><g transform="translate(447 453)" stroke-width="3"><ellipse stroke="#4D8BFC" cx="39" cy="39.02" rx="38.78" ry="38.81"/><path d="M65.76 53.35a30.54 30.54 0 0 0 3.88-14.94m-6.31-18.64A30.66 30.66 0 0 0 9.45 30.29m-1.09 8.12c0 5.62 1.51 10.9 4.15 15.42" stroke="#D675FF" stroke-linecap="round"/><g stroke="#4D8BFC"><path d="M17.14 71.08a23.8 23.8 0 0 1 22.15-15.15 23.8 23.8 0 0 1 22.03 14.84A38.59 38.59 0 0 1 39 77.83c-8.11 0-15.64-2.49-21.86-6.75z"/><path d="M39.22 63.38a4.35 4.35 0 0 1-4.34-4.34v-3.4a4.35 4.35 0 0 1 4.34-4.33 4.35 4.35 0 0 1 4.33 4.34v3.46a4.33 4.33 0 0 1-4.33 4.27zM21.96 37.58s-.94-7.59 2.38-13.23c3.32-5.63 7.08-7.58 9.97-7.58 2.88 0 14.37.86 16.53 0 2.39-.94 6.65 11.85 4.7 19.36l-33.58 1.45z"/><ellipse cx="4.77" cy="4.48" rx="4.41" ry="4.41" transform="translate(19.5 34.69)"/><ellipse cx="4.48" cy="4.48" rx="4.41" ry="4.41" transform="translate(49.11 34.69)"/><path d="M47.81 24.5c-1.73-.15-4.55 3.68-8.81 4.12-4.26-.5-7.08-4.27-8.81-4.12a14.68 14.68 0 0 0-5.85 11.7v5.71c0 8.1 6.57 14.67 14.66 14.67s14.66-6.57 14.66-14.67v-5.7c0-4.77-2.31-9.04-5.85-11.71z"/></g></g><path d="M499 501l1 .6"/></g><g><g transform="translate(1002 601)"><mask id="t" fill="#fff"><use xlink:href="#s"/></mask><g fill-rule="nonzero"><use fill="#FFF" fill-rule="evenodd" xlink:href="#s"/><ellipse stroke="#4D8BFC" stroke-width="3" cx="65.29" cy="65.26" rx="66.79" ry="66.76"/></g><path d="M106.24 134.88H25.15a.73.73 0 0 1-.56-.24.73.73 0 0 1-.25-.57c.25-22.48 18.79-40.85 41.36-40.85 22.49 0 41.1 18.3 41.35 40.85 0 .25-.08.4-.24.57a.73.73 0 0 1-.57.24z" stroke="#4D8BFC" stroke-width="3" fill="#FFF" mask="url(#t)"/></g><path d="M1124 665.77a57.7 57.7 0 0 1-19.38 43.23m-82.15-6.1a57.88 57.88 0 0 1-10.8-19.7m-2.67-17.43a57.8 57.8 0 0 1 18.87-42.77m82.65 5.63a57.98 57.98 0 0 1 9.04 14.88" stroke="#D675FF" stroke-width="3" stroke-linecap="round"/><path d="M1068.91 707.67h-2.58a6.1 6.1 0 0 1-6.06-6.05v-8.48a6.1 6.1 0 0 1 6.06-6.05h2.58a6.1 6.1 0 0 1 6.06 6.05v8.48a6.05 6.05 0 0 1-6.06 6.05zM1040.33 659.89s-2.75-12.92 4.03-21.15c0 0-5.97-8.96 2.26-17.92 0 0 .9 6.62 16.56 4.77 15.66-1.86 35.12 9.6 31 34.22l-53.85.08z" fill="#FFF" fill-rule="nonzero" stroke="#4D8BFC" stroke-width="3"/><ellipse cx="8.8" cy="8.31" rx="7.51" ry="7.51" transform="translate(1033.3 658.11)" fill="#FFF" fill-rule="nonzero" stroke="#4D8BFC" stroke-width="3"/><ellipse cx="8.8" cy="8.31" rx="7.51" ry="7.51" transform="translate(1083.37 658.11)" fill="#FFF" fill-rule="nonzero" stroke="#4D8BFC" stroke-width="3"/><path d="M1083.6 645.36c-8.31-2.74-24.62 5.57-33.83-1.94a25.3 25.3 0 0 0-7.67 18.08v9.37a25.36 25.36 0 0 0 25.28 25.26 25.36 25.36 0 0 0 25.27-25.26v-9.45c0-4.68-1.3-9.12-3.63-12.91a14.49 14.49 0 0 0-5.41-3.15z" fill="#FFF" fill-rule="nonzero" stroke="#4D8BFC" stroke-width="3"/></g><g fill="#FFF" fill-rule="nonzero" stroke-width="3"><path d="M308.5 308c-28.88 0-52.5-23.63-52.5-52.5 0-28.88 23.63-52.5 52.5-52.5 28.88 0 52.5 23.63 52.5 52.5 0 28.88-23.63 52.5-52.5 52.5z" stroke="#4D8BFC"/><path d="M266.45 267.17A43.69 43.69 0 0 1 265 256m14.3-32.38a43.82 43.82 0 0 1 52.02-5.5m7.05 5.19a44.54 44.54 0 0 1 7.17 8.25M353 256a43.6 43.6 0 0 1-4.09 18.47" stroke="#D675FF" stroke-linecap="round"/><g stroke="#4D8BFC"><path d="M317.25 284.57H301.5a19.06 19.06 0 0 1-18.9-21.27l1.4-12.48a25.6 25.6 0 0 1 25.38-22.86 25.6 25.6 0 0 1 25.37 22.86l1.4 12.48a19.06 19.06 0 0 1-18.9 21.27z"/><path d="M279.12 298.95a31.42 31.42 0 0 1 29.55-20.7 31.47 31.47 0 0 1 29.54 20.47A52.12 52.12 0 0 1 308.5 308a52.12 52.12 0 0 1-29.38-9.05z"/><path d="M308.85 288.09a5.65 5.65 0 0 1-5.6-5.63v-4.57a5.65 5.65 0 0 1 5.6-5.62c3.15 0 5.6 2.63 5.6 5.62v4.57a5.65 5.65 0 0 1-5.6 5.63z"/><ellipse cx="6" cy="6.21" rx="5.78" ry="5.8" transform="translate(321.75 249.71)"/><path d="M317.25 238.86c-3.68.7-.7 13.9-5.6 15.65-5.07 1.94-13.12-1.23-14.35 3.17-1.23 4.4-1.93 15.12 5.07 15.64 0 0-3.5 1.23-7.17 1.06a19.78 19.78 0 0 0 14.17 5.97 19.99 19.99 0 0 0 19.95-20.04v-7.56c0-3.69-1.05-7.2-2.8-10.2-3.15-2.1-7.17-4.04-9.27-3.69z"/></g></g><g fill="#FFF" fill-rule="nonzero"><g transform="translate(985 377)" stroke-width="3"><ellipse stroke="#4D8BFC" cx="31.5" cy="31.71" rx="31.32" ry="31.53"/><path d="M53.12 43.35c2-3.6 3.13-7.74 3.13-12.14m-5.1-15.15A24.65 24.65 0 0 0 31.5 6.3c-11.4 0-21 7.76-23.87 18.31m-.88 6.6c0 4.57 1.22 8.85 3.36 12.53" stroke="#D675FF" stroke-linecap="round"/><g stroke="#4D8BFC"><path d="M13.84 57.75c2.8-7.2 9.77-12.3 17.9-12.3 8.02 0 14.93 4.98 17.78 12.05a31.04 31.04 0 0 1-18.02 5.74 31.04 31.04 0 0 1-17.66-5.49z"/><path d="M31.68 51.5a3.52 3.52 0 0 1-3.5-3.53v-2.76a3.52 3.52 0 0 1 3.5-3.52c1.92 0 3.5 1.58 3.5 3.52v2.82a3.51 3.51 0 0 1-3.5 3.46zM17.73 30.53s-.75-6.16 1.93-10.74c2.68-4.58 5.72-6.17 8.05-6.17 2.33 0 11.6.7 13.36 0 1.92-.76 5.36 9.63 3.79 15.74l-27.13 1.17z"/><ellipse cx="3.85" cy="3.64" rx="3.56" ry="3.58" transform="translate(15.75 28.18)"/><ellipse cx="3.62" cy="3.64" rx="3.56" ry="3.58" transform="translate(39.67 28.18)"/><path d="M38.62 19.9c-1.4-.11-3.68 3-7.12 3.35-3.44-.4-5.72-3.46-7.12-3.35a11.95 11.95 0 0 0-4.72 9.52v4.64c0 6.57 5.3 11.92 11.84 11.92 6.53 0 11.84-5.35 11.84-11.92v-4.64c0-3.88-1.87-7.34-4.72-9.52z"/></g></g><path d="M1027 416l1 .6"/></g><g fill="#FFF" fill-rule="nonzero"><g transform="translate(38 291)" stroke-width="3"><circle stroke="#4D8BFC" cx="30" cy="30" r="29.83"/><path d="M52.25 42.41A25.36 25.36 0 0 0 55.47 30m-5.25-15.49a25.48 25.48 0 0 0-44.8 8.74M4.53 30c0 4.67 1.27 9.05 3.46 12.81" stroke="#D675FF" stroke-linecap="round"/><g stroke="#4D8BFC"><path d="M13.18 54.64a18.3 18.3 0 0 1 33.99-.24A29.7 29.7 0 0 1 30 59.83a29.7 29.7 0 0 1-16.82-5.19z"/><path d="M30.17 48.72a3.34 3.34 0 0 1-3.34-3.33v-2.61a3.34 3.34 0 0 1 6.67 0v2.66c0 1.78-1.5 3.28-3.33 3.28zM16.89 28.89s-.72-5.83 1.83-10.17c2.56-4.33 5.45-5.83 7.67-5.83 2.22 0 11.05.67 12.72 0 1.83-.72 5.11 9.11 3.61 14.89l-25.83 1.1z"/><circle cx="3.67" cy="3.44" r="3.39" transform="translate(15 26.67)"/><circle cx="3.44" cy="3.44" r="3.39" transform="translate(37.78 26.67)"/><path d="M36.78 18.83c-1.34-.1-3.5 2.84-6.78 3.17-3.28-.39-5.44-3.28-6.78-3.17a11.29 11.29 0 0 0-4.5 9v4.4a11.29 11.29 0 0 0 22.56 0v-4.4c0-3.66-1.78-6.94-4.5-9z"/></g></g><path d="M78 327l1 .6"/></g><g><g transform="translate(608 452)"><mask id="v" fill="#fff"><use xlink:href="#u"/></mask><g fill-rule="nonzero"><use fill="#FFF" fill-rule="evenodd" xlink:href="#u"/><ellipse stroke="#4D8BFC" stroke-width="3" cx="65.29" cy="65.26" rx="66.79" ry="66.76"/></g><path d="M106.24 134.88H25.15a.73.73 0 0 1-.56-.24.73.73 0 0 1-.25-.57c.25-22.48 18.79-40.85 41.36-40.85 22.49 0 41.1 18.3 41.35 40.85 0 .25-.08.4-.24.57a.73.73 0 0 1-.57.24z" stroke="#4D8BFC" stroke-width="3" fill="#FFF" mask="url(#v)"/></g><path d="M730 516.77A57.7 57.7 0 0 1 710.62 560m-82.15-6.1a57.88 57.88 0 0 1-10.8-19.7M615 516.77A57.8 57.8 0 0 1 633.87 474m82.65 5.63a57.98 57.98 0 0 1 9.04 14.88" stroke="#D675FF" stroke-width="3" stroke-linecap="round"/><path d="M674.91 558.67h-2.58a6.1 6.1 0 0 1-6.06-6.05v-8.48a6.1 6.1 0 0 1 6.06-6.05h2.58a6.1 6.1 0 0 1 6.06 6.05v8.48a6.05 6.05 0 0 1-6.06 6.05zM646.33 510.89s-2.75-12.92 4.03-21.15c0 0-5.97-8.96 2.26-17.92 0 0 .9 6.62 16.56 4.77 15.66-1.86 35.12 9.6 31 34.22l-53.85.08z" fill="#FFF" fill-rule="nonzero" stroke="#4D8BFC" stroke-width="3"/><ellipse cx="8.8" cy="8.31" rx="7.51" ry="7.51" transform="translate(639.3 509.11)" fill="#FFF" fill-rule="nonzero" stroke="#4D8BFC" stroke-width="3"/><ellipse cx="8.8" cy="8.31" rx="7.51" ry="7.51" transform="translate(689.37 509.11)" fill="#FFF" fill-rule="nonzero" stroke="#4D8BFC" stroke-width="3"/><path d="M689.6 496.36c-8.31-2.74-24.62 5.57-33.83-1.94a25.3 25.3 0 0 0-7.67 18.08v9.37a25.36 25.36 0 0 0 25.28 25.26 25.36 25.36 0 0 0 25.27-25.26v-9.45c0-4.68-1.3-9.12-3.63-12.91a14.49 14.49 0 0 0-5.41-3.15z" fill="#FFF" fill-rule="nonzero" stroke="#4D8BFC" stroke-width="3"/></g></g></svg>