<svg width="69" height="69" xmlns="http://www.w3.org/2000/svg"><g fill-rule="nonzero" fill="none"><path d="M38.69 63.44a23.91 23.91 0 0 1-11.12 2.7H5.3l4.11-4.11c.84.75 1.72 1.45 2.65 2.1a1.43 1.43 0 1 0 1.63-2.27 24.29 24.29 0 0 1-4.63-4.19l-.53-.64c-.33-.41-.63-.83-.93-1.24l-.64-.98-.43-.7a24.5 24.5 0 0 1-.9-1.71l-.29-.59c-.16-.36-.31-.72-.45-1.1-.1-.27-.2-.52-.29-.8-.17-.5-.33-1.01-.47-1.52-.1-.38-.2-.73-.27-1.1-.07-.38-.12-.53-.17-.79-.12-.61-.2-1.23-.28-1.86v-.55c-.12-.8-.12-1.53-.12-2.23 0-3.88.92-7.7 2.71-11.13a1.43 1.43 0 1 0-2.53-1.33A26.99 26.99 0 0 0 .53 44.04v.67c.06.59.14 1.16.24 1.73 0 .37.14.73.22 1.1.07.37.17.76.25 1.13.09.37.2.76.32 1.14.11.39.14.43.21.65.25.74.53 1.47.84 2.2l.22.48c.2.43.4.85.61 1.26l.16.29c.38.71.8 1.41 1.24 2.1l.52.75c.21.29.41.59.63.87.21.29.77.98 1.18 1.43l.16.19-6.49 6.53A1.43 1.43 0 0 0 1.86 69h25.71c4.33.01 8.6-1.02 12.43-3.01a1.43 1.43 0 1 0-1.31-2.55z" fill="#3C7EFB"/><path d="M61.2 50.61l.21-.25c.49-.55.95-1.1 1.43-1.67.22-.28.42-.58.62-.86l.67-.97c.83-1.27 1.57-2.6 2.2-3.99l.26-.58c.34-.8.65-1.62.92-2.45 0-.21.15-.43.22-.64.07-.21.24-.83.34-1.26l.29-1.21.23-1.13c.11-.67.21-1.34.28-2.01v-.73c0-.8.12-1.62.12-2.43a30 30 0 1 0-29.99 30h28.57a1.43 1.43 0 0 0 1.02-2.44L61.2 50.6zM39 57.57a27.14 27.14 0 1 1 27.14-27.14c0 .78 0 1.57-.11 2.34v.62c-.08.7-.18 1.38-.3 2.07 0 .3-.13.6-.19.9-.05.3-.2.83-.3 1.23-.1.4-.33 1.12-.53 1.68l-.31.9c-.1.3-.31.82-.5 1.2l-.37.77c-.29.6-.6 1.2-.93 1.77l-.53.89c-.23.36-.44.71-.68 1.06-.25.34-.69.95-1.06 1.43l-.52.62c-.47.56-.94 1.1-1.42 1.62a27.14 27.14 0 0 1-3.68 3.08 1.43 1.43 0 1 0 1.65 2.33 30 30 0 0 0 2.85-2.31l4.92 4.94H39z" fill="#3C7EFB"/><path d="M44.71 24h-8.25l1.11-5.43a1.43 1.43 0 0 0-2.41-1.28L23.73 28.7a1.43 1.43 0 0 0 0 2.02l11.43 11.43a1.43 1.43 0 0 0 2.41-1.3l-1.08-5.43h4.7a3.59 3.59 0 0 1 2.54 6.13A1.43 1.43 0 0 0 44.7 44a10 10 0 1 0 0-20zm2.73 16.6a6.49 6.49 0 0 0-6.27-8.03h-6.46a1.43 1.43 0 0 0-1.42 1.72l.5 2.51-7.15-7.14 7.15-7.15-.5 2.63a1.43 1.43 0 0 0 1.42 1.72h10a7.14 7.14 0 0 1 2.73 13.74z" fill="#D775FF"/></g></svg>