<svg width="72" height="70" xmlns="http://www.w3.org/2000/svg"><g fill-rule="nonzero" fill="none"><path d="M49.58 56.43c.58.58 1.52.58 2.1 0L65 43.2a20.31 20.31 0 1 0-28.73 0l13.31 13.24zM38.38 16.5A17.34 17.34 0 0 1 62.9 41.02L50.64 53.27 38.38 41.02a17.35 17.35 0 0 1 0-24.52z" fill="#D775FF"/><path d="M50.64 38.72a9.68 9.68 0 1 0-.02-19.36 9.68 9.68 0 0 0 .02 19.36zM45.9 24.31a6.7 6.7 0 1 1 9.47 9.48 6.7 6.7 0 0 1-9.47-9.48zM12.12 29.58c.58.58 1.52.58 2.1 0l7.67-7.67a12.33 12.33 0 1 0-17.42 0l7.65 7.67zM6.57 6.57a9.35 9.35 0 0 1 13.22 13.22l-6.6 6.63-6.62-6.63a9.37 9.37 0 0 1 0-13.22z" fill="#3C7EFB"/><path d="M13.4 19.36A5.96 5.96 0 0 0 17.62 9.2a6.1 6.1 0 0 0-8.43 0 5.96 5.96 0 0 0 4.21 10.17zm-2.1-8.06a2.98 2.98 0 1 1 4.22 4.22 2.98 2.98 0 0 1-4.22-4.22zM67.96 62h-2.98l2.04 2.04H54.84c-.05-.14-.11-.29-.18-.43l10.25-10.25v2.9l2.11-2.1v-5.01h-5l-2.13 2.11h2.89L52.56 61.51c-1.2-.6-2.62-.6-3.83 0L38.5 51.26h2.88l-2.11-2.11h-5v5l2.13 2.13v-2.9l10.24 10.25c-.07.14-.12.28-.18.43h-33.5a5.96 5.96 0 0 1 0-11.92h4.92a8.94 8.94 0 1 0 0-17.87h-.27a4.47 4.47 0 1 0 0 2.98h.27a5.96 5.96 0 0 1 0 11.91h-4.91a8.94 8.94 0 0 0 0 17.88h33.48a4.47 4.47 0 0 0 8.38 0h12.2l-2.04 2.04h2.98l3.53-3.55L67.96 62zM13.4 37.23a1.49 1.49 0 1 1 0-2.97 1.49 1.49 0 0 1 0 2.97zm37.24 29.8a1.49 1.49 0 0 1-1.06-2.54c.58-.56 1.5-.56 2.07 0a1.49 1.49 0 0 1-1.01 2.53z" fill="#3C7EFB"/></g></svg>