<svg width="70" height="69" xmlns="http://www.w3.org/2000/svg"><g fill-rule="nonzero" fill="none"><path d="M65.93 23.48A13.85 13.85 0 0 0 46.35 3.9L30.84 19.41a13.85 13.85 0 0 0 0 19.6 1.9 1.9 0 0 0 2.67-2.66 10.06 10.06 0 0 1 0-14.25L49 6.57A10.07 10.07 0 1 1 63.27 20.8l-15.5 15.52a1.9 1.9 0 1 0 2.66 2.66l15.51-15.5z" fill="#D775FF"/><path d="M40.2 29.65a1.9 1.9 0 0 0-2.66 2.67 10.06 10.06 0 0 1 0 14.24L22.02 62.08A10.07 10.07 0 1 1 7.78 47.83l15.5-15.51a1.9 1.9 0 0 0-2.66-2.67L5.11 45.16a13.85 13.85 0 1 0 19.58 19.58L40.2 49.23a13.85 13.85 0 0 0 0-19.6v.02zM25.45 16.14a1.9 1.9 0 0 0 1.89-1.9V2.49a1.9 1.9 0 1 0-3.79 0v11.77c0 1.04.85 1.9 1.9 1.9zM13.68 27.9a1.9 1.9 0 1 0 0-3.78H1.89a1.9 1.9 0 0 0 0 3.79h11.79zM15.27 18.52a1.9 1.9 0 0 0 2.67-2.66L9.12 7.02A1.9 1.9 0 0 0 6.45 9.7l8.82 8.83zM66.63 41.78H54.86a1.9 1.9 0 1 0 0 3.78h11.77a1.9 1.9 0 1 0 0-3.78zM43.1 53.54a1.9 1.9 0 0 0-1.9 1.9V67.1a1.9 1.9 0 0 0 3.79 0V55.44a1.9 1.9 0 0 0-1.9-1.9zM53.26 51.16a1.9 1.9 0 1 0-2.69 2.7l8.84 8.84a1.9 1.9 0 0 0 2.66-2.67l-8.81-8.87z" fill="#3C7EFB"/></g></svg>