<svg width="69" height="73" xmlns="http://www.w3.org/2000/svg"><g transform="translate(2 2)" stroke-width="3" fill="none" fill-rule="evenodd" stroke-linecap="round" stroke-linejoin="round"><path stroke="#D775FF" d="M58.95 48.78V19.33L31.75 4.63 4.52 19.33v29.45l27.21 14.73z"/><ellipse stroke="#3C7EFB" fill="#FFF" fill-rule="nonzero" cx="5.29" cy="48.75" rx="3.78" ry="3.75"/><ellipse stroke="#3C7EFB" fill="#FFF" fill-rule="nonzero" cx="58.2" cy="48.75" rx="3.78" ry="3.75"/><ellipse stroke="#3C7EFB" fill="#FFF" fill-rule="nonzero" cx="31.74" cy="3.75" rx="3.78" ry="3.75"/><ellipse stroke="#3C7EFB" fill="#FFF" fill-rule="nonzero" cx="6.05" cy="19.5" rx="6.05" ry="6"/><ellipse stroke="#3C7EFB" fill="#FFF" fill-rule="nonzero" cx="58.95" cy="19.5" rx="6.05" ry="6"/><ellipse stroke="#3C7EFB" fill="#FFF" fill-rule="nonzero" cx="31.74" cy="63" rx="6.05" ry="6"/><path d="M31.74 7.5V33M9.07 46.5L31.64 33M54.42 46.5L31.85 33M31.74 57V34.5M53.33 21.66L31.85 34.5M31.64 34.5L11.35 22.36" stroke="#3C7EFB"/><path d="M43.7 30.23a6.04 6.04 0 0 0-5.9-4.73c0-3.31-2.72-6-6.06-6a6.02 6.02 0 0 0-6.04 6 6.04 6.04 0 0 0-5.91 4.73A4.5 4.5 0 0 0 21.16 39H37.8v6l4.54-1.5V39a4.5 4.5 0 0 0 1.38-8.77z" stroke="#3C7EFB" fill="#FFF" fill-rule="nonzero"/><path d="M25.7 25.5a6.05 6.05 0 0 1 5.58 3.66M40.81 33a6.02 6.02 0 0 0-6.04 6M24.19 34.5a6.04 6.04 0 0 1 5.85 4.5" stroke="#3C7EFB"/></g></svg>