<svg width="73" height="73" xmlns="http://www.w3.org/2000/svg"><g transform="translate(2 2)" stroke-width="3" fill="none" fill-rule="evenodd" stroke-linecap="round" stroke-linejoin="round"><path d="M60 9a9 9 0 0 1 9 9v33a9 9 0 0 1-9 9h-6M11 51c0 4.97 4.07 9 9.1 9H47M54 60v9l-8-9" stroke="#3C7EFB"/><circle stroke="#3C7EFB" cx="28.5" cy="25.5" r="19.5"/><path stroke="#3C7EFB" d="M11 20.46h3.75l2.5 2.54h6.25v-7.62l2.5-2.54V8M28.76 27h8.74l1.76 1.76H41V34l-7 7h-3.5v-5.24L27 34zM44 14h-6v3h-3v3M30 21h10.82l1.54 2H47M9 27h4.3l1.45 3H22M20 30v6h-8"/><path d="M49.92 0H9.08A9.04 9.04 0 0 0 0 9v33c0 4.97 4.06 9 9.08 9h40.84A9.04 9.04 0 0 0 59 42V9c0-4.97-4.06-9-9.08-9z" stroke="#D775FF"/></g></svg>