<svg width="87" height="87" xmlns="http://www.w3.org/2000/svg"><g transform="translate(2 2)" stroke-width="3.6" fill="none" fill-rule="evenodd" stroke-linecap="round" stroke-linejoin="round"><ellipse stroke="#3C7EFB" fill-rule="nonzero" transform="rotate(-45 28.59 57.75)" cx="28.59" cy="57.75" rx="3.57" ry="3.61"/><path d="M81.12 18.15c.7 1.64 1.08 3.41 1.1 5.2l.17 15.24c.05 3.56-1.3 7-3.75 9.55L49.49 78.22a13.25 13.25 0 0 1-13.37 3.5" stroke="#3C7EFB"/><path d="M72.24 11.87a13.46 13.46 0 0 1 1.04 5.2v15.25c0 3.56-1.4 6.98-3.9 9.5L38.14 73.36a13.25 13.25 0 0 1-18.86 0L4.18 58.12a13.5 13.5 0 0 1 0-19.04L35.42 7.54a13.27 13.27 0 0 1 9.42-3.93h15.1c1.75 0 3.48.34 5.1 1.03" stroke="#D775FF"/><path d="M57.01 12.74a6.1 6.1 0 0 0-3.4 1.7 6.42 6.42 0 0 0 0 9.02 6.28 6.28 0 0 0 8.94 0A6.23 6.23 0 0 0 64.34 20M60.77 16.24L76.85 0M35.74 43.3V50l-4.37 4.42" stroke="#3C7EFB"/><ellipse stroke="#3C7EFB" fill-rule="nonzero" transform="rotate(-45 23.24 45.1)" cx="23.24" cy="45.1" rx="3.57" ry="3.61"/><path stroke="#3C7EFB" d="M39.57 38.14l-9.15 9.15-2.47-1.06"/><rect stroke="#3C7EFB" transform="rotate(-45 28.58 48.71)" x="13.42" y="33.4" width="30.33" height="30.62" rx="5.98"/></g></svg>