<svg id="SVGDoc" width="299" height="253" xmlns="http://www.w3.org/2000/svg" version="1.1" xmlns:xlink="http://www.w3.org/1999/xlink" xmlns:avocode="https://avocode.com/" viewBox="0 0 299 253"><defs><path d="M614.65786,1238c0,0 -29.55122,12.96834 -30.16262,16.41306c-0.61141,3.44472 -2.64942,8.30784 10.19007,7.49732c12.6357,-0.81052 17.73074,-5.06576 22.82577,-5.47102c5.09504,-0.40526 11.20909,-1.41841 12.8395,-3.84997c1.63041,-2.6342 2.64942,-14.18413 2.64942,-14.18413z" id="Path-0"/><path d="M848.08823,1055.616c0,0 7.68451,-7.21929 7.88673,-13.20099c0.20223,-5.9817 -0.60667,-22.07041 -10.51564,-28.05211l-1.6178,4.95038c0,0 -6.47116,-9.69448 -16.17791,-10.31328v2.88772c0,0 -16.17792,-2.88772 -24.26688,2.06265c-8.08896,4.95037 0.8089,13.81979 0.8089,13.81979l6.26894,8.45689c0,0 15.36902,8.04435 16.38014,9.90074c0.8089,1.65013 3.23558,6.6005 3.23558,6.6005c0,0 0.8089,4.53784 1.41557,5.9817c0.60667,1.65012 -1.01112,1.85639 1.61779,2.26892c2.42669,0.41253 14.96458,-5.36291 14.96458,-5.36291z" id="Path-1"/><path d="M776.3693,1077.67756c0,0 -2.87012,12.358 -9.43038,17.91909c-6.56026,5.5611 -45.30681,20.59666 -45.92184,31.92482c-0.61502,11.32816 15.58063,8.03269 15.58063,8.03269l34.03136,-13.79976l14.55558,-13.59379l6.35525,-13.79976l2.4601,-14.82959l-5.94524,-4.53126z" id="Path-2"/><path d="M834.16377,1075.09731c0,0 22.08472,10.62678 23.90823,14.30529c1.6209,3.6785 9.928,20.23175 9.928,20.23175l-16.81681,10.62678l-1.6209,-2.04361c0,0 -20.46382,55.99495 -64.22805,64.78248c0,0 -10.73845,-3.26978 -14.58808,-11.85295c-3.84963,-8.78753 -24.92129,-40.4635 -41.33288,-42.09839l-1.01306,1.0218c0,0 -2.02612,-1.83925 3.03918,-6.33519c5.06531,-4.29159 45.79035,-6.53956 55.92096,-41.89404l-10.53583,-4.08722c0,0 5.67314,-15.73581 11.14367,-19.20995c5.67314,-3.47414 14.9933,0 14.9933,0z" id="Path-3"/><path d="M837,1065c0,0 -3.54519,19.13062 -13.39295,17.94728c-9.84775,-1.18333 -7.68125,-10.84726 -6.69647,-14.00282c0.98478,-3.15557 20.08942,-3.94446 20.08942,-3.94446z" id="Path-4"/><path d="M804.20199,1029c0,0 -9.13864,9.55881 -8.12323,22.23462c1.0154,12.67581 3.85853,25.55942 21.1204,22.23462c17.26187,-3.53261 16.65263,-6.23401 20.51117,-6.23401c3.85853,0 11.37252,-0.2078 12.18485,-4.3638c0.81232,-4.15601 -3.2493,-8.72761 -6.90475,-7.06521c-3.65546,1.6624 -6.29551,3.74041 -7.92015,3.32481c0,0 6.90474,-10.39001 4.87394,-16.00062c-2.03081,-5.8184 -7.92016,-7.0652 -12.7941,-6.8574c-4.87394,0 -15.43414,-0.6234 -22.94813,-7.27301z" id="Path-5"/><path d="M800.00571,1054.79214l-3.60872,-2.86007c-0.37986,-0.38134 -0.5698,-0.95335 -0.18993,-1.52536l6.26777,-8.00818c0.37987,-0.38134 0.94966,-0.57201 1.51946,-0.19067l3.60872,2.86007c0.37986,0.38134 0.5698,0.95335 0.18993,1.52536l-6.26777,8.00818c-0.37987,0.38134 -1.1396,0.57201 -1.51946,0.19067z" id="Path-6"/><path d="M851.75336,1120.79937l11.08459,19.96864c0,0 -27.40917,32.60186 -32.24608,33.62067c-4.83691,1.0188 -11.08459,2.03761 -9.27075,4.48275c1.81384,2.44514 5.23999,3.66771 7.05383,2.6489c1.81384,-1.0188 -7.05383,10.59561 -2.41846,15.07836c4.43384,4.48276 10.07691,4.07524 12.49536,1.42634c2.21692,-2.6489 5.44153,-8.96552 9.47229,-12.83699c4.03076,-3.87147 34.463,-36.26957 35.06762,-41.15985c0.40307,-4.89028 -14.10767,-34.02819 -14.10767,-34.02819z" id="Path-7"/><path d="M668,1202.05128l-18.4,-10.05128l-6.6,13.94872l19.4,10.05128z" id="Path-8"/><path d="M634.72403,1188.97868c0,0 -1.65584,-2.20203 -5.1745,0c-3.51867,2.20204 -4.96753,5.40501 -9.93505,6.20575c-4.96752,0.80074 -16.76538,9.80908 -15.5235,13.81279c1.24188,4.00371 13.24672,4.00371 23.18176,0c9.93505,-3.80352 7.45129,-20.01854 7.45129,-20.01854z" id="Path-9"/><path d="M733.8235,1127.78513c-1.42652,-0.81099 -3.05684,-1.41924 -4.68715,-1.41924c-12.43114,-0.4055 -66.84286,-1.82475 -71.7338,-1.2165c-4.48336,0.60825 -26.28881,60.41942 -34.84795,84.34389c-1.8341,5.27149 1.01894,10.94848 6.52125,12.57048l1.42653,0.4055c4.48336,1.2165 9.3743,-0.811 11.41219,-5.06874l12.63493,-25.74922l12.22735,-25.14097c3.66821,-7.50174 12.02357,-11.35398 20.17514,-9.52923l35.86689,8.92098c2.24169,0.60825 4.27958,2.0275 5.7061,3.85225v0c2.03789,3.04125 2.24168,7.09624 0.40758,10.34024l-16.30314,27.37121c-2.64926,4.25775 -7.94777,5.87974 -12.63493,3.85225l-27.10396,-12.97599c-4.68715,-2.23024 -10.18946,-0.4055 -12.63493,4.055l-1.01895,2.02749c-2.64926,4.866 -0.61136,11.15124 4.48337,13.38149l45.85257,21.28872c3.46441,1.622 7.5402,1.01375 10.59703,-1.41925l58.48751,-50.68743c3.46441,-3.04125 4.27957,-7.90724 2.24168,-11.96224l-13.85767,-25.95196c-0.81516,-1.622 -2.03789,-2.8385 -3.46442,-3.6495z" id="Path-10"/><path d="M623.10959,1217c0,0 -6.95206,19.32634 -13.10959,24.35925c0,0 6.35616,0 5.56164,5.83816c-0.79452,5.83817 15.29452,-4.02632 17.0822,-8.05264c1.78767,-4.02632 6.35616,-18.31976 6.35616,-18.31976z" id="Path-11"/><linearGradient id="LinearGradient1112" gradientUnits="userSpaceOnUse" x1="583.9857338934405" y1="1249.919528802577" x2="632.7837665848689" y2="1249.919528802577"><stop stop-opacity="1" stop-color="#3b4472" offset="0"></stop><stop stop-opacity="1" stop-color="#1e2345" offset="0.88"></stop><stop stop-opacity="1" stop-color="#1a1e3e" offset="1"></stop><stop stop-opacity="1" stop-color="#23294d" offset="1"></stop><stop stop-opacity="1" stop-color="#2e355e" offset="1"></stop><stop stop-opacity="1" stop-color="#363e69" offset="1"></stop><stop stop-opacity="1" stop-color="#3a4370" offset="1"></stop><stop stop-opacity="1" stop-color="#3b4472" offset="1"></stop></linearGradient><linearGradient id="LinearGradient1126" gradientUnits="userSpaceOnUse" x1="800.1605405542385" y1="1034.9917226461905" x2="855.9820408042727" y2="1034.9917226461905"><stop stop-opacity="1" stop-color="#3b4472" offset="0"></stop><stop stop-opacity="1" stop-color="#1e2345" offset="0.88"></stop><stop stop-opacity="1" stop-color="#1a1e3e" offset="1"></stop><stop stop-opacity="1" stop-color="#23294d" offset="1"></stop><stop stop-opacity="1" stop-color="#2e355e" offset="1"></stop><stop stop-opacity="1" stop-color="#363e69" offset="1"></stop><stop stop-opacity="1" stop-color="#3a4370" offset="1"></stop><stop stop-opacity="1" stop-color="#3b4472" offset="1"></stop></linearGradient><linearGradient id="LinearGradient1175" gradientUnits="userSpaceOnUse" x1="603.9436075324232" y1="1200.1612381835032" x2="634.92086462278" y2="1200.1612381835032"><stop stop-opacity="1" stop-color="#3b4472" offset="0"></stop><stop stop-opacity="1" stop-color="#1e2345" offset="0.88"></stop><stop stop-opacity="1" stop-color="#1a1e3e" offset="1"></stop><stop stop-opacity="1" stop-color="#23294d" offset="1"></stop><stop stop-opacity="1" stop-color="#2e355e" offset="1"></stop><stop stop-opacity="1" stop-color="#363e69" offset="1"></stop><stop stop-opacity="1" stop-color="#3a4370" offset="1"></stop><stop stop-opacity="1" stop-color="#3b4472" offset="1"></stop></linearGradient></defs><desc>Generated with Avocode.</desc><g transform="matrix(1,0,0,1,-584,-1009)"><g><title>Group</title><g><title>Shape</title><use xlink:href="#Path-0" fill="url(#LinearGradient1112)"/></g><g><title>Shape</title><use xlink:href="#Path-1" fill="url(#LinearGradient1126)"/></g><g><title>Shape</title><use xlink:href="#Path-2" fill="#fbbac2" fill-opacity="1"/></g><g><title>Shape</title><use xlink:href="#Path-3" fill="#3b4472" fill-opacity="1"/></g><g><title>Shape</title><use xlink:href="#Path-4" fill="#efa8b4" fill-opacity="1"/></g><g><title>Shape</title><use xlink:href="#Path-5" fill="#fbbac2" fill-opacity="1"/></g><g><title>Shape</title><use xlink:href="#Path-6" fill="#f55787" fill-opacity="1"/></g><g><title>Shape</title><use xlink:href="#Path-7" fill="#fbbac2" fill-opacity="1"/></g><g><title>Shape</title><use xlink:href="#Path-8" fill="#fbbac2" fill-opacity="1"/></g><g><title>Shape</title><use xlink:href="#Path-9" fill="url(#LinearGradient1175)"/></g><g><title>Shape</title><use xlink:href="#Path-10" fill="#f2f2f2" fill-opacity="1"/></g><g><title>Shape</title><use xlink:href="#Path-11" fill="#fbbac2" fill-opacity="1"/></g></g></g></svg>