<svg id="SVGDoc" width="380" height="303" xmlns="http://www.w3.org/2000/svg" version="1.1" xmlns:xlink="http://www.w3.org/1999/xlink" xmlns:avocode="https://avocode.com/" viewBox="0 0 380 303"><defs><path d="M448.04635,1056.77242c-14.85391,9.60096 -52.83092,-11.45922 -62.4783,-14.24659c-10.87245,-3.09709 -27.25769,-4.18106 -27.56396,24.31211c-0.30627,28.64803 16.69151,44.90772 16.69151,44.90772c0,0 52.83091,20.75046 80.39487,26.78978c1.07193,0.15485 1.99073,0.30971 2.90953,0.46456z" id="Path-0"/><path d="M133,1261.45159l248.92308,-185.45159l43.07692,47.86344l-222.76923,165.13656z" id="Path-1"/><path d="M244.80661,1103.13204c0,0 -12.95593,39.64287 -19.89661,50.96941l14.34407,6.7347c0,0 16.65762,-33.36736 17.73729,-43.62247c1.07966,-10.25511 -2.77628,-14.84694 -2.77628,-14.84694l-5.08983,-1.83674z" id="Path-2"/><path d="M252.06271,1132.21532c2.4678,-6.12245 4.47288,-11.78572 4.78136,-15.00001c0.92542,-10.10204 -2.77627,-14.84694 -2.77627,-14.84694l-2.4678,-0.91837c0.30847,5.66327 1.07966,19.13266 0.46271,30.76532z" id="Path-3"/><path d="M224.52364,1165.34177c-4.41789,-3.40546 -5.5967,-9.28302 -2.63294,-13.1279c2.96376,-3.84488 8.94777,-4.2011 13.36567,-0.79564c4.41789,3.40546 5.5967,9.28302 2.63294,13.1279c-2.96376,3.84488 -8.94777,4.2011 -13.36567,0.79564z" id="Path-4"/><path d="M236.9416,1161.14188c0.92542,-3.67347 -1.2339,-7.19388 -4.78136,-7.95919c0,0 -39.02203,-17.75511 -39.94746,-19.28572c-0.92542,-1.53061 -9.25424,-5.66327 -10.3339,-4.59184c-1.07966,1.07143 3.7017,5.05102 2.93051,5.35714c-0.61695,0.30613 -14.03559,0.45919 -15.11525,0.61225c-1.07966,0.30612 -1.54237,2.44898 -0.77119,3.52041c0.77119,1.07143 7.09492,0.61224 7.09492,0.61224c-0.77119,1.68368 0.15423,3.52041 0.15423,3.52041c0.46272,1.68368 1.85085,3.21429 1.85085,3.21429c1.38814,1.68367 10.48814,0 14.80678,0.15306c4.16441,0.15306 33.16102,18.2143 33.16102,18.2143v0c0.77118,0.7653 2.15932,1.53061 3.39322,1.53061c3.70169,0.30612 6.6322,-1.22449 7.55763,-4.89796z" id="Path-5"/><path d="M301.41627,1127.61715c1.54237,-6.88776 6.01526,-10.86735 9.1,-12.85715l-0.15424,-0.15306c-10.95084,-11.93878 -44.11186,-26.4796 -48.4305,-26.78573c-4.31865,-0.15306 -17.89153,14.2347 -17.89153,14.2347c0,0 2.77627,16.68368 18.81695,35.81634c0,0 -3.85593,13.4694 -2.15932,27.7041c0,0 12.95593,12.39796 30.53898,12.39796c2.15932,-9.79592 8.17458,-41.32655 10.17966,-50.35716z" id="Path-6"/><path d="M278.59203,1055.38c0,0 0.46272,9.4898 -2.15932,13.31633c-2.62203,3.82653 -16.04068,13.62246 -16.04068,13.62246l-2.62203,-21.12246z" id="Path-7"/><path d="M269.64156,1083.85c0,0 3.23898,8.26531 5.70677,10.71429c2.4678,2.44898 6.63221,3.67347 5.24407,8.87755c-1.54237,5.20409 -12.95593,7.65307 -19.27966,2.29592c-6.32373,-5.35714 0.30848,-8.87755 0.30848,-8.87755l-2.4678,-3.52041z" id="Path-8"/><path d="M227.22236,1070.98516l-0.46271,5.51021c-0.15423,1.22449 0.61695,2.29592 1.69661,2.7551v0c1.69661,0.61225 3.54746,-0.45918 3.7017,-2.14286l0.61695,-5.5102c0.15423,-1.22449 -0.61695,-2.44898 -1.69661,-2.75511h-0.15424c-1.69661,-0.91836 -3.54746,0.30613 -3.7017,2.14286z" id="Path-9"/><path d="M235.3979,1053.08233c0,0 -12.64746,42.09185 2.62203,48.06124c15.26949,5.81633 27.14576,-7.95918 27.76271,-12.2449c0,0 8.48305,-5.35715 12.18475,-9.64286c3.85593,-4.28572 3.08474,-8.11225 0.77119,-9.79592c-2.31356,-1.68368 -10.79662,1.68367 -15.11526,8.72449c0,0 -4.78136,-4.59184 -5.24407,-10.86735c-0.61695,-6.27551 6.32373,-15.91838 1.54238,-17.29593c-4.78136,-1.37755 -16.50339,-8.57143 -24.52373,3.06123z" id="Path-10"/><path d="M254.53001,1057.21329c0,0 -17.12034,1.53061 -22.98136,-7.95919c-5.86102,-9.4898 1.85085,-11.63266 1.85085,-11.63266c0,0 -0.92543,2.14286 2.31356,3.06123c3.23898,0.7653 15.57796,-4.59184 24.36949,-3.52041c8.79152,1.07143 15.42373,7.19388 13.57288,13.92857c0,0 5.86102,2.29592 5.08983,7.04082c-0.77119,4.89796 -6.6322,10.40817 -18.04576,8.7245c-11.41356,-1.68368 -0.46271,-11.93878 -0.46271,-11.93878c0,0 -3.85594,2.14285 -5.70678,2.29592z" id="Path-11"/><path d="M267.85472,1164l-62.8787,19.14978c-10.14668,3.03965 -18.29478,10.48678 -22.13822,20.36564l-11.8378,29.48458l28.13399,-20.82159l43.20028,-6.23127l30.74754,1.6718l6.91819,-34.04405z" id="Path-12"/><path d="M132.93156,1311.43307c0,0 -17.23526,-16.11747 -16.92749,-44.51492c0.30778,-28.39746 16.92749,-27.32296 28.16119,-24.25296c10.46427,2.91649 53.39854,26.09495 66.32499,11.97298c12.92645,-14.12198 13.23422,-63.2419 44.01147,-86.57386c25.08347,-18.88047 131.265,-98.23984 172.96818,-126.48379c12.61868,-8.59599 29.54617,-7.06099 40.62598,3.22349c8.15597,7.67499 16.92749,19.80147 23.39071,38.83544c16.00418,47.73842 -15.6964,83.65736 -15.6964,83.65736l-210.20865,157.49074c0,0 -22.4674,19.03397 -50.4747,13.04748c-28.16119,-5.98649 -82.17528,-26.40196 -82.17528,-26.40196z" id="Path-13"/><path d="M310.76251,1115c0,0 22.62028,18.24088 27.1747,29.73723c4.70624,11.34306 -7.74251,33.26277 -7.74251,33.26277l-16.54772,-11.18978c0,0 12.29693,-21 -13.35964,-32.34307c0.15182,-0.15328 -3.3399,-16.09489 10.47517,-19.46715z" id="Path-14"/><path d="M315.61816,1183.1497c-6.1592,-3.68949 -8.96655,-10.32916 -6.27038,-14.83012c2.69617,-4.50096 9.87486,-5.15878 16.03406,-1.46929c6.1592,3.68949 8.96655,10.32916 6.27038,14.83012c-2.69617,4.50096 -9.87486,5.15878 -16.03406,1.46929z" id="Path-15"/><path d="M324.87107,1171.7387c-2.16995,-3.4855 -6.66483,-4.84939 -10.22973,-2.72778c0,0 -45.5688,15.7605 -47.42875,15.30587c-1.85995,-0.45463 -12.08968,2.57624 -12.08968,4.24322c0,1.66697 6.97482,1.21234 6.66483,1.97006c-0.31,0.75772 -11.00471,11.06266 -11.6247,12.12347c-0.61998,0.90926 0.61999,3.18241 2.16995,3.33395c1.54996,0.30308 6.35483,-5.00093 6.35483,-5.00093c0.77498,1.97006 2.94492,2.72778 2.94492,2.72778c1.70496,1.0608 4.02989,1.0608 4.02989,1.0608c2.47994,0.30309 8.52478,-8.03179 12.08968,-11.2142c3.56491,-3.03087 41.22891,-10.91112 41.22891,-10.91112v0c1.23997,0 2.47994,-0.30309 3.7199,-0.90926c3.25492,-1.97007 4.33989,-6.51636 2.16995,-10.00186z" id="Path-16"/><path d="M259.76252,1200c0,0 -4.0083,6.29912 -4.62496,7.49895c-0.61667,1.34981 0.92499,2.09971 2.92914,0.89988c1.84999,-1.19983 4.9333,-5.39925 4.9333,-5.39925z" id="Path-17"/><path d="M261.75719,1204c0,0 -3.43017,4.07131 -2.63859,4.82526c1.31929,1.05553 4.8814,-3.01579 4.8814,-3.01579z" id="Path-18"/><linearGradient id="LinearGradient1205" gradientUnits="userSpaceOnUse" x1="357.98755119746903" y1="1090.0795428902852" x2="457.9926496114845" y2="1090.0795428902852"><stop stop-opacity="1" stop-color="#35abe5" offset="0"></stop><stop stop-opacity="1" stop-color="#2a8aea" offset="0.39"></stop><stop stop-opacity="1" stop-color="#206fee" offset="0.77"></stop><stop stop-opacity="1" stop-color="#1d65ef" offset="1"></stop></linearGradient><linearGradient id="LinearGradient1215" gradientUnits="userSpaceOnUse" x1="133.07338461538455" y1="1182.4687579479769" x2="424.97384615384607" y2="1182.4687579479769"><stop stop-opacity="1" stop-color="#35abe5" offset="0"></stop><stop stop-opacity="1" stop-color="#34a9e5" offset="0.01"></stop><stop stop-opacity="1" stop-color="#2c90e9" offset="0.13"></stop><stop stop-opacity="1" stop-color="#257dec" offset="0.27"></stop><stop stop-opacity="1" stop-color="#216fee" offset="0.43"></stop><stop stop-opacity="1" stop-color="#1e67ef" offset="0.63"></stop><stop stop-opacity="1" stop-color="#1d65ef" offset="1"></stop></linearGradient><linearGradient id="LinearGradient1257" gradientUnits="userSpaceOnUse" x1="258.8056854457954" y1="1070.1214511783637" x2="280.11028029905253" y2="1067.5241914325911"><stop stop-opacity="1" stop-color="#3b4472" offset="0"></stop><stop stop-opacity="1" stop-color="#1e2345" offset="0.88"></stop><stop stop-opacity="1" stop-color="#1a1e3e" offset="1"></stop><stop stop-opacity="1" stop-color="#23294d" offset="1"></stop><stop stop-opacity="1" stop-color="#2e355e" offset="1"></stop><stop stop-opacity="1" stop-color="#363e69" offset="1"></stop><stop stop-opacity="1" stop-color="#3a4370" offset="1"></stop><stop stop-opacity="1" stop-color="#3b4472" offset="1"></stop></linearGradient><linearGradient id="LinearGradient1286" gradientUnits="userSpaceOnUse" x1="230.8265104624894" y1="1054.6762164243496" x2="278.0371420404986" y2="1048.92167498614"><stop stop-opacity="1" stop-color="#3b4472" offset="0"></stop><stop stop-opacity="1" stop-color="#1e2345" offset="0.88"></stop><stop stop-opacity="1" stop-color="#1a1e3e" offset="1"></stop><stop stop-opacity="1" stop-color="#23294d" offset="1"></stop><stop stop-opacity="1" stop-color="#2e355e" offset="1"></stop><stop stop-opacity="1" stop-color="#363e69" offset="1"></stop><stop stop-opacity="1" stop-color="#3a4370" offset="1"></stop><stop stop-opacity="1" stop-color="#3b4472" offset="1"></stop></linearGradient><linearGradient id="LinearGradient1305" gradientUnits="userSpaceOnUse" x1="115.99345527162744" y1="1187.6141913124343" x2="496.0110048062863" y2="1187.6141913124343"><stop stop-opacity="1" stop-color="#35abe5" offset="0"></stop><stop stop-opacity="1" stop-color="#2a8aea" offset="0.39"></stop><stop stop-opacity="1" stop-color="#206fee" offset="0.77"></stop><stop stop-opacity="1" stop-color="#1d65ef" offset="1"></stop></linearGradient></defs><desc>Generated with Avocode.</desc><g transform="matrix(1,0,0,1,-116,-1036)"><g transform="matrix(-1,0,0,1,612,0)"><title>Group</title><g><title>Shape</title><use xlink:href="#Path-0" fill="url(#LinearGradient1205)"/></g><g><title>Shape</title><use xlink:href="#Path-1" fill="url(#LinearGradient1215)"/></g><g><title>Group</title><g><title>Group</title><g><title>Shape</title><use xlink:href="#Path-2" fill="#fd7f88" fill-opacity="1"/></g><g><title>Shape</title><use xlink:href="#Path-3" fill="#fe686f" fill-opacity="1"/></g></g><g><title>Oval</title><use xlink:href="#Path-4" fill="#fe686f" fill-opacity="1"/></g><g><title>Shape</title><use xlink:href="#Path-5" fill="#fabac3" fill-opacity="1"/></g><g><title>Shape</title><use xlink:href="#Path-6" fill="#fd7f88" fill-opacity="1"/></g><g><title>Shape</title><use xlink:href="#Path-7" fill="url(#LinearGradient1257)"/></g><g><title>Shape</title><use xlink:href="#Path-8" fill="#efa8b4" fill-opacity="1"/></g><g><title>Shape</title><use xlink:href="#Path-9" fill="#f55787" fill-opacity="1"/></g><g><title>Shape</title><use xlink:href="#Path-10" fill="#fbbac2" fill-opacity="1"/></g><g><title>Shape</title><use xlink:href="#Path-11" fill="url(#LinearGradient1286)"/></g></g><g><title>Shape</title><use xlink:href="#Path-12" fill="#ffffff" fill-opacity="1"/></g><g><title>Shape</title><use xlink:href="#Path-13" fill="url(#LinearGradient1305)"/></g><g><title>Shape</title><use xlink:href="#Path-14" fill="#fd7f88" fill-opacity="1"/></g><g><title>Oval</title><use xlink:href="#Path-15" fill="#fe686f" fill-opacity="1"/></g><g><title>Shape</title><use xlink:href="#Path-16" fill="#fabac3" fill-opacity="1"/></g><g><title>Shape</title><use xlink:href="#Path-17" fill="#fabac3" fill-opacity="1"/></g><g><title>Shape</title><use xlink:href="#Path-18" fill="#fabac3" fill-opacity="1"/></g></g></g></svg>