<?xml version="1.0" encoding="UTF-8" standalone="no"?>
<svg width="1322px" height="512px" viewBox="0 0 1322 512" version="1.1" xmlns="http://www.w3.org/2000/svg" xmlns:xlink="http://www.w3.org/1999/xlink">
    <!-- Generator: Sketch 48.2 (47327) - http://www.bohemiancoding.com/sketch -->
    <title>3 column</title>
    <desc>Created with Sketch.</desc>
    <defs>
        <rect id="path-1" x="0" y="0" width="1170" height="360" rx="6"></rect>
        <filter x="-12.4%" y="-23.9%" width="124.8%" height="180.6%" filterUnits="objectBoundingBox" id="filter-2">
            <feOffset dx="0" dy="59" in="SourceAlpha" result="shadowOffsetOuter1"></feOffset>
            <feGaussianBlur stdDeviation="38.5" in="shadowOffsetOuter1" result="shadowBlurOuter1"></feGaussianBlur>
            <feColorMatrix values="0 0 0 0 0.802623769   0 0 0 0 0.907749352   0 0 0 0 0.964152849  0 0 0 0.508746603 0" type="matrix" in="shadowBlurOuter1"></feColorMatrix>
        </filter>
        <linearGradient x1="0%" y1="109.465681%" x2="110.258591%" y2="-14.3322173%" id="linearGradient-3">
            <stop stop-color="#1F6FE2" offset="0%"></stop>
            <stop stop-color="#5CFDE6" offset="100%"></stop>
        </linearGradient>
        <linearGradient x1="-6.00495849%" y1="119.289435%" x2="106.535401%" y2="-19.2894345%" id="linearGradient-4">
            <stop stop-color="#1F6FE2" offset="0%"></stop>
            <stop stop-color="#76F6E3" offset="100%"></stop>
        </linearGradient>
        <linearGradient x1="103.344096%" y1="-7.17075893%" x2="17.5853321%" y2="96.5401786%" id="linearGradient-5">
            <stop stop-color="#CA7EFF" offset="0%"></stop>
            <stop stop-color="#6F28A4" offset="100%"></stop>
        </linearGradient>
        <linearGradient x1="20.8919511%" y1="93.5081845%" x2="96.0144719%" y2="7.79389881%" id="linearGradient-6">
            <stop stop-color="#E67289" offset="0%"></stop>
            <stop stop-color="#FFB571" offset="100%"></stop>
        </linearGradient>
        <linearGradient x1="20.8919511%" y1="93.5081845%" x2="85.079571%" y2="26.8815601%" id="linearGradient-7">
            <stop stop-color="#E67289" offset="0%"></stop>
            <stop stop-color="#FFB571" offset="100%"></stop>
        </linearGradient>
        <linearGradient x1="-22.2266135%" y1="50%" x2="116.829595%" y2="50%" id="linearGradient-8">
            <stop stop-color="#FF6268" offset="0%"></stop>
            <stop stop-color="#FFA34E" offset="100%"></stop>
        </linearGradient>
    </defs>
    <g id="Features" stroke="none" stroke-width="1" fill="none" fill-rule="evenodd" transform="translate(-58.000000, -5635.000000)">
        <g id="Group-96" transform="translate(-1.000000, 3677.000000)">
            <g id="Group-53" transform="translate(0.000000, 1227.000000)">
                <g id="3-column" transform="translate(135.000000, 748.000000)">
                    <g id="Rectangle-6">
                        <use fill="black" fill-opacity="1" filter="url(#filter-2)" xlink:href="#path-1"></use>
                        <use fill="#FFFFFF" fill-rule="evenodd" xlink:href="#path-1"></use>
                    </g>
                    <g id="Group-77" transform="translate(100.000000, 73.000000)">
                        <rect id="Rectangle-7" fill="url(#linearGradient-3)" x="0" y="0" width="271" height="168" rx="6"></rect>
                        <path d="M268.108391,167.133077 C267.201824,167.683236 266.137904,168 265,168 L6,168 C2.6862915,168 4.05812251e-16,165.313708 0,162 L0,86.3760588 C28.6537242,55.9387907 68.9132467,37 113.5,37 C190.15723,37 254.023456,92.9817904 268.108391,167.133077 Z" id="Combined-Shape" fill="url(#linearGradient-4)"></path>
                        <path d="M265,168 L6,168 C2.6862915,168 0,165.313708 0,162 L0,86.3760588 C28.6537242,55.9387907 68.9132467,37 113.5,37 C190.15723,37 254.023456,92.9817904 268.108391,167.133077 C267.201824,167.683236 266.137904,168 265,168 Z" id="Combined-Shape-Copy" fill="url(#linearGradient-4)"></path>
                        <path d="M197.916643,166.461607 C196.891622,167.278273 195.593168,167.766327 194.180722,167.766327 L6,167.766327 C2.6862915,167.766327 0,165.080036 0,161.766327 L0,107.472823 C21.1657683,84.989597 50.904441,71 83.8395276,71 C140.235089,71 187.258586,112.018279 197.916643,166.461607 Z" id="Combined-Shape-Copy-2" fill="url(#linearGradient-4)"></path>
                        <path d="M183.551638,0 C107.279023,18.1642604 46.0951434,47.3935937 -1.15463195e-14,87.688 L0,6 C-4.05812251e-16,2.6862915 2.6862915,6.08718376e-16 6,0 L183.551638,0 Z" id="Combined-Shape" fill="#FFFFFF" opacity="0.190160779"></path>
                        <text id="Increase-your-team-s" font-family="Montserrat-SemiBold, Montserrat" font-size="21" font-weight="500" line-spacing="29" letter-spacing="0.319999993" fill="#FFFFFF">
                            <tspan x="89.5845" y="61">Increase</tspan>
                            <tspan x="79.985" y="90">your team</tspan>
                            <tspan x="72.0815" y="119">satisfaction</tspan>
                        </text>
                    </g>
                    <g id="Group-79" transform="translate(450.000000, 73.000000)">
                        <rect id="Rectangle-7-Copy" fill="url(#linearGradient-5)" x="0" y="0" width="271" height="168" rx="6"></rect>
                        <path d="M265,168 L6,168 C2.6862915,168 0,165.313708 0,162 L0,86.3760588 C28.6537242,55.9387907 68.9132467,37 113.5,37 C190.15723,37 254.023456,92.9817904 268.108391,167.133077 C267.201824,167.683236 266.137904,168 265,168 Z" id="Combined-Shape-Copy" fill="url(#linearGradient-5)"></path>
                        <path d="M197.916643,166.461607 C196.891622,167.278273 195.593168,167.766327 194.180722,167.766327 L6,167.766327 C2.6862915,167.766327 0,165.080036 0,161.766327 L0,107.472823 C21.1657683,84.989597 50.904441,71 83.8395276,71 C140.235089,71 187.258586,112.018279 197.916643,166.461607 Z" id="Combined-Shape-Copy-2" fill="url(#linearGradient-5)"></path>
                        <path d="M183.551638,0 C107.279023,18.1642604 46.0951434,47.3935937 -1.15463195e-14,87.688 L0,6 C-4.05812251e-16,2.6862915 2.6862915,6.08718376e-16 6,0 L183.551638,0 Z" id="Combined-Shape" fill="#FFFFFF" opacity="0.190160779"></path>
                        <text id="Reduce-response-tiim" font-family="Montserrat-SemiBold, Montserrat" font-size="21" font-weight="500" line-spacing="29" letter-spacing="0.319999993" fill="#FFFFFF">
                            <tspan x="94.556" y="61">Reduce</tspan>
                            <tspan x="54.4890001" y="90">response tiime</tspan>
                            <tspan x="97.777" y="119">to zero</tspan>
                        </text>
                    </g>
                    <g id="Group-80" transform="translate(800.000000, 73.000000)">
                        <rect id="Rectangle-7-Copy-2" fill="url(#linearGradient-6)" x="0" y="0" width="271" height="168" rx="6"></rect>
                        <path d="M265,168 L6,168 C2.6862915,168 0,165.313708 0,162 L0,86.3760588 C28.6537242,55.9387907 68.9132467,37 113.5,37 C190.15723,37 254.023456,92.9817904 268.108391,167.133077 C267.201824,167.683236 266.137904,168 265,168 Z" id="Combined-Shape-Copy" fill="url(#linearGradient-7)"></path>
                        <path d="M197.916643,166.461607 C196.891622,167.278273 195.593168,167.766327 194.180722,167.766327 L6,167.766327 C2.6862915,167.766327 0,165.080036 0,161.766327 L0,107.472823 C21.1657683,84.989597 50.904441,71 83.8395276,71 C140.235089,71 187.258586,112.018279 197.916643,166.461607 Z" id="Combined-Shape-Copy-2" fill="url(#linearGradient-6)"></path>
                        <path d="M183.551638,0 C107.279023,18.1642604 46.0951434,47.3935937 -1.15463195e-14,87.688 L0,6 C-4.05812251e-16,2.6862915 2.6862915,6.08718376e-16 6,0 L183.551638,0 Z" id="Combined-Shape" fill="#FFFFFF" opacity="0.190160779"></path>
                        <text id="Maximize-customer-sa" font-family="Montserrat-SemiBold, Montserrat" font-size="21" font-weight="500" line-spacing="29" letter-spacing="0.319999993" fill="#FFFFFF">
                            <tspan x="82.938" y="61">Maximize</tspan>
                            <tspan x="83.5155" y="90">customer</tspan>
                            <tspan x="72.0815" y="119">satisfaction</tspan>
                        </text>
                    </g>
                    <g id="Btn" transform="translate(455.000000, 330.000000)">
                        <rect id="Rectangle-3" fill="url(#linearGradient-8)" x="0" y="0" width="260" height="60" rx="30"></rect>
                        <text id="JOIN-FREE-BETA" font-family="Roboto-Bold, Roboto" font-size="17" font-weight="bold" line-spacing="32" letter-spacing="0.53125" fill="#FFFFFF">
                            <tspan x="62.7946777" y="32">JOIN FREE BETA</tspan>
                        </text>
                    </g>
                </g>
            </g>
        </g>
    </g>
</svg>