<?xml version="1.0" encoding="UTF-8" standalone="no"?>
<svg width="292px" height="292px" viewBox="0 0 292 292" version="1.1" xmlns="http://www.w3.org/2000/svg" xmlns:xlink="http://www.w3.org/1999/xlink">
    <!-- Generator: Sketch 48.2 (47327) - http://www.bohemiancoding.com/sketch -->
    <title>Icon Suggested</title>
    <desc>Created with Sketch.</desc>
    <defs>
        <circle id="path-1" cx="90" cy="90" r="90"></circle>
        <filter x="-51.9%" y="-44.7%" width="203.9%" height="203.9%" filterUnits="objectBoundingBox" id="filter-2">
            <feOffset dx="0" dy="13" in="SourceAlpha" result="shadowOffsetOuter1"></feOffset>
            <feGaussianBlur stdDeviation="29" in="shadowOffsetOuter1" result="shadowBlurOuter1"></feGaussianBlur>
            <feColorMatrix values="0 0 0 0 0.862038352   0 0 0 0 0.914734641   0 0 0 0 1  0 0 0 1 0" type="matrix" in="shadowBlurOuter1"></feColorMatrix>
        </filter>
    </defs>
    <g id="Features" stroke="none" stroke-width="1" fill="none" fill-rule="evenodd" transform="translate(-574.000000, -3652.000000)">
        <g id="Group-96" transform="translate(-1.000000, 3677.000000)">
            <g id="Group-65" transform="translate(235.000000, 0.000000)">
                <g id="Group-10" transform="translate(19.000000, 0.000000)">
                    <g id="Icon-Suggested" transform="translate(359.000000, 0.000000)">
                        <circle id="Oval" stroke="#FFFFFF" stroke-width="2.3328" opacity="0.0893342391" cx="108" cy="108" r="108"></circle>
                        <circle id="Oval-Copy-5" stroke="#FFFFFF" stroke-width="1.944" opacity="0.264492754" cx="108" cy="108" r="90"></circle>
                        <g id="Group-6" transform="translate(18.000000, 18.000000)">
                            <g id="Oval-Copy-4">
                                <use fill="black" fill-opacity="1" filter="url(#filter-2)" xlink:href="#path-1"></use>
                                <use fill="#FFFFFF" fill-rule="evenodd" xlink:href="#path-1"></use>
                            </g>
                            <g id="Auto-Ticket-Reply-" transform="translate(59.000000, 59.000000)" fill-rule="nonzero">
                                <path d="M62.8742515,26.1976048 C62.8742515,11.7290672 51.1451843,8.85942413e-16 36.6766467,0 C22.2081091,-8.85942413e-16 10.4790419,11.7290672 10.4790419,26.1976048 C10.4809665,27.1911282 10.5378147,28.1837855 10.6493263,29.1710329 C10.7008036,29.6390081 10.9980323,30.0439722 11.4290493,30.2333791 C11.8600663,30.4227861 12.3593898,30.3678605 12.7389296,30.0892923 C13.1184693,29.8107241 13.3205641,29.3508344 13.2690868,28.8828593 C12.2172313,20.1676279 16.0942694,11.5896422 23.331048,6.62066907 C30.5678266,1.65169597 39.9659527,1.11458533 47.7217242,5.22672187 C55.4774956,9.33885841 60.3065755,17.4192823 60.254491,26.1976048 C60.2513236,33.3373346 56.9969958,40.0870515 51.4127994,44.5359281 C51.1390589,44.7523466 50.9629883,45.0690462 50.9236429,45.4157777 C50.8842975,45.7625092 50.98493,46.1106077 51.2032186,46.3828593 C51.2819811,46.4590541 51.3699941,46.5250638 51.4651946,46.5793413 L47.4045659,53.4169162 L47.1556886,50.0898204 C47.6048274,49.6514663 47.6799334,48.9561392 47.3347602,48.4319872 C46.9895869,47.9078352 46.3211408,47.7021644 45.741018,47.9416168 C44.4095861,48.5061892 43.0281712,48.9447336 41.6148952,49.251497 C40.8914683,49.3274568 40.3665926,49.9754878 40.4425524,50.6989147 C40.5185122,51.4223416 41.1665432,51.9472173 41.8899701,51.8712575 L42.1650449,51.8712575 C42.9902695,51.6878743 43.8023952,51.4651946 44.5883234,51.2163174 L45.0205838,57.936003 C45.0557016,58.5084187 45.4590975,58.9914322 46.0160928,59.127994 L46.3173653,59.127994 C46.7798411,59.1279134 47.2079996,58.8839626 47.4438623,58.4861527 L56.1021707,43.9333832 C56.14282,43.8453674 56.1735723,43.7531107 56.1938623,43.6583084 C60.5051574,38.8656019 62.8854806,32.6440902 62.8742515,26.1976048 Z" id="Shape" fill="#D775FF"></path>
                                <path d="M25.5426647,39.2964072 L13.7537425,39.2964072 C9.05146779,39.2964072 5.23952096,43.108354 5.23952096,47.8106287 C5.23952096,52.5129035 9.05146779,56.3248503 13.7537425,56.3248503 L25.5426647,56.3248503 C30.2449394,56.3248503 34.0568862,52.5129035 34.0568862,47.8106287 C34.0568862,43.108354 30.2449394,39.2964072 25.5426647,39.2964072 Z M25.5426647,53.7050898 L13.7537425,53.7050898 C10.4983216,53.7050898 7.85928144,51.0660497 7.85928144,47.8106287 C7.85928144,44.5552078 10.4983216,41.9161677 13.7537425,41.9161677 L25.5426647,41.9161677 C28.7980856,41.9161677 31.4371257,44.5552078 31.4371257,47.8106287 C31.4371257,51.0660497 28.7980856,53.7050898 25.5426647,53.7050898 Z" id="Shape" fill="#3C7EFB"></path>
                                <path d="M13.7537425,43.2260479 C11.2217484,43.2260479 9.16916168,45.2786347 9.16916168,47.8106287 C9.16916168,48.5340556 9.75561504,49.120509 10.4790419,49.120509 C11.2024688,49.120509 11.7889222,48.5340556 11.7889222,47.8106287 C11.7889222,46.7254884 12.6686022,45.8458084 13.7537425,45.8458084 C14.8388828,45.8458084 15.7185629,46.7254884 15.7185629,47.8106287 C15.7185629,48.5340556 16.3050162,49.120509 17.0284431,49.120509 C17.75187,49.120509 18.3383234,48.5340556 18.3383234,47.8106287 C18.3383234,45.2786347 16.2857366,43.2260479 13.7537425,43.2260479 Z" id="Shape" fill="#3C7EFB"></path>
                                <path d="M26.1976048,28.8173653 C28.3678854,28.8173653 30.1272455,27.0580052 30.1272455,24.8877246 C30.1272455,22.7174439 28.3678854,20.9580838 26.1976048,20.9580838 C24.0273241,20.9580838 22.2679641,22.7174439 22.2679641,24.8877246 C22.2679641,27.0580052 24.0273241,28.8173653 26.1976048,28.8173653 Z M26.1976048,23.5778443 C26.9210317,23.5778443 27.507485,24.1642977 27.507485,24.8877246 C27.507485,25.6111514 26.9210317,26.1976048 26.1976048,26.1976048 C25.4741779,26.1976048 24.8877246,25.6111514 24.8877246,24.8877246 C24.8877246,24.1642977 25.4741779,23.5778443 26.1976048,23.5778443 Z" id="Shape" fill="#3C7EFB"></path>
                                <path d="M36.6766467,20.9580838 C34.5063661,20.9580838 32.747006,22.7174439 32.747006,24.8877246 C32.747006,27.0580052 34.5063661,28.8173653 36.6766467,28.8173653 C38.8469273,28.8173653 40.6062874,27.0580052 40.6062874,24.8877246 C40.6062874,22.7174439 38.8469273,20.9580838 36.6766467,20.9580838 Z M36.6766467,26.1976048 C35.9532198,26.1976048 35.3667665,25.6111514 35.3667665,24.8877246 C35.3667665,24.1642977 35.9532198,23.5778443 36.6766467,23.5778443 C37.4000736,23.5778443 37.9865269,24.1642977 37.9865269,24.8877246 C37.9865269,25.6111514 37.4000736,26.1976048 36.6766467,26.1976048 Z" id="Shape" fill="#3C7EFB"></path>
                                <path d="M51.0853293,24.8877246 C51.0853293,22.7174439 49.3259693,20.9580838 47.1556886,20.9580838 C44.985408,20.9580838 43.2260479,22.7174439 43.2260479,24.8877246 C43.2260479,27.0580052 44.985408,28.8173653 47.1556886,28.8173653 C49.3259693,28.8173653 51.0853293,27.0580052 51.0853293,24.8877246 Z M45.8458084,24.8877246 C45.8458084,24.1642977 46.4322617,23.5778443 47.1556886,23.5778443 C47.8791155,23.5778443 48.4655689,24.1642977 48.4655689,24.8877246 C48.4655689,25.6111514 47.8791155,26.1976048 47.1556886,26.1976048 C46.4322617,26.1976048 45.8458084,25.6111514 45.8458084,24.8877246 Z" id="Shape" fill="#3C7EFB"></path>
                                <path d="M25.5426647,43.2260479 C23.0106706,43.2260479 20.9580838,45.2786347 20.9580838,47.8106287 C20.9580838,48.5340556 21.5445372,49.120509 22.2679641,49.120509 C22.991391,49.120509 23.5778443,48.5340556 23.5778443,47.8106287 C23.5778443,46.7254884 24.4575244,45.8458084 25.5426647,45.8458084 C26.627805,45.8458084 27.507485,46.7254884 27.507485,47.8106287 C27.507485,48.5340556 28.0939384,49.120509 28.8173653,49.120509 C29.5407921,49.120509 30.1272455,48.5340556 30.1272455,47.8106287 C30.1272455,45.2786347 28.0746588,43.2260479 25.5426647,43.2260479 Z" id="Shape" fill="#3C7EFB"></path>
                                <path d="M22.2679641,31.4371257 L17.0284431,31.4371257 C7.62389367,31.4371257 1.15172514e-15,39.0610194 0,48.4655689 L0,51.7140719 C0.0359887771,57.8831423 5.04340353,62.8671579 11.2125749,62.8742515 L28.0838323,62.8742515 C34.2733741,62.8670334 39.2891891,57.8512184 39.2964072,51.6616766 L39.2964072,48.4655689 C39.2964072,43.949345 37.5023442,39.6180938 34.3088917,36.4246413 C31.1154391,33.2311887 26.784188,31.4371257 22.2679641,31.4371257 Z M36.6766467,51.6616766 C36.6694335,56.404366 32.8265216,60.2472778 28.0838323,60.254491 L11.2125749,60.254491 C6.46988555,60.2472778 2.62697371,56.404366 2.61976048,51.6616766 L2.61976048,48.4655689 C2.61976048,40.5078732 9.07074743,34.0568862 17.0284431,34.0568862 L22.2679641,34.0568862 C30.2256598,34.0568862 36.6766467,40.5078732 36.6766467,48.4655689 L36.6766467,51.6616766 Z" id="Shape" fill="#3C7EFB"></path>
                            </g>
                        </g>
                    </g>
                </g>
            </g>
        </g>
    </g>
</svg>