<svg xmlns="http://www.w3.org/2000/svg" xmlns:xlink="http://www.w3.org/1999/xlink" width="230" height="236" viewBox="0 0 230 236"><defs><path id="d5o0a" d="M306 546a75 75 0 1 1 150 0 75 75 0 0 1-150 0z"/><path id="d5o0b" d="M273 546c0-59.65 48.35-108 108-108s108 48.35 108 108-48.35 108-108 108-108-48.35-108-108z"/><path id="d5o0c" d="M291 546a90 90 0 1 1 180 0 90 90 0 0 1-180 0z"/><path id="d5o0f" d="M412.88 541.2a26.2 26.2 0 1 0-52.23 2.97 1.32 1.32 0 0 0 2.62-.29 23.58 23.58 0 1 1 46.99-2.68c0 7.14-3.26 13.89-8.85 18.34a1.31 1.31 0 0 0-.2 1.84c.07.08.16.15.26.2l-4.06 6.84-.25-3.33a1.31 1.31 0 0 0-1.42-2.15c-1.33.57-2.71 1-4.12 1.31a1.32 1.32 0 0 0 .27 2.62h.28c.82-.18 1.63-.4 2.42-.65l.43 6.72c.04.57.44 1.05 1 1.19h.3c.46 0 .89-.25 1.12-.64l8.66-14.56.1-.27a26.04 26.04 0 0 0 6.68-17.46z"/><path id="d5o0g" d="M375.54 554.3a8.51 8.51 0 1 1 0 17.03h-11.79a8.51 8.51 0 1 1 0-17.03zm5.9 8.51a5.9 5.9 0 0 0-5.9-5.89h-11.79a5.9 5.9 0 0 0 0 11.79h11.8a5.9 5.9 0 0 0 5.89-5.9z"/><path id="d5o0h" d="M363.75 558.23a4.58 4.58 0 0 0-4.58 4.58 1.31 1.31 0 1 0 2.62 0 1.96 1.96 0 0 1 3.93 0 1.31 1.31 0 1 0 2.62 0 4.58 4.58 0 0 0-4.59-4.58z"/><path id="d5o0i" d="M372.27 539.89a3.93 3.93 0 1 1 7.86 0 3.93 3.93 0 0 1-7.86 0zm2.62 0a1.31 1.31 0 1 0 2.62 0 1.31 1.31 0 0 0-2.62 0z"/><path id="d5o0j" d="M386.68 535.96a3.93 3.93 0 1 1 0 7.86 3.93 3.93 0 0 1 0-7.86zm1.31 3.93a1.31 1.31 0 1 0-2.62 0 1.31 1.31 0 0 0 2.62 0z"/><path id="d5o0k" d="M397.16 543.82a3.93 3.93 0 1 1 0-7.86 3.93 3.93 0 0 1 0 7.86zm0-2.62a1.31 1.31 0 1 0 0-2.62 1.31 1.31 0 0 0 0 2.62z"/><path id="d5o0l" d="M375.54 558.23a4.58 4.58 0 0 0-4.58 4.58 1.31 1.31 0 1 0 2.62 0 1.96 1.96 0 0 1 3.93 0 1.31 1.31 0 1 0 2.62 0 4.58 4.58 0 0 0-4.59-4.58z"/><path id="d5o0m" d="M384.3 551.43c3.2 3.2 5 7.52 5 12.04v3.2c-.01 6.18-5.03 11.2-11.22 11.2h-16.87c-6.17 0-11.17-4.98-11.21-11.15v-3.25c0-9.4 7.62-17.03 17.03-17.03h5.24c4.51 0 8.85 1.8 12.04 4.99zm2.38 12.04a14.4 14.4 0 0 0-14.41-14.41h-5.24a14.4 14.4 0 0 0-14.41 14.4v3.2a8.6 8.6 0 0 0 8.6 8.6h16.86a8.6 8.6 0 0 0 8.6-8.6z"/><mask id="d5o0e" width="2" height="2" x="-1" y="-1"><path fill="#fff" d="M306 471h150v150H306z"/><use xlink:href="#d5o0a"/></mask><filter id="d5o0d" width="252" height="263" x="255" y="461" filterUnits="userSpaceOnUse"><feOffset dy="11" in="SourceGraphic" result="FeOffset1035Out"/><feGaussianBlur in="FeOffset1035Out" result="FeGaussianBlur1036Out" stdDeviation="16.4 16.4"/></filter></defs><g><g opacity=".09" transform="translate(-266 -436)"><use fill="#fff" fill-opacity="0" stroke="#fff" stroke-miterlimit="50" stroke-width="2.33" xlink:href="#d5o0b"/></g><g opacity=".26" transform="translate(-266 -436)"><use fill="#fff" fill-opacity="0" stroke="#fff" stroke-miterlimit="50" stroke-width="1.94" xlink:href="#d5o0c"/></g><g transform="translate(-266 -436)"><g><g filter="url(#d5o0d)"><use fill="none" stroke-width="0" mask="url(&quot;#d5o0e&quot;)" xlink:href="#d5o0a"/><use fill="#77aafc" xlink:href="#d5o0a"/></g><use fill="#fff" xlink:href="#d5o0a"/></g><g><g><use fill="#d775ff" xlink:href="#d5o0f"/></g><g><use fill="#3c7efb" xlink:href="#d5o0g"/></g><g><use fill="#3c7efb" xlink:href="#d5o0h"/></g><g><use fill="#3c7efb" xlink:href="#d5o0i"/></g><g><use fill="#3c7efb" xlink:href="#d5o0j"/></g><g><use fill="#3c7efb" xlink:href="#d5o0k"/></g><g><use fill="#3c7efb" xlink:href="#d5o0l"/></g><g><use fill="#3c7efb" xlink:href="#d5o0m"/></g></g></g></g></svg>