<svg id="SVGDoc" width="292" height="292" xmlns="http://www.w3.org/2000/svg" version="1.1" xmlns:xlink="http://www.w3.org/1999/xlink" xmlns:avocode="https://avocode.com/" viewBox="0 0 292 292"><defs><path d="M630,1286c0,-49.70563 40.29437,-90 90,-90c49.70563,0 90,40.29437 90,90c0,49.70563 -40.29437,90 -90,90c-49.70563,0 -90,-40.29437 -90,-90z" id="Path-0"/><path d="M612,1286c0,-59.64675 48.35325,-108 108,-108c59.64675,0 108,48.35325 108,108c0,59.64675 -48.35325,108 -108,108c-59.64675,0 -108,-48.35325 -108,-108z" id="Path-1"/><path d="M724.51424,1317.19865c-3.69898,1.92475 -7.8097,2.92337 -11.97947,2.91018h-24.00513l4.43456,-4.43456c0.90165,0.81287 1.85302,1.56882 2.84859,2.26348c0.423,0.46354 1.08499,0.624 1.67329,0.4056c0.5883,-0.21841 0.98521,-0.77198 1.00324,-1.39926c0.01804,-0.62728 -0.3464,-1.20274 -0.92118,-1.45459c-1.31839,-0.91168 -2.55026,-1.94253 -3.68007,-3.07955c-0.46193,-0.46194 -0.89307,-0.93927 -1.30881,-1.432l-0.56972,-0.6929c-0.34902,-0.4414 -0.68263,-0.88794 -1.00086,-1.3396c-0.23096,-0.33875 -0.46193,-0.6929 -0.6929,-1.04705l-0.46193,-0.75449c-0.34902,-0.60565 -0.67237,-1.22156 -0.97006,-1.84774l-0.30795,-0.63131c-0.17451,-0.39007 -0.33876,-0.78528 -0.49273,-1.18562c-0.10779,-0.29256 -0.21557,-0.56972 -0.30796,-0.86228c-0.18477,-0.54405 -0.35415,-1.09324 -0.50813,-1.64756c-0.10778,-0.40034 -0.21556,-0.78529 -0.29255,-1.18563c-0.07699,-0.40034 -0.12319,-0.56972 -0.18478,-0.84688c-0.12318,-0.65697 -0.2207,-1.32421 -0.29255,-2.00171c0,-0.20017 0,-0.40034 0,-0.60051c-0.13858,-0.86228 -0.13858,-1.64756 -0.13858,-2.40206c-0.00299,-4.1753 1.00054,-8.2898 2.92557,-11.99486c0.27141,-0.48838 0.25697,-1.08545 -0.03773,-1.56013c-0.2947,-0.47468 -0.82341,-0.75247 -1.3815,-0.72587c-0.55808,0.02661 -1.05797,0.35344 -1.30617,0.854c-2.1562,4.14709 -3.2812,8.75273 -3.27973,13.42686c0,0.78529 0,1.53978 0.10779,2.35586c0,0.2361 0,0.47734 0,0.7237c0.06159,0.62618 0.14884,1.24722 0.26176,1.86313c0,0.40034 0.15398,0.78529 0.23096,1.18563c0.07699,0.40034 0.18478,0.81608 0.27716,1.21642c0.09239,0.40035 0.21557,0.81609 0.33876,1.23183c0.12318,0.41574 0.15397,0.46193 0.23096,0.6929c0.2669,0.80068 0.56972,1.5911 0.90847,2.37125l0.23097,0.52353c0.21557,0.46193 0.43113,0.90847 0.6621,1.355l0.16938,0.30796c0.4106,0.76989 0.85714,1.52438 1.3396,2.26347l0.55432,0.81608c0.23097,0.30796 0.44654,0.63131 0.67751,0.93927c0.23096,0.30795 0.83148,1.04705 1.27801,1.53977l0.16938,0.20018l-6.99059,7.03678c-0.44417,0.44052 -0.57767,1.10597 -0.33779,1.68372c0.23989,0.57774 0.80547,0.95294 1.43103,0.9493h27.71599c4.66233,0.01576 9.25897,-1.09905 13.39607,-3.24893c0.4896,-0.25305 0.807,-0.74808 0.83265,-1.29861c0.02565,-0.55053 -0.24435,-1.07292 -0.70829,-1.3704c-0.46395,-0.29748 -1.05136,-0.32485 -1.54096,-0.0718z" id="Path-2"/><path d="M756.74046,1311.31858c0.44417,0.44052 0.57767,1.10597 0.33779,1.68372c-0.23989,0.57775 -0.80547,0.95294 -1.43103,0.9493h-30.79555c-13.07982,0.00623 -24.87518,-7.86807 -29.88492,-19.95046c-5.00975,-12.08239 -2.24708,-25.99292 6.99955,-35.24395c9.24662,-9.25103 23.15583,-12.02033 35.24061,-7.01634c12.08477,5.00399 19.96469,16.7956 19.96469,29.87542c0,0.87768 -0.12318,1.75535 -0.12318,2.61762c0,0.2669 0,0.52866 0,0.78529c-0.07699,0.7237 -0.18477,1.44739 -0.30796,2.17109c-0.07698,0.40034 -0.15397,0.76989 -0.24636,1.21642c-0.09239,0.44654 -0.20017,0.84688 -0.30796,1.30881c-0.10778,0.46194 -0.29255,1.12404 -0.36954,1.35501c-0.07699,0.23096 -0.23097,0.46193 -0.23097,0.6929c-0.29769,0.89307 -0.63131,1.77074 -1.00085,2.63302l-0.27716,0.63131c-0.67918,1.49063 -1.47194,2.92685 -2.37126,4.29597c-0.23097,0.35415 -0.50813,0.7391 -0.7237,1.04705c-0.21557,0.30796 -0.43113,0.63131 -0.6621,0.92387c-0.52353,0.61591 -1.01625,1.21642 -1.53978,1.80154l-0.23097,0.27716zM751.93636,1310.87205l-5.29684,-5.32763c-0.97455,0.89366 -2.003,1.7267 -3.07955,2.49444c-0.44603,0.36531 -1.05876,0.45085 -1.58779,0.22166c-0.52902,-0.2292 -0.88568,-0.73473 -0.92421,-1.30998c-0.03853,-0.57524 0.24752,-1.12382 0.74125,-1.42152c1.41463,-0.98971 2.73888,-2.10269 3.95723,-3.32592c0.52353,-0.55432 1.03165,-1.13944 1.53978,-1.73995l0.55432,-0.6775c0.40034,-0.50813 0.87767,-1.17023 1.13944,-1.53978c0.26176,-0.36955 0.49272,-0.75449 0.73909,-1.13943l0.56972,-0.95467c0.35928,-0.62617 0.6929,-1.26261 1.00085,-1.90932c0.13858,-0.27716 0.20017,-0.41574 0.40034,-0.83148c0.20018,-0.41574 0.43114,-0.97006 0.53893,-1.29341c0.10778,-0.32336 0.23096,-0.64671 0.33875,-0.97006c0.21557,-0.60052 0.46193,-1.3858 0.56971,-1.81694c0.10779,-0.43114 0.26177,-1.00086 0.32336,-1.32421c0.06159,-0.32335 0.20017,-0.64671 0.20017,-0.97006c0.13345,-0.73909 0.24123,-1.48332 0.32335,-2.23268c0,-0.21557 0,-0.44653 0,-0.6621c0.12318,-0.83148 0.12318,-1.67836 0.12318,-2.52524c0,-16.15752 -13.09825,-29.25577 -29.25577,-29.25577c-16.15752,0 -29.25577,13.09825 -29.25577,29.25577c0,16.15752 13.09825,29.25578 29.25577,29.25578z" id="Path-3"/><path d="M731.00709,1274.68121c5.95277,0 10.77844,4.82567 10.77844,10.77844c0,5.95277 -4.82567,10.77845 -10.77844,10.77845c-0.61996,-0.00875 -1.17419,-0.38848 -1.4062,-0.96345c-0.23201,-0.57498 -0.09652,-1.23302 0.34375,-1.66957c1.11209,-1.1056 1.44588,-2.77358 0.84491,-4.222c-0.60098,-1.44841 -2.01758,-2.39012 -3.58571,-2.38365h-5.06587l1.17023,5.85116c0.14195,0.66886 -0.17419,1.35122 -0.77622,1.67539c-0.60203,0.32417 -1.34573,0.2125 -1.826,-0.2742l-12.31822,-12.31822c-0.59701,-0.60057 -0.59701,-1.57051 0,-2.17108l12.31822,-12.31822c0.47873,-0.48158 1.21641,-0.5927 1.81576,-0.27351c0.59936,0.31918 0.91887,0.9933 0.78646,1.65931l-1.20103,5.85115zM738.55556,1283.96034c-0.71526,-3.60251 -3.87564,-6.19813 -7.54847,-6.19957h-10.77844c-0.4678,0.00947 -0.91453,-0.19428 -1.21407,-0.55373c-0.29954,-0.35944 -0.41939,-0.83559 -0.32571,-1.29401l0.53892,-2.83319l-7.69889,7.69889l7.69889,7.69889l-0.53892,-2.71001c-0.09368,-0.45842 0.02617,-0.93457 0.32571,-1.29401c0.29954,-0.35945 0.74627,-0.5632 1.21407,-0.55372h6.95979c2.14145,0.00927 4.16051,0.99956 5.47878,2.68719c1.31827,1.68762 1.79029,3.88636 1.28084,5.96636c3.3937,-1.40447 5.32275,-5.01057 4.6075,-8.61309z" id="Path-4"/><mask id="Mask1032" x="-1" y="-1" width="2" height="2"><rect width="180" height="180" x="630" y="1196" fill="#ffffff"></rect><use xlink:href="#Path-0" fill="#000000"/></mask><filter id="Filter1036" width="316" height="329" x="562" y="1186" filterUnits="userSpaceOnUse"><feOffset dx="0" dy="13" result="FeOffset1037Out" in="SourceGraphic"></feOffset><feGaussianBlur stdDeviation="23.2 23.2" result="FeGaussianBlur1038Out" in="FeOffset1037Out"></feGaussianBlur></filter></defs><desc>Generated with Avocode.</desc><g transform="matrix(1,0,0,1,-574,-1153)"><g><title>Icon Suggested</title><g opacity="0.09"><title>Oval</title><use xlink:href="#Path-1" fill-opacity="0" fill="#ffffff" stroke-linejoin="miter" stroke-linecap="butt" stroke-opacity="1" stroke="#ffffff" stroke-miterlimit="50" stroke-width="2.3328"/></g><g opacity="0.26"><title>Oval Copy 5</title><use xlink:href="#Path-0" fill-opacity="0" fill="#ffffff" stroke-linejoin="miter" stroke-linecap="butt" stroke-opacity="1" stroke="#ffffff" stroke-miterlimit="50" stroke-width="1.944"/></g><g><title>Group 6</title><g><title>Oval Copy 4</title><g filter="url(#Filter1036)"><use xlink:href="#Path-0" fill="none" stroke-opacity="1" stroke-width="0" mask="url(&quot;#Mask1032&quot;)"/><use xlink:href="#Path-0" fill="#dce9ff" fill-opacity="1"/></g><use xlink:href="#Path-0" fill="#ffffff" fill-opacity="1"/></g><g><title>Suggested Ticket Reply-2 </title><g><title>Shape</title><use xlink:href="#Path-2" fill="#3c7efb" fill-opacity="1"/></g><g><title>Shape</title><use xlink:href="#Path-3" fill="#3c7efb" fill-opacity="1"/></g><g><title>Shape</title><use xlink:href="#Path-4" fill="#d775ff" fill-opacity="1"/></g></g></g></g></g></svg>