<svg xmlns="http://www.w3.org/2000/svg" xmlns:xlink="http://www.w3.org/1999/xlink" width="230" height="236" viewBox="0 0 230 236"><defs><path id="lbdta" d="M531 546a75 75 0 1 1 150 0 75 75 0 0 1-150 0z"/><path id="lbdtb" d="M499 546c0-59.65 48.35-108 108-108s108 48.35 108 108-48.35 108-108 108-108-48.35-108-108z"/><path id="lbdtc" d="M517 546a90 90 0 1 1 180 0 90 90 0 0 1-180 0z"/><path id="lbdtf" d="M609.75 571.98a21.48 21.48 0 0 1-9.98 2.43h-20l3.69-3.7c.75.68 1.54 1.3 2.37 1.89a1.28 1.28 0 1 0 1.47-2.04 21.81 21.81 0 0 1-4.16-3.76l-.48-.58a25.21 25.21 0 0 1-1.4-1.99l-.4-.63c-.28-.5-.55-1.02-.8-1.54l-.26-.52a20 20 0 0 1-.4-1 25.46 25.46 0 0 1-.68-2.1c-.1-.32-.19-.64-.25-.97l-.16-.7c-.1-.56-.18-1.11-.24-1.68v-.5c-.12-.71-.12-1.37-.12-2 0-3.48.84-6.9 2.44-10a1.28 1.28 0 1 0-2.27-1.19 24.24 24.24 0 0 0-2.73 11.2c0 .65 0 1.28.09 1.96v.6c.05.52.12 1.04.22 1.55 0 .33.12.66.19.99.06.33.15.68.23 1.01.08.34.18.68.28 1.03.1.35.13.38.2.58.22.66.47 1.32.75 1.97l.2.44c.17.38.35.76.54 1.13l.15.25c.34.65.71 1.28 1.11 1.9l.46.67.57.78c.2.26.7.88 1.06 1.29l.15.16-5.83 5.87a1.28 1.28 0 0 0 .91 2.2h23.1c3.88 0 7.71-.92 11.16-2.72a1.29 1.29 0 0 0-1.18-2.28z"/><path id="lbdtg" d="M636.6 567.08a1.28 1.28 0 0 1-.9 2.2h-25.67a26.95 26.95 0 1 1 26.93-26.95c0 .73-.1 1.46-.1 2.18v.65c-.06.6-.15 1.2-.26 1.81l-.2 1.02-.26 1.09c-.09.38-.24.93-.3 1.13-.07.19-.2.38-.2.57-.25.75-.52 1.48-.83 2.2l-.23.52a26.64 26.64 0 0 1-1.98 3.58l-.6.88-.55.77-1.29 1.5-.19.23zm-4-.37l-4.41-4.44c-.82.74-1.67 1.44-2.57 2.08a1.28 1.28 0 1 1-1.48-2.1 24.38 24.38 0 0 0 3.3-2.77c.44-.46.86-.95 1.29-1.45l.46-.56c.33-.43.73-.98.95-1.29.21-.3.4-.62.61-.94l.48-.8c.3-.52.57-1.05.83-1.6.12-.22.17-.34.33-.68.17-.35.36-.81.45-1.08l.29-.81c.18-.5.38-1.16.47-1.51.1-.36.22-.84.27-1.1.05-.28.17-.55.17-.82.1-.61.2-1.23.27-1.86v-.55c.1-.7.1-1.4.1-2.1a24.38 24.38 0 1 0-24.38 24.38z"/><path id="lbdth" d="M615.16 536.56a8.98 8.98 0 1 1 0 17.96 1.28 1.28 0 0 1-.88-2.2 3.22 3.22 0 0 0-2.29-5.5h-4.22l.98 4.88a1.28 1.28 0 0 1-2.17 1.17L596.3 542.6c-.5-.5-.5-1.3 0-1.8l10.27-10.27a1.28 1.28 0 0 1 2.17 1.15l-1 4.88zm6.3 7.73c-.6-3-3.24-5.16-6.3-5.16h-8.98a1.28 1.28 0 0 1-1.28-1.54l.45-2.37-6.42 6.42 6.42 6.42-.45-2.26a1.28 1.28 0 0 1 1.28-1.54h5.8a5.83 5.83 0 0 1 5.63 7.21 6.42 6.42 0 0 0 3.84-7.18z"/><mask id="lbdte" width="2" height="2" x="-1" y="-1"><path fill="#fff" d="M531 471h150v150H531z"/><use xlink:href="#lbdta"/></mask><filter id="lbdtd" width="252" height="263" x="480" y="461" filterUnits="userSpaceOnUse"><feOffset dy="11" in="SourceGraphic" result="FeOffset1109Out"/><feGaussianBlur in="FeOffset1109Out" result="FeGaussianBlur1110Out" stdDeviation="16.4 16.4"/></filter></defs><g><g opacity=".09" transform="translate(-491 -436)"><use fill="#fff" fill-opacity="0" stroke="#fff" stroke-miterlimit="50" stroke-width="2.33" xlink:href="#lbdtb"/></g><g opacity=".26" transform="translate(-491 -436)"><use fill="#fff" fill-opacity="0" stroke="#fff" stroke-miterlimit="50" stroke-width="1.94" xlink:href="#lbdtc"/></g><g transform="translate(-491 -436)"><g><g filter="url(#lbdtd)"><use fill="none" stroke-width="0" mask="url(&quot;#lbdte&quot;)" xlink:href="#lbdta"/><use fill="#77aafc" xlink:href="#lbdta"/></g><use fill="#fff" xlink:href="#lbdta"/></g><g><g><use fill="#3c7efb" xlink:href="#lbdtf"/></g><g><use fill="#3c7efb" xlink:href="#lbdtg"/></g><g><use fill="#d775ff" xlink:href="#lbdth"/></g></g></g></g></svg>