<svg id="SVGDoc" width="292" height="292" xmlns="http://www.w3.org/2000/svg" version="1.1" xmlns:xlink="http://www.w3.org/1999/xlink" xmlns:avocode="https://avocode.com/" viewBox="0 0 292 292"><defs><path d="M630,6350c0,-49.70563 40.29437,-90 90,-90c49.70563,0 90,40.29437 90,90c0,49.70563 -40.29437,90 -90,90c-49.70563,0 -90,-40.29437 -90,-90z" id="Path-0"/><path d="M612,6350c0,-59.64675 48.35325,-108 108,-108c59.64675,0 108,48.35325 108,108c0,59.64675 -48.35325,108 -108,108c-59.64675,0 -108,-48.35325 -108,-108z" id="Path-1"/><path d="M706.41019,6367.13981c-1.2653,-1.2653 -1.2748,-3.30726 -0.02121,-4.56084c1.25358,-1.25358 3.29554,-1.24409 4.56084,0.02121c1.2653,1.2653 1.2748,3.30726 0.02121,4.56084c-1.25358,1.25358 -3.29554,1.24409 -4.56084,-0.02121z" id="Path-2"/><path d="M755.86145,6329.3c0.63276,1.47393 0.96576,3.06118 0.97924,4.66753l0.16053,13.69468c0.04271,3.19526 -1.16932,6.27764 -3.37113,8.57335l-26.18245,27.0166c-3.11111,3.22233 -7.73742,4.43369 -12.00764,3.1441" id="Path-3"/><path d="M747.88402,6323.66271c0.61622,1.47739 0.93281,3.06451 0.93107,4.66754v13.69467c-0.00001,3.20255 -1.25861,6.27426 -3.49955,8.54094l-28.06065,28.32934c-2.24375,2.27132 -5.29055,3.54785 -8.46796,3.54785c-3.1774,0 -6.2242,-1.27653 -8.46795,-3.54785l-13.56479,-13.69467c-2.24977,-2.26524 -3.51419,-5.34121 -3.51419,-8.54905c0,-3.20783 1.26442,-6.2838 3.51419,-8.54904l28.06065,-28.32934c2.24518,-2.2624 5.28776,-3.53305 8.45993,-3.53306h13.56478c1.57087,-0.0039 3.12656,0.31021 4.57511,0.92378" id="Path-4"/><path d="M734.21241,6324.44c-1.15051,0.16994 -2.21821,0.70323 -3.05007,1.52343c-2.21645,2.23768 -2.21645,5.86568 0,8.10336c2.21646,2.23768 5.81005,2.23768 8.0265,0c0.84982,-0.83151 1.41257,-1.91665 1.6053,-3.09548" id="Path-5"/><path d="M737.58,6327.58605l14.4477,-14.58605" id="Path-6"/><path d="M715.10299,6351.9v6.01269l-3.93299,3.97065" id="Path-7"/><path d="M701.61019,6355.77981c-1.2653,-1.2653 -1.2748,-3.30726 -0.02121,-4.56084c1.25358,-1.25358 3.29554,-1.24409 4.56084,0.02121c1.2653,1.2653 1.2748,3.30726 0.02121,4.56084c-1.25358,1.25358 -3.29554,1.24409 -4.56084,-0.02121z" id="Path-8"/><path d="M718.54445,6347.26l-8.21914,8.21681l-2.21531,-0.9562" id="Path-9"/><path d="M693.11959,6360.46118c-2.1004,-2.1004 -2.1004,-5.50581 0,-7.60621l11.65538,-11.65538c2.1004,-2.1004 5.50581,-2.1004 7.60621,0l11.83923,11.83923c2.1004,2.1004 2.1004,5.50581 0,7.60621l-11.65538,11.65538c-2.1004,2.1004 -5.50581,2.1004 -7.60621,0z" id="Path-10"/><mask id="Mask1159" x="-1" y="-1" width="2" height="2"><rect width="180" height="180" x="630" y="6260" fill="#ffffff"></rect><use xlink:href="#Path-0" fill="#000000"/></mask><filter id="Filter1163" width="316" height="329" x="562" y="6250" filterUnits="userSpaceOnUse"><feOffset dx="0" dy="13" result="FeOffset1164Out" in="SourceGraphic"></feOffset><feGaussianBlur stdDeviation="23.2 23.2" result="FeGaussianBlur1165Out" in="FeOffset1164Out"></feGaussianBlur></filter></defs><desc>Generated with Avocode.</desc><g transform="matrix(1,0,0,1,-574,-6217)"><g><title>Icon Suggested</title><g opacity="0.09"><title>Oval</title><use xlink:href="#Path-1" fill-opacity="0" fill="#ffffff" stroke-linejoin="miter" stroke-linecap="butt" stroke-opacity="1" stroke="#ffffff" stroke-miterlimit="50" stroke-width="2.3328"/></g><g opacity="0.26"><title>Oval Copy 5</title><use xlink:href="#Path-0" fill-opacity="0" fill="#ffffff" stroke-linejoin="miter" stroke-linecap="butt" stroke-opacity="1" stroke="#ffffff" stroke-miterlimit="50" stroke-width="1.944"/></g><g><title>Group 6</title><g><title>Oval Copy 4</title><g filter="url(#Filter1163)"><use xlink:href="#Path-0" fill="none" stroke-opacity="1" stroke-width="0" mask="url(&quot;#Mask1159&quot;)"/><use xlink:href="#Path-0" fill="#dce9ff" fill-opacity="1"/></g><use xlink:href="#Path-0" fill="#ffffff" fill-opacity="1"/></g><g><title>Ticket Tagging </title><g><title>Oval</title><use xlink:href="#Path-2" fill-opacity="0" fill="#ffffff" stroke-linejoin="round" stroke-linecap="round" stroke-opacity="1" stroke="#3c7efb" stroke-miterlimit="50" stroke-width="3.24"/></g><g><title>Shape</title><use xlink:href="#Path-3" fill-opacity="0" fill="#ffffff" stroke-linejoin="round" stroke-linecap="round" stroke-opacity="1" stroke="#3c7efb" stroke-miterlimit="50" stroke-width="3.24"/></g><g><title>Shape</title><use xlink:href="#Path-4" fill-opacity="0" fill="#ffffff" stroke-linejoin="round" stroke-linecap="round" stroke-opacity="1" stroke="#d775ff" stroke-miterlimit="50" stroke-width="3.24"/></g><g><title>Shape</title><use xlink:href="#Path-5" fill-opacity="0" fill="#ffffff" stroke-linejoin="round" stroke-linecap="round" stroke-opacity="1" stroke="#3c7efb" stroke-miterlimit="50" stroke-width="3.24"/></g><g><title>Shape</title><use xlink:href="#Path-6" fill-opacity="0" fill="#ffffff" stroke-linejoin="round" stroke-linecap="round" stroke-opacity="1" stroke="#3c7efb" stroke-miterlimit="50" stroke-width="3.24"/></g><g><title>Shape</title><use xlink:href="#Path-7" fill-opacity="0" fill="#ffffff" stroke-linejoin="round" stroke-linecap="round" stroke-opacity="1" stroke="#3c7efb" stroke-miterlimit="50" stroke-width="3.24"/></g><g><title>Oval</title><use xlink:href="#Path-8" fill-opacity="0" fill="#ffffff" stroke-linejoin="round" stroke-linecap="round" stroke-opacity="1" stroke="#3c7efb" stroke-miterlimit="50" stroke-width="3.24"/></g><g><title>Shape</title><use xlink:href="#Path-9" fill-opacity="0" fill="#ffffff" stroke-linejoin="round" stroke-linecap="round" stroke-opacity="1" stroke="#3c7efb" stroke-miterlimit="50" stroke-width="3.24"/></g><g><title>Rectangle-path</title><use xlink:href="#Path-10" fill-opacity="0" fill="#ffffff" stroke-linejoin="round" stroke-linecap="round" stroke-opacity="1" stroke="#3c7efb" stroke-miterlimit="50" stroke-width="3.24"/></g></g></g></g></g></svg>