<svg id="SVGDoc" width="292" height="292" xmlns="http://www.w3.org/2000/svg" version="1.1" xmlns:xlink="http://www.w3.org/1999/xlink" xmlns:avocode="https://avocode.com/" viewBox="0 0 292 292"><defs><path d="M631,8859c0,-49.70563 40.29437,-90 90,-90c49.70563,0 90,40.29437 90,90c0,49.70563 -40.29437,90 -90,90c-49.70563,0 -90,-40.29437 -90,-90z" id="Path-0"/><path d="M613,8859c0,-59.64675 48.35325,-108 108,-108c59.64675,0 108,48.35325 108,108c0,59.64675 -48.35325,108 -108,108c-59.64675,0 -108,-48.35325 -108,-108z" id="Path-1"/><path d="M752.87521,8854.1976c0,-14.46853 -11.72907,-26.1976 -26.19761,-26.1976c-14.46853,0 -26.1976,11.72907 -26.1976,26.1976c0.00192,0.99353 0.05877,1.98619 0.17028,2.97343c0.05148,0.46798 0.34871,0.87294 0.77973,1.06235c0.43101,0.18941 0.93034,0.13448 1.30988,-0.14409c0.37954,-0.27857 0.58163,-0.73846 0.53015,-1.20643c-1.05185,-8.71523 2.82519,-17.29322 10.06197,-22.26219c7.23677,-4.96897 16.6349,-5.50608 24.39067,-1.39395c7.75577,4.11214 12.58485,12.19256 12.53277,20.97088c-0.00317,7.13973 -3.2575,13.88945 -8.84169,18.33833c-0.27374,0.21642 -0.44981,0.53312 -0.48916,0.87985c-0.03934,0.34673 0.06129,0.69483 0.27958,0.96708c0.07876,0.07619 0.16677,0.1422 0.26197,0.19648l-4.06063,6.83758l-0.24887,-3.3271c0.44914,-0.43835 0.52424,-1.13368 0.17907,-1.65783c-0.34518,-0.52415 -1.01362,-0.72983 -1.59374,-0.49037c-1.33144,0.56457 -2.71285,1.00311 -4.12613,1.30988c-0.72342,0.07596 -1.2483,0.72399 -1.17234,1.44741c0.07596,0.72343 0.72399,1.24831 1.44742,1.17235h0.27507c0.82523,-0.18339 1.63735,-0.40607 2.42328,-0.65494l0.43226,6.71968c0.03512,0.57242 0.43852,1.05543 0.99551,1.19199h0.30127c0.46248,-0.00008 0.89064,-0.24403 1.1265,-0.64184l8.65831,-14.55277c0.04065,-0.08801 0.0714,-0.18027 0.09169,-0.27507c4.3113,-4.79271 6.69162,-11.01422 6.68039,-17.46071z" id="Path-2"/><path d="M715.54314,8867.3c4.70228,0 8.51423,3.81195 8.51423,8.51422c0,4.70228 -3.81195,8.51422 -8.51423,8.51422h-11.78892c-4.70227,0 -8.51422,-3.81194 -8.51422,-8.51422c0,-4.70227 3.81195,-8.51422 8.51422,-8.51422zM721.4376,8875.81422c0,-3.25542 -2.63904,-5.89446 -5.89446,-5.89446h-11.78892c-3.25542,0 -5.89446,2.63904 -5.89446,5.89446c0,3.25542 2.63904,5.89446 5.89446,5.89446h11.78892c3.25542,0 5.89446,-2.63904 5.89446,-5.89446z" id="Path-3"/><path d="M703.75458,8871.23c-2.53199,0 -4.58458,2.05259 -4.58458,4.58458c0,0.72343 0.58645,1.30988 1.30988,1.30988c0.72343,0 1.30988,-0.58645 1.30988,-1.30988c0,-1.08514 0.87968,-1.96482 1.96482,-1.96482c1.08514,0 1.96482,0.87968 1.96482,1.96482c0,0.72343 0.58645,1.30988 1.30988,1.30988c0.72343,0 1.30988,-0.58645 1.30988,-1.30988c0,-2.53199 -2.05259,-4.58458 -4.58458,-4.58458z" id="Path-4"/><path d="M712.27,8852.88964c0,-2.17028 1.75936,-3.92964 3.92964,-3.92964c2.17028,0 3.92964,1.75936 3.92964,3.92964c0,2.17028 -1.75936,3.92964 -3.92964,3.92964c-2.17028,0 -3.92964,-1.75936 -3.92964,-3.92964zM714.88976,8852.88964c0,0.72343 0.58645,1.30988 1.30988,1.30988c0.72343,0 1.30988,-0.58645 1.30988,-1.30988c0,-0.72343 -0.58645,-1.30988 -1.30988,-1.30988c-0.72343,0 -1.30988,0.58645 -1.30988,1.30988z" id="Path-5"/><path d="M726.67964,8848.96c2.17028,0 3.92964,1.75936 3.92964,3.92964c0,2.17028 -1.75936,3.92964 -3.92964,3.92964c-2.17028,0 -3.92964,-1.75936 -3.92964,-3.92964c0,-2.17028 1.75936,-3.92964 3.92964,-3.92964zM727.98952,8852.88964c0,-0.72343 -0.58645,-1.30988 -1.30988,-1.30988c-0.72343,0 -1.30988,0.58645 -1.30988,1.30988c0,0.72343 0.58645,1.30988 1.30988,1.30988c0.72343,0 1.30988,-0.58645 1.30988,-1.30988z" id="Path-6"/><path d="M737.15964,8856.81928c-2.17028,0 -3.92964,-1.75936 -3.92964,-3.92964c0,-2.17028 1.75936,-3.92964 3.92964,-3.92964c2.17028,0 3.92964,1.75936 3.92964,3.92964c0,2.17028 -1.75936,3.92964 -3.92964,3.92964zM737.15964,8854.19952c0.72343,0 1.30988,-0.58645 1.30988,-1.30988c0,-0.72343 -0.58645,-1.30988 -1.30988,-1.30988c-0.72343,0 -1.30988,0.58645 -1.30988,1.30988c0,0.72343 0.58645,1.30988 1.30988,1.30988z" id="Path-7"/><path d="M715.54458,8871.23c-2.53199,0 -4.58458,2.05259 -4.58458,4.58458c0,0.72343 0.58645,1.30988 1.30988,1.30988c0.72343,0 1.30988,-0.58645 1.30988,-1.30988c0,-1.08514 0.87968,-1.96482 1.96482,-1.96482c1.08514,0 1.96482,0.87968 1.96482,1.96482c0,0.72343 0.58645,1.30988 1.30988,1.30988c0.72343,0 1.30988,-0.58645 1.30988,-1.30988c0,-2.53199 -2.05259,-4.58458 -4.58458,-4.58458z" id="Path-8"/><path d="M724.30889,8864.42752c3.19345,3.19345 4.98752,7.5247 4.98752,12.04092v3.19611c-0.00722,6.18954 -5.02304,11.20536 -11.21258,11.21258h-16.87126c-6.16917,-0.0071 -11.17658,-4.99111 -11.21257,-11.16018v-3.24851c0,-9.40455 7.62389,-17.02844 17.02844,-17.02844h5.23952c4.51623,0 8.84748,1.79406 12.04093,4.98752zM726.67665,8876.46844c0,-7.95769 -6.45099,-14.40868 -14.40869,-14.40868h-5.23952c-7.95769,0 -14.40868,6.45099 -14.40868,14.40868v3.19611c0.00721,4.74269 3.85013,8.5856 8.59281,8.59282h16.87126c4.74269,-0.00722 8.5856,-3.85013 8.59282,-8.59282z" id="Path-9"/><mask id="Mask1240" x="-1" y="-1" width="2" height="2"><rect width="180" height="180" x="631" y="8769" fill="#ffffff"></rect><use xlink:href="#Path-0" fill="#000000"/></mask><filter id="Filter1244" width="316" height="329" x="563" y="8759" filterUnits="userSpaceOnUse"><feOffset dx="0" dy="13" result="FeOffset1245Out" in="SourceGraphic"></feOffset><feGaussianBlur stdDeviation="23.2 23.2" result="FeGaussianBlur1246Out" in="FeOffset1245Out"></feGaussianBlur></filter></defs><desc>Generated with Avocode.</desc><g transform="matrix(1,0,0,1,-575,-8726)"><g><title>Icon Suggested</title><g opacity="0.09"><title>Oval</title><use xlink:href="#Path-1" fill-opacity="0" fill="#ffffff" stroke-linejoin="miter" stroke-linecap="butt" stroke-opacity="1" stroke="#ffffff" stroke-miterlimit="50" stroke-width="2.3328"/></g><g opacity="0.26"><title>Oval Copy 5</title><use xlink:href="#Path-0" fill-opacity="0" fill="#ffffff" stroke-linejoin="miter" stroke-linecap="butt" stroke-opacity="1" stroke="#ffffff" stroke-miterlimit="50" stroke-width="1.944"/></g><g><title>Group 6</title><g><title>Oval Copy 4</title><g filter="url(#Filter1244)"><use xlink:href="#Path-0" fill="none" stroke-opacity="1" stroke-width="0" mask="url(&quot;#Mask1240&quot;)"/><use xlink:href="#Path-0" fill="#dce9ff" fill-opacity="1"/></g><use xlink:href="#Path-0" fill="#ffffff" fill-opacity="1"/></g><g><title>Auto Ticket Reply </title><g><title>Shape</title><use xlink:href="#Path-2" fill="#d775ff" fill-opacity="1"/></g><g><title>Shape</title><use xlink:href="#Path-3" fill="#3c7efb" fill-opacity="1"/></g><g><title>Shape</title><use xlink:href="#Path-4" fill="#3c7efb" fill-opacity="1"/></g><g><title>Shape</title><use xlink:href="#Path-5" fill="#3c7efb" fill-opacity="1"/></g><g><title>Shape</title><use xlink:href="#Path-6" fill="#3c7efb" fill-opacity="1"/></g><g><title>Shape</title><use xlink:href="#Path-7" fill="#3c7efb" fill-opacity="1"/></g><g><title>Shape</title><use xlink:href="#Path-8" fill="#3c7efb" fill-opacity="1"/></g><g><title>Shape</title><use xlink:href="#Path-9" fill="#3c7efb" fill-opacity="1"/></g></g></g></g></g></svg>