<svg id="SVGDoc" width="230" height="235" xmlns="http://www.w3.org/2000/svg" version="1.1" xmlns:xlink="http://www.w3.org/1999/xlink" xmlns:avocode="https://avocode.com/" viewBox="0 0 230 235"><defs><path d="M984,546c0,-41.42136 33.57864,-75 75,-75c41.42136,0 75,33.57864 75,75c0,41.42136 -33.57864,75 -75,75c-41.42136,0 -75,-33.57864 -75,-75z" id="Path-0"/><path d="M951,547c0,-59.64675 48.35325,-108 108,-108c59.64675,0 108,48.35325 108,108c0,59.64675 -48.35325,108 -108,108c-59.64675,0 -108,-48.35325 -108,-108z" id="Path-1"/><path d="M969,547c0,-49.70563 40.29437,-90 90,-90c49.70563,0 90,40.29437 90,90c0,49.70563 -40.29437,90 -90,90c-49.70563,0 -90,-40.29437 -90,-90z" id="Path-2"/><path d="M1059.68431,553.80934c-7.12579,-7.12589 -7.12574,-18.67915 0.00011,-25.80497c7.12586,-7.12583 18.67912,-7.12583 25.80498,0c7.12585,7.12582 7.1259,18.67908 0.00011,25.80497l-11.95949,11.8926c-0.52177,0.51867 -1.36445,0.51867 -1.88622,0zM1061.58392,551.85622l11.00968,11.00969l11.00968,-11.00969c5.94373,-6.10341 5.87914,-15.8503 -0.14496,-21.8744c-6.0241,-6.0241 -15.77099,-6.08869 -21.8744,-0.14496c-6.07235,6.08384 -6.07235,15.93552 0,22.01936z" id="Path-3"/><path d="M1066.44205,547.24991c-2.93554,-2.93069 -3.39226,-7.52684 -1.09088,-10.97793c2.30139,-3.45108 6.72001,-4.79607 10.5539,-3.21251c3.83389,1.58356 6.01542,5.6547 5.21058,9.72393c-0.80483,4.06923 -4.37189,7.00338 -8.51995,7.00824c-2.30865,0.01012 -4.52507,-0.90535 -6.15365,-2.54173zM1068.34166,536.84222c-1.13303,1.12534 -1.76887,2.65713 -1.76583,4.25404c-0.00253,2.87208 2.02421,5.34594 4.84064,5.90855c2.81642,0.56261 5.63805,-0.94274 6.73914,-3.59536c1.10109,-2.65262 0.17494,-5.71365 -2.21201,-7.31093c-2.38694,-1.59728 -5.56981,-1.2859 -7.60194,0.7437z" id="Path-4"/><path d="M1031.13106,534.68536c-3.17168,-3.16643 -4.1227,-7.9321 -2.40933,-12.07338c1.71337,-4.14128 5.75344,-6.84198 10.23517,-6.84198c4.48172,0 8.5218,2.7007 10.23516,6.84198c1.71337,4.14128 0.76235,8.90695 -2.40933,12.07338l-6.88941,6.88942c-0.52177,0.51867 -1.36445,0.51867 -1.88623,0zM1033.01729,520.90654c-3.27234,3.28367 -3.27234,8.59554 0,11.87922l5.93961,5.95299l5.93961,-5.95299c3.1867,-3.29597 3.14253,-8.53816 -0.09927,-11.77996c-3.24179,-3.24179 -8.48399,-3.28596 -11.77995,-0.09926z" id="Path-5"/><path d="M1039.15537,532.39808c-2.16559,0.00171 -4.11869,-1.30204 -4.94766,-3.30269c-0.82896,-2.00064 -0.37033,-4.30369 1.16183,-5.83414c2.11636,-2.02833 5.45529,-2.02833 7.57166,0c1.53215,1.53045 1.99079,3.8335 1.16182,5.83414c-0.82896,2.00065 -2.78207,3.3044 -4.94765,3.30269zM1037.26914,525.16086c-0.5024,0.50183 -0.78469,1.18281 -0.78469,1.89291c0,0.7101 0.28229,1.39108 0.78469,1.89292c0.50184,0.5024 1.18281,0.78469 1.89292,0.78469c0.7101,0 1.39107,-0.28229 1.89291,-0.78469c0.67628,-0.67628 0.94039,-1.66197 0.69286,-2.58577c-0.24753,-0.92381 -0.96911,-1.64539 -1.89292,-1.89292c-0.9238,-0.24753 -1.9095,0.01658 -2.58577,0.69286z" id="Path-6"/><path d="M1091.33008,573.87525l-3.17047,3.18384h-2.6755l1.83272,-1.83271h-10.95618c-0.58129,1.57767 -2.08441,2.62574 -3.76576,2.62574c-1.68135,0 -3.18447,-1.04807 -3.76577,-2.62574h-30.07262c-4.43291,0 -8.0265,-3.59359 -8.0265,-8.0265c0,-4.43292 3.59359,-8.0265 8.0265,-8.0265h4.41458c2.95527,0 5.351,-2.39573 5.351,-5.351c0,-2.95528 -2.39573,-5.351 -5.351,-5.351h-0.2408c-0.65153,1.84281 -2.53593,2.94823 -4.46238,2.6177c-1.92645,-0.33053 -3.3346,-2.00086 -3.3346,-3.95545c0,-1.9546 1.40815,-3.62493 3.3346,-3.95546c1.92645,-0.33052 3.81085,0.77489 4.46238,2.61771h0.2408c4.43291,0 8.0265,3.59358 8.0265,8.0265c0,4.43291 -3.59359,8.0265 -8.0265,8.0265h-4.41458c-2.95528,0 -5.351,2.39572 -5.351,5.351c0,2.95527 2.39572,5.351 5.351,5.351h30.086c0.0467,-0.13203 0.10029,-0.26152 0.16053,-0.38795l-9.20372,-9.20372v2.60861l-1.91298,-1.91298v-4.49484h4.49484l1.8996,1.8996h-2.59523l9.20372,9.20372c1.08344,-0.53552 2.35457,-0.53552 3.43801,0l9.17697,-9.20372h-2.59524l1.91299,-1.8996h4.49484v4.49484l-1.89961,1.88623v-2.59524l-9.20372,9.20372c0.06024,0.12643 0.11383,0.25592 0.16053,0.38795h10.9428l-1.83272,-1.83272h2.6755zM1040.49558,547.12025c0,-0.73882 -0.59894,-1.33775 -1.33775,-1.33775c-0.73882,0 -1.33775,0.59893 -1.33775,1.33775c0,0.73882 0.59893,1.33775 1.33775,1.33775c0.73881,0 1.33775,-0.59893 1.33775,-1.33775zM1073.79871,574.37283c0.19709,-0.49271 0.0843,-1.05533 -0.28746,-1.43401c-0.51851,-0.50119 -1.34097,-0.50119 -1.85948,0c-0.37634,0.38395 -0.48628,0.95589 -0.27908,1.45199c0.2072,0.4961 0.69126,0.81997 1.22889,0.82219c0.53036,-0.01783 1.00005,-0.34746 1.19713,-0.84017z" id="Path-7"/><mask id="Mask1251" x="-1" y="-1" width="2" height="2"><rect width="150" height="150" x="984" y="471" fill="#ffffff"></rect><use xlink:href="#Path-0" fill="#000000"/></mask><filter id="Filter1255" width="252" height="263" x="933" y="461" filterUnits="userSpaceOnUse"><feOffset dx="0" dy="11" result="FeOffset1256Out" in="SourceGraphic"></feOffset><feGaussianBlur stdDeviation="16.4 16.4" result="FeGaussianBlur1257Out" in="FeOffset1256Out"></feGaussianBlur></filter></defs><desc>Generated with Avocode.</desc><g transform="matrix(1,0,0,1,-944,-437)"><g opacity="0.09"><title>Oval</title><use xlink:href="#Path-1" fill-opacity="0" fill="#ffffff" stroke-linejoin="miter" stroke-linecap="butt" stroke-opacity="1" stroke="#ffffff" stroke-miterlimit="50" stroke-width="2.3328"/></g><g opacity="0.26"><title>Oval Copy 5</title><use xlink:href="#Path-2" fill-opacity="0" fill="#ffffff" stroke-linejoin="miter" stroke-linecap="butt" stroke-opacity="1" stroke="#ffffff" stroke-miterlimit="50" stroke-width="1.944"/></g><g><title>Group 9</title><g><title>Oval Copy 2</title><g filter="url(#Filter1255)"><use xlink:href="#Path-0" fill="none" stroke-opacity="1" stroke-width="0" mask="url(&quot;#Mask1251&quot;)"/><use xlink:href="#Path-0" fill="#77aafc" fill-opacity="1"/></g><use xlink:href="#Path-0" fill="#ffffff" fill-opacity="1"/></g><g><title>Auto Ticket Triage-1 </title><g><title>Shape</title><use xlink:href="#Path-3" fill="#d775ff" fill-opacity="1"/></g><g><title>Shape</title><use xlink:href="#Path-4" fill="#3c7efb" fill-opacity="1"/></g><g><title>Shape</title><use xlink:href="#Path-5" fill="#3c7efb" fill-opacity="1"/></g><g><title>Shape</title><use xlink:href="#Path-6" fill="#3c7efb" fill-opacity="1"/></g><g><title>Shape</title><use xlink:href="#Path-7" fill="#3c7efb" fill-opacity="1"/></g></g></g></g></svg>