<svg id="SVGDoc" width="992" height="633" xmlns="http://www.w3.org/2000/svg" version="1.1" xmlns:xlink="http://www.w3.org/1999/xlink" xmlns:avocode="https://avocode.com/" viewBox="0 0 992 633"><defs><path d="M936,4447c0,-3.31371 2.68629,-6 6,-6h15.6l2.4,-3l2.4,3h14.6c3.31371,0 6,2.68629 6,6v17c0,3.31371 -2.68629,6 -6,6h-35c-3.31371,0 -6,-2.68629 -6,-6z" id="Path-0"/><path d="M731,4554c0,-3.31371 2.68629,-6 6,-6h461c3.31371,0 6,2.68629 6,6v221c0,3.31371 -2.68629,6 -6,6h-461c-3.31371,0 -6,-2.68629 -6,-6z" id="Path-1"/><path d="M823,4739c0,-6.07513 4.92487,-11 11,-11h62c6.07513,0 11,4.92487 11,11v0c0,6.07513 -4.92487,11 -11,11h-62c-6.07513,0 -11,-4.92487 -11,-11z" id="Path-2"/><path d="M506,4195c0,-3.31371 2.68629,-6 6,-6h415c3.31371,0 6,2.68629 6,6v147c0,3.31371 -2.68629,6 -6,6h-415c-3.31371,0 -6,-2.68629 -6,-6z" id="Path-3"/><path d="M234,4313c0,-3.31371 2.68629,-6 6,-6h958c3.31371,0 6,2.68629 6,6v159c0,3.31371 -2.68629,6 -6,6h-958c-3.31371,0 -6,-2.68629 -6,-6z" id="Path-4"/><path d="M284,4423.5c0,-2.48528 2.01472,-4.5 4.5,-4.5h861c2.48528,0 4.5,2.01472 4.5,4.5v1c0,2.48528 -2.01472,4.5 -4.5,4.5h-861c-2.48528,0 -4.5,-2.01472 -4.5,-4.5z" id="Path-5"/><path d="M284,4423.5c0,-2.48528 2.01472,-4.5 4.5,-4.5h667c2.48528,0 4.5,2.01472 4.5,4.5v1c0,2.48528 -2.01472,4.5 -4.5,4.5h-667c-2.48528,0 -4.5,-2.01472 -4.5,-4.5z" id="Path-6"/><path d="M948,4424c0,-6.62742 5.37258,-12 12,-12c6.62742,0 12,5.37258 12,12c0,6.62742 -5.37258,12 -12,12c-6.62742,0 -12,-5.37258 -12,-12z" id="Path-7"/><path d="M1063,4590c3.31371,0 6,2.68629 6,6v114c0,3.31371 -2.68629,6 -6,6h-233c-3.31371,0 -6,-2.68629 -6,-6v-106.07947l-10,-13.92053z" id="Path-8"/><path d="M1037.5,4679.5h-11.18034" id="Path-9"/><path d="M1083,4614c0,-19.88225 16.11775,-36 36,-36c19.88225,0 36,16.11775 36,36c0,19.88225 -16.11775,36 -36,36c-19.88225,0 -36,-16.11775 -36,-36z"/><path d="M546,4255c0,-19.88225 16.11775,-36 36,-36c19.88225,0 36,16.11775 36,36c0,19.88225 -16.11775,36 -36,36c-19.88225,0 -36,-16.11775 -36,-36z"/><path d="M880,4232c3.31371,0 6,2.68629 6,6v74c0,3.31371 -2.68629,6 -6,6h-233c-3.31371,0 -6,-2.68629 -6,-6v-68.64085l-10,-11.35915z" id="Path-12"/><linearGradient id="LinearGradient1050" gradientUnits="userSpaceOnUse" x1="939.453125" y1="4436" x2="977.0803571428571" y2="4415.544642857143"><stop stop-opacity="1" stop-color="#ff6268" offset="0"></stop><stop stop-opacity="1" stop-color="#ffa34e" offset="1"></stop></linearGradient><mask id="Mask1064" x="-1" y="-1" width="2" height="2"><rect width="47" height="32" x="936" y="4438" fill="#ffffff"></rect><use xlink:href="#Path-0" fill="#000000"/></mask><filter id="Filter1068" width="85" height="72" x="917" y="4428" filterUnits="userSpaceOnUse"><feOffset dx="0" dy="2" result="FeOffset1069Out" in="SourceGraphic"></feOffset><feGaussianBlur stdDeviation="3.6 3.6" result="FeGaussianBlur1070Out" in="FeOffset1069Out"></feGaussianBlur></filter><mask id="Mask1087" x="-1" y="-1" width="2" height="2"><rect width="473" height="233" x="731" y="4548" fill="#ffffff"></rect><use xlink:href="#Path-1" fill="#000000"/></mask><filter id="Filter1091" width="537" height="307" x="699" y="4538" filterUnits="userSpaceOnUse"><feOffset dx="0" dy="10" result="FeOffset1092Out" in="SourceGraphic"></feOffset><feGaussianBlur stdDeviation="8.8 8.8" result="FeGaussianBlur1093Out" in="FeOffset1092Out"></feGaussianBlur></filter><linearGradient id="LinearGradient1094" gradientUnits="userSpaceOnUse" x1="1458.7671963526914" y1="4397.684909119898" x2="885.0882502655807" y2="4741.826132015306"><stop stop-opacity="1" stop-color="#ff878e" offset="0"></stop><stop stop-opacity="1" stop-color="#ff4f55" offset="1"></stop></linearGradient><clipPath id="ClipPath1116"><use xlink:href="#Path-2" fill="#ffffff"/></clipPath><mask id="Mask1153" x="-1" y="-1" width="2" height="2"><rect width="427" height="159" x="506" y="4189" fill="#ffffff"></rect><use xlink:href="#Path-3" fill="#000000"/></mask><filter id="Filter1157" width="563" height="343" x="438" y="4179" filterUnits="userSpaceOnUse"><feOffset dx="0" dy="48" result="FeOffset1158Out" in="SourceGraphic"></feOffset><feGaussianBlur stdDeviation="23.2 23.2" result="FeGaussianBlur1159Out" in="FeOffset1158Out"></feGaussianBlur></filter><linearGradient id="LinearGradient1160" gradientUnits="userSpaceOnUse" x1="962.37890625" y1="4189" x2="516.390625" y2="4357.453125"><stop stop-opacity="1" stop-color="#6da6ff" offset="0"></stop><stop stop-opacity="1" stop-color="#728cf6" offset="1"></stop></linearGradient></defs><desc>Generated with Avocode.</desc><g transform="matrix(1,0,0,1,-234,-4180)"><g><title>Auto treshold</title><g><title>progress</title><g><title>Rectangle 18</title><use xlink:href="#Path-4" fill="#e4f4ff" fill-opacity="1"/></g><g><title>Automation Treshold</title><g style="fill: #3c4667; fill-opacity: 1; font-size: 20px; font-family: 'Montserrat', 'Montserrat-SemiBold'" transform="matrix(1,0,0,1,282.5,4375)"><text font-family="Helvetica, Arial, sans-serif" dominant-baseline="text-before-edge" ><tspan style="letter-spacing: 0.1px">Automation Treshold</tspan></text></g></g><g><title>Rectangle 20</title><use xlink:href="#Path-5" fill="#b5d9f2" fill-opacity="1"/></g><g><title>Rectangle 20 Copy 2</title><use xlink:href="#Path-6" fill="#3d87f1" fill-opacity="1"/></g><g><title>Oval 13</title><use xlink:href="#Path-7" fill="url(#LinearGradient1050)"/></g><g><title>Group 11</title><g><title>Combined Shape</title><g filter="url(#Filter1068)"><use xlink:href="#Path-0" fill="none" stroke-opacity="1" stroke-width="0" mask="url(&quot;#Mask1064&quot;)"/><use xlink:href="#Path-0" fill="#ffb088" fill-opacity="1"/></g><use xlink:href="#Path-0" fill="#ff8f56" fill-opacity="1"/></g><g><title>70%</title><g style="fill: #ffffff; fill-opacity: 1; font-size: 14px; font-family: 'Montserrat', 'Montserrat-SemiBold'" transform="matrix(1,0,0,1,943,4447)"><text font-family="Helvetica, Arial, sans-serif" dominant-baseline="text-before-edge" ><tspan style="letter-spacing: 0.07px">70%</tspan></text></g></g></g></g><g><title>Chat</title><g><title>Rectangle 18</title><g filter="url(#Filter1091)"><use xlink:href="#Path-1" fill="none" stroke-opacity="0.4" stroke-width="0" mask="url(&quot;#Mask1087&quot;)"/><use xlink:href="#Path-1" fill="#f85959" fill-opacity="0.4"/></g><use xlink:href="#Path-1" fill="url(#LinearGradient1094)"/></g><g><title>Group 14</title><g transform="matrix(-1,0,0,1,1883,0)"><title>Group 13 Copy</title><g><title>Combined Shape</title><use xlink:href="#Path-8" fill="#ffffff" fill-opacity="1"/></g><g><title>Group 20</title><g opacity="0.19"><title>Rectangle 29</title><use xlink:href="#Path-2" fill="#ffffff" fill-opacity="1"/><use xlink:href="#Path-2" fill-opacity="0" fill="#ffffff" stroke-linejoin="miter" stroke-linecap="butt" stroke-opacity="1" stroke="#ffffff" stroke-miterlimit="50" stroke-width="2" clip-path="url(&quot;#ClipPath1116&quot;)"/></g><g><title>Automated</title><g style="fill: #ffffff; fill-opacity: 1; font-size: 10px; font-family: 'Montserrat', 'Montserrat-Regular'; font-weight: normal; font-style: none" transform="matrix(1,0,0,1,837,4733)"><text font-family="Helvetica, Arial, sans-serif" dominant-baseline="text-before-edge" ><tspan style="letter-spacing: 0.05px">Automated</tspan></text></g></g></g><g><title>Yes, your policy cov</title><g style="fill: #5a7193; fill-opacity: 1; font-size: 14px; font-family: 'Montserrat', 'Montserrat-Regular'; font-weight: normal; font-style: none; line-height: 23px" transform="matrix(1,0,0,1,847,4613)"><text font-family="Helvetica, Arial, sans-serif" dominant-baseline="text-before-edge" ><tspan style="letter-spacing: 0.07px">Yes, your policy covers you in all Asian countries.</tspan></text></g></g><g><title>Group 18</title><g><title>Answer confidence :</title><g style="fill: #b3b0b0; fill-opacity: 1; font-size: 12px; font-family: 'Montserrat', 'Montserrat-Regular'; font-weight: normal; font-style: none" transform="matrix(1,0,0,1,832,4672)"><text font-family="Helvetica, Arial, sans-serif" dominant-baseline="text-before-edge" ><tspan style="letter-spacing: 0.06px">Answer confidence : 98%</tspan></text></g></g><g><title>Line</title><use xlink:href="#Path-9" fill-opacity="0" fill="#ffffff" stroke-linejoin="miter" stroke-linecap="square" stroke-opacity="1" stroke="#c4c4c4" stroke-miterlimit="50" stroke-width="1"/></g></g></g><g><title>Oval 4 Copy</title></g></g></g><g><title>Chat Copy</title><g><title>Rectangle 18</title><g filter="url(#Filter1157)"><use xlink:href="#Path-3" fill="none" stroke-opacity="1" stroke-width="0" mask="url(&quot;#Mask1153&quot;)"/><use xlink:href="#Path-3" fill="#99c7e6" fill-opacity="1"/></g><use xlink:href="#Path-3" fill="url(#LinearGradient1160)"/></g><g><title>Group 17</title><g><title>Oval 4</title></g><g><title>Group 13</title><g><title>Combined Shape</title><use xlink:href="#Path-12" fill="#ffffff" fill-opacity="1"/></g><g><title>Is travel to Thailan</title><g style="fill: #4c72aa; fill-opacity: 1; font-size: 14px; font-family: 'Montserrat', 'Montserrat-Regular'; font-weight: normal; font-style: none; line-height: 23px" transform="matrix(1,0,0,1,664,4252)"><text font-family="Helvetica, Arial, sans-serif" dominant-baseline="text-before-edge" ><tspan style="letter-spacing: 0.07px">Is travel to Thailand covered by my policy?</tspan></text></g></g></g></g></g><g><title>Jatana’s suggested r</title><g style="fill: #566390; fill-opacity: 1; font-size: 16px; font-family: 'Helvetica', 'Helvetica'; font-weight: normal; font-style: none; line-height: 32px" transform="matrix(1,0,0,1,252,4548)"><text font-family="Helvetica, Arial, sans-serif" dominant-baseline="text-before-edge" ><tspan style="letter-spacing: 0.5px">Jatana’s suggested replies are extremely accurate, so much so that you will soon want Jatana to reply to your customers without agent intervention.

By specifing an automation threshold, you can tell Jatana if the reply should be suggested to the agent or sent directly to the customer.</tspan></text></g></g></g></g></svg>