<svg xmlns="http://www.w3.org/2000/svg" xmlns:xlink="http://www.w3.org/1999/xlink" width="992" height="633" viewBox="0 0 992 633"><defs><path id="rl1sa" d="M936 4447a6 6 0 0 1 6-6h15.6l2.4-3 2.4 3H977a6 6 0 0 1 6 6v17a6 6 0 0 1-6 6h-35a6 6 0 0 1-6-6z"/><path id="rl1sb" d="M731 4554a6 6 0 0 1 6-6h461a6 6 0 0 1 6 6v221a6 6 0 0 1-6 6H737a6 6 0 0 1-6-6z"/><path id="rl1sc" d="M823 4739a11 11 0 0 1 11-11h62a11 11 0 0 1 0 22h-62a11 11 0 0 1-11-11z"/><path id="rl1sd" d="M506 4195a6 6 0 0 1 6-6h415a6 6 0 0 1 6 6v147a6 6 0 0 1-6 6H512a6 6 0 0 1-6-6z"/><path id="rl1se" d="M234 4313a6 6 0 0 1 6-6h958a6 6 0 0 1 6 6v159a6 6 0 0 1-6 6H240a6 6 0 0 1-6-6z"/><path id="rl1sf" d="M284 4423.5a4.5 4.5 0 0 1 4.5-4.5h861a4.5 4.5 0 0 1 4.5 4.5v1a4.5 4.5 0 0 1-4.5 4.5h-861a4.5 4.5 0 0 1-4.5-4.5z"/><path id="rl1sg" d="M284 4423.5a4.5 4.5 0 0 1 4.5-4.5h667a4.5 4.5 0 0 1 4.5 4.5v1a4.5 4.5 0 0 1-4.5 4.5h-667a4.5 4.5 0 0 1-4.5-4.5z"/><path id="rl1sh" d="M948 4424a12 12 0 1 1 24 0 12 12 0 0 1-24 0z"/><path id="rl1so" d="M1063 4590a6 6 0 0 1 6 6v114a6 6 0 0 1-6 6H830a6 6 0 0 1-6-6v-106.08L814 4590z"/><path id="rl1sq" d="M1037.5 4679.5h-11.18"/><path id="rl1su" d="M880 4232a6 6 0 0 1 6 6v74a6 6 0 0 1-6 6H647a6 6 0 0 1-6-6v-68.64L631 4232z"/><linearGradient id="rl1si" x1="939.45" x2="977.08" y1="4436" y2="4415.54" gradientUnits="userSpaceOnUse"><stop offset="0" stop-color="#ff6268"/><stop offset="1" stop-color="#ffa34e"/></linearGradient><mask id="rl1sk" width="2" height="2" x="-1" y="-1"><path fill="#fff" d="M936 4438h47v32h-47z"/><use xlink:href="#rl1sa"/></mask><filter id="rl1sj" width="85" height="72" x="917" y="4428" filterUnits="userSpaceOnUse"><feOffset dy="2" in="SourceGraphic" result="FeOffset4052Out"/><feGaussianBlur in="FeOffset4052Out" result="FeGaussianBlur4053Out" stdDeviation="3.6 3.6"/></filter><mask id="rl1sm" width="2" height="2" x="-1" y="-1"><path fill="#fff" d="M731 4548h473v233H731z"/><use xlink:href="#rl1sb"/></mask><filter id="rl1sl" width="537" height="307" x="699" y="4538" filterUnits="userSpaceOnUse"><feOffset dy="10" in="SourceGraphic" result="FeOffset4075Out"/><feGaussianBlur in="FeOffset4075Out" result="FeGaussianBlur4076Out" stdDeviation="8.8 8.8"/></filter><linearGradient id="rl1sn" x1="1458.77" x2="885.09" y1="4397.68" y2="4741.83" gradientUnits="userSpaceOnUse"><stop offset="0" stop-color="#ff878e"/><stop offset="1" stop-color="#ff4f55"/></linearGradient><clipPath id="rl1sp"><use fill="#fff" xlink:href="#rl1sc"/></clipPath><mask id="rl1ss" width="2" height="2" x="-1" y="-1"><path fill="#fff" d="M506 4189h427v159H506z"/><use xlink:href="#rl1sd"/></mask><filter id="rl1sr" width="563" height="343" x="438" y="4179" filterUnits="userSpaceOnUse"><feOffset dy="48" in="SourceGraphic" result="FeOffset4141Out"/><feGaussianBlur in="FeOffset4141Out" result="FeGaussianBlur4142Out" stdDeviation="23.2 23.2"/></filter><linearGradient id="rl1st" x1="962.38" x2="516.39" y1="4189" y2="4357.45" gradientUnits="userSpaceOnUse"><stop offset="0" stop-color="#6da6ff"/><stop offset="1" stop-color="#728cf6"/></linearGradient></defs><g><g transform="translate(-234 -4180)"><g><g><use fill="#e4f4ff" xlink:href="#rl1se"/></g><g><g fill="#3c4667" font-family="'Montserrat','Montserrat-SemiBold'" font-size="20"><text dominant-baseline="text-before-edge" font-family="Helvetica, Arial, sans-serif" transform="translate(282.5 4375)"><tspan letter-spacing=".1">Automation Treshold</tspan></text></g></g><g><use fill="#b5d9f2" xlink:href="#rl1sf"/></g><g><use fill="#3d87f1" xlink:href="#rl1sg"/></g><g><use fill="url(#rl1si)" xlink:href="#rl1sh"/></g><g><g><g filter="url(#rl1sj)"><use fill="none" stroke-width="0" mask="url(&quot;#rl1sk&quot;)" xlink:href="#rl1sa"/><use fill="#ffb088" xlink:href="#rl1sa"/></g><use fill="#ff8f56" xlink:href="#rl1sa"/></g><g><g fill="#fff" font-family="'Montserrat','Montserrat-SemiBold'" font-size="14"><text dominant-baseline="text-before-edge" font-family="Helvetica, Arial, sans-serif" transform="translate(943 4447)"><tspan letter-spacing=".07">70%</tspan></text></g></g></g></g><g><g><g filter="url(#rl1sl)"><use fill="none" stroke-opacity=".4" stroke-width="0" mask="url(&quot;#rl1sm&quot;)" xlink:href="#rl1sb"/><use fill="#f85959" fill-opacity=".4" xlink:href="#rl1sb"/></g><use fill="url(#rl1sn)" xlink:href="#rl1sb"/></g><g><g transform="matrix(-1 0 0 1 1883 0)"><g><use fill="#fff" xlink:href="#rl1so"/></g><g><g opacity=".19"><use fill="#fff" xlink:href="#rl1sc"/><use fill="#fff" fill-opacity="0" stroke="#fff" stroke-miterlimit="50" stroke-width="2" clip-path="url(&quot;#rl1sp&quot;)" xlink:href="#rl1sc"/></g><g><g fill="#fff" font-family="'Montserrat','Montserrat-Regular'" font-size="10" font-style="none" font-weight="400"><text dominant-baseline="text-before-edge" font-family="Helvetica, Arial, sans-serif" transform="translate(837 4733)"><tspan letter-spacing=".05">Automated</tspan></text></g></g></g><g><g fill="#5a7193" font-family="'Montserrat','Montserrat-Regular'" font-size="14" font-style="none" font-weight="400" style="line-height:23px"><text dominant-baseline="text-before-edge" font-family="Helvetica, Arial, sans-serif" transform="translate(847 4613)"><tspan letter-spacing=".07">Yes, your policy covers you in all Asian countries.</tspan></text></g></g><g><g><g fill="#b3b0b0" font-family="'Montserrat','Montserrat-Regular'" font-size="12" font-style="none" font-weight="400"><text dominant-baseline="text-before-edge" font-family="Helvetica, Arial, sans-serif" transform="translate(832 4672)"><tspan letter-spacing=".06">Answer confidence : 98%</tspan></text></g></g><g><use fill="#fff" fill-opacity="0" stroke="#c4c4c4" stroke-linecap="square" stroke-miterlimit="50" xlink:href="#rl1sq"/></g></g></g><g/></g></g><g><g><g filter="url(#rl1sr)"><use fill="none" stroke-width="0" mask="url(&quot;#rl1ss&quot;)" xlink:href="#rl1sd"/><use fill="#99c7e6" xlink:href="#rl1sd"/></g><use fill="url(#rl1st)" xlink:href="#rl1sd"/></g><g><g/><g><g><use fill="#fff" xlink:href="#rl1su"/></g><g><g fill="#4c72aa" font-family="'Montserrat','Montserrat-Regular'" font-size="14" font-style="none" font-weight="400" style="line-height:23px"><text dominant-baseline="text-before-edge" font-family="Helvetica, Arial, sans-serif" transform="translate(664 4252)"><tspan letter-spacing=".07">Is travel to Thailand covered by my policy?</tspan></text></g></g></g></g></g><g><g fill="#566390" font-family="'Helvetica','Helvetica'" font-size="16" font-style="none" font-weight="400" style="line-height:32px"><text dominant-baseline="text-before-edge" font-family="Helvetica, Arial, sans-serif" transform="translate(252 4548)"><tspan letter-spacing=".5">Jatana’s suggested replies are extremely accurate, so much so that you will soon want Jatana to reply to your customers without agent intervention. By specifing an automation threshold, you can tell Jatana if the reply should be suggested to the agent or sent directly to the customer.</tspan></text></g></g></g></g></svg>