<svg xmlns="http://www.w3.org/2000/svg" xmlns:xlink="http://www.w3.org/1999/xlink" width="556" height="280" viewBox="0 0 556 280"><defs><path id="xc2ea" d="M167 5554s51-62.57 73-58.6c22 3.97 33 40.72 61 40.72s61-96.34 94-96.34 37 66.55 64 66.55 30-46.68 50-46.68 20 30.79 40 30.79c16 0 34-82.44 62-82.44s31.91 49.58 47 82.44"/><path id="xc2eb" d="M134 5318a6 6 0 0 1 6-6h544a6 6 0 0 1 6 6v268a6 6 0 0 1-6 6H140a6 6 0 0 1-6-6z"/><path id="xc2ed" d="M168.5 5350.44v191.82"/><path id="xc2ee" d="M229.5 5350.44v191.82"/><path id="xc2ef" d="M290.5 5350.44v191.82"/><path id="xc2eg" d="M351.5 5350.44v191.82"/><path id="xc2eh" d="M412.5 5350.44v191.82"/><path id="xc2ei" d="M473.5 5350.44v191.82"/><path id="xc2ej" d="M534.5 5350.44v191.82"/><path id="xc2ek" d="M595.5 5350.44v191.82"/><path id="xc2el" d="M656.5 5350.44v191.82"/><path id="xc2en" d="M225 5498.5a4.5 4.5 0 1 1 9 0 4.5 4.5 0 0 1-9 0z"/><path id="xc2eo" d="M348 5481.5a4.5 4.5 0 1 1 9 0 4.5 4.5 0 0 1-9 0z"/><path id="xc2ep" d="M530 5486.5a4.5 4.5 0 1 1 9 0 4.5 4.5 0 0 1-9 0z"/><path id="xc2eq" d="M592 5417.5a4.5 4.5 0 1 1 9 0 4.5 4.5 0 0 1-9 0z"/><linearGradient id="xc2ec" x1="794.72" x2="-92.37" y1="5705.24" y2="5322.87" gradientUnits="userSpaceOnUse"><stop offset="0" stop-color="#4893ff"/><stop offset="1" stop-color="#99b1ff"/></linearGradient><clipPath id="xc2em"><use fill="#fff" xlink:href="#xc2ea"/></clipPath></defs><g><g transform="translate(-134 -5312)"><use fill="url(#xc2ec)" xlink:href="#xc2eb"/></g><g transform="translate(-134 -5312)"><g><g opacity=".35"><use fill="#fff" fill-opacity="0" stroke="#000" stroke-linecap="square" stroke-miterlimit="50" xlink:href="#xc2ed"/></g><g opacity=".35"><use fill="#fff" fill-opacity="0" stroke="#000" stroke-linecap="square" stroke-miterlimit="50" xlink:href="#xc2ee"/></g><g opacity=".35"><use fill="#fff" fill-opacity="0" stroke="#000" stroke-linecap="square" stroke-miterlimit="50" xlink:href="#xc2ef"/></g><g opacity=".35"><use fill="#fff" fill-opacity="0" stroke="#000" stroke-linecap="square" stroke-miterlimit="50" xlink:href="#xc2eg"/></g><g opacity=".35"><use fill="#fff" fill-opacity="0" stroke="#000" stroke-linecap="square" stroke-miterlimit="50" xlink:href="#xc2eh"/></g><g opacity=".35"><use fill="#fff" fill-opacity="0" stroke="#000" stroke-linecap="square" stroke-miterlimit="50" xlink:href="#xc2ei"/></g><g opacity=".35"><use fill="#fff" fill-opacity="0" stroke="#000" stroke-linecap="square" stroke-miterlimit="50" xlink:href="#xc2ej"/></g><g opacity=".35"><use fill="#fff" fill-opacity="0" stroke="#000" stroke-linecap="square" stroke-miterlimit="50" xlink:href="#xc2ek"/></g><g opacity=".35"><use fill="#fff" fill-opacity="0" stroke="#000" stroke-linecap="square" stroke-miterlimit="50" xlink:href="#xc2el"/></g></g><g opacity=".32"><use fill="#fff" fill-opacity="0" stroke="#92bfff" stroke-miterlimit="50" stroke-width="4" clip-path="url(&quot;#xc2em&quot;)" xlink:href="#xc2ea"/></g><g opacity=".56"><use fill="#76a4ff" xlink:href="#xc2en"/><use fill="#fff" fill-opacity="0" stroke="#fff" stroke-miterlimit="50" stroke-width="2" xlink:href="#xc2en"/></g><g opacity=".56"><use fill="#76a4ff" xlink:href="#xc2eo"/><use fill="#fff" fill-opacity="0" stroke="#fff" stroke-miterlimit="50" stroke-width="2" xlink:href="#xc2eo"/></g><g opacity=".56"><use fill="#76a4ff" xlink:href="#xc2ep"/><use fill="#fff" fill-opacity="0" stroke="#fff" stroke-miterlimit="50" stroke-width="2" xlink:href="#xc2ep"/></g><g opacity=".56"><use fill="#76a4ff" xlink:href="#xc2eq"/><use fill="#fff" fill-opacity="0" stroke="#fff" stroke-miterlimit="50" stroke-width="2" xlink:href="#xc2eq"/></g></g></g></svg>