<svg xmlns="http://www.w3.org/2000/svg" xmlns:xlink="http://www.w3.org/1999/xlink" width="586" height="469" viewBox="0 0 586 469"><defs><path id="58bpa" d="M129 9368.8a4.8 4.8 0 0 1 4.8-4.8h102.4a4.8 4.8 0 0 1 4.8 4.8v102.4a4.8 4.8 0 0 1-4.8 4.8H133.8a4.8 4.8 0 0 1-4.8-4.8z"/><path id="58bpb" d="M129 9519.8a4.8 4.8 0 0 1 4.8-4.8h102.4a4.8 4.8 0 0 1 4.8 4.8v102.4a4.8 4.8 0 0 1-4.8 4.8H133.8a4.8 4.8 0 0 1-4.8-4.8z"/><path id="58bpc" d="M129 9668.8a4.8 4.8 0 0 1 4.8-4.8h102.4a4.8 4.8 0 0 1 4.8 4.8v102.65a4.8 4.8 0 0 1-4.8 4.8h-64.58v17.64l-24.06-17.64H133.8a4.8 4.8 0 0 1-4.8-4.8z"/><path id="58bpd" d="M431 9417a6 6 0 0 1 6-6h228a6 6 0 0 1 6 6v278a6 6 0 0 1-6 6H437a6 6 0 0 1-6-6z"/><path id="58bpe" d="M431 9631h240v63.71a6 6 0 0 1-6 6H515.17v28.32l-38.86-28.32H437a6 6 0 0 1-6-6z"/><path id="58bpf" d="M431.03 9553l-59-132H236"/><path id="58bpg" d="M431.03 9582l-59 132H236"/><path id="58bph" d="M432.01 9568H238"/><path id="58bpk" d="M185 9424.84c6.45 0 12.32-9.13 12.32-19.16 0-8.7-4.5-13.68-12.32-13.68-7.83 0-12.32 4.99-12.32 13.68 0 10.03 5.87 19.16 12.32 19.16zm24.02 7.01c-3.5-2.12-10.85-6.47-15.29-8.57a12.04 12.04 0 0 1-8.73 4.3 12.06 12.06 0 0 1-8.76-4.32c-4.45 2.08-11.78 6.46-15.27 8.59a4.1 4.1 0 0 0-1.97 3.5v2.45a4.1 4.1 0 0 0 3.44 4.05c7.46 1.26 15 1.98 22.56 2.15 7.56-.17 15.1-.89 22.56-2.15a4.1 4.1 0 0 0 3.44-4.05v-2.44a4.1 4.1 0 0 0-1.98-3.51z"/><path id="58bpl" d="M287 9421a28 28 0 1 1 56 0 28 28 0 0 1-56 0z"/><path id="58bpo" d="M204.96 9593.3a130.2 130.2 0 0 1-19.5 1.7 130.2 130.2 0 0 1-19.51-1.7 3.54 3.54 0 0 1-2.88-4.2l1.28-6.4a3.55 3.55 0 0 1 2.16-2.6l9.15-3.4a3.55 3.55 0 0 0 2.04-2.17l.4-1.18 5.49 2.36c1.19.5 2.54.5 3.73 0l5.5-2.36.39 1.18a3.55 3.55 0 0 0 2.04 2.17l9.15 3.4a3.55 3.55 0 0 1 2.16 2.6l1.28 6.4a3.54 3.54 0 0 1-2.88 4.2zm-32.1-40.86l-.39-4a3.54 3.54 0 0 1 2.73-3.8c3.37-.83 6.8-1.38 10.25-1.64 1.07.03 2.14.13 3.2.3-1.65 5.9-8.7 9.03-15.79 9.14zm18.12-8.76c1.68.3 3.38.65 4.73.96a3.54 3.54 0 0 1 2.73 3.8l-1.85 18.93a3.55 3.55 0 0 1-2.1 2.89l-7.17 3.08c-1.2.52-2.54.52-3.74 0l-7.17-3.08a3.55 3.55 0 0 1-2.09-2.9l-1.23-12.56c8.1-.2 16.1-3.99 17.9-11.12z"/><path id="58bpp" d="M287 9569a28 28 0 1 1 56 0 28 28 0 0 1-56 0z"/><path id="58bps" d="M166 9754a4 4 0 1 1 8 0 4 4 0 0 1-8 0z"/><path id="58bpt" d="M181 9754a4 4 0 1 1 8 0 4 4 0 0 1-8 0z"/><path id="58bpu" d="M196 9754a4 4 0 1 1 8 0 4 4 0 0 1-8 0z"/><path id="58bpv" d="M165.17 9727a1.24 1.24 0 0 1-.01-1.22c1.36-2.46 2.32-10.87 2.32-20.45a17.33 17.33 0 0 1 34.66 0c0 9.58.96 18 2.32 20.45a1.24 1.24 0 0 1-1.08 1.84h-4.42a103.18 103.18 0 0 0-6.64-3.6 19.7 19.7 0 0 0 4.75-11.34 1.23 1.23 0 0 0 .26-2.45 11.62 11.62 0 0 1-9.47-7.75 1.21 1.21 0 0 0-1.19-.86c-.54 0-1.01.36-1.17.87a11.14 11.14 0 0 1-12.8 7.66 1.24 1.24 0 1 0-.5 2.42c.12.03.23.02.35.04a19.78 19.78 0 0 0 4.64 11.3 74.42 74.42 0 0 0-6.87 3.7h-4.08c-.44 0-.85-.22-1.07-.6zm21.54-21.09a14.19 14.19 0 0 0 7.94 6.22c-.54 7.02-4.98 13.1-9.84 13.1-4.7 0-9-5.68-9.77-12.4a13.48 13.48 0 0 0 11.67-6.92zm16.54 27.18a2.87 2.87 0 0 1-1.02 5.27c-5.76 1-11.58 1.54-17.42 1.64-5.84-.1-11.66-.65-17.42-1.64a2.93 2.93 0 0 1-1.08-5.33c3.82-2.48 6.75-4.2 9-5.41.82-.44 1.55-.82 2.18-1.12l.07-.04a32 32 0 0 1 1.62-.73 9.95 9.95 0 0 0 5.63 1.97 9.92 9.92 0 0 0 5.5-1.88c.4.18.9.41 1.44.68l.19.1c.57.28 1.23.62 1.97 1.02 2.27 1.22 5.3 2.97 9.34 5.47z"/><path id="58bpw" d="M287 9714a28 28 0 1 1 56 0 28 28 0 0 1-56 0z"/><path id="58bpx" d="M298.13 9714.73a2.5 2.5 0 1 1 3.53-3.53l7.07 7.07a2.5 2.5 0 1 1-3.53 3.53zm7.07-7.07a2.5 2.5 0 1 1 3.53-3.53l14.14 14.14a2.5 2.5 0 1 1-3.53 3.53z"/><path id="58bpD" d="M452 9652a3 3 0 0 1 3-3h192a3 3 0 0 1 3 3v3.94a3 3 0 0 1-3 3H455a3 3 0 0 1-3-3z"/><path id="58bpE" d="M452 9671.06a3 3 0 0 1 3-3h118.79a3 3 0 0 1 3 3v3.94a3 3 0 0 1-3 3H455a3 3 0 0 1-3-3z"/><path id="58bpF" d="M619.07 9478.5a19.46 19.46 0 0 1-26.73 23.57c-1.19-.55-14.79 6.52-14.79 6.52s5.89-14.81 5.31-16.06a19.41 19.41 0 0 1 17.68-27.53 19.43 19.43 0 0 1 18.53 13.5zm-4.63 5.98a13.9 13.9 0 1 0-27.81-.01 13.9 13.9 0 0 0 27.8 0zm-39.06 82.68a12.03 12.03 0 0 1-4.33 22.09 263.99 263.99 0 0 1-40.01 3.75 263.99 263.99 0 0 1-40-3.76A11.98 11.98 0 0 1 481 9577.4v-.2c0-4.07 2.06-7.86 5.47-10.08 3.2-2.08 7.49-4.79 12.03-7.5h-9.16a2.78 2.78 0 0 1-2.43-4.13c3.07-5.53 5.21-24.43 5.21-45.96a38.94 38.94 0 0 1 38.92-38.95 38.94 38.94 0 0 1 38.92 38.95c0 21.53 2.14 40.43 5.2 45.96a2.78 2.78 0 0 1-2.42 4.13h-9.94c4.71 2.74 9.22 5.48 12.58 7.55zm-67-13.12c1.93-1.02 3.8-1.96 5.56-2.76a44.48 44.48 0 0 1-10.45-25.41c-.25-.05-.5-.03-.74-.08a2.78 2.78 0 0 1 1.1-5.45 25 25 0 0 0 28.73-17.2 2.78 2.78 0 0 1 5.3-.04 26.09 26.09 0 0 0 21.28 17.43 2.77 2.77 0 0 1-.58 5.5 44.3 44.3 0 0 1-10.68 25.5 145 145 0 0 1 5.06 2.58l.32-.07h15.36a187.03 187.03 0 0 1-4.24-44.52 33.38 33.38 0 0 0-33.36-33.39 33.38 33.38 0 0 0-33.36 33.4c.37 14.95-1.05 29.9-4.24 44.51zm44.75-29.24a31.86 31.86 0 0 1-17.81-13.97 30.26 30.26 0 0 1-26.21 15.55c1.72 15.09 11.38 27.85 21.93 27.85 10.91 0 20.9-13.66 22.1-29.43zm17.02 58.95a6.45 6.45 0 0 0 2.3-11.85 275.3 275.3 0 0 0-29.06-16.34 21.1 21.1 0 0 1-12.35 4.24 21.2 21.2 0 0 1-12.63-4.43 194.4 194.4 0 0 0-28.9 16.41 6.6 6.6 0 0 0 2.42 11.97c12.92 2.23 26 3.46 39.1 3.68a256.97 256.97 0 0 0 39.12-3.68zm19.88-99.74a2.08 2.08 0 1 1 4.17 0 2.08 2.08 0 0 1-4.17 0zm8.33 0a2.08 2.08 0 1 1 4.17 0 2.08 2.08 0 0 1-4.17 0zm8.32 0a2.08 2.08 0 1 1 4.17 0 2.08 2.08 0 0 1-4.17 0z"/><mask id="58bpj" width="2" height="2" x="-1" y="-1"><path fill="#fff" d="M129 9364h112v112H129z"/><use xlink:href="#58bpa"/></mask><filter id="58bpi" width="176" height="188" x="97" y="9354" filterUnits="userSpaceOnUse"><feOffset dy="12" in="SourceGraphic" result="FeOffset5207Out"/><feGaussianBlur in="FeOffset5207Out" result="FeGaussianBlur5208Out" stdDeviation="8.8 8.8"/></filter><mask id="58bpn" width="2" height="2" x="-1" y="-1"><path fill="#fff" d="M129 9515h112v112H129z"/><use xlink:href="#58bpb"/></mask><filter id="58bpm" width="176" height="188" x="97" y="9505" filterUnits="userSpaceOnUse"><feOffset dy="12" in="SourceGraphic" result="FeOffset5247Out"/><feGaussianBlur in="FeOffset5247Out" result="FeGaussianBlur5248Out" stdDeviation="8.8 8.8"/></filter><mask id="58bpr" width="2" height="2" x="-1" y="-1"><path fill="#fff" d="M129 9664h112v126H129z"/><use xlink:href="#58bpc"/></mask><filter id="58bpq" width="176" height="202" x="97" y="9654" filterUnits="userSpaceOnUse"><feOffset dy="12" in="SourceGraphic" result="FeOffset5287Out"/><feGaussianBlur in="FeOffset5287Out" result="FeGaussianBlur5288Out" stdDeviation="8.8 8.8"/></filter><mask id="58bpz" width="2" height="2" x="-1" y="-1"><path fill="#fff" d="M431 9411h240v290H431z"/><use xlink:href="#58bpd"/></mask><filter id="58bpy" width="304" height="364" x="399" y="9401" filterUnits="userSpaceOnUse"><feOffset dy="10" in="SourceGraphic" result="FeOffset5342Out"/><feGaussianBlur in="FeOffset5342Out" result="FeGaussianBlur5343Out" stdDeviation="8.8 8.8"/></filter><linearGradient id="58bpA" x1="800.27" x2="509.18" y1="9223.91" y2="9652.24" gradientUnits="userSpaceOnUse"><stop offset="0" stop-color="#ff878e"/><stop offset="1" stop-color="#ff4f55"/></linearGradient><mask id="58bpC" width="2" height="2" x="-1" y="-1"><path fill="#fff" d="M431 9631h240v93.2H431z"/><use xlink:href="#58bpe"/></mask><filter id="58bpB" width="304" height="167.2" x="399" y="9621" filterUnits="userSpaceOnUse"><feOffset dy="10" in="SourceGraphic" result="FeOffset5361Out"/><feGaussianBlur in="FeOffset5361Out" result="FeGaussianBlur5362Out" stdDeviation="8.8 8.8"/></filter></defs><g><g transform="translate(-107 -9354)"><g><g><g><use fill="#fff" fill-opacity="0" stroke="#97a3bf" stroke-dasharray="12" stroke-miterlimit="50" stroke-width="5" xlink:href="#58bpf"/></g><g><use fill="#fff" fill-opacity="0" stroke="#80de97" stroke-miterlimit="50" stroke-width="5" xlink:href="#58bpg"/></g></g><g><use fill="#fff" fill-opacity="0" stroke="#97a3bf" stroke-dasharray="12" stroke-miterlimit="50" stroke-width="5" xlink:href="#58bph"/></g></g><g><g><g><g filter="url(#58bpi)"><use fill="none" stroke-opacity=".5" stroke-width="0" mask="url(&quot;#58bpj&quot;)" xlink:href="#58bpa"/><use fill="#dfe2ee" fill-opacity=".5" xlink:href="#58bpa"/></g><use fill="#fff" xlink:href="#58bpa"/></g><g><g><use fill="#97a3bf" xlink:href="#58bpk"/></g></g></g><g><g><use fill="#fff" xlink:href="#58bpl"/><use fill="#fff" fill-opacity="0" stroke="#97a3bf" stroke-miterlimit="50" stroke-width="3" xlink:href="#58bpl"/></g><g><g fill="#97a3bf" font-family="'Montserrat','Montserrat-Bold'" font-size="25" font-style="none" font-weight="700"><text dominant-baseline="text-before-edge" font-family="Helvetica, Arial, sans-serif" transform="translate(309 9406)"><tspan letter-spacing=".38">?</tspan></text></g></g></g></g><g><g><g><g filter="url(#58bpm)"><use fill="none" stroke-opacity=".5" stroke-width="0" mask="url(&quot;#58bpn&quot;)" xlink:href="#58bpb"/><use fill="#dfe2ee" fill-opacity=".5" xlink:href="#58bpb"/></g><use fill="#fff" xlink:href="#58bpb"/></g><g><g><use fill="#97a3bf" xlink:href="#58bpo"/></g></g></g><g><g><use fill="#fff" xlink:href="#58bpp"/><use fill="#fff" fill-opacity="0" stroke="#97a3bf" stroke-miterlimit="50" stroke-width="3" xlink:href="#58bpp"/></g><g><g fill="#97a3bf" font-family="'Montserrat','Montserrat-Bold'" font-size="25" font-style="none" font-weight="700"><text dominant-baseline="text-before-edge" font-family="Helvetica, Arial, sans-serif" transform="translate(309 9554)"><tspan letter-spacing=".38">?</tspan></text></g></g></g></g><g><g><g><g filter="url(#58bpq)"><use fill="none" stroke-opacity=".5" stroke-width="0" mask="url(&quot;#58bpr&quot;)" xlink:href="#58bpc"/><use fill="#dfe2ee" fill-opacity=".5" xlink:href="#58bpc"/></g><use fill="#80de97" xlink:href="#58bpc"/></g><g><g><use fill="#fff" xlink:href="#58bps"/></g><g><use fill="#fff" xlink:href="#58bpt"/></g><g><use fill="#fff" xlink:href="#58bpu"/></g></g><g><g><use fill="#fff" xlink:href="#58bpv"/></g></g></g><g><g><use fill="#fff" xlink:href="#58bpw"/><use fill="#fff" fill-opacity="0" stroke="#80de97" stroke-miterlimit="50" stroke-width="3" xlink:href="#58bpw"/></g><g><use fill="#80de97" xlink:href="#58bpx"/></g></g></g><g><g><g filter="url(#58bpy)"><use fill="none" stroke-opacity=".4" stroke-width="0" mask="url(&quot;#58bpz&quot;)" xlink:href="#58bpd"/><use fill="#f85959" fill-opacity=".4" xlink:href="#58bpd"/></g><use fill="url(#58bpA)" xlink:href="#58bpd"/></g><g><g filter="url(#58bpB)"><use fill="none" stroke-opacity=".4" stroke-width="0" mask="url(&quot;#58bpC&quot;)" xlink:href="#58bpe"/><use fill="#f85959" fill-opacity=".4" xlink:href="#58bpe"/></g><use fill="#df494e" xlink:href="#58bpe"/></g><g><g><use fill="#fff" xlink:href="#58bpD"/></g><g><use fill="#fff" xlink:href="#58bpE"/></g></g><g><use fill="#fff" xlink:href="#58bpF"/></g></g></g></g></svg>