<svg xmlns="http://www.w3.org/2000/svg" xmlns:xlink="http://www.w3.org/1999/xlink" width="468.77" height="557" viewBox="0 0 468.77 557"><defs><path id="vjyta" d="M937.93 2802.83v-94.24l-5.86-3.32v93.85z"/><path id="vjytb" d="M937.93 2802.83v-94.24l5.86-3.32v93.85z"/><path id="vjytc" d="M855.06 2756.4v-94.25l-5.86-3.32v93.85z"/><path id="vjytd" d="M855.06 2756.4v-94.25l5.86-3.32v93.85z"/><path id="vjyte" d="M1185.18 2654.14v-70.63l-5.86-2.54v70.44z"/><path id="vjytf" d="M1185.18 2654.14v-70.63l5.86-2.54v70.44z"/><path id="vjytg" d="M1102.31 2607.7v-94.24l-5.86-3.12v93.85z"/><path id="vjyth" d="M1102.31 2607.7v-94.24l5.86-3.12v93.85z"/><path id="vjyti" d="M1187.14 2580.78l-79.94-46.05-241.58 137.76-16.42 4.88v4.68l88.74 49.76 254.48-147.9v-4.7z"/><path id="vjytj" d="M849.2 2677.37l88.74 49.76 254.48-147.9-85.22-49.18z"/><path id="vjytl" d="M1114.03 2624.87v-94.24l-5.86-3.32v93.85z"/><path id="vjytm" d="M1114.04 2624.87v-94.24l5.86-3.32v93.85z"/><path id="vjytn" d="M1028.03 2675.02v-94.24l-5.86-3.32v93.85z"/><path id="vjyto" d="M1028.04 2675.02v-94.24l5.86-3.32v93.85z"/><path id="vjytp" d="M970.77 2639.9l20.33 11.7 20.32-11.7-20.32-11.71z"/><path id="vjytq" d="M991.1 2651.6v23.42l20.33-11.7v-23.42z"/><path id="vjytr" d="M970.77 2639.9v23.41l20.33 11.71v-23.41z"/><path id="vjyts" d="M978.59 2635.41l20.33 11.7 5.47-3.11-20.33-11.71z"/><path id="vjytt" d="M998.91 2647.12l.2 4.88 5.27-3.13v-5.07z"/><path id="vjytu" d="M939.5 2649.07l21.1 12.3 21.31-12.3-21.3-12.1z"/><path id="vjytv" d="M960.6 2661.36v24.4l21.3-12.3v-24.39z"/><path id="vjytw" d="M939.5 2649.07v24.4l21.1 12.28v-24.39z"/><path id="vjytx" d="M947.51 2644.59l21.3 12.1 5.67-3.32-21.3-12.1z"/><path id="vjyty" d="M968.81 2656.68l.4 5.08 5.46-3.32v-5.27z"/><path id="vjytz" d="M1131.04 2546.63l21.1 12.3 21.12-12.3-21.11-12.1z"/><path id="vjytA" d="M1152.15 2558.92v24.4l21.1-12.3v-24.39z"/><path id="vjytB" d="M1131.04 2546.63v24.59l21.1 12.1v-24.4z"/><path id="vjytC" d="M1138.86 2542.15l21.5 12.1 5.67-3.32-21.3-12.1z"/><path id="vjytD" d="M1160.36 2554.24l.2 5.08 5.47-3.32v-5.27z"/><path id="vjytE" d="M1041.72 2591.12l21.1 12.3 21.31-12.3-21.3-12.1z"/><path id="vjytF" d="M1062.83 2603.41v24.4l21.3-12.3v-24.39z"/><path id="vjytG" d="M1041.72 2591.12v24.4l21.1 12.28v-24.39z"/><path id="vjytH" d="M1049.73 2586.63l21.3 12.1 5.67-3.32-21.3-12.1z"/><path id="vjytI" d="M1071.04 2598.73l.4 5.08 5.46-3.32v-5.27z"/><path id="vjytJ" d="M960.8 2663.32l20.13 11.7 20.33-11.7-20.33-11.71z"/><path id="vjytK" d="M980.93 2675.03v23.41l20.33-11.9v-23.22z"/><path id="vjytL" d="M960.8 2663.32v23.41l20.13 11.71v-23.41z"/><path id="vjytM" d="M968.42 2658.83l20.33 11.7 5.47-3.11-20.33-11.71z"/><path id="vjytN" d="M988.75 2670.54l.4 4.88 5.27-3.13v-5.07z"/><path id="vjytO" d="M1125.57 2565.56l20.13 11.7 20.33-11.7-20.33-11.71z"/><path id="vjytP" d="M1145.7 2577.27v23.41l20.33-11.7v-23.42z"/><path id="vjytQ" d="M1125.57 2565.56v23.41l20.13 11.71v-23.41z"/><path id="vjytR" d="M1133.19 2561.26l20.33 11.51 5.47-3.12-20.33-11.51z"/><path id="vjytS" d="M1153.52 2572.78l.4 4.88 5.27-3.13v-5.07z"/><path id="vjytT" d="M926.4 2680.29l21.1 12.3 21.12-12.3-21.11-12.1z"/><path id="vjytU" d="M947.51 2692.58v24.4l21.1-12.3v-24.39z"/><path id="vjytV" d="M926.4 2680.29v24.59l21.1 12.1v-24.4z"/><path id="vjytW" d="M934.22 2675.8l21.5 12.1 5.67-3.12-21.3-12.29z"/><path id="vjytX" d="M955.72 2687.9l.2 5.08 5.47-3.32v-5.27z"/><path id="vjytY" d="M937.93 2727.9v-94.24l-5.86-3.32v94.05z"/><path id="vjytZ" d="M937.93 2727.9v-94.24l5.86-3.32v94.05z"/><path id="vjytaa" d="M855.06 2681.46v-94.24l-5.86-3.32v93.85z"/><path id="vjytab" d="M855.06 2681.46v-94.24l5.86-3.32v93.85z"/><path id="vjytac" d="M1185.18 2583.51v-94.24l-5.86-3.32v93.85z"/><path id="vjytad" d="M1185.18 2583.51v-94.24l5.86-3.32v93.85z"/><path id="vjytae" d="M1186.95 2488.29l-79.75-46.05L865.62 2580l-16.42 4.88v4.48l88.74 49.96 254.48-147.9v-4.7z"/><path id="vjytaf" d="M1102.31 2532.97v-94.24l-5.86-3.32v93.85z"/><path id="vjytag" d="M1102.31 2532.97v-94.24l5.86-3.32v93.85z"/><path id="vjytah" d="M849.2 2584.88l88.74 49.76 254.48-147.9-85.22-49.18z"/><path id="vjytaj" d="M933.05 2552.68l21.1 12.1 21.31-12.1-21.3-12.29z"/><path id="vjytak" d="M954.15 2564.78v24.58l21.3-12.29v-24.39z"/><path id="vjytal" d="M933.05 2552.68v24.4l21.1 12.28v-24.58z"/><path id="vjytam" d="M941.06 2548.19l21.3 12.1 5.67-3.32-21.3-12.1z"/><path id="vjytan" d="M962.36 2560.3l.4 5.07 5.46-3.32v-5.27z"/><path id="vjytao" d="M874.02 2562.24l20.33 11.7 20.32-11.7-20.32-11.71z"/><path id="vjytap" d="M894.35 2573.95v23.41l20.13-11.7.2-23.42z"/><path id="vjytaq" d="M874.02 2562.24v23.41l20.33 11.71v-23.41z"/><path id="vjytar" d="M881.64 2557.95l20.52 11.5 5.48-3.11-20.53-11.71z"/><path id="vjytas" d="M902.16 2569.46l.2 4.88 5.27-3.13v-5.07z"/><path id="vjytat" d="M904.9 2566.73l21.1 12.3 21.31-12.3-21.3-12.1z"/><path id="vjytau" d="M926.01 2579.02v24.4l21.1-12.3.2-24.39z"/><path id="vjytav" d="M904.9 2566.73v24.4l21.1 12.28v-24.39z"/><path id="vjytaw" d="M912.91 2562.24l21.3 12.1 5.67-3.32-21.3-12.1z"/><path id="vjytax" d="M934.22 2574.34l.2 5.08 5.47-3.32v-5.27z"/><path id="vjytay" d="M967.84 2547.4l20.13 11.52 20.52-11.51-20.52-11.71z"/><path id="vjytaz" d="M987.97 2558.92v23.42l20.33-11.71.2-23.22z"/><path id="vjytaA" d="M967.84 2547.41v23.22l20.13 11.7v-23.4z"/><path id="vjytaB" d="M975.46 2542.92l20.52 11.7 5.28-3.11-20.33-11.71z"/><path id="vjytaC" d="M995.98 2554.63l.2 4.88 5.27-3.32v-4.88z"/><path id="vjytaD" d="M1033.9 2468.58l20.33 11.7 20.32-11.7-20.32-11.71z"/><path id="vjytaE" d="M1054.23 2480.29v23.41l20.33-11.7v-23.42z"/><path id="vjytaF" d="M1033.9 2468.58v23.41l20.33 11.71v-23.41z"/><path id="vjytaG" d="M1041.52 2464.1l20.52 11.7 5.48-3.12-20.53-11.71z"/><path id="vjytaH" d="M1062.05 2475.8l.2 4.88 5.27-3.13v-5.07z"/><path id="vjytaI" d="M955.13 2569.27l20.33 11.7 20.32-11.7-20.32-11.71z"/><path id="vjytaJ" d="M975.46 2580.98v23.41l20.33-11.7v-23.42z"/><path id="vjytaK" d="M955.13 2569.27v23.41l20.33 11.71v-23.41z"/><path id="vjytaL" d="M962.75 2564.98l20.52 11.5 5.48-3.11-20.53-11.71z"/><path id="vjytaM" d="M983.28 2576.49l.2 4.88 5.27-3.13v-5.07z"/><path id="vjytaN" d="M1028.03 2582.14v-94.24l-5.86-3.32v93.85z"/><path id="vjytaO" d="M1028.04 2582.14v-94.24l5.86-3.32v93.85z"/><path id="vjytaP" d="M1131.04 2469.75l21.1 12.3 21.31-12.3-21.3-12.1z"/><path id="vjytaQ" d="M1152.15 2482.04v24.4l21.1-12.3.2-24.39z"/><path id="vjytaR" d="M1131.04 2469.75v24.4l21.1 12.28v-24.39z"/><path id="vjytaS" d="M1139.05 2465.27l21.3 12.1 5.67-3.32-21.3-12.1z"/><path id="vjytaT" d="M1160.36 2477.36l.2 5.08 5.47-3.32v-5.27z"/><path id="vjytaU" d="M1109.74 2482.43l21.3 12.1 21.11-12.1-21.3-12.29z"/><path id="vjytaV" d="M1131.04 2494.53v24.39l21.1-12.1v-24.39z"/><path id="vjytaW" d="M1109.74 2482.43v24.4l21.3 12.09v-24.4z"/><path id="vjytaX" d="M1117.75 2477.75l21.5 12.1 5.47-3.13-21.3-12.29z"/><path id="vjytaY" d="M1139.25 2489.85l.2 5.07 5.47-3.12v-5.27z"/><path id="vjytaZ" d="M1114.03 2531.8v-94.05l-5.86-3.32v93.85z"/><path id="vjytba" d="M1114.04 2531.8v-94.05l5.86-3.32v93.85z"/><path id="vjytbb" d="M922.49 2582.92l21.1 12.3 21.31-12.3-21.3-12.29z"/><path id="vjytbc" d="M943.6 2595.21v24.4l21.3-12.3v-24.39z"/><path id="vjytbd" d="M922.49 2582.92v24.4l21.1 12.28v-24.39z"/><path id="vjytbe" d="M930.5 2578.44l21.3 12.1 5.67-3.32-21.3-12.1z"/><path id="vjytbf" d="M951.81 2590.53l.4 5.08 5.46-3.32v-5.27z"/><path id="vjytbg" d="M855.06 2588.58V2492l-5.86-3.32v96.2z"/><path id="vjytbh" d="M855.06 2588.58v-94.44l5.86-3.12v93.85z"/><path id="vjytbi" d="M1102.31 2440.09v-91.32l-5.86-3.12v90.93z"/><path id="vjytbj" d="M1102.31 2440.1v-89.37l5.86-2.93v88.78z"/><path id="vjytbk" d="M1184.2 2491.02v-94.24l-5.86-3.32v93.85z"/><path id="vjytbl" d="M1184.2 2491.02v-94.24l5.86-3.32v93.85z"/><path id="vjytbm" d="M1186.95 2389.55l-79.75-45.85-241.58 137.76-16.42 4.68v4.68l88.74 49.96 254.48-147.9v-4.7z"/><path id="vjytbn" d="M849.2 2486.14l88.74 49.96 254.48-147.9-85.22-49.18z"/><path id="vjytbp" d="M937.93 2635.02v-94.24l-5.86-3.32v93.85z"/><path id="vjytbq" d="M937.93 2635.02v-94.24l5.86-3.32v93.85z"/><path id="vjytbr" d="M889.85 2458.63l20.33 11.7 20.32-11.7-20.32-11.71z"/><path id="vjytbs" d="M910.18 2470.34v23.41l20.33-11.7v-23.42z"/><path id="vjytbt" d="M889.85 2458.63v23.41l20.33 11.71v-23.41z"/><path id="vjytbu" d="M897.47 2454.33l20.52 11.51 5.48-2.92-20.53-11.71z"/><path id="vjytbv" d="M918 2465.85l.2 4.88 5.27-3.13v-5.07z"/><path id="vjytbw" d="M928.35 2460l20.33 11.7L969 2460l-20.32-11.71z"/><path id="vjytbx" d="M948.68 2471.7v23.42l20.33-11.7V2460z"/><path id="vjytby" d="M928.35 2460v23.41l20.33 11.71v-23.41z"/><path id="vjytbz" d="M936.17 2455.51l20.33 11.7 5.47-3.11-20.33-11.71z"/><path id="vjytbA" d="M956.5 2467.22l.4 4.88 5.07-3.13v-5.07z"/><path id="vjytbB" d="M909.4 2470.92l21.1 12.1 21.12-12.1-21.11-12.29z"/><path id="vjytbC" d="M930.5 2483.02v24.58l21.1-12.29v-24.39z"/><path id="vjytbD" d="M909.4 2470.92v24.4l21.1 12.28v-24.58z"/><path id="vjytbE" d="M917.21 2466.44l21.5 12.1 5.67-3.32-21.3-12.1z"/><path id="vjytbF" d="M938.71 2478.53l.2 5.08 5.47-3.32v-5.27z"/><path id="vjytbG" d="M1099.18 2354.24l20.13 11.7 20.33-11.7-20.33-11.71z"/><path id="vjytbH" d="M1119.31 2365.95v23.41l20.33-11.7v-23.42z"/><path id="vjytbI" d="M1099.18 2354.24v23.41l20.13 11.71v-23.41z"/><path id="vjytbJ" d="M1106.8 2349.95l20.33 11.5 5.47-3.11-20.33-11.71z"/><path id="vjytbK" d="M1127.13 2361.46l.4 4.88 5.27-3.13v-5.07z"/><path id="vjytbL" d="M1080.03 2365.16l21.1 12.3 21.12-12.3-21.11-12.29z"/><path id="vjytbM" d="M1101.14 2377.45v24.4l21.1-12.3v-24.39z"/><path id="vjytbN" d="M1080.03 2365.16v24.4l21.1 12.28v-24.39z"/><path id="vjytbO" d="M1088.04 2360.68l21.3 12.1 5.67-3.32-21.3-12.1z"/><path id="vjytbP" d="M1109.35 2372.77l.2 5.08 5.47-3.32v-5.27z"/><path id="vjytbQ" d="M978.78 2411.6l20.13 11.52 20.33-11.51-20.33-11.71z"/><path id="vjytbR" d="M998.91 2423.11v23.61l20.33-11.9v-23.22z"/><path id="vjytbS" d="M978.78 2411.6v23.41l20.13 11.71v-23.6z"/><path id="vjytbT" d="M986.4 2407.11l20.52 11.7 5.28-3.11-20.33-11.71z"/><path id="vjytbU" d="M1006.93 2418.83l.2 4.88 5.27-3.32v-4.88z"/><path id="vjytbV" d="M998.13 2423.7l21.1 12.3 21.31-12.3-21.3-12.1z"/><path id="vjytbW" d="M1019.24 2436v24.38l21.3-12.29v-24.39z"/><path id="vjytbX" d="M998.13 2423.7v24.4l21.1 12.28V2436z"/><path id="vjytbY" d="M1006.15 2419.22l21.3 12.1 5.67-3.32-21.3-12.1z"/><path id="vjytbZ" d="M1027.45 2431.31l.2 5.08 5.66-3.32v-5.27z"/><path id="vjytca" d="M1092 2432l4-5-2-1-54 31v17l2 1 3.8-2.2 42.66-25.6z"/><path id="vjytcb" d="M1176 2381v-2l-2-1-48 29v17l1 1 5-3 44-25z"/><path id="vjytcc" d="M1007.4 2480.18l1.6-1.38-1.6-.59-50.4 28.64v17.97l1.6.59 4.4-3.95 44.2-25.28z"/><path id="vjytcd" d="M1008.8 2496.77l.2-17.97-50.4 28.83v17.78z"/><path id="vjytce" d="M972.4 2508.84l-.6-4.34c-.2 1.38-.4 2.76-.8 4.54l-1 5.93-.8.59-1.8-4.15c-.6-1.18-1-2.37-1.4-3.36 0 1.39.2 3.16.2 4.74l.2 4.55-1 .59-.4-10.67 1.4-.79 2 4.15 1.2 2.96c.2-1.18.4-2.56.6-3.95l1-5.92 1.4-.79 1.6 9.87-1.2.6z"/><path id="vjytcf" d="M979.22 2509.89l-.2-.8c-.2.8-1 1.78-1.8 2.18-1.2.79-2 0-2.2-.99-.2-1.78 1-3.55 3.6-4.94v-.2c0-.59-.4-1.57-1.6-.78-.6.4-1.2.98-1.6 1.58l-.4-.8c.4-.59 1.2-1.38 2-1.77 2-1.19 2.6.2 2.6 1.58l.2 2.76c0 .6.2 1.19.2 1.58zm-.4-3.76c-1.2.8-2.6 1.78-2.6 3.16 0 .8.6 1 1.2.6.8-.4 1.2-1.39 1.4-2.18v-.4z"/><path id="vjytcg" d="M987.22 2504.63c-.2.4-1 1-1.8 1.39-1.8 1.18-3.2.4-3.4-1.78-.2-2.17 1-4.54 3-5.73.6-.4 1.2-.59 1.6-.59l-.2 1.18c-.2 0-.8 0-1.4.4a4.17 4.17 0 0 0-2 3.95c.2 1.58 1.2 2.17 2.4 1.38.6-.4 1-.79 1.4-1.18z"/><path id="vjytch" d="M988.2 2499.07c0-.8-.2-1.58-.2-2.18l1-.59.2 1.38c.2-1.18.8-2.17 1.6-2.56.2 0 .2-.2.4-.2l.2 1.18c-.2 0-.2 0-.4.2-.8.4-1.4 1.38-1.4 2.57v.6l.4 3.74-1.2.6z"/><path id="vjytci" d="M997.22 2495.25a5.93 5.93 0 0 1-2.8 5.53c-1.6.98-3.2.4-3.4-1.78-.2-2.37 1-4.54 2.8-5.53 2-1.18 3.2-.4 3.4 1.78zm-5 2.96c.2 1.58 1 2.17 2.2 1.58 1-.6 1.8-2.17 1.6-3.75-.2-1.19-.8-2.37-2.2-1.58-1.2.59-1.6 2.37-1.6 3.75z"/><path id="vjytcj" d="M1002.8 2487.5l-1.6 1.58-.2-.79 1.8-1.98 1-.39.2 9.08-1.2.6z"/><path id="vjytck" d="M1096 2444v-17l-54 30.34V2475z"/><path id="vjytcl" d="M1175.8 2396.74l.2-17.74-49 28.46V2425z"/><path id="vjytcm" d="M1207.06 2674.75a6.48 6.48 0 0 0 9.1.88l24.06-17.2c3.23-2.34 4.1-6.42 1.76-9.34l-1.17-1.75c-2.35-2.91-6.46-3.2-9.69-.58l-22.6 18.66c-2.93 2.63-3.52 6.7-1.46 9.33z"/><path id="vjytco" d="M1206.76 2672.13l28.46-23.04a10.2 10.2 0 0 1 4.7-2.33l.88.87 1.17 1.75c2.35 2.92 1.47 7-1.76 9.34l-24.06 17.2c-2.94 2.04-7.05 1.75-9.1-.87-.59-.59-.88-1.17-.88-1.75.3-.59.3-.88.59-1.17z"/><path id="vjytcq" d="M1302.72 2658.71l.59 6.7c2.94 27.71-22.3 63.87-48.13 52.5-12.03-5.25-23.48-32.08-24.95-44.91l-2.05-18.08z"/><path id="vjytcs" d="M1230.23 2673c1.47 13.12 12.92 39.66 24.95 44.9 1.17.59 2.35.88 3.52 1.47a15.78 15.78 0 0 0 18.78-7.59c5.87-11.66 8.22-30.03 7.05-41.4l-.3-5.25-56.05-10.21z"/><path id="vjytcu" d="M1302.72 2659.59c-.88 8.74-18.49 13.7-39.03 11.66-20.54-2.33-36.68-11.08-35.51-19.83.88-8.75 18.49-13.7 39.03-11.66 20.55 2.04 36.4 11.08 35.51 19.83z"/><path id="vjytcw" d="M1279.25 2655.8c-.29 3.5-7.63 5.54-15.84 4.66-8.22-.87-14.97-4.37-14.38-8.16.29-3.5 7.63-5.54 15.84-4.67 8.22 1.17 14.68 4.67 14.38 8.17z"/><path id="vjytcy" d="M1264.28 2652c-6.75-.58-12.32.3-14.67 2.63 1.76 2.62 7.34 4.96 13.8 5.83 6.45.88 12.32-.29 14.67-2.62-1.76-2.63-7.34-4.96-13.8-5.84z"/><path id="vjytcz" d="M1233.7 2636.93c-5.3-.4-9.07-7.67-8.41-16.24.65-8.56 5.48-15.18 10.78-14.77 5.3.4 9.07 7.67 8.41 16.24-.65 8.56-5.48 15.18-10.78 14.77z"/><path id="vjytcA" d="M1307.72 2624.3l1.46 11.96c1.76 14.29-17.31 25.37-34.33 20.41l-32.58-9.62c-7.92-2.33-13.5-7.88-14.09-14.58l-1.46-11.37c-1.77-14 17.02-25.08 33.75-20.42l32.28 9.04c8.5 2.34 14.08 7.88 14.97 14.58z"/><path id="vjytcC" d="M1301.9 2649.01c-5-.1-8.9-7.15-8.72-15.74.18-8.59 4.37-15.47 9.36-15.36 4.99.1 8.9 7.15 8.71 15.74-.18 8.59-4.37 15.47-9.36 15.36z"/><path id="vjytcD" d="M1305.07 2618.76c-3.52 2.04-5.87 7.58-6.16 14.29 0 7 2.35 12.83 6.16 14.87 3.52-2.04 5.87-7.58 6.17-14.29.29-7-2.35-13.12-6.17-14.87z"/><path id="vjytcE" d="M1238.45 2636.55h-.88c-1.17 0-2.05-.87-2.05-1.75l-.59-9.04c0-1.17.88-2.04 1.76-2.04h.88c1.18 0 2.06.87 2.06 1.75l.58 9.04c.3 1.17-.58 2.04-1.76 2.04z"/><path id="vjytcF" d="M1276.61 2645.88h-.88c-1.17 0-2.05-.87-2.05-1.75l-.59-9.04c0-1.17.88-2.04 1.76-2.04h.88c1.18 0 2.06.87 2.06 1.75l.58 9.04c.3 1.17-.58 2.04-1.76 2.04z"/><path id="vjytcG" d="M1259.3 2645.88c-1.47.29-2.94.29-4.4 0a13.76 13.76 0 0 1-8.52-5.25c-.3-.58-.3-1.17.3-1.46.58-.29 1.17-.29 1.46.3 1.47 2.33 4.11 3.78 7.05 4.37 3.23.58 6.16-.3 8.8-2.04.59-.3 1.18-.3 1.47.29.3.58.3 1.16-.3 1.46-1.17 1.16-3.52 2.04-5.86 2.33z"/><path id="vjytcH" d="M1297.2 2637.6c-.45-2.87.48-5.4 2.08-5.65 1.6-.26 3.27 1.86 3.72 4.72.46 2.86-.47 5.39-2.07 5.64-1.6.26-3.27-1.86-3.72-4.72z"/><path id="vjytcI" d="M1273.64 2637.47c-.05-1.13.42-2.06 1.07-2.1.65-.03 1.22.86 1.28 1.98.05 1.13-.42 2.06-1.07 2.1-.65.03-1.22-.86-1.28-1.98z"/><path id="vjytcJ" d="M1235.78 2628.13c-.05-1.13.42-2.06 1.07-2.1.65-.03 1.22.86 1.28 1.98.05 1.13-.42 2.06-1.07 2.1-.65.03-1.22-.86-1.28-1.98z"/><path id="vjytcK" d="M1252.55 2676.2V2689.62c0 2.04-.3 3.5-1.18 4.37-.88 1.17-2.35 1.75-4.1 1.75-2.06 0-3.53-.58-4.4-2.04-.6-.87-1.77-2.91-1.77-4.66l4.1.58c.3 1.75.89 2.33 2.06 2.33 1.18 0 1.76-.87 1.76-2.33V2680c0-2.05-.58-3.5-.58-4.67z"/><path id="vjytcL" d="M1255.18 2685.24c-1.47-2.91 0-6.7 3.23-8.45l26.12-13.7c3.52-1.76 7.63-.6 9.1 2.62l.88 2.04c1.46 3.2 0 7.29-3.82 8.75l-27 11.95c-2.93 1.17-7.04-.29-8.51-3.2z"/><path id="vjytcN" d="M1257.53 2686.7l33.46-15.16c1.76-.87 3.23-1.75 4.11-3.2 0-.3-.3-.59-.3-1.17l-.87-2.04c-1.47-3.21-5.87-4.38-9.1-2.63l-26.12 13.7c-3.23 1.76-4.7 5.55-3.23 8.46.3.59.88 1.17 1.17 1.75.3.3.6.3.88.3z"/><path id="vjytcP" d="M1289.82 2673.29c-1.47.29-3.23-.88-3.52-2.34-.3-1.45.88-3.2 2.34-3.5 1.47-.29 3.23.88 3.52 2.34.3 1.75-.88 3.2-2.34 3.5z"/><path id="vjytcR" d="M1289.53 2672.42c-1.18.29-2.06-.59-2.35-1.46-.3-1.17.58-2.04 1.46-2.33.89-.3 2.06.58 2.35 1.46.3 1.16-.3 2.04-1.46 2.33z"/><path id="vjytcT" d="M1290.7 2669.5s0-.29 0 0c-.6-.58-1.18-.87-1.77-.87-1.17.3-1.76 1.17-1.47 2.33v.3c.3.58 1.18.87 1.77.58.88-.3 1.76-1.46 1.46-2.34z"/><path id="vjytcU" d="M1229.65 2693.41l-40.5-2.62-9.68-48.41 40.2 2.92z"/><path id="vjytcV" d="M1219.67 2645.3l-30.52 45.5 40.5 2.62z"/><path id="vjytcW" d="M1243.54 2744.15c0-5.49 10.08-9.94 22.5-9.94 12.43 0 22.51 4.45 22.51 9.94 0 5.49-10.08 9.94-22.5 9.94-12.43 0-22.51-4.45-22.51-9.94z"/><path id="vjytcX" d="M1062.42 2565.64l20.38 11.66 20.39-11.66-20.39-11.66z"/><path id="vjytcY" d="M1082.8 2577.3v23.32l20.38-11.66v-23.32z"/><path id="vjytcZ" d="M1062.42 2565.64v23.32l20.38 11.66v-23.32z"/><path id="vjytda" d="M1070.06 2561.37l20.58 11.46 5.49-3.1-20.58-11.47z"/><path id="vjytdb" d="M1090.64 2572.83l.2 4.86 5.29-3.1v-5.06z"/><path id="vjytdc" d="M1054.77 2537.85l20.38 11.66 20.39-11.66-20.39-11.66z"/><path id="vjytdd" d="M1075.16 2549.5v23.33l20.38-11.66v-23.32z"/><path id="vjytde" d="M1054.77 2537.85v23.32l20.38 11.66v-23.32z"/><path id="vjytdf" d="M1062.61 2533.58l20.38 11.46 5.5-2.91-20.4-11.66z"/><path id="vjytdg" d="M1083 2545.04l.4 4.86 5.09-3.11v-4.86z"/><path id="vjytdh" d="M1118.05 2545.74c2.66-2.04 6.79-1.16 8.86 1.76l17.71 23.08c2.36 3.22 1.77 7.3-1.18 9.35l-1.77 1.17c-2.95 2.05-7.09 1.17-9.15-2.34l-15.95-24.25c-1.77-2.92-1.18-7.01 1.48-8.77z"/><path id="vjytdj" d="M1117.17 2547.8l20.07 30.09a11.01 11.01 0 0 0 3.84 3.5c.3-.29.6-.29.89-.58l1.77-1.17c2.95-2.04 3.54-6.43 1.18-9.35l-17.72-23.08c-2.36-2.92-6.2-3.8-8.85-1.76-.6.3-1.18.88-1.48 1.47 0 .58 0 .58.3.87z"/><path id="vjytdl" d="M1066.38 2588.12l-.6 6.72c-2.95 27.47 22.15 63.11 47.84 52.01 11.8-5.26 23.32-31.56 24.8-44.41l2.07-18.12z"/><path id="vjytdn" d="M1138.72 2602.44c-1.48 12.85-12.7 39.44-24.8 44.41-1.19.58-2.37.88-3.55 1.46-7.38 2.34-15.35-.88-18.6-7.6-5.9-11.68-8.27-29.8-7.08-40.9l.3-5.26 55.5-10.23z"/><path id="vjytdp" d="M1066.67 2589c.89 8.47 18.3 13.73 38.97 11.39 20.38-2.34 36.32-11.1 35.43-19.58-.88-8.47-18.3-13.73-38.97-11.4-20.67 2.34-36.6 11.11-35.43 19.58z"/><path id="vjytdr" d="M1090 2585.48c.3 3.5 7.38 5.55 15.94 4.68 8.27-.88 14.76-4.39 14.47-7.9-.3-3.5-7.38-5.54-15.95-4.67-8.56.88-15.05 4.39-14.46 7.9z"/><path id="vjytdt" d="M1104.76 2581.69c6.5-.59 12.4.29 14.76 2.63-1.77 2.62-7.09 4.96-13.88 5.84-6.5.58-12.4-.3-14.76-2.63 2.07-2.63 7.38-4.97 13.88-5.84z"/><path id="vjytdu" d="M1130.78 2552.32c-.64-8.36 3.06-15.47 8.26-15.87 5.2-.4 9.94 6.07 10.58 14.44.64 8.36-3.06 15.47-8.26 15.87-5.2.4-9.94-6.07-10.58-14.44z"/><path id="vjytdv" d="M1067.85 2554.51l-1.47 11.98c-1.78 14.03 17.12 25.13 33.95 20.16l32.18-9.64c7.97-2.34 13.29-7.89 14.17-14.32l1.48-11.1c1.77-13.74-16.83-24.84-33.66-20.16l-32.18 9.05c-7.97 2.05-13.58 7.6-14.47 14.03z"/><path id="vjytdx" d="M1064.32 2563.76c-.17-8.4 3.65-15.28 8.55-15.38 4.89-.1 9 6.62 9.17 15.01.17 8.4-3.65 15.28-8.55 15.38-4.89.1-9-6.62-9.17-15.01z"/><path id="vjytdy" d="M1070.51 2548.96c3.25 2.05 5.9 7.6 5.9 14.03 0 7-2.36 12.85-6.2 14.6-3.24-2.04-5.9-7.6-5.9-14.02 0-6.72 2.36-12.56 6.2-14.61z"/><path id="vjytdz" d="M1074.72 2572.46c-1.6-.25-2.51-2.81-2.05-5.7.46-2.9 2.13-5.05 3.72-4.8 1.6.25 2.51 2.81 2.05 5.7-.46 2.9-2.13 5.05-3.72 4.8z"/><path id="vjytdA" d="M1120.41 2551.01c0 .88.59 2.05.59 3.5v7.31c0 1.17-.3 1.75-1.48 1.75-.88 0-1.18-.58-1.47-1.75l-3.25-.3c0 1.47 1.18 2.93 1.48 3.52.88 1.16 1.77 1.75 3.24 1.75 1.48 0 2.37-.59 3.25-1.46.6-.88.89-2.05.89-3.5v-7.31-2.93z"/><path id="vjytdB" d="M1035.38 2558.6c-2.66 2.34-2.66 6.14-.3 9.06l18.31 22.5c2.36 2.92 6.8 3.5 9.45 1.17l1.48-1.46c2.65-2.34 2.65-6.72 0-9.35l-20.08-21.04a6.52 6.52 0 0 0-8.86-.88z"/><path id="vjytdD" d="M1037.74 2558.31l24.8 26.6a17.4 17.4 0 0 1 2.66 4.38l-.89.87-1.48 1.46c-2.65 2.34-7.08 1.76-9.44-1.16l-18.3-22.5c-2.37-2.93-2.08-6.72.29-9.06.59-.59 1.18-.88 1.77-1.17.3 0 .59.3.59.58z"/><path id="vjytdF" d="M1062.24 2582.85c-1.47-.87-3.25-.58-4.13.88-.89 1.46-.6 3.21.88 4.09 1.48.88 3.25.58 4.14-.88.88-1.46.59-3.21-.89-4.09z"/><path id="vjytdH" d="M1061.65 2583.44a1.94 1.94 0 0 0-2.65.59c-.6.88-.3 2.04.59 2.63.88.58 2.06.29 2.65-.59.6-.87.3-2.04-.59-2.63z"/><path id="vjytdJ" d="M1061.65 2586.65s-.3 0 0 0c-.88.59-1.47.59-2.06 0a1.9 1.9 0 0 1-.6-2.63l.3-.3c.6-.28 1.18-.28 1.77 0 .89.89 1.18 2.05.6 2.93z"/><path id="vjytdK" d="M1081.44 2714.64c0-8.56 14.01-15.49 31.3-15.49 17.28 0 31.29 6.93 31.29 15.48 0 8.56-14.01 15.49-31.3 15.49-17.28 0-31.29-6.93-31.29-15.48z"/><path id="vjytdL" d="M1056.8 2459.47c-.2-1.36-.4-3.1-.4-4.26-.2 1.35-.4 2.71-.8 4.45l-1.2 5.62-.8.39-1.8-4.07c-.6-1.16-1-2.32-1.4-3.49 0 1.36.2 3.1.2 4.65v4.46l-1 .58-.2-10.46 1.4-.78 1.8 4.07 1.2 2.9c.2-1.15.4-2.32.6-3.87l1.2-5.61 1.4-.78 1.2 9.69-1.2.58z"/><path id="vjytdM" d="M1063.8 2460.44l-.2-.77c-.4.77-1 1.55-1.8 2.13-1.2.77-2 0-2-.97-.2-1.74 1.2-3.49 3.6-4.65v-.2c0-.58-.2-1.54-1.6-.96-.6.38-1.2.77-1.6 1.35l-.4-.77a5.8 5.8 0 0 1 2-1.75c2-.96 2.6.2 2.6 1.75l.2 2.71c0 .58.2 1.16.2 1.55zm-.4-3.49c-1.2.59-2.6 1.55-2.6 3.1 0 .78.6.97 1.2.59.8-.4 1.4-1.36 1.4-1.94v-.39z"/><path id="vjytdN" d="M1071.2 2456.18c-.2.4-1 .97-1.8 1.36-2 .97-3.2.2-3.4-1.94-.2-2.13 1-4.45 3.2-5.42.6-.39 1.4-.39 1.6-.39l-.2 1.16c-.2 0-.8 0-1.4.39a3.9 3.9 0 0 0-2 3.87c.2 1.55 1.2 2.14 2.4 1.55.6-.38 1-.77 1.4-1.16z"/><path id="vjytdO" d="M1072.2 2450.95c0-.78-.2-1.55-.2-2.13l1-.58.2 1.35c.2-1.16.8-1.94 1.6-2.52.2 0 .2-.19.4-.19v1.16c-.2 0-.2 0-.4.2-.8.38-1.4 1.35-1.4 2.51v.59l.2 3.68-1.2.58z"/><path id="vjytdP" d="M1082.2 2447.08a5.42 5.42 0 0 1-3 5.23c-1.8.97-3.2.2-3.4-1.94a5.48 5.48 0 0 1 2.8-5.23c2.2-.97 3.4-.2 3.6 1.94zm-5 2.71c.2 1.55 1 2.13 2.2 1.55 1.2-.58 1.8-2.13 1.8-3.68 0-1.16-.8-2.32-2.2-1.55-1.4.78-2 2.33-1.8 3.68z"/><path id="vjytdQ" d="M1086.4 2446.43v-.77l.8-1.36c2-3.29 3-5.03 2.8-6.39 0-.97-.6-1.55-1.8-.97-.8.39-1.4 1.16-1.8 1.74l-.4-.58c.6-.77 1.4-1.74 2.4-2.13 1.8-.97 2.8 0 2.8 1.36.2 1.74-1 3.68-2.6 6.4l-.6.96 3.8-1.94v.97z"/><path id="vjytdR" d="M1142 2410.47c-.2-1.36-.57-2.92-.76-4.28-.2 1.36-.2 2.72-.58 4.47l-.76 5.84-.76.58-1.9-3.89c-.58-1.17-1.15-2.33-1.53-3.3.2 1.36.38 3.1.57 4.66l.38 4.47-.95.59-.95-10.5 1.33-.78 2.1 4.08c.57.98.95 1.95 1.33 2.92 0-1.17.2-2.53.38-3.89l.76-5.83 1.34-.78 1.9 9.72-.95.59z"/><path id="vjytdS" d="M1148.67 2410.86l-.19-.78a3.14 3.14 0 0 1-1.71 2.14c-1.15.78-1.9.2-2.1-.97-.19-1.75.95-3.5 3.05-4.86v-.2c0-.58-.38-1.55-1.53-.77-.57.39-1.14.97-1.52 1.55l-.19-.58a6.12 6.12 0 0 1 1.9-1.95c1.72-1.16 2.48 0 2.67 1.56l.38 2.72c0 .59.2 1.17.38 1.56zm-.57-3.5c-1.14.78-2.48 1.75-2.29 3.11.2.78.57.97 1.15.59a2.7 2.7 0 0 0 1.14-2.14v-.4z"/><path id="vjytdT" d="M1155.34 2406.2c-.2.38-.77.96-1.53 1.55-1.71 1.16-3.05.39-3.43-1.75-.38-2.14.76-4.48 2.67-5.84a3 3 0 0 1 1.52-.58l-.19 1.17c-.19 0-.76 0-1.33.39-1.33.77-1.9 2.52-1.71 3.88.19 1.56 1.14 2.14 2.47 1.37.57-.4.95-.78 1.33-1.17z"/><path id="vjytdU" d="M1155.9 2400.75c-.19-.77-.19-1.55-.38-2.14l.95-.58.2 1.36c.18-1.16.75-2.14 1.33-2.53.19 0 .19-.19.38-.19l.19 1.17c-.2 0-.2 0-.38.2-.77.38-1.15 1.55-1.15 2.52v.58l.58 3.7-.96.77z"/><path id="vjytdV" d="M1165.24 2396.28c.38 2.53-.95 4.67-2.48 5.45-1.52.97-3.05.39-3.24-1.75a5.5 5.5 0 0 1 2.29-5.45c1.71-1.16 3.05-.39 3.43 1.75zm-4.57 2.92c.19 1.55 1.14 2.14 2.1 1.55.94-.58 1.52-2.33 1.33-3.88-.2-1.17-.96-2.34-2.1-1.56a4.5 4.5 0 0 0-1.33 3.89z"/><path id="vjytdW" d="M1169.24 2395.69c.38 0 1.15 0 1.9-.58 1.34-.98 1.72-2.14 1.53-2.92-.19-1.17-1.33-1.17-2.28-.39l-.58.39-.19-.97.57-.4c.77-.57 1.72-1.55 1.53-2.71-.2-.78-.57-1.17-1.53-.4-.57.4-1.14 1.17-1.52 1.56l-.38-.77a9.08 9.08 0 0 1 1.9-1.95c1.53-.97 2.48-.39 2.48.78.2.97-.19 1.94-1.14 3.11.95-.39 1.9 0 2.1 1.17.18 1.36-.58 3.3-2.48 4.47-.96.58-1.72.78-2.1.78z"/><path id="vjytdX" d="M1081.24 2756.31l20.45 11.56 20.44-11.56-20.44-11.75z"/><path id="vjytdY" d="M1101.69 2767.87v23.5l20.45-11.75v-23.31z"/><path id="vjytdZ" d="M1081.24 2756.31v23.31l20.45 11.75v-23.5z"/><path id="vjytea" d="M1088.91 2751.8l20.64 11.76 5.5-3.14-20.63-11.75z"/><path id="vjyteb" d="M1109.55 2763.56l.2 4.9 5.3-3.33v-4.9z"/><path id="vjytec" d="M1073.57 2727.52l21.23 12.15 21.43-12.15-21.43-12.34z"/><path id="vjyted" d="M1094.81 2739.67v24.48l21.43-12.14v-24.49z"/><path id="vjytee" d="M1073.57 2727.52v24.49l21.23 12.14v-24.48z"/><path id="vjytef" d="M1081.63 2722.81l21.43 12.15 5.7-3.14-21.43-12.34z"/><path id="vjyteg" d="M1103.06 2734.96l.4 5.1 5.5-3.14v-5.29z"/><path id="vjyteh" d="M1158 2756.56c2.66-2.06 6.8-1.17 8.88 1.77l17.77 23.3c2.37 3.23 1.78 7.36-1.18 9.42l-1.78 1.18c-2.96 2.07-7.1 1.18-9.18-2.35l-16-24.47c-1.77-2.95-1.18-7.08 1.49-8.85z"/><path id="vjytej" d="M1157.1 2758.92l20.15 30.37a11.07 11.07 0 0 0 3.85 3.53c.3-.3.59-.3.88-.59l1.78-1.18c2.96-2.06 3.55-6.48 1.19-9.43l-17.77-23.29c-2.37-2.94-6.22-3.83-8.89-1.77-.6.3-1.18.89-1.48 1.48 0 .3 0 .59.3.88z"/><path id="vjytel" d="M1106.17 2799.31l-.6 6.78c-2.95 27.71 22.22 63.68 47.99 52.47 11.84-5.3 23.4-31.83 24.87-44.8l2.08-18.28z"/><path id="vjyten" d="M1178.43 2813.76c-1.48 12.97-12.73 39.8-24.87 44.8-1.19.6-2.37.89-3.56 1.48-7.4 2.36-15.4-.89-18.66-7.67-5.92-11.79-8.29-30.06-7.1-41.27l.3-5.3 55.67-10.32z"/><path id="vjytep" d="M1106.17 2800.5c.88 8.54 18.36 13.85 39.09 11.49 20.43-2.36 36.43-11.2 35.54-19.75-.9-8.55-18.36-13.86-39.1-11.5-20.43 2.07-36.42 10.9-35.53 19.75z"/><path id="vjyter" d="M1129.87 2796.65c.3 3.54 7.4 5.6 15.99 4.72 8.59-.88 14.8-4.42 14.51-7.96-.3-3.54-7.4-5.6-16-4.72-8.58.89-15.1 4.43-14.5 7.96z"/><path id="vjytet" d="M1144.67 2792.83c6.52-.6 12.44.3 14.8 2.65-1.77 2.65-7.1 5.01-13.91 5.9-6.52.59-12.44-.3-14.81-2.66 2.07-2.65 7.4-5 13.92-5.9z"/><path id="vjyteu" d="M1170.76 2763.2c-.65-8.45 3.06-15.62 8.28-16.02 5.22-.4 9.97 6.13 10.61 14.57.65 8.44-3.06 15.6-8.28 16-5.22.4-9.97-6.12-10.61-14.56z"/><path id="vjytev" d="M1107.65 2765.7l-1.48 12.09c-1.78 14.15 17.17 25.35 34.05 20.34l32.29-9.73c8-2.36 13.32-7.96 14.21-14.44l1.48-11.2c1.78-13.86-16.88-25.06-33.76-20.34l-32.28 9.13c-8 1.77-13.62 7.37-14.51 14.15z"/><path id="vjytex" d="M1104.11 2774.74c-.17-8.46 3.66-15.4 8.57-15.5 4.9-.1 9.02 6.67 9.2 15.14.17 8.46-3.66 15.4-8.57 15.5-4.9.1-9.02-6.67-9.2-15.14z"/><path id="vjytey" d="M1110.32 2759.81c3.26 2.06 5.92 7.66 5.92 14.15 0 7.07-2.37 12.97-6.22 14.74-3.25-2.06-5.92-7.67-5.92-14.15 0-6.78 2.37-12.68 6.22-14.74z"/><path id="vjytez" d="M1114.46 2783.51c-1.6-.25-2.54-2.82-2.07-5.72.46-2.91 2.14-5.06 3.75-4.8 1.6.25 2.54 2.82 2.07 5.72-.46 2.91-2.14 5.06-3.75 4.8z"/><path id="vjyteA" d="M1160.37 2762.17c0 .88.59 2.06.59 3.54v7.37c0 1.18-.3 1.77-1.48 1.77-.89 0-1.19-.6-1.48-1.77l-3.26-.3c0 1.48 1.18 2.95 1.48 3.54.89 1.18 1.78 1.77 3.26 1.77 1.48 0 2.37-.6 3.26-1.48.59-.88.88-2.06.88-3.53v-7.37-2.95z"/><path id="vjyteB" d="M1129.27 2884.21c0-6.51 10.47-11.79 23.4-11.79 12.92 0 23.39 5.28 23.39 11.79 0 6.51-10.47 11.79-23.4 11.79-12.92 0-23.39-5.28-23.39-11.79z"/><path id="vjyteC" d="M1075.08 2769.53c-2.67 2.36-2.67 6.2-.3 9.14l18.36 22.7c2.37 2.95 6.82 3.54 9.48 1.18l1.48-1.47c2.67-2.36 2.67-6.78 0-9.44l-20.14-21.22a6.51 6.51 0 0 0-8.88-.89z"/><path id="vjyteE" d="M1077.44 2769.24l24.88 26.83a17.58 17.58 0 0 1 2.66 4.42l-.88.88-1.49 1.48c-2.66 2.35-7.1 1.76-9.47-1.18l-18.36-22.7c-2.37-2.95-2.08-6.78.3-9.14.58-.59 1.18-.89 1.77-1.18.3.3.6.3.6.59z"/><path id="vjyteG" d="M1102.03 2794c-1.48-.88-3.26-.58-4.15.9-.89 1.47-.6 3.23.89 4.12 1.48.88 3.26.59 4.14-.89.9-1.47.3-3.24-.88-4.12z"/><path id="vjyteI" d="M1101.43 2794.89a1.93 1.93 0 0 0-2.66.59c-.6.88-.3 2.06.59 2.65.89.59 2.07.3 2.67-.59.59-.88.3-2.06-.6-2.65z"/><path id="vjyteK" d="M1101.43 2797.84s-.3.3 0 0c-.88.59-1.48.59-2.07 0a1.91 1.91 0 0 1-.6-2.65l.3-.3c.6-.3 1.19-.3 1.78 0 .89.89 1.19 2.06.6 2.95z"/><linearGradient id="vjytk" x1="1020.8" x2="1020.8" y1="2530.06" y2="2727.18" gradientUnits="userSpaceOnUse"><stop offset="0" stop-color="#5d94ff"/><stop offset="1" stop-color="#82c9ff"/></linearGradient><linearGradient id="vjytai" x1="1020.8" x2="1020.8" y1="2437.57" y2="2634.69" gradientUnits="userSpaceOnUse"><stop offset="0" stop-color="#5d94ff"/><stop offset="1" stop-color="#82c9ff"/></linearGradient><linearGradient id="vjytbo" x1="1020.8" x2="1020.8" y1="2339.03" y2="2536.15" gradientUnits="userSpaceOnUse"><stop offset="0" stop-color="#5d94ff"/><stop offset="1" stop-color="#82c9ff"/></linearGradient><linearGradient id="vjytcn" x1="1244.2" x2="1204.34" y1="2655.7" y2="2666.31" gradientUnits="userSpaceOnUse"><stop offset="0" stop-color="#35abe5"/><stop offset=".34" stop-color="#2e97e8"/><stop offset="1" stop-color="#1d65ef"/></linearGradient><linearGradient id="vjytcp" x1="1244.54" x2="1204.73" y1="2657.04" y2="2667.64" gradientUnits="userSpaceOnUse"><stop offset="0" stop-color="#35abe5"/><stop offset=".34" stop-color="#2e97e8"/><stop offset="1" stop-color="#1d65ef"/></linearGradient><linearGradient id="vjytcr" x1="1279.93" x2="1242.1" y1="2645.51" y2="2710.62" gradientUnits="userSpaceOnUse"><stop offset="0" stop-color="#35abe5"/><stop offset=".34" stop-color="#2e97e8"/><stop offset="1" stop-color="#1d65ef"/></linearGradient><linearGradient id="vjytct" x1="1268.57" x2="1238.25" y1="2656.23" y2="2708.41" gradientUnits="userSpaceOnUse"><stop offset="0" stop-color="#35abe5"/><stop offset=".34" stop-color="#2e97e8"/><stop offset="1" stop-color="#1d65ef"/></linearGradient><linearGradient id="vjytcv" x1="1275.86" x2="1254.9" y1="2637.42" y2="2673.49" gradientUnits="userSpaceOnUse"><stop offset="0" stop-color="#35abe5"/><stop offset=".34" stop-color="#2e97e8"/><stop offset="1" stop-color="#1d65ef"/></linearGradient><linearGradient id="vjytcx" x1="1268.31" x2="1259.78" y1="2646.84" y2="2661.51" gradientUnits="userSpaceOnUse"><stop offset="0" stop-color="#35abe5"/><stop offset=".34" stop-color="#2e97e8"/><stop offset="1" stop-color="#1d65ef"/></linearGradient><linearGradient id="vjytcB" x1="1282.92" x2="1253.27" y1="2603.1" y2="2654.12" gradientUnits="userSpaceOnUse"><stop offset="0" stop-color="#35abe5"/><stop offset=".21" stop-color="#2d95e8"/><stop offset=".51" stop-color="#247bec"/><stop offset=".79" stop-color="#1f6bee"/><stop offset="1" stop-color="#1d65ef"/></linearGradient><linearGradient id="vjytcM" x1="1292.9" x2="1257.48" y1="2680.02" y2="2671.06" gradientUnits="userSpaceOnUse"><stop offset="0" stop-color="#35abe5"/><stop offset=".34" stop-color="#2e97e8"/><stop offset="1" stop-color="#1d65ef"/></linearGradient><linearGradient id="vjytcO" x1="1292.25" x2="1257.58" y1="2679.43" y2="2670.67" gradientUnits="userSpaceOnUse"><stop offset="0" stop-color="#35abe5"/><stop offset=".34" stop-color="#2e97e8"/><stop offset="1" stop-color="#1d65ef"/></linearGradient><linearGradient id="vjytcQ" x1="1292.06" x2="1286.42" y1="2671.18" y2="2669.76" gradientUnits="userSpaceOnUse"><stop offset="0" stop-color="#35abe5"/><stop offset=".34" stop-color="#2e97e8"/><stop offset="1" stop-color="#1d65ef"/></linearGradient><linearGradient id="vjytcS" x1="1291.1" x2="1287.39" y1="2670.95" y2="2670.01" gradientUnits="userSpaceOnUse"><stop offset="0" stop-color="#35abe5"/><stop offset=".34" stop-color="#2e97e8"/><stop offset="1" stop-color="#1d65ef"/></linearGradient><linearGradient id="vjytdi" x1="1123.05" x2="1138.5" y1="2567.01" y2="2559.01" gradientUnits="userSpaceOnUse"><stop offset="0" stop-color="#63a0f6"/><stop offset=".36" stop-color="#609cf3"/><stop offset=".7" stop-color="#5891e9"/><stop offset="1" stop-color="#4c80db"/></linearGradient><linearGradient id="vjytdk" x1="1126.14" x2="1138.5" y1="2565.41" y2="2559" gradientUnits="userSpaceOnUse"><stop offset="0" stop-color="#35abe5"/><stop offset=".51" stop-color="#2885ea"/><stop offset="1" stop-color="#1d65ef"/></linearGradient><linearGradient id="vjytdm" x1="1140.65" x2="1065.78" y1="2616.76" y2="2616.76" gradientUnits="userSpaceOnUse"><stop offset="0" stop-color="#35abe5"/><stop offset=".51" stop-color="#2885ea"/><stop offset="1" stop-color="#1d65ef"/></linearGradient><linearGradient id="vjytdo" x1="1140.65" x2="1084.37" y1="2616.77" y2="2616.77" gradientUnits="userSpaceOnUse"><stop offset="0" stop-color="#35abe5"/><stop offset=".51" stop-color="#2885ea"/><stop offset="1" stop-color="#1d65ef"/></linearGradient><linearGradient id="vjytdq" x1="1140.39" x2="1066.97" y1="2587.91" y2="2582.19" gradientUnits="userSpaceOnUse"><stop offset="0" stop-color="#35abe5"/><stop offset=".51" stop-color="#2885ea"/><stop offset="1" stop-color="#1d65ef"/></linearGradient><linearGradient id="vjytds" x1="1120.16" x2="1089.89" y1="2583.77" y2="2583.77" gradientUnits="userSpaceOnUse"><stop offset="0" stop-color="#35abe5"/><stop offset=".51" stop-color="#2885ea"/><stop offset="1" stop-color="#1d65ef"/></linearGradient><linearGradient id="vjytdw" x1="1107.36" x2="1107.36" y1="2587.92" y2="2530.1" gradientUnits="userSpaceOnUse"><stop offset="0" stop-color="#35abe5"/><stop offset=".51" stop-color="#2885ea"/><stop offset="1" stop-color="#1d65ef"/></linearGradient><linearGradient id="vjytdC" x1="1066.48" x2="1033.33" y1="2575.05" y2="2575.05" gradientUnits="userSpaceOnUse"><stop offset="0" stop-color="#35abe5"/><stop offset=".51" stop-color="#2885ea"/><stop offset="1" stop-color="#1d65ef"/></linearGradient><linearGradient id="vjytdE" x1="1043.38" x2="1053.24" y1="2582.43" y2="2570.25" gradientUnits="userSpaceOnUse"><stop offset="0" stop-color="#35abe5"/><stop offset=".51" stop-color="#2885ea"/><stop offset="1" stop-color="#1d65ef"/></linearGradient><linearGradient id="vjytdG" x1="1063.55" x2="1057.75" y1="2585.16" y2="2585.16" gradientUnits="userSpaceOnUse"><stop offset="0" stop-color="#35abe5"/><stop offset=".51" stop-color="#2885ea"/><stop offset="1" stop-color="#1d65ef"/></linearGradient><linearGradient id="vjytdI" x1="1062.56" x2="1058.74" y1="2585.16" y2="2585.16" gradientUnits="userSpaceOnUse"><stop offset=".39" stop-color="#35abe5"/><stop offset=".73" stop-color="#56c4f2"/><stop offset="1" stop-color="#6bd4fa"/></linearGradient><linearGradient id="vjytei" x1="1162.97" x2="1178.47" y1="2778.07" y2="2769.99" gradientUnits="userSpaceOnUse"><stop offset="0" stop-color="#63a0f6"/><stop offset=".36" stop-color="#609cf3"/><stop offset=".7" stop-color="#5891e9"/><stop offset="1" stop-color="#4c80db"/></linearGradient><linearGradient id="vjytek" x1="1166.07" x2="1178.47" y1="2776.45" y2="2769.99" gradientUnits="userSpaceOnUse"><stop offset="0" stop-color="#35abe5"/><stop offset=".51" stop-color="#2885ea"/><stop offset="1" stop-color="#1d65ef"/></linearGradient><linearGradient id="vjytem" x1="1180.64" x2="1105.53" y1="2828.27" y2="2828.27" gradientUnits="userSpaceOnUse"><stop offset="0" stop-color="#35abe5"/><stop offset=".51" stop-color="#2885ea"/><stop offset="1" stop-color="#1d65ef"/></linearGradient><linearGradient id="vjyteo" x1="1180.64" x2="1124.18" y1="2828.27" y2="2828.27" gradientUnits="userSpaceOnUse"><stop offset="0" stop-color="#35abe5"/><stop offset=".51" stop-color="#2885ea"/><stop offset="1" stop-color="#1d65ef"/></linearGradient><linearGradient id="vjyteq" x1="1180.37" x2="1106.72" y1="2799.16" y2="2793.39" gradientUnits="userSpaceOnUse"><stop offset="0" stop-color="#35abe5"/><stop offset=".51" stop-color="#2885ea"/><stop offset="1" stop-color="#1d65ef"/></linearGradient><linearGradient id="vjytes" x1="1160.08" x2="1129.72" y1="2794.99" y2="2794.99" gradientUnits="userSpaceOnUse"><stop offset="0" stop-color="#35abe5"/><stop offset=".51" stop-color="#2885ea"/><stop offset="1" stop-color="#1d65ef"/></linearGradient><linearGradient id="vjytew" x1="1147.24" x2="1147.24" y1="2799.18" y2="2740.84" gradientUnits="userSpaceOnUse"><stop offset="0" stop-color="#35abe5"/><stop offset=".51" stop-color="#2885ea"/><stop offset="1" stop-color="#1d65ef"/></linearGradient><linearGradient id="vjyteD" x1="1106.24" x2="1072.99" y1="2786.19" y2="2786.19" gradientUnits="userSpaceOnUse"><stop offset="0" stop-color="#35abe5"/><stop offset=".51" stop-color="#2885ea"/><stop offset="1" stop-color="#1d65ef"/></linearGradient><linearGradient id="vjyteF" x1="1083.07" x2="1092.96" y1="2793.63" y2="2781.35" gradientUnits="userSpaceOnUse"><stop offset="0" stop-color="#35abe5"/><stop offset=".51" stop-color="#2885ea"/><stop offset="1" stop-color="#1d65ef"/></linearGradient><linearGradient id="vjyteH" x1="1103.3" x2="1097.49" y1="2796.4" y2="2796.4" gradientUnits="userSpaceOnUse"><stop offset="0" stop-color="#35abe5"/><stop offset=".51" stop-color="#2885ea"/><stop offset="1" stop-color="#1d65ef"/></linearGradient><linearGradient id="vjyteJ" x1="1102.31" x2="1098.48" y1="2796.39" y2="2796.39" gradientUnits="userSpaceOnUse"><stop offset=".39" stop-color="#35abe5"/><stop offset=".73" stop-color="#56c4f2"/><stop offset="1" stop-color="#6bd4fa"/></linearGradient></defs><g><g transform="translate(-849 -2339)"><g><g><g><use fill="#fdb440" xlink:href="#vjyta"/></g><g><use fill="#fbbe4d" xlink:href="#vjytb"/></g></g><g><g><use fill="#fdb440" xlink:href="#vjytc"/></g><g><use fill="#fbbe4d" xlink:href="#vjytd"/></g></g><g><g><use fill="#fdb440" xlink:href="#vjyte"/></g><g><use fill="#fbbe4d" xlink:href="#vjytf"/></g></g><g><g><use fill="#fdb440" xlink:href="#vjytg"/></g><g><use fill="#fbbe4d" xlink:href="#vjyth"/></g></g><g><g><use fill="#267feb" xlink:href="#vjyti"/></g><g><use fill="url(#vjytk)" xlink:href="#vjytj"/></g></g><g><g><use fill="#fdb440" xlink:href="#vjytl"/></g><g><use fill="#fbbe4d" xlink:href="#vjytm"/></g></g><g><g><use fill="#fdb440" xlink:href="#vjytn"/></g><g><use fill="#fbbe4d" xlink:href="#vjyto"/></g></g><g><g><use fill="#f9c85a" xlink:href="#vjytp"/></g><g><use fill="#fdb440" xlink:href="#vjytq"/></g><g><use fill="#fbbe4d" xlink:href="#vjytr"/></g><g><use fill="#fbbe4d" xlink:href="#vjyts"/></g><g><use fill="#fbbe4d" xlink:href="#vjytt"/></g></g><g><g><use fill="#f3f1f3" xlink:href="#vjytu"/></g><g><use fill="#cdcad4" xlink:href="#vjytv"/></g><g><use fill="#e0dde3" xlink:href="#vjytw"/></g><g><use fill="#e0dde3" xlink:href="#vjytx"/></g><g><use fill="#bab6c4" xlink:href="#vjyty"/></g></g><g><g><use fill="#f3f1f3" xlink:href="#vjytz"/></g><g><use fill="#cdcad4" xlink:href="#vjytA"/></g><g><use fill="#e0dde3" xlink:href="#vjytB"/></g><g><use fill="#e0dde3" xlink:href="#vjytC"/></g><g><use fill="#bab6c4" xlink:href="#vjytD"/></g></g><g><g><use fill="#f3f1f3" xlink:href="#vjytE"/></g><g><use fill="#cdcad4" xlink:href="#vjytF"/></g><g><use fill="#e0dde3" xlink:href="#vjytG"/></g><g><use fill="#e0dde3" xlink:href="#vjytH"/></g><g><use fill="#bab6c4" xlink:href="#vjytI"/></g></g><g><g><use fill="#f9c85a" xlink:href="#vjytJ"/></g><g><use fill="#fdb440" xlink:href="#vjytK"/></g><g><use fill="#fbbe4d" xlink:href="#vjytL"/></g><g><use fill="#fbbe4d" xlink:href="#vjytM"/></g><g><use fill="#fbbe4d" xlink:href="#vjytN"/></g></g><g><g><use fill="#f9c85a" xlink:href="#vjytO"/></g><g><use fill="#fdb440" xlink:href="#vjytP"/></g><g><use fill="#fbbe4d" xlink:href="#vjytQ"/></g><g><use fill="#fbbe4d" xlink:href="#vjytR"/></g><g><use fill="#fbbe4d" xlink:href="#vjytS"/></g></g><g><g><use fill="#f3f1f3" xlink:href="#vjytT"/></g><g><use fill="#cdcad4" xlink:href="#vjytU"/></g><g><use fill="#e0dde3" xlink:href="#vjytV"/></g><g><use fill="#e0dde3" xlink:href="#vjytW"/></g><g><use fill="#bab6c4" xlink:href="#vjytX"/></g></g><g><g><use fill="#fdb440" xlink:href="#vjytY"/></g><g><use fill="#fbbe4d" xlink:href="#vjytZ"/></g></g><g><g><use fill="#fdb440" xlink:href="#vjytaa"/></g><g><use fill="#fbbe4d" xlink:href="#vjytab"/></g></g><g><g><use fill="#fdb440" xlink:href="#vjytac"/></g><g><use fill="#fbbe4d" xlink:href="#vjytad"/></g></g><g><use fill="#267feb" xlink:href="#vjytae"/></g><g><g><use fill="#fdb440" xlink:href="#vjytaf"/></g><g><use fill="#fbbe4d" xlink:href="#vjytag"/></g></g><g><use fill="url(#vjytai)" xlink:href="#vjytah"/></g><g><g><use fill="#f3f1f3" xlink:href="#vjytaj"/></g><g><use fill="#cdcad4" xlink:href="#vjytak"/></g><g><use fill="#e0dde3" xlink:href="#vjytal"/></g><g><use fill="#e0dde3" xlink:href="#vjytam"/></g><g><use fill="#bab6c4" xlink:href="#vjytan"/></g></g><g><g><use fill="#f9c85a" xlink:href="#vjytao"/></g><g><use fill="#fdb440" xlink:href="#vjytap"/></g><g><use fill="#fbbe4d" xlink:href="#vjytaq"/></g><g><use fill="#fbbe4d" xlink:href="#vjytar"/></g><g><use fill="#fbbe4d" xlink:href="#vjytas"/></g></g><g><g><use fill="#f3f1f3" xlink:href="#vjytat"/></g><g><use fill="#cdcad4" xlink:href="#vjytau"/></g><g><use fill="#e0dde3" xlink:href="#vjytav"/></g><g><use fill="#e0dde3" xlink:href="#vjytaw"/></g><g><use fill="#bab6c4" xlink:href="#vjytax"/></g></g><g><g><use fill="#f9c85a" xlink:href="#vjytay"/></g><g><use fill="#fdb440" xlink:href="#vjytaz"/></g><g><use fill="#fbbe4d" xlink:href="#vjytaA"/></g><g><use fill="#fbbe4d" xlink:href="#vjytaB"/></g><g><use fill="#fbbe4d" xlink:href="#vjytaC"/></g></g><g><g><use fill="#f9c85a" xlink:href="#vjytaD"/></g><g><use fill="#fdb440" xlink:href="#vjytaE"/></g><g><use fill="#fbbe4d" xlink:href="#vjytaF"/></g><g><use fill="#fbbe4d" xlink:href="#vjytaG"/></g><g><use fill="#fbbe4d" xlink:href="#vjytaH"/></g></g><g><g><use fill="#f9c85a" xlink:href="#vjytaI"/></g><g><use fill="#fdb440" xlink:href="#vjytaJ"/></g><g><use fill="#fbbe4d" xlink:href="#vjytaK"/></g><g><use fill="#fbbe4d" xlink:href="#vjytaL"/></g><g><use fill="#fbbe4d" xlink:href="#vjytaM"/></g></g><g><g><use fill="#fdb440" xlink:href="#vjytaN"/></g><g><use fill="#fbbe4d" xlink:href="#vjytaO"/></g></g><g><g><use fill="#f3f1f3" xlink:href="#vjytaP"/></g><g><use fill="#cdcad4" xlink:href="#vjytaQ"/></g><g><use fill="#e0dde3" xlink:href="#vjytaR"/></g><g><use fill="#e0dde3" xlink:href="#vjytaS"/></g><g><use fill="#bab6c4" xlink:href="#vjytaT"/></g></g><g><g><use fill="#f3f1f3" xlink:href="#vjytaU"/></g><g><use fill="#cdcad4" xlink:href="#vjytaV"/></g><g><use fill="#e0dde3" xlink:href="#vjytaW"/></g><g><use fill="#e0dde3" xlink:href="#vjytaX"/></g><g><use fill="#bab6c4" xlink:href="#vjytaY"/></g></g><g><g><use fill="#fdb440" xlink:href="#vjytaZ"/></g><g><use fill="#fbbe4d" xlink:href="#vjytba"/></g></g><g><g><use fill="#f3f1f3" xlink:href="#vjytbb"/></g><g><use fill="#cdcad4" xlink:href="#vjytbc"/></g><g><use fill="#e0dde3" xlink:href="#vjytbd"/></g><g><use fill="#e0dde3" xlink:href="#vjytbe"/></g><g><use fill="#bab6c4" xlink:href="#vjytbf"/></g></g><g><g><use fill="#fdb440" xlink:href="#vjytbg"/></g><g><use fill="#fbbe4d" xlink:href="#vjytbh"/></g></g><g><g><use fill="#fdb440" xlink:href="#vjytbi"/></g><g><use fill="#fbbe4d" xlink:href="#vjytbj"/></g></g><g><g><use fill="#fdb440" xlink:href="#vjytbk"/></g><g><use fill="#fbbe4d" xlink:href="#vjytbl"/></g></g><g><g><use fill="#267feb" xlink:href="#vjytbm"/></g><g><use fill="url(#vjytbo)" xlink:href="#vjytbn"/></g></g><g><g><use fill="#fdb440" xlink:href="#vjytbp"/></g><g><use fill="#fbbe4d" xlink:href="#vjytbq"/></g></g><g><g><use fill="#f9c85a" xlink:href="#vjytbr"/></g><g><use fill="#fdb440" xlink:href="#vjytbs"/></g><g><use fill="#fbbe4d" xlink:href="#vjytbt"/></g><g><use fill="#fbbe4d" xlink:href="#vjytbu"/></g><g><use fill="#fbbe4d" xlink:href="#vjytbv"/></g></g><g><g><use fill="#f9c85a" xlink:href="#vjytbw"/></g><g><use fill="#fdb440" xlink:href="#vjytbx"/></g><g><use fill="#fbbe4d" xlink:href="#vjytby"/></g><g><use fill="#fbbe4d" xlink:href="#vjytbz"/></g><g><use fill="#fbbe4d" xlink:href="#vjytbA"/></g></g><g><g><use fill="#f3f1f3" xlink:href="#vjytbB"/></g><g><use fill="#cdcad4" xlink:href="#vjytbC"/></g><g><use fill="#e0dde3" xlink:href="#vjytbD"/></g><g><use fill="#e0dde3" xlink:href="#vjytbE"/></g><g><use fill="#bab6c4" xlink:href="#vjytbF"/></g></g><g><g><use fill="#f9c85a" xlink:href="#vjytbG"/></g><g><use fill="#fdb440" xlink:href="#vjytbH"/></g><g><use fill="#fbbe4d" xlink:href="#vjytbI"/></g><g><use fill="#fbbe4d" xlink:href="#vjytbJ"/></g><g><use fill="#fbbe4d" xlink:href="#vjytbK"/></g></g><g><g><use fill="#f3f1f3" xlink:href="#vjytbL"/></g><g><use fill="#cdcad4" xlink:href="#vjytbM"/></g><g><use fill="#e0dde3" xlink:href="#vjytbN"/></g><g><use fill="#e0dde3" xlink:href="#vjytbO"/></g><g><use fill="#bab6c4" xlink:href="#vjytbP"/></g></g><g><g><use fill="#f9c85a" xlink:href="#vjytbQ"/></g><g><use fill="#fdb440" xlink:href="#vjytbR"/></g><g><use fill="#fbbe4d" xlink:href="#vjytbS"/></g><g><use fill="#fbbe4d" xlink:href="#vjytbT"/></g><g><use fill="#fbbe4d" xlink:href="#vjytbU"/></g></g><g><g><use fill="#f3f1f3" xlink:href="#vjytbV"/></g><g><use fill="#cdcad4" xlink:href="#vjytbW"/></g><g><use fill="#e0dde3" xlink:href="#vjytbX"/></g><g><use fill="#e0dde3" xlink:href="#vjytbY"/></g><g><use fill="#bab6c4" xlink:href="#vjytbZ"/></g></g></g><g><use fill="#e0dde3" xlink:href="#vjytca"/></g><g><use fill="#e0dde3" xlink:href="#vjytcb"/></g><g><g><use fill="#e0dde3" xlink:href="#vjytcc"/></g><g><use fill="#f3f1f3" xlink:href="#vjytcd"/></g><g><g><use xlink:href="#vjytce"/></g><g><use xlink:href="#vjytcf"/></g><g><use xlink:href="#vjytcg"/></g><g><use xlink:href="#vjytch"/></g><g><use xlink:href="#vjytci"/></g><g><use xlink:href="#vjytcj"/></g></g></g><g><use fill="#f3f1f3" xlink:href="#vjytck"/></g><g><use fill="#f3f1f3" xlink:href="#vjytcl"/></g><g><g><g><use fill="url(#vjytcn)" xlink:href="#vjytcm"/></g><g><use fill="url(#vjytcp)" xlink:href="#vjytco"/></g></g><g><use fill="url(#vjytcr)" xlink:href="#vjytcq"/></g><g><use fill="url(#vjytct)" xlink:href="#vjytcs"/></g><g><use fill="url(#vjytcv)" xlink:href="#vjytcu"/></g><g><use fill="url(#vjytcx)" xlink:href="#vjytcw"/></g><g><use fill="#46ecf9" xlink:href="#vjytcy"/></g><g><g><use fill="#8af6f9" xlink:href="#vjytcz"/></g><g><use fill="url(#vjytcB)" xlink:href="#vjytcA"/></g><g/><g><use fill="#8af6f9" xlink:href="#vjytcC"/></g><g><use fill="#8af6f9" xlink:href="#vjytcC"/></g><g><use fill="#46ecf9" xlink:href="#vjytcD"/></g><g><use fill="#46ecf9" xlink:href="#vjytcE"/></g><g><use fill="#46ecf9" xlink:href="#vjytcF"/></g><g><use fill="#46ecf9" xlink:href="#vjytcG"/></g><g><use fill="#8af6f9" xlink:href="#vjytcH"/></g><g><use fill="#8af6f9" xlink:href="#vjytcI"/></g><g><use fill="#8af6f9" xlink:href="#vjytcJ"/></g></g><g><use fill="#fff" xlink:href="#vjytcK"/></g><g><g><g><use fill="url(#vjytcM)" xlink:href="#vjytcL"/></g><g><use fill="url(#vjytcO)" xlink:href="#vjytcN"/></g></g><g><use fill="url(#vjytcQ)" xlink:href="#vjytcP"/></g><g><use fill="url(#vjytcS)" xlink:href="#vjytcR"/></g><g><use fill="#46ecf9" xlink:href="#vjytcT"/></g></g><g><use fill="#fff" xlink:href="#vjytcU"/></g><g><use fill="#f3f1f3" xlink:href="#vjytcV"/></g><g><use fill="#0055c0" xlink:href="#vjytcW"/></g></g><g><g><g><g><use fill="#f9c85a" xlink:href="#vjytcX"/></g><g><use fill="#fdb440" xlink:href="#vjytcY"/></g><g><use fill="#fbbe4d" xlink:href="#vjytcZ"/></g><g><use fill="#fbbe4d" xlink:href="#vjytda"/></g><g><use fill="#fbbe4d" xlink:href="#vjytdb"/></g></g><g><g><use fill="#f9c85a" xlink:href="#vjytdc"/></g><g><use fill="#fdb440" xlink:href="#vjytdd"/></g><g><use fill="#fbbe4d" xlink:href="#vjytde"/></g><g><use fill="#fbbe4d" xlink:href="#vjytdf"/></g><g><use fill="#fbbe4d" xlink:href="#vjytdg"/></g></g></g><g><g><g><use fill="url(#vjytdi)" xlink:href="#vjytdh"/></g><g><use fill="url(#vjytdk)" xlink:href="#vjytdj"/></g></g><g><use fill="url(#vjytdm)" xlink:href="#vjytdl"/></g><g><use fill="url(#vjytdo)" xlink:href="#vjytdn"/></g><g><use fill="url(#vjytdq)" xlink:href="#vjytdp"/></g><g><use fill="url(#vjytds)" xlink:href="#vjytdr"/></g><g><use fill="#46ecf9" xlink:href="#vjytdt"/></g><g><g><g><use fill="#8af6f9" xlink:href="#vjytdu"/></g><g><use fill="url(#vjytdw)" xlink:href="#vjytdv"/></g><g><use fill="#8af6f9" xlink:href="#vjytdx"/></g><g><use fill="#8af6f9" xlink:href="#vjytdx"/></g><g><use fill="#46ecf9" xlink:href="#vjytdy"/></g><g><use fill="#8af6f9" xlink:href="#vjytdz"/></g></g><g><use fill="#fff" xlink:href="#vjytdA"/></g></g><g><g><g><use fill="url(#vjytdC)" xlink:href="#vjytdB"/></g><g><use fill="url(#vjytdE)" xlink:href="#vjytdD"/></g></g><g><use fill="url(#vjytdG)" xlink:href="#vjytdF"/></g><g><use fill="url(#vjytdI)" xlink:href="#vjytdH"/></g><g><use fill="#46ecf9" xlink:href="#vjytdJ"/></g></g><g><use fill="#0055c0" xlink:href="#vjytdK"/></g></g></g><g><g><use xlink:href="#vjytdL"/></g><g><use xlink:href="#vjytdM"/></g><g><use xlink:href="#vjytdN"/></g><g><use xlink:href="#vjytdO"/></g><g><use xlink:href="#vjytdP"/></g><g><use xlink:href="#vjytdQ"/></g></g><g><g><use xlink:href="#vjytdR"/></g><g><use xlink:href="#vjytdS"/></g><g><use xlink:href="#vjytdT"/></g><g><use xlink:href="#vjytdU"/></g><g><use xlink:href="#vjytdV"/></g><g><use xlink:href="#vjytdW"/></g></g><g><g><g><g><use fill="#f9c85a" xlink:href="#vjytdX"/></g><g><use fill="#fdb440" xlink:href="#vjytdY"/></g><g><use fill="#fbbe4d" xlink:href="#vjytdZ"/></g><g><use fill="#fbbe4d" xlink:href="#vjytea"/></g><g><use fill="#fbbe4d" xlink:href="#vjyteb"/></g></g><g><g><use fill="#f3f1f3" xlink:href="#vjytec"/></g><g><use fill="#cdcad4" xlink:href="#vjyted"/></g><g><use fill="#e0dde3" xlink:href="#vjytee"/></g><g><use fill="#e0dde3" xlink:href="#vjytef"/></g><g><use fill="#bab6c4" xlink:href="#vjyteg"/></g></g></g><g><g><g><use fill="url(#vjytei)" xlink:href="#vjyteh"/></g><g><use fill="url(#vjytek)" xlink:href="#vjytej"/></g></g><g><use fill="url(#vjytem)" xlink:href="#vjytel"/></g><g><use fill="url(#vjyteo)" xlink:href="#vjyten"/></g><g><use fill="url(#vjyteq)" xlink:href="#vjytep"/></g><g><use fill="url(#vjytes)" xlink:href="#vjyter"/></g><g><use fill="#46ecf9" xlink:href="#vjytet"/></g><g><g><g><use fill="#8af6f9" xlink:href="#vjyteu"/></g><g><use fill="url(#vjytew)" xlink:href="#vjytev"/></g><g><use fill="#8af6f9" xlink:href="#vjytex"/></g><g><use fill="#8af6f9" xlink:href="#vjytex"/></g><g><use fill="#46ecf9" xlink:href="#vjytey"/></g><g><use fill="#8af6f9" xlink:href="#vjytez"/></g></g><g><use fill="#fff" xlink:href="#vjyteA"/></g></g><g><use fill="#0055c0" xlink:href="#vjyteB"/></g><g><g><g><use fill="url(#vjyteD)" xlink:href="#vjyteC"/></g><g><use fill="url(#vjyteF)" xlink:href="#vjyteE"/></g></g><g><use fill="url(#vjyteH)" xlink:href="#vjyteG"/></g><g><use fill="url(#vjyteJ)" xlink:href="#vjyteI"/></g><g><use fill="#46ecf9" xlink:href="#vjyteK"/></g></g></g></g></g></g></svg>