<svg id="SVGDoc" width="1170" height="133" xmlns="http://www.w3.org/2000/svg" version="1.1" xmlns:xlink="http://www.w3.org/1999/xlink" xmlns:avocode="https://avocode.com/" viewBox="0 0 1170 133"><defs><path d="M947,9259c0,-3.31371 2.68629,-6 6,-6h15.6l2.4,-3l2.4,3h14.6c3.31371,0 6,2.68629 6,6v17c0,3.31371 -2.68629,6 -6,6h-35c-3.31371,0 -6,-2.68629 -6,-6z" id="Path-0"/><path d="M135,9166c0,-3.31371 2.68629,-6 6,-6h1158c3.31371,0 6,2.68629 6,6v118c0,3.31371 -2.68629,6 -6,6h-1158c-3.31371,0 -6,-2.68629 -6,-6z" id="Path-1"/><path d="M174,9235.5c0,-2.48528 2.01472,-4.5 4.5,-4.5h1082c2.48528,0 4.5,2.01472 4.5,4.5v1c0,2.48528 -2.01472,4.5 -4.5,4.5h-1082c-2.48528,0 -4.5,-2.01472 -4.5,-4.5z" id="Path-2"/><path d="M174,9235.5c0,-2.48528 2.01472,-4.5 4.5,-4.5h791c2.48528,0 4.5,2.01472 4.5,4.5v1c0,2.48528 -2.01472,4.5 -4.5,4.5h-791c-2.48528,0 -4.5,-2.01472 -4.5,-4.5z" id="Path-3"/><path d="M959,9236c0,-6.62742 5.37258,-12 12,-12c6.62742,0 12,5.37258 12,12c0,6.62742 -5.37258,12 -12,12c-6.62742,0 -12,-5.37258 -12,-12z" id="Path-4"/><linearGradient id="LinearGradient1205" gradientUnits="userSpaceOnUse" x1="950.453125" y1="9248" x2="988.0803571428571" y2="9227.544642857143"><stop stop-opacity="1" stop-color="#ff6268" offset="0"></stop><stop stop-opacity="1" stop-color="#ffa34e" offset="1"></stop></linearGradient><mask id="Mask1219" x="-1" y="-1" width="2" height="2"><rect width="47" height="32" x="947" y="9250" fill="#ffffff"></rect><use xlink:href="#Path-0" fill="#000000"/></mask><filter id="Filter1223" width="85" height="72" x="928" y="9240" filterUnits="userSpaceOnUse"><feOffset dx="0" dy="2" result="FeOffset1224Out" in="SourceGraphic"></feOffset><feGaussianBlur stdDeviation="3.6 3.6" result="FeGaussianBlur1225Out" in="FeOffset1224Out"></feGaussianBlur></filter></defs><desc>Generated with Avocode.</desc><g transform="matrix(1,0,0,1,-135,-9160)"><g><title>progress</title><g><title>Rectangle 18</title><use xlink:href="#Path-1" fill="#f8f8f8" fill-opacity="1"/></g><g><title>Automation Treshold</title><g style="fill: #3c4667; fill-opacity: 1; font-size: 20px; font-family: 'Montserrat', 'Montserrat-SemiBold'" transform="matrix(1,0,0,1,173.5,9187)"><text font-family="Helvetica, Arial, sans-serif" dominant-baseline="text-before-edge" ><tspan style="letter-spacing: 0.1px">Automation Treshold</tspan></text></g></g><g><title>Rectangle 20</title><use xlink:href="#Path-2" fill="#e8e8e8" fill-opacity="1"/></g><g><title>Rectangle 20 Copy 2</title><use xlink:href="#Path-3" fill="#3d87f1" fill-opacity="1"/></g><g><title>Oval 13</title><use xlink:href="#Path-4" fill="url(#LinearGradient1205)"/></g><g><title>Group 11</title><g><title>Combined Shape</title><g filter="url(#Filter1223)"><use xlink:href="#Path-0" fill="none" stroke-opacity="1" stroke-width="0" mask="url(&quot;#Mask1219&quot;)"/><use xlink:href="#Path-0" fill="#ffb088" fill-opacity="1"/></g><use xlink:href="#Path-0" fill="#ff8f56" fill-opacity="1"/></g><g><title>70%</title><g style="fill: #ffffff; fill-opacity: 1; font-size: 14px; font-family: 'Montserrat', 'Montserrat-SemiBold'" transform="matrix(1,0,0,1,954,9259)"><text font-family="Helvetica, Arial, sans-serif" dominant-baseline="text-before-edge" ><tspan style="letter-spacing: 0.07px">70%</tspan></text></g></g></g></g></g></svg>